<svg width="1024" height="768" viewBox="0 0 1024 768" fill="none" xmlns="http://www.w3.org/2000/svg">
<g clip-path="url(#clip0_3_2)">
<path d="M766.3 565.6L246.3 550.7C234.608 550.375 223.436 545.799 214.876 537.828C206.316 529.857 200.956 519.039 199.8 507.4L174.7 259.4C174.032 252.762 174.75 246.057 176.808 239.71C178.866 233.364 182.22 227.514 186.658 222.532C191.095 217.549 196.518 213.542 202.585 210.766C208.652 207.989 215.229 206.502 221.9 206.4L800.7 198.4C807.583 198.307 814.406 199.689 820.71 202.453C827.014 205.217 832.654 209.299 837.249 214.424C841.843 219.55 845.287 225.6 847.349 232.168C849.41 238.735 850.042 245.668 849.2 252.5L815.5 523.4C813.998 535.285 808.13 546.187 799.037 553.987C789.944 561.786 778.275 565.925 766.3 565.6V565.6Z" fill="#EAF9F3"/>
<path d="M619.3 691.9H1034.8C1038.78 691.9 1042.59 690.32 1045.41 687.507C1048.22 684.694 1049.8 680.878 1049.8 676.9V441.2C1049.8 437.222 1048.22 433.406 1045.41 430.593C1042.59 427.78 1038.78 426.2 1034.8 426.2H619.3C615.322 426.2 611.506 427.78 608.693 430.593C605.88 433.406 604.3 437.222 604.3 441.2V676.8C604.292 680.79 605.867 684.62 608.679 687.451C611.49 690.281 615.31 691.881 619.3 691.9V691.9Z" stroke="#B8D8C7" stroke-width="1.8" stroke-linecap="round" stroke-linejoin="round"/>
<path d="M114.7 629.3H533.8C537.778 629.3 541.594 627.72 544.407 624.907C547.22 622.094 548.8 618.278 548.8 614.3V270C548.8 266.022 547.22 262.206 544.407 259.393C541.594 256.58 537.778 255 533.8 255H114.7C110.722 255 106.906 256.58 104.093 259.393C101.28 262.206 99.7 266.022 99.7 270V614.3C99.7 618.278 101.28 622.094 104.093 624.907C106.906 627.72 110.722 629.3 114.7 629.3Z" stroke="#B8D8C7" stroke-width="1.8" stroke-linecap="round" stroke-linejoin="round"/>
<path d="M277.8 359.9H298.1C299.158 359.903 300.18 359.518 300.972 358.817C301.765 358.117 302.273 357.15 302.4 356.1L304 341.7C304.066 341.096 304.004 340.484 303.818 339.906C303.632 339.327 303.326 338.794 302.921 338.341C302.515 337.888 302.019 337.526 301.464 337.277C300.909 337.029 300.308 336.901 299.7 336.9H276.2C275.593 336.902 274.992 337.032 274.438 337.281C273.884 337.529 273.388 337.892 272.983 338.344C272.578 338.797 272.272 339.329 272.085 339.907C271.899 340.485 271.836 341.096 271.9 341.7L273.5 356.1C273.661 357.136 274.178 358.083 274.964 358.777C275.749 359.471 276.752 359.868 277.8 359.9V359.9Z" stroke="#B8D8C7" stroke-width="1.8" stroke-linecap="round" stroke-linejoin="round"/>
<path d="M290.4 336.9C290.4 336.9 298.4 336.1 300 325.3C300 325.3 292.8 327.4 290.5 332.5C290.5 332.5 289.5 321.1 284.1 320C284.1 320 281.7 328.5 285.5 332.7C285.5 332.7 282.6 327.9 275.2 328C275.899 330.106 277.103 332.009 278.707 333.543C280.31 335.077 282.265 336.195 284.4 336.8" fill="#B8D8C7"/>
<path d="M622.5 475.9H712.7C713.812 475.892 714.875 475.447 715.661 474.661C716.447 473.875 716.892 472.811 716.9 471.7V444.3C716.892 443.188 716.447 442.125 715.661 441.339C714.875 440.553 713.812 440.108 712.7 440.1H622.5C621.389 440.108 620.325 440.553 619.539 441.339C618.753 442.125 618.308 443.188 618.3 444.3V471.7C618.286 472.255 618.386 472.808 618.592 473.323C618.798 473.839 619.107 474.308 619.5 474.7C619.892 475.093 620.361 475.402 620.877 475.608C621.392 475.814 621.945 475.914 622.5 475.9V475.9Z" stroke="#B8D8C7" stroke-width="1.8" stroke-linecap="round" stroke-linejoin="round"/>
<path d="M657.2 449.8H678C678.395 449.79 678.77 449.629 679.049 449.349C679.329 449.07 679.49 448.695 679.5 448.3V448.3C679.49 447.905 679.329 447.53 679.049 447.251C678.77 446.971 678.395 446.81 678 446.8H657.2C656.805 446.81 656.43 446.971 656.151 447.251C655.871 447.53 655.71 447.905 655.7 448.3V448.3C655.71 448.695 655.871 449.07 656.151 449.349C656.43 449.629 656.805 449.79 657.2 449.8V449.8Z" fill="#B8D8C7"/>
<path d="M622.5 521.7H712.7C713.812 521.692 714.875 521.247 715.661 520.461C716.447 519.675 716.892 518.612 716.9 517.5V490.1C716.892 488.989 716.447 487.925 715.661 487.139C714.875 486.353 713.812 485.908 712.7 485.9H622.5C621.389 485.908 620.325 486.353 619.539 487.139C618.753 487.925 618.308 488.989 618.3 490.1V517.5C618.286 518.055 618.386 518.608 618.592 519.123C618.798 519.639 619.107 520.108 619.5 520.5C619.892 520.893 620.361 521.202 620.877 521.408C621.392 521.615 621.945 521.714 622.5 521.7Z" stroke="#B8D8C7" stroke-width="1.8" stroke-linecap="round" stroke-linejoin="round"/>
<path d="M657.2 495.6H678C678.395 495.59 678.77 495.429 679.049 495.149C679.329 494.87 679.49 494.495 679.5 494.1C679.49 493.705 679.329 493.33 679.049 493.051C678.77 492.771 678.395 492.61 678 492.6H657.2C656.805 492.61 656.43 492.771 656.151 493.051C655.871 493.33 655.71 493.705 655.7 494.1V494.1C655.71 494.495 655.871 494.87 656.151 495.149C656.43 495.429 656.805 495.59 657.2 495.6V495.6Z" fill="#B8D8C7"/>
<path d="M203.8 507.4H294C295.111 507.392 296.175 506.947 296.961 506.161C297.747 505.375 298.192 504.311 298.2 503.2V475.8C298.192 474.688 297.747 473.625 296.961 472.839C296.175 472.053 295.111 471.608 294 471.6H203.8C202.689 471.608 201.625 472.053 200.839 472.839C200.053 473.625 199.608 474.688 199.6 475.8V503.2C199.586 503.755 199.686 504.308 199.892 504.823C200.098 505.339 200.407 505.808 200.8 506.2C201.192 506.593 201.661 506.902 202.177 507.108C202.692 507.314 203.245 507.414 203.8 507.4V507.4Z" stroke="#B8D8C7" stroke-width="1.8" stroke-linecap="round" stroke-linejoin="round"/>
<path d="M238.5 481.2H259.3C259.695 481.19 260.07 481.029 260.349 480.749C260.629 480.47 260.79 480.095 260.8 479.7V479.7C260.79 479.305 260.629 478.93 260.349 478.651C260.07 478.371 259.695 478.21 259.3 478.2H238.5C238.105 478.21 237.73 478.371 237.45 478.651C237.171 478.93 237.01 479.305 237 479.7V479.7C236.996 479.898 237.032 480.095 237.106 480.279C237.18 480.463 237.29 480.63 237.43 480.77C237.57 480.91 237.737 481.02 237.921 481.094C238.105 481.168 238.302 481.204 238.5 481.2V481.2Z" fill="#B8D8C7"/>
<path d="M319.6 507.4H409.8C410.911 507.392 411.975 506.947 412.761 506.161C413.547 505.375 413.992 504.311 414 503.2V475.8C413.992 474.688 413.547 473.625 412.761 472.839C411.975 472.053 410.911 471.608 409.8 471.6H319.6C318.488 471.608 317.425 472.053 316.639 472.839C315.853 473.625 315.408 474.688 315.4 475.8V503.2C315.386 503.755 315.485 504.308 315.692 504.823C315.898 505.339 316.207 505.808 316.6 506.2C316.992 506.593 317.461 506.902 317.977 507.108C318.492 507.314 319.045 507.414 319.6 507.4Z" stroke="#B8D8C7" stroke-width="1.8" stroke-linecap="round" stroke-linejoin="round"/>
<path d="M354.3 481.2H375.1C375.495 481.19 375.87 481.029 376.149 480.749C376.429 480.47 376.59 480.095 376.6 479.7V479.7C376.59 479.305 376.429 478.93 376.149 478.651C375.87 478.371 375.495 478.21 375.1 478.2H354.3C353.905 478.21 353.53 478.371 353.251 478.651C352.971 478.93 352.81 479.305 352.8 479.7V479.7C352.796 479.898 352.832 480.095 352.906 480.279C352.98 480.463 353.09 480.63 353.23 480.77C353.37 480.91 353.537 481.02 353.721 481.094C353.905 481.168 354.102 481.204 354.3 481.2Z" fill="#B8D8C7"/>
<path d="M737.4 475.9H827.6C828.711 475.892 829.775 475.447 830.561 474.661C831.347 473.875 831.792 472.811 831.8 471.7V444.3C831.792 443.188 831.347 442.125 830.561 441.339C829.775 440.553 828.711 440.108 827.6 440.1H737.4C736.289 440.108 735.225 440.553 734.439 441.339C733.653 442.125 733.208 443.188 733.2 444.3V471.7C733.208 472.811 733.653 473.875 734.439 474.661C735.225 475.447 736.289 475.892 737.4 475.9V475.9Z" stroke="#B8D8C7" stroke-width="1.8" stroke-linecap="round" stroke-linejoin="round"/>
<path d="M772.2 449.8H793C793.395 449.79 793.77 449.629 794.049 449.349C794.329 449.07 794.49 448.695 794.5 448.3V448.3C794.49 447.905 794.329 447.53 794.049 447.251C793.77 446.971 793.395 446.81 793 446.8H772.2C771.805 446.81 771.43 446.971 771.151 447.251C770.871 447.53 770.71 447.905 770.7 448.3C770.696 448.498 770.732 448.695 770.806 448.879C770.88 449.063 770.99 449.23 771.13 449.37C771.27 449.51 771.437 449.62 771.621 449.694C771.805 449.768 772.002 449.804 772.2 449.8V449.8Z" fill="#B8D8C7"/>
<path d="M737.4 521.7H827.6C828.711 521.692 829.775 521.247 830.561 520.461C831.347 519.675 831.792 518.612 831.8 517.5V490.1C831.792 488.989 831.347 487.925 830.561 487.139C829.775 486.353 828.711 485.908 827.6 485.9H737.4C736.289 485.908 735.225 486.353 734.439 487.139C733.653 487.925 733.208 488.989 733.2 490.1V517.5C733.208 518.612 733.653 519.675 734.439 520.461C735.225 521.247 736.289 521.692 737.4 521.7V521.7Z" stroke="#B8D8C7" stroke-width="1.8" stroke-linecap="round" stroke-linejoin="round"/>
<path d="M772.2 495.6H793C793.395 495.59 793.77 495.429 794.049 495.149C794.329 494.87 794.49 494.495 794.5 494.1V494.1C794.49 493.705 794.329 493.33 794.049 493.051C793.77 492.771 793.395 492.61 793 492.6H772.2C771.805 492.61 771.43 492.771 771.151 493.051C770.871 493.33 770.71 493.705 770.7 494.1V494.1C770.696 494.298 770.732 494.495 770.806 494.679C770.88 494.863 770.99 495.03 771.13 495.17C771.27 495.31 771.437 495.42 771.621 495.494C771.805 495.568 772.002 495.604 772.2 495.6V495.6Z" fill="#B8D8C7"/>
<path d="M72.4 359.9H527.4C528.616 359.887 529.779 359.398 530.638 358.538C531.498 357.678 531.987 356.516 532 355.3V275.6C531.987 274.384 531.498 273.222 530.638 272.362C529.779 271.502 528.616 271.013 527.4 271H72.4C71.1841 271.013 70.0216 271.502 69.1617 272.362C68.3019 273.222 67.8131 274.384 67.8 275.6V355.3C67.8131 356.516 68.3019 357.678 69.1617 358.538C70.0216 359.398 71.1841 359.887 72.4 359.9V359.9Z" stroke="#B8D8C7" stroke-width="1.8" stroke-linecap="round" stroke-linejoin="round"/>
<path d="M72.4 458.8H527.4C528.616 458.787 529.779 458.298 530.638 457.438C531.498 456.578 531.987 455.416 532 454.2V374.5C531.987 373.284 531.498 372.122 530.638 371.262C529.779 370.402 528.616 369.913 527.4 369.9H72.4C71.1841 369.913 70.0216 370.402 69.1617 371.262C68.3019 372.122 67.8131 373.284 67.8 374.5V454.2C67.8131 455.416 68.3019 456.578 69.1617 457.438C70.0216 458.298 71.1841 458.787 72.4 458.8V458.8Z" stroke="#B8D8C7" stroke-width="1.8" stroke-linecap="round" stroke-linejoin="round"/>
<path d="M501.38 309.6H491.48V359.9H501.38V309.6Z" stroke="#B8D8C7" stroke-width="1.8" stroke-linecap="round" stroke-linejoin="round"/>
<path d="M491.54 323.21H481.24V359.81H491.54V323.21Z" stroke="#B8D8C7" stroke-width="1.8" stroke-linecap="round" stroke-linejoin="round"/>
<path d="M203 408.34H193.1V458.64H203V408.34Z" stroke="#B8D8C7" stroke-width="1.8" stroke-linecap="round" stroke-linejoin="round"/>
<path d="M193.16 422.05H182.86V458.65H193.16V422.05Z" stroke="#B8D8C7" stroke-width="1.8" stroke-linecap="round" stroke-linejoin="round"/>
<path d="M223.19 408.34H213.29V458.64H223.19V408.34Z" stroke="#B8D8C7" stroke-width="1.8" stroke-linecap="round" stroke-linejoin="round"/>
<path d="M232.464 407.286L223.023 410.266L238.165 458.233L247.606 455.253L232.464 407.286Z" stroke="#B8D8C7" stroke-width="1.8" stroke-linecap="round" stroke-linejoin="round"/>
<path d="M213.34 422.05H203.04V458.65H213.34V422.05Z" stroke="#B8D8C7" stroke-width="1.8" stroke-linecap="round" stroke-linejoin="round"/>
<path d="M336.58 309.6H326.68V359.9H336.58V309.6Z" stroke="#B8D8C7" stroke-width="1.8" stroke-linecap="round" stroke-linejoin="round"/>
<path d="M326.73 323.21H316.43V359.81H326.73V323.21Z" stroke="#B8D8C7" stroke-width="1.8" stroke-linecap="round" stroke-linejoin="round"/>
<path d="M434.3 309.6H424.4V359.9H434.3V309.6Z" stroke="#B8D8C7" stroke-width="1.8" stroke-linecap="round" stroke-linejoin="round"/>
<path d="M443.592 308.478L434.151 311.458L449.294 359.425L458.734 356.445L443.592 308.478Z" stroke="#B8D8C7" stroke-width="1.8" stroke-linecap="round" stroke-linejoin="round"/>
<path d="M424.46 323.21H414.16V359.81H424.46V323.21Z" stroke="#B8D8C7" stroke-width="1.8" stroke-linecap="round" stroke-linejoin="round"/>
<path d="M193.3 316.1L192.2 301.2C192.179 300.967 192.207 300.732 192.284 300.51C192.36 300.289 192.483 300.086 192.644 299.916C192.804 299.746 193 299.612 193.216 299.523C193.433 299.434 193.666 299.392 193.9 299.4H202.5C202.731 299.401 202.96 299.449 203.173 299.541C203.385 299.633 203.577 299.768 203.736 299.936C203.895 300.104 204.018 300.303 204.097 300.52C204.177 300.738 204.212 300.969 204.2 301.2L203.1 316.1C203.1 316.1 212.1 321.9 212 326.7C211.9 330.4 209.7 348.1 208.7 355.9C208.573 356.95 208.065 357.917 207.272 358.617C206.48 359.318 205.458 359.703 204.4 359.7H192C190.942 359.703 189.92 359.318 189.128 358.617C188.335 357.917 187.827 356.95 187.7 355.9C186.7 348.1 184.5 330.4 184.4 326.7C184.3 321.9 193.3 316.1 193.3 316.1Z" fill="#B8D8C7"/>
<path d="M854.3 540.6L-102.9 531.1" stroke="#B8D8C7" stroke-width="1.8" stroke-linecap="round" stroke-linejoin="round"/>
<path d="M501.4 396L481.9 551.8C481.849 552.199 481.883 552.604 482 552.988C482.118 553.373 482.315 553.728 482.58 554.03C482.844 554.333 483.17 554.576 483.536 554.743C483.901 554.91 484.298 554.998 484.7 555V555C485.378 555.007 486.036 554.767 486.551 554.326C487.066 553.885 487.403 553.271 487.5 552.6L509.8 399.9L501.4 396Z" fill="#B0D7C0"/>
<path d="M562 418.3L581.5 574.1C581.551 574.499 581.517 574.904 581.4 575.288C581.282 575.673 581.085 576.028 580.82 576.33C580.556 576.633 580.23 576.876 579.864 577.043C579.499 577.21 579.102 577.298 578.7 577.3C578.022 577.307 577.364 577.067 576.849 576.626C576.334 576.185 575.997 575.571 575.9 574.9L553.6 422.2L562 418.3Z" fill="#B0D7C0"/>
<path d="M467.4 412.2L441.2 567C441.136 567.398 441.157 567.805 441.262 568.194C441.367 568.583 441.553 568.945 441.808 569.257C442.063 569.569 442.382 569.823 442.742 570.003C443.103 570.183 443.497 570.284 443.9 570.3V570.3C444.581 570.335 445.25 570.121 445.784 569.698C446.318 569.274 446.679 568.671 446.8 568L475.7 416.4L467.4 412.2Z" fill="#B0D7C0"/>
<path d="M540.8 396.7L555.2 553C555.238 553.397 555.359 553.781 555.556 554.127C555.752 554.474 556.02 554.775 556.341 555.011C556.662 555.247 557.029 555.412 557.418 555.497C557.807 555.581 558.21 555.582 558.6 555.5V555.5C559.253 555.36 559.834 554.99 560.238 554.458C560.642 553.926 560.841 553.267 560.8 552.6L549.9 398.6L540.8 396.7Z" fill="#B0D7C0"/>
<path d="M582.5 257.6C571.6 255.8 535.5 382.2 535.5 382.2H570.2C570.2 382.2 553.2 402.5 552.6 404.4C552 406.3 545.8 432 545.8 432C587.3 418.8 578.1 382.1 578.1 382.1C569.2 354.6 581.6 319.4 586.9 290.3C592.2 261.2 582.5 257.6 582.5 257.6Z" fill="#F8DA30"/>
<path d="M453.9 425.3C453.9 425.3 454.8 439 490.5 441C526.2 443 572.2 439.5 578.2 399C578.3 399 461.1 413.9 453.9 425.3Z" fill="#F8DA30"/>
<path d="M569.4 379.4C559.7 344 597.2 264.9 582.6 257.5C567.6 250 510 253.1 494.5 266.5C480 279.1 473.4 372.5 472.6 384.3C472.517 384.694 472.484 385.097 472.5 385.5C472.5 392.5 471.5 404.3 466.4 408C456.5 415.2 440.2 426.1 471.4 434.1C471.4 434.1 484.9 437.2 523.4 435.6C575.5 433.4 570.3 401.3 570.2 382.1C570.168 381.147 569.892 380.217 569.4 379.4Z" fill="white"/>
<path d="M430.2 559C430.2 559 434.6 580 435.6 581.7C436.6 583.4 444.1 587.1 454.3 584.1C464.5 581.1 464.8 577.3 464.8 577.3C464.8 577.3 462.8 553.2 462.8 550.5C462.8 547.8 428.5 543 430.2 559Z" fill="#B28D93"/>
<path d="M463.8 565.8C463.3 559.2 462.7 551.9 462.7 550.5C462.7 547.8 428.4 543 430.1 559C430.1 559 430.8 562.2 431.6 566.2C442.161 569.072 453.314 568.933 463.8 565.8V565.8Z" fill="#896068"/>
<path d="M434.5 578.1C434.5 578.1 433.3 580 433.3 589.9C433.3 599.8 418.3 622.2 419.3 628.3C420.3 634.4 462.5 635.9 466.3 631.4C470.1 626.9 466.1 593.7 466.4 590.2C466.7 586.7 468 580.1 464.6 575.9C464.6 575.9 461.1 579.4 458.3 580C455.5 580.6 452.9 574.9 447.4 573.9C441.9 572.9 438.3 579.4 437.7 580C437.1 580.6 434.7 579.8 434.5 578.1Z" fill="#22272E"/>
<path d="M436.3 601.5C436.3 601.5 444.8 595.6 458.3 602.3" stroke="white" stroke-width="1.8" stroke-linecap="round" stroke-linejoin="round"/>
<path d="M433 610.9C433 610.9 444.8 602.6 458.4 612.6" stroke="white" stroke-width="1.8" stroke-linecap="round" stroke-linejoin="round"/>
<path d="M538.9 570.4C538.9 570.4 545.7 589.4 549.4 592.8C553.1 596.2 563 596.5 569.8 592.8C576.6 589.1 576.3 583.5 576.3 583.5C576.3 583.5 570.4 552.4 569.1 551.6C567.8 550.8 538.9 561.3 538.9 570.4Z" fill="#B28D93"/>
<path d="M538.9 570.4C538.9 570.4 540.6 575.1 542.7 580.3C554.3 582.3 564.4 578.4 574.2 572.8C572.4 563.7 569.9 552.1 569.1 551.6C567.7 550.7 538.9 561.3 538.9 570.4Z" fill="#896068"/>
<path d="M546.3 587.5C546.3 587.5 545.4 587.8 548 596.2C549.3 600.7 534.9 623.8 535.2 629.5C535.5 635.2 547.5 636.2 557 636.5C571.5 636.9 581 634 581.8 624.7C582.6 615.4 580.1 597.3 580.1 593.3C580.1 589.3 578.8 584.7 575.5 579.3C575.5 579.3 575.8 586.8 572.8 588.2C569.8 589.6 564.2 584.2 559.9 585.3C555.6 586.4 553.8 589.7 552 591.6C550.2 593.5 546.8 588.6 546.3 587.5Z" fill="#22272E"/>
<path d="M550.7 606.9C550.7 606.9 558.5 599.1 572.2 605.1" stroke="white" stroke-width="1.8" stroke-linecap="round" stroke-linejoin="round"/>
<path d="M546.4 615.8C546.4 615.8 558.7 605.6 572.1 615" stroke="white" stroke-width="1.8" stroke-linecap="round" stroke-linejoin="round"/>
<path d="M468.7 380.1C468.7 380.1 422.8 405.4 410.7 428.6C398.6 451.8 417.5 525.7 417.2 541.3C416.9 556.9 418.9 559.2 427.6 562.5C436.3 565.8 455.2 565.1 463.1 559.2C473.3 551.6 468.6 537.7 466.3 520.9C464 504.1 462.9 454.5 462.9 454.5C462.9 454.5 484.5 437 495.1 431.8C497.136 430.817 499.344 430.24 501.6 430.1C502.352 430.052 503.105 430.186 503.795 430.491C504.485 430.795 505.091 431.262 505.562 431.851C506.033 432.439 506.355 433.133 506.501 433.873C506.647 434.612 506.612 435.376 506.4 436.1C503.8 445.3 500.1 468.4 501.6 479C503 488.9 509.9 513.4 523.4 554.9C526.1 563.1 527 569.7 530.3 572.5C544.2 584.2 574.4 571.7 577.6 560.8C578.9 556.3 575.6 541 571.3 524.3C565.2 500.4 557 473.6 557.6 470.7C558.6 465.8 571.5 420.8 568.1 400.6C559.9 351.7 522 371.4 468.7 380.1Z" fill="#22272E"/>
<path d="M425.1 459.2C433.44 459.2 440.2 451.813 440.2 442.7C440.2 433.587 433.44 426.2 425.1 426.2C416.761 426.2 410 433.587 410 442.7C410 451.813 416.761 459.2 425.1 459.2Z" stroke="#63737A" stroke-width="1.8" stroke-linecap="round" stroke-linejoin="round"/>
<path d="M525.209 495.616C533.745 494.443 539.652 486.128 538.403 477.046C537.154 467.964 529.222 461.552 520.686 462.726C512.151 463.9 506.244 472.214 507.493 481.296C508.742 490.379 516.674 496.79 525.209 495.616Z" stroke="#63737A" stroke-width="1.8" stroke-linecap="round" stroke-linejoin="round"/>
<path d="M462.9 454.5C462.9 454.5 462.3 448.3 460.4 445" stroke="#63737A" stroke-width="1.8" stroke-linecap="round" stroke-linejoin="round"/>
<path d="M502.9 429.8C502.9 429.8 504 422.9 502.2 420.9" stroke="#63737A" stroke-width="1.8" stroke-linecap="round" stroke-linejoin="round"/>
<path d="M490.5 421.7C490.5 421.7 497.9 421.1 513.9 421.7" stroke="#63737A" stroke-width="1.8" stroke-linecap="round" stroke-linejoin="round"/>
<path d="M474.6 278.4C474.6 278.4 468.8 280.5 459.8 294.1C454.867 301.622 449.35 308.744 443.3 315.4C443.3 315.4 433 304.1 422.2 296.9C411.4 289.7 399.1 278.4 399.1 278.4C399.1 278.4 391 274 385.9 280C380.8 286 383.4 294.7 383.4 294.7C383.4 294.7 395.5 311.1 413.3 332.5C424.9 346.5 436.7 356.5 446.6 353.4C459.8 349.3 485.8 325.7 490.3 316.3C494.8 306.9 491.4 275 474.6 278.4Z" fill="#6DAFA7"/>
<path d="M443.2 315.4C445.517 318.374 447.31 321.722 448.5 325.3" stroke="#22272E" stroke-width="1.8" stroke-linecap="round" stroke-linejoin="round"/>
<path d="M399.5 278.9C399.5 278.9 391.5 272.3 385.8 272.9C378.4 273.7 378.5 272 373.8 273C371.6 273.5 367.6 275.1 363.4 280.3C361.303 282.785 359.397 285.426 357.7 288.2C357.7 288.2 353.3 278.8 350.6 280.3C347.9 281.8 354.3 296.2 356.5 297.7C358.7 299.2 365.2 296.6 367.5 297.7C369.8 298.8 376 296.8 376 296.8L384.5 294.7L386.7 297.1C387.049 297.475 387.499 297.74 387.996 297.865C388.493 297.989 389.016 297.966 389.5 297.8C392.901 296.418 395.627 293.763 397.1 290.4C400.6 283.1 399.5 278.9 399.5 278.9Z" fill="#B28D93"/>
<path d="M357.7 288.2C357.7 288.2 353.3 278.8 350.6 280.3C347.9 281.8 354.3 296.2 356.5 297.7C358.7 299.2 365.2 296.6 367.5 297.7" stroke="#89555F" stroke-width="1.8" stroke-linecap="round" stroke-linejoin="round"/>
<path d="M389.2 285.3C389.2 285.3 386.3 292.9 382.7 297.8C379.1 302.7 373.7 302.9 371.3 301.3C368.9 299.7 372.1 288.7 372.8 286C373.5 283.3 375.7 280.8 377.1 283.8C378.2 286.1 376.6 291.6 376.9 296" fill="#B28D93"/>
<path d="M372.6 300.4C372.6 300.4 369.5 302.3 367.7 301.7C365.9 301.1 364.8 299.8 364.5 297.1C364.2 294.4 365.2 286.3 365.1 284.2C365 282.1 368.3 280.4 369.7 285.2C371.1 290 370.4 294.2 371.3 295.2" fill="#B28D93"/>
<path d="M365.8 299C364.326 299.735 362.736 300.208 361.1 300.4C358.7 300.6 357.6 299 356.8 294.1C355.9 288.2 355.2 282.2 357.3 281.9C359.4 281.6 360.5 284.8 361.3 288.1C362.1 291.4 362.6 293.5 363.1 293.6" fill="#B28D93"/>
<path d="M374.8 272.9C374.8 272.9 369.1 273.3 367 273.3C364.9 273.3 359.4 271.9 358.2 273.6C357 275.3 360.4 278.4 366.5 279.2C372.6 280 378.5 275.2 374.8 272.9Z" fill="#B28D93"/>
<path d="M389.2 302.4C389.2 302.4 397.1 305 402.6 297.1C407.5 290.1 405.6 284.1 405.6 284.1" stroke="#22272E" stroke-width="1.8" stroke-linecap="round" stroke-linejoin="round"/>
<path d="M430.6 349.4C430.6 349.4 428.7 347.1 433.6 345.7C438.5 344.3 457.6 343.5 455.3 349" stroke="#22272E" stroke-width="1.8" stroke-linecap="round" stroke-linejoin="round"/>
<path d="M389.2 285.3C389.2 285.3 386.3 292.9 382.7 297.8C379.1 302.7 373.7 302.9 371.3 301.3C368.9 299.7 372.1 288.7 372.8 286C373.5 283.3 375.7 280.8 377.1 283.8C378.2 286.1 376.6 291.6 376.9 296" stroke="#89555F" stroke-width="1.8" stroke-linecap="round" stroke-linejoin="round"/>
<path d="M370.7 301.3C369.774 301.768 368.716 301.909 367.7 301.7C365.9 301.1 364.8 299.8 364.5 297.1C364.2 294.4 365.2 286.3 365.1 284.2C365 282.1 368.3 280.4 369.7 285.2C370.7 288.8 370.6 291.9 370.9 293.8" stroke="#89555F" stroke-width="1.8" stroke-linecap="round" stroke-linejoin="round"/>
<path d="M365 299.3C363.768 299.858 362.448 300.197 361.1 300.3C358.7 300.5 357.6 298.9 356.8 294C355.9 288.1 355.2 282.1 357.3 281.8C359.4 281.5 360.5 284.7 361.3 288C362.1 291.3 362.6 293.4 363.1 293.5" stroke="#89555F" stroke-width="1.8" stroke-linecap="round" stroke-linejoin="round"/>
<path d="M364.7 279C366.398 277.302 368.276 275.793 370.3 274.5" stroke="#89555F" stroke-width="1.8" stroke-linecap="round" stroke-linejoin="round"/>
<path d="M485.6 225.1C485.5 223.294 485.601 221.483 485.9 219.7C486.7 215.5 488.8 206.7 492.3 203.8C497.5 199.5 500.3 205.9 500.3 205.9C500.3 205.9 503.9 201.2 507.3 201.7C510.7 202.2 512.5 206.2 512.5 206.2C512.5 206.2 518 201.7 521.3 203.9C523.307 205.223 524.791 207.203 525.5 209.5C525.5 209.5 529 205.5 532.7 207.1C536.4 208.7 537.1 218.2 537.1 218.2C537.1 218.2 540.8 220.3 541.6 227.6C542.5 235.4 538.7 246.9 530.9 260.1C530.9 260.1 514.8 231.1 504.6 227C494.4 222.9 494.5 230.5 491.3 230.7C488.5 230.8 486.1 230.5 485.6 225.1Z" fill="#22272E"/>
<path d="M487.6 279.2C487.6 279.2 475.1 280.7 489.7 267.5C502.3 256.1 544.3 259.3 549.7 269.1C553.7 276.4 558.8 295.9 541.8 307.6C524.8 319.3 495.2 306.9 487.6 279.2Z" fill="#6DAFA7"/>
<path d="M511.6 275.5C511.6 275.5 523.3 275 533.1 274.6C542.9 274.2 557.2 274.4 565.1 285.2C574.2 297.5 560.5 339.9 558.5 350.7C556.5 361.5 564.2 374.5 563.8 383.4C563.6 388.5 557.2 401.9 528.8 404.4C496.7 407.3 468.4 400.7 465.3 382.2C463.2 369.8 471.4 361.1 468.6 340.9C467.1 330.3 465.2 296 468.8 286.3C472.4 276.6 478.4 273.4 511.6 275.5Z" fill="#F8DA30"/>
<path d="M499.6 265.7C499.6 265.7 498.2 276.8 497.6 279.7C497 282.6 498.6 290.8 510.2 290.7C522.7 290.6 530.5 280.6 530.8 276.6C531.1 272.6 530.1 253.3 531.8 246.9C533.5 240.5 517.5 244.2 510.6 248.2C503.7 252.2 498.9 262.4 499.6 265.7Z" fill="#B28D93"/>
<path d="M520.3 264.8C513.8 266.3 505.8 271.9 498.9 270.8C498.7 272.5 498.4 274.3 498.2 275.9C507.4 277.4 516.1 271.6 520.3 264.8Z" fill="#896068"/>
<path d="M498.6 273.2C498.6 273.2 497 284.7 506.7 290.4C506.7 290.4 517.9 289.4 526.1 281.4C527.613 279.895 528.809 278.102 529.616 276.127C530.424 274.151 530.826 272.034 530.8 269.9V269C530.8 269 546.5 269.2 551 273.9C559.6 282.9 524.3 297.2 505.1 300.2C505.1 300.2 487.3 290.3 483.1 280.2C478.9 270.1 497.2 273.6 498.6 273.2Z" fill="#6DAFA7"/>
<path d="M501.8 293.9C498.774 303.418 496.829 313.247 496 323.2" stroke="#22272E" stroke-width="1.8" stroke-linecap="round" stroke-linejoin="round"/>
<path d="M498.3 324.4C498.4 323.1 497.7 319.1 496.4 319C495.1 318.9 493.6 322.7 493.5 324C493.455 324.635 493.66 325.262 494.071 325.747C494.482 326.233 495.067 326.539 495.7 326.6C496.018 326.64 496.34 326.614 496.648 326.523C496.955 326.433 497.239 326.279 497.484 326.072C497.728 325.865 497.927 325.61 498.068 325.322C498.208 325.034 498.287 324.72 498.3 324.4V324.4Z" fill="#6DAFA7"/>
<path d="M513.5 294.2C512.728 304.143 513.097 314.141 514.6 324" stroke="#22272E" stroke-width="1.8" stroke-linecap="round" stroke-linejoin="round"/>
<path d="M517.2 324.8C517 323.5 515.4 319.8 514.1 320C512.8 320.2 512.2 324.2 512.4 325.5C512.497 326.148 512.845 326.732 513.369 327.125C513.893 327.518 514.551 327.689 515.2 327.6C515.825 327.472 516.378 327.112 516.749 326.592C517.12 326.073 517.281 325.433 517.2 324.8Z" fill="#6DAFA7"/>
<path d="M477 369.8C480.225 364.598 482.305 358.769 483.1 352.7C483.194 351.759 483.657 350.893 484.388 350.293C485.119 349.693 486.059 349.408 487 349.5C494.4 350.3 510.9 351.8 523.3 350.7C523.773 350.658 524.25 350.71 524.703 350.853C525.157 350.996 525.577 351.228 525.94 351.535C526.302 351.842 526.601 352.218 526.817 352.641C527.033 353.064 527.164 353.526 527.2 354C527.6 358.3 529.5 365.6 536.9 372.7C537.509 373.202 537.902 373.917 538 374.7C538.965 379.606 539.401 384.601 539.3 389.6C538.9 396.5 492.5 401.2 476.5 387C476.117 386.642 475.812 386.208 475.605 385.726C475.399 385.244 475.295 384.724 475.3 384.2C475.4 381.5 475.8 375.9 476.5 371.3C476.574 370.774 476.744 370.265 477 369.8V369.8Z" fill="#6DAFA7"/>
<path d="M486.5 229.8C486.5 229.8 486.3 239.6 485.4 248C484.5 256.4 485.4 267.6 498.9 271.1C512.4 274.6 525.5 264.4 530.4 251C535.3 237.6 535.5 219.5 518.3 212.4C501.1 205.3 487.3 214.2 486.5 229.8Z" fill="#B28D93"/>
<path d="M536.8 238.4C535.5 244.7 534.6 248.1 534.6 248.1L530.4 243.7C530.4 243.7 523.2 242.7 522.2 229.8C522.126 228.715 521.775 227.666 521.179 226.756C520.584 225.845 519.765 225.103 518.8 224.6C512.9 221.5 509.8 226.1 498.3 225.3C494.4 225 488.4 224.4 488.6 218.4C489.1 202.8 513.2 204 524.6 211.1C536 218.2 538.1 232.2 536.8 238.4Z" fill="#22272E"/>
<path d="M525.6 244.6C525.6 244.6 528.2 238.7 532.5 239.3C537.1 239.9 537.5 253.7 525.6 254.5" fill="#B28D93"/>
<path d="M492.8 236.9C492.982 238.259 493.015 239.634 492.9 241C492.837 242.399 492.567 243.78 492.1 245.1C492 245.4 491.8 245.8 491.7 246.1C491.6 246.4 491.5 246.6 491.4 246.9C491.279 247.332 491.314 247.792 491.5 248.2C492.183 249.226 493.212 249.971 494.4 250.3C493.68 250.5 492.92 250.5 492.2 250.3C491.408 250.1 490.704 249.643 490.2 249C489.903 248.656 489.697 248.244 489.6 247.8C489.5 247.372 489.5 246.928 489.6 246.5C489.701 246.122 489.834 245.754 490 245.4C490.113 245.124 490.247 244.856 490.4 244.6C491.4 242.1 491.9 239.5 492.8 236.9Z" fill="#22272E"/>
<path d="M498.4 258.5C498.4 258.5 499.1 257 500.8 258.3C502.5 259.6 503.2 259.1 504.1 258C505 256.9 505.4 259 507.4 258.2" stroke="#22272E" stroke-width="1.8" stroke-linecap="round" stroke-linejoin="round"/>
<path d="M507 234.4C506.832 234.068 506.735 233.705 506.715 233.333C506.695 232.961 506.753 232.59 506.885 232.242C507.016 231.893 507.219 231.577 507.48 231.311C507.741 231.046 508.054 230.838 508.4 230.7C510.4 229.8 513.7 231.3 515.6 233.3C517.5 235.3 516.5 236.3 514.2 235.3C511.9 234.3 510.9 234.1 508.9 234.8C508.584 234.956 508.225 235.002 507.881 234.929C507.536 234.856 507.226 234.67 507 234.4V234.4Z" fill="#22272E"/>
<path d="M492.8 233.4C493.108 232.843 493.206 232.194 493.078 231.571C492.95 230.947 492.603 230.39 492.1 230C490.7 229 488.4 230 487.2 231.6C486.1 233 486.6 233.8 488.1 233.4C489.6 233 490.2 232.8 491.5 233.6C491.704 233.729 491.948 233.781 492.187 233.744C492.426 233.707 492.644 233.585 492.8 233.4V233.4Z" fill="#22272E"/>
<path d="M532.8 244.8C532.463 244.596 532.089 244.46 531.7 244.4C531.595 244.385 531.488 244.406 531.396 244.461C531.305 244.515 531.236 244.6 531.2 244.7C530.941 245.3 530.805 245.946 530.8 246.6C530.77 247.541 530.531 248.463 530.1 249.3C529.956 249.53 529.766 249.729 529.543 249.884C529.319 250.039 529.066 250.146 528.8 250.2C528.576 250.282 528.338 250.316 528.1 250.3C527.9 250.3 527.6 250.2 527.4 250.2C528.2 249.7 528.8 249.2 528.8 248.7C528.8 248.2 528.9 247.4 529 246.5C529.03 245.477 529.461 244.508 530.2 243.8C530.446 243.568 530.763 243.427 531.1 243.4C531.411 243.396 531.72 243.464 532 243.6C532.367 243.923 532.643 244.337 532.8 244.8V244.8Z" fill="#22272E"/>
<path d="M490.2 242.1C490.392 242.128 490.587 242.116 490.774 242.065C490.961 242.013 491.135 241.924 491.285 241.801C491.436 241.679 491.559 241.527 491.648 241.355C491.736 241.182 491.788 240.993 491.8 240.8L491.9 239.9C491.928 239.708 491.916 239.513 491.865 239.326C491.813 239.139 491.723 238.965 491.601 238.815C491.479 238.664 491.327 238.541 491.155 238.452C490.982 238.364 490.793 238.312 490.6 238.3V238.3C490.408 238.272 490.213 238.284 490.026 238.335C489.839 238.387 489.665 238.477 489.515 238.599C489.364 238.721 489.241 238.873 489.152 239.045C489.064 239.218 489.012 239.407 489 239.6L488.9 240.5C488.869 240.692 488.879 240.889 488.929 241.077C488.979 241.265 489.068 241.441 489.191 241.592C489.314 241.743 489.467 241.866 489.641 241.954C489.815 242.041 490.005 242.091 490.2 242.1V242.1Z" fill="#22272E"/>
<path d="M508.1 243.8C508.292 243.828 508.487 243.816 508.674 243.765C508.861 243.713 509.035 243.623 509.185 243.501C509.336 243.379 509.459 243.227 509.548 243.055C509.636 242.882 509.688 242.693 509.7 242.5L509.8 241.6C509.828 241.408 509.816 241.213 509.765 241.026C509.713 240.839 509.623 240.665 509.501 240.515C509.379 240.364 509.227 240.241 509.055 240.152C508.882 240.064 508.693 240.012 508.5 240C508.308 239.972 508.113 239.984 507.926 240.035C507.739 240.087 507.565 240.176 507.415 240.299C507.264 240.421 507.141 240.573 507.052 240.745C506.964 240.918 506.912 241.107 506.9 241.3L506.8 242.2C506.776 242.581 506.896 242.958 507.137 243.254C507.378 243.551 507.722 243.745 508.1 243.8V243.8Z" fill="#22272E"/>
<path d="M559.7 282.9C560.848 282.882 561.988 283.094 563.053 283.524C564.117 283.953 565.085 284.591 565.9 285.4C567.9 287.3 572.1 291.3 580.3 299C593.5 311.5 595.3 313.9 595.3 313.9C595.3 313.9 606.9 323 608.1 334.3C609.3 345.6 601.7 360.8 581.9 348.1C562.1 335.4 552.5 326.9 548.5 318.3C544.9 310.6 547 283.2 559.7 282.9Z" fill="#6DAFA7"/>
<path d="M589.4 324.8C593.09 317.183 598.139 310.303 604.3 304.5C614.7 294.6 627 282.4 629.3 280C631.6 277.6 637.2 272.1 644.8 278C652.4 283.9 648 294.2 648 294.2C648 294.2 634.7 315.6 623.7 333.8C612.7 352 601.5 358 587.3 351.1C573.1 344.2 589.4 324.8 589.4 324.8Z" fill="#6DAFA7"/>
<path d="M629.3 281.5C629.3 281.5 635 273.8 637.3 271.1C639.6 268.4 643.8 264.3 649.3 265.9C654.8 267.5 657.7 264.1 661.9 268.5C666.1 272.9 669 281 671.7 284C674.4 287 673.7 287.8 678 287.7C682.3 287.6 685.8 288.6 684 291C682.2 293.4 670.5 294 668.9 293.8C667.3 293.6 659.8 294.6 657.9 293.7C656 292.8 656.3 293.6 654.7 292.7C653.1 291.8 649 289.8 649 289.8C648.187 291.386 647.179 292.864 646 294.2C644.3 296 636.9 295.7 632.1 290.1C628 285.3 629.3 281.5 629.3 281.5Z" fill="#B28D93"/>
<path d="M671.7 284.1C674.4 287.1 673.7 287.9 678 287.8C682.3 287.7 685.8 288.7 684 291.1C682.2 293.5 670.5 294.1 668.9 293.9" stroke="#89555F" stroke-width="1.8" stroke-linecap="round" stroke-linejoin="round"/>
<path d="M655.1 290.6C655.3 285.3 657 281.1 658.6 281.7C660.2 282.3 661.1 293.6 657.3 296.2C653.5 298.8 643.3 284.8 641.3 283.9" fill="#B28D93"/>
<path d="M656.8 295.3C656.8 295.3 658.9 299.4 662 297.4C665.1 295.4 668.2 286.2 668.8 284.2C669.4 282.2 665.6 281.4 663.1 286.3C660.6 291.2 658.8 291.9 658.8 291.9" fill="#B28D93"/>
<path d="M662.8 295.7C663.25 296.451 663.933 297.034 664.746 297.359C665.559 297.684 666.456 297.734 667.3 297.5C670.4 296.7 674.4 290.5 676.3 288.5C678.2 286.5 675.8 283.9 672.5 286.3C669.2 288.7 666.8 291 665.2 291.5" fill="#B28D93"/>
<path d="M660.5 267.4C660.5 267.4 662.9 268.6 666 272.8C669.1 277 675.1 277.6 675.8 279.8C676.5 282 670.2 282.9 665.2 280.5C660.2 278.1 658.3 267.9 660.5 267.4Z" fill="#B28D93"/>
<path d="M623 286.3C622.663 288.581 622.919 290.911 623.742 293.064C624.565 295.218 625.928 297.125 627.7 298.6C629.737 300.546 632.292 301.864 635.058 302.396C637.825 302.928 640.686 302.652 643.3 301.6" stroke="#22272E" stroke-width="1.8" stroke-linecap="round" stroke-linejoin="round"/>
<path d="M587.2 351C587.2 351 584.9 347.6 592.5 345.9C600.1 344.2 613 343.3 611.7 348.5" stroke="#22272E" stroke-width="1.8" stroke-linecap="round" stroke-linejoin="round"/>
<path d="M655.1 290.6C655.3 285.3 657 281.1 658.6 281.7C660.2 282.3 661.1 293.6 657.3 296.2C653.5 298.8 643.3 284.8 641.3 283.9" stroke="#89555F" stroke-width="1.8" stroke-linecap="round" stroke-linejoin="round"/>
<path d="M662 297.4C665.1 295.5 668.2 286.2 668.8 284.2C669.4 282.2 665.6 281.4 663.1 286.3C662.27 288.154 661.119 289.846 659.7 291.3" stroke="#89555F" stroke-width="1.8" stroke-linecap="round" stroke-linejoin="round"/>
<path d="M663.6 296.6C664.094 297.044 664.695 297.352 665.344 297.492C665.993 297.632 666.667 297.601 667.3 297.4C670.4 296.6 674.4 290.4 676.3 288.4C678.2 286.4 675.8 283.8 672.5 286.2C669.9 288 667.9 289.9 666.4 290.8" stroke="#89555F" stroke-width="1.8" stroke-linecap="round" stroke-linejoin="round"/>
<path d="M670.2 281.9C670.2 281.9 667.5 277.3 666.5 276" stroke="#89555F" stroke-width="1.8" stroke-linecap="round" stroke-linejoin="round"/>
<path d="M595.8 314.2C595.8 314.2 590.2 320.7 589 328.5" stroke="#22272E" stroke-width="1.8" stroke-linecap="round" stroke-linejoin="round"/>
<path d="M289.4 343.4H254.8C254.112 343.362 253.454 343.11 252.916 342.68C252.378 342.25 251.988 341.662 251.8 341L246.8 320.3C246.712 320.012 246.695 319.707 246.751 319.411C246.807 319.115 246.933 318.838 247.12 318.601C247.307 318.365 247.549 318.178 247.824 318.056C248.099 317.934 248.4 317.88 248.7 317.9H283.3C283.988 317.938 284.646 318.19 285.184 318.62C285.722 319.05 286.112 319.638 286.3 320.3L291.3 341C291.388 341.288 291.405 341.593 291.349 341.889C291.293 342.185 291.167 342.462 290.98 342.698C290.793 342.934 290.551 343.122 290.276 343.244C290.001 343.366 289.7 343.42 289.4 343.4V343.4Z" fill="#6DAFA7"/>
<path d="M247.3 318.4L266.9 329.4C267.456 329.792 268.12 330.002 268.8 330.002C269.48 330.002 270.144 329.792 270.7 329.4L285 318.4" stroke="#22272E" stroke-width="1.8" stroke-linecap="round" stroke-linejoin="round"/>
<path d="M763.6 345.3L684.8 340.6C684.355 340.576 683.922 340.45 683.534 340.232C683.146 340.014 682.813 339.709 682.562 339.342C682.311 338.974 682.147 338.554 682.084 338.113C682.022 337.672 682.061 337.223 682.2 336.8L704.2 266.9C704.495 266.015 705.039 265.233 705.766 264.648C706.493 264.063 707.372 263.699 708.3 263.6L790.5 257.6C790.978 257.559 791.459 257.638 791.899 257.828C792.339 258.019 792.726 258.316 793.023 258.693C793.32 259.069 793.519 259.514 793.603 259.986C793.686 260.459 793.651 260.944 793.5 261.4L768.3 342C768.02 343.009 767.399 343.89 766.541 344.492C765.684 345.094 764.644 345.38 763.6 345.3V345.3Z" fill="#63737A"/>
<path d="M760.7 343.5L681.9 338.8C681.455 338.776 681.022 338.65 680.634 338.432C680.246 338.214 679.913 337.909 679.662 337.542C679.411 337.174 679.247 336.754 679.184 336.313C679.122 335.872 679.161 335.423 679.3 335L701.3 265.1C701.595 264.215 702.139 263.433 702.866 262.848C703.593 262.263 704.472 261.899 705.4 261.8L787.6 255.8C788.078 255.759 788.559 255.838 788.999 256.028C789.439 256.219 789.825 256.516 790.123 256.893C790.42 257.269 790.619 257.714 790.703 258.186C790.786 258.659 790.751 259.144 790.6 259.6L765.4 340.2C765.12 341.209 764.499 342.09 763.641 342.692C762.784 343.294 761.744 343.58 760.7 343.5V343.5Z" fill="#22272E"/>
<path d="M720.3 275.3L706.4 276C706.289 276.005 706.178 275.983 706.076 275.936C705.975 275.889 705.887 275.818 705.818 275.73C705.75 275.642 705.703 275.539 705.683 275.43C705.662 275.32 705.668 275.207 705.7 275.1L706.7 271.9C706.777 271.669 706.925 271.467 707.122 271.324C707.319 271.18 707.556 271.102 707.8 271.1L721.8 270.3C721.911 270.295 722.022 270.317 722.124 270.364C722.225 270.411 722.313 270.482 722.382 270.57C722.45 270.658 722.497 270.761 722.517 270.87C722.538 270.98 722.532 271.093 722.5 271.2L721.4 274.5C721.29 274.708 721.133 274.888 720.942 275.027C720.752 275.166 720.532 275.259 720.3 275.3V275.3Z" fill="#F8DA30"/>
<path d="M691.3 329.6C690.969 329.584 690.646 329.494 690.355 329.336C690.064 329.177 689.813 328.955 689.621 328.685C689.428 328.416 689.299 328.106 689.244 327.78C689.188 327.453 689.207 327.118 689.3 326.8L695.9 306C696.033 305.571 696.298 305.195 696.657 304.926C697.016 304.656 697.451 304.507 697.9 304.5V304.5C698.237 304.499 698.569 304.579 698.869 304.732C699.169 304.886 699.427 305.109 699.623 305.384C699.819 305.658 699.946 305.975 699.994 306.308C700.042 306.642 700.01 306.982 699.9 307.3L693.3 328.1C693.226 328.56 692.976 328.974 692.603 329.254C692.23 329.534 691.763 329.658 691.3 329.6Z" fill="#F8DA30"/>
<path d="M701.2 330C700.857 329.991 700.52 329.901 700.219 329.737C699.917 329.574 699.658 329.341 699.463 329.058C699.268 328.776 699.142 328.451 699.097 328.111C699.051 327.77 699.086 327.424 699.2 327.1L709.8 293.4C709.954 292.957 710.236 292.568 710.609 292.284C710.982 291.999 711.432 291.831 711.9 291.8V291.8C712.253 291.799 712.601 291.88 712.917 292.037C713.234 292.193 713.509 292.421 713.722 292.702C713.936 292.983 714.081 293.31 714.146 293.657C714.212 294.003 714.196 294.36 714.1 294.7L703.5 328.4C703.359 328.89 703.053 329.317 702.634 329.609C702.215 329.9 701.709 330.038 701.2 330Z" fill="#63737A"/>
<path d="M711.4 330.5C711.049 330.478 710.707 330.378 710.4 330.206C710.093 330.034 709.829 329.795 709.627 329.506C709.425 329.218 709.291 328.888 709.234 328.54C709.178 328.193 709.2 327.837 709.3 327.5L713.7 313.6C713.842 313.13 714.134 312.719 714.531 312.43C714.928 312.141 715.409 311.99 715.9 312V312C716.258 312.011 716.61 312.103 716.927 312.27C717.245 312.437 717.52 312.674 717.732 312.963C717.944 313.252 718.087 313.586 718.151 313.939C718.215 314.292 718.197 314.655 718.1 315L713.7 328.9C713.536 329.377 713.225 329.789 712.812 330.076C712.398 330.364 711.904 330.512 711.4 330.5V330.5Z" fill="#F8DA30"/>
<path d="M722 330.9C721.635 330.88 721.28 330.778 720.96 330.601C720.64 330.424 720.364 330.178 720.153 329.88C719.942 329.582 719.8 329.241 719.739 328.88C719.678 328.52 719.699 328.151 719.8 327.8L732.3 288C732.454 287.529 732.746 287.114 733.138 286.811C733.53 286.508 734.005 286.33 734.5 286.3C734.877 286.295 735.25 286.38 735.587 286.547C735.925 286.714 736.218 286.959 736.443 287.262C736.667 287.564 736.817 287.916 736.879 288.288C736.941 288.66 736.914 289.041 736.8 289.4L724.3 329.2C724.177 329.708 723.879 330.157 723.458 330.467C723.038 330.778 722.522 330.931 722 330.9V330.9Z" fill="#6DAFA7"/>
<path d="M732.9 331.4C732.526 331.371 732.163 331.26 731.836 331.076C731.509 330.892 731.226 330.638 731.007 330.334C730.788 330.029 730.639 329.68 730.568 329.312C730.498 328.943 730.509 328.564 730.6 328.2L738.8 302C738.958 301.512 739.265 301.086 739.678 300.781C740.09 300.477 740.587 300.308 741.1 300.3C741.49 300.294 741.876 300.38 742.227 300.551C742.577 300.723 742.882 300.975 743.116 301.288C743.351 301.6 743.507 301.963 743.574 302.348C743.641 302.732 743.615 303.127 743.5 303.5L735.3 329.7C735.132 330.202 734.809 330.637 734.378 330.942C733.946 331.248 733.429 331.408 732.9 331.4V331.4Z" fill="#63737A"/>
<path d="M744.3 331.9C743.91 331.885 743.53 331.78 743.187 331.593C742.845 331.406 742.551 331.143 742.328 330.823C742.105 330.503 741.96 330.136 741.903 329.75C741.846 329.364 741.879 328.971 742 328.6L743.7 323C743.868 322.471 744.202 322.01 744.652 321.686C745.102 321.362 745.645 321.191 746.2 321.2V321.2C746.596 321.206 746.985 321.304 747.336 321.486C747.688 321.668 747.992 321.93 748.225 322.25C748.458 322.57 748.613 322.94 748.678 323.331C748.743 323.721 748.716 324.122 748.6 324.5L746.9 330.1C746.699 330.627 746.342 331.081 745.878 331.402C745.414 331.723 744.864 331.897 744.3 331.9V331.9Z" fill="#F4C2C9"/>
<path d="M756 332.4C755.601 332.375 755.214 332.261 754.865 332.066C754.516 331.872 754.216 331.601 753.985 331.275C753.755 330.949 753.601 330.575 753.534 330.181C753.468 329.788 753.49 329.384 753.6 329L762.1 302C762.263 301.46 762.592 300.985 763.041 300.644C763.49 300.302 764.036 300.112 764.6 300.1C765.016 300.095 765.427 300.187 765.8 300.369C766.174 300.551 766.5 300.818 766.753 301.148C767.005 301.478 767.177 301.863 767.255 302.271C767.332 302.679 767.314 303.1 767.2 303.5L758.7 330.5C758.511 331.063 758.147 331.551 757.661 331.892C757.176 332.234 756.594 332.412 756 332.4V332.4Z" fill="#F8DA30"/>
<path d="M767.2 270.3C767.4 269.6 767.1 269 766.6 269C766.1 269 765.4 269.6 765.1 270.4C764.8 271.2 765.2 271.7 765.7 271.7C766.049 271.614 766.37 271.441 766.633 271.196C766.895 270.951 767.091 270.642 767.2 270.3V270.3Z" fill="#63737A"/>
<path d="M772.4 270C772.6 269.3 772.3 268.7 771.7 268.7C771.344 268.769 771.014 268.937 770.749 269.184C770.483 269.432 770.293 269.749 770.2 270.1C770 270.8 770.3 271.4 770.9 271.4C771.249 271.314 771.57 271.141 771.833 270.896C772.095 270.651 772.291 270.342 772.4 270Z" fill="#63737A"/>
<path d="M777.7 269.7C777.9 269 777.6 268.4 777 268.4C776.644 268.469 776.314 268.637 776.049 268.884C775.783 269.132 775.593 269.449 775.5 269.8C775.3 270.5 775.6 271.1 776.2 271.1C776.556 271.031 776.886 270.864 777.151 270.616C777.417 270.368 777.607 270.051 777.7 269.7Z" fill="#63737A"/>
<path d="M466.4 193.7C466.4 193.7 459.2 194 457.4 187.4C455.6 180.8 462.4 177.8 462.4 184C462.4 190.2 452.7 192.9 448.7 187.7C444.7 182.5 449.4 178.5 450.7 181.5C452 184.5 448.9 190.8 443.2 188.9" stroke="#6DAFA7" stroke-width="1.8" stroke-linecap="round" stroke-linejoin="round"/>
<path d="M552.4 204C552.4 204 564.7 203.3 563.9 194.4C563.1 185.5 555.1 202 565.8 201.8C576.5 201.6 575.9 191.5 572.7 190.8C569.5 190.1 570.3 197.9 576.2 197.4C582.1 196.9 583 193.3 583 193.3" stroke="#6DAFA7" stroke-width="1.8" stroke-linecap="round" stroke-linejoin="round"/>
<path d="M511.8 186.7C511.8 186.028 511.601 185.37 511.227 184.811C510.853 184.252 510.322 183.816 509.701 183.559C509.08 183.301 508.396 183.234 507.737 183.365C507.077 183.497 506.471 183.82 505.996 184.296C505.52 184.771 505.197 185.377 505.065 186.037C504.934 186.696 505.001 187.38 505.259 188.001C505.516 188.622 505.952 189.153 506.511 189.527C507.07 189.901 507.728 190.1 508.4 190.1C508.848 190.104 509.292 190.019 509.706 189.849C510.12 189.68 510.497 189.43 510.813 189.113C511.13 188.797 511.38 188.42 511.549 188.006C511.719 187.592 511.804 187.148 511.8 186.7V186.7Z" fill="#6DAFA7"/>
<path d="M528.2 149.8C528.394 152.507 528.033 155.225 527.138 157.787C526.244 160.349 524.836 162.702 523 164.7C519.201 168.81 517.094 174.203 517.1 179.8V183.3C517.09 184.225 516.717 185.109 516.063 185.763C515.409 186.417 514.525 186.79 513.6 186.8H503.4C502.475 186.79 501.591 186.417 500.937 185.763C500.282 185.109 499.91 184.225 499.9 183.3V179.8C499.924 174.229 497.813 168.861 494 164.8C490.578 161.139 488.683 156.311 488.7 151.3C488.71 146.191 490.697 141.284 494.244 137.606C497.791 133.929 502.624 131.767 507.729 131.573C512.835 131.379 517.818 133.169 521.633 136.566C525.449 139.964 527.802 144.706 528.2 149.8V149.8Z" fill="#F8DA30"/>
<path d="M499.8 179.8H517" stroke="#22272E" stroke-width="1.8" stroke-linecap="round" stroke-linejoin="round"/>
<path d="M499.8 183.2H517" stroke="#22272E" stroke-width="1.8" stroke-linecap="round" stroke-linejoin="round"/>
<path d="M506.6 179.8V152.4C506.597 151.831 506.439 151.274 506.144 150.787C505.85 150.301 505.429 149.903 504.926 149.637C504.424 149.37 503.859 149.244 503.291 149.273C502.723 149.302 502.173 149.484 501.7 149.8V149.8C501.317 150.073 501 150.429 500.772 150.84C500.544 151.252 500.411 151.709 500.382 152.179C500.354 152.648 500.43 153.118 500.606 153.554C500.782 153.991 501.053 154.382 501.4 154.7L502.6 155.8" stroke="#22272E" stroke-width="1.8" stroke-linecap="round" stroke-linejoin="round"/>
<path d="M510.2 179.8V152.4C510.203 151.831 510.361 151.274 510.655 150.787C510.95 150.301 511.371 149.903 511.873 149.637C512.376 149.37 512.941 149.244 513.509 149.273C514.077 149.302 514.627 149.484 515.1 149.8C515.483 150.073 515.8 150.429 516.028 150.84C516.256 151.252 516.389 151.709 516.418 152.179C516.446 152.648 516.37 153.118 516.194 153.554C516.018 153.991 515.747 154.382 515.4 154.7L514.2 155.8" stroke="#22272E" stroke-width="1.8" stroke-linecap="round" stroke-linejoin="round"/>
<path d="M428.2 255.3L419.4 174.7C419.256 173.52 418.728 172.42 417.896 171.571C417.065 170.721 415.977 170.169 414.8 170L300.7 155.1C300.092 155.03 299.476 155.098 298.898 155.299C298.32 155.5 297.795 155.829 297.362 156.262C296.929 156.695 296.6 157.22 296.399 157.798C296.198 158.376 296.13 158.992 296.2 159.6L307.4 255.7C307.55 256.998 308.174 258.196 309.152 259.063C310.13 259.93 311.393 260.406 312.7 260.4L424.1 259.8C424.679 259.819 425.254 259.712 425.787 259.487C426.321 259.262 426.799 258.924 427.188 258.496C427.578 258.068 427.871 257.561 428.045 257.009C428.22 256.457 428.273 255.874 428.2 255.3V255.3Z" fill="#63737A"/>
<path d="M433.3 254.9L424.5 173.7C424.373 172.514 423.85 171.405 423.015 170.552C422.181 169.7 421.083 169.153 419.9 169L305 154C304.387 153.927 303.765 153.992 303.181 154.191C302.596 154.39 302.064 154.717 301.623 155.149C301.181 155.58 300.842 156.106 300.631 156.686C300.419 157.266 300.34 157.886 300.4 158.5L311.7 255.3C311.85 256.598 312.474 257.796 313.452 258.663C314.43 259.53 315.693 260.006 317 260L429.3 259.4C429.866 259.392 430.425 259.266 430.94 259.03C431.455 258.795 431.915 258.454 432.291 258.031C432.667 257.608 432.951 257.111 433.125 256.572C433.299 256.033 433.358 255.463 433.3 254.9V254.9Z" fill="#22272E"/>
<path d="M418.8 246.9H327.4L327.1 243.9L346.4 216.7C347.525 215.081 349.173 213.899 351.067 213.353C352.961 212.807 354.986 212.929 356.8 213.7L365.6 217.3C367.509 218.077 369.632 218.152 371.591 217.511C373.551 216.87 375.219 215.555 376.3 213.8L380.2 207.4C381.25 205.664 382.877 204.352 384.796 203.694C386.716 203.036 388.805 203.073 390.7 203.8C392.444 204.489 394.365 204.588 396.171 204.082C397.977 203.577 399.567 202.494 400.7 201L412.7 185.3L418.8 246.9Z" fill="#F8DA30"/>
<path d="M327.1 243.9L320.2 184.1" stroke="#6DAFA7" stroke-width="1.8" stroke-linecap="round" stroke-linejoin="round"/>
<path d="M326.8 241.2L342.5 200.2C342.881 199.179 343.463 198.245 344.212 197.454C344.96 196.662 345.86 196.028 346.857 195.59C347.855 195.152 348.93 194.918 350.02 194.902C351.109 194.887 352.19 195.09 353.2 195.5L361.3 198.7C362.922 199.324 364.698 199.429 366.383 198.999C368.067 198.569 369.576 197.626 370.7 196.3L376.1 189.7C376.797 188.838 377.662 188.127 378.643 187.612C379.624 187.096 380.701 186.787 381.806 186.703C382.911 186.618 384.022 186.761 385.07 187.122C386.118 187.482 387.081 188.053 387.9 188.8C389.23 190.009 390.922 190.743 392.714 190.888C394.505 191.032 396.293 190.58 397.8 189.6L412.4 180.3" stroke="#6DAFA7" stroke-width="1.8" stroke-linecap="round" stroke-linejoin="round"/>
<path d="M319.5 176.2L318.9 171.4C318.877 171.224 318.895 171.045 318.952 170.877C319.009 170.708 319.104 170.556 319.23 170.43C319.356 170.304 319.508 170.209 319.677 170.152C319.845 170.095 320.024 170.077 320.2 170.1L341.9 172.4C342.216 172.435 342.513 172.57 342.747 172.786C342.981 173.002 343.14 173.287 343.2 173.6L343.9 178C343.925 178.137 343.916 178.278 343.875 178.41C343.833 178.543 343.76 178.664 343.662 178.762C343.564 178.86 343.443 178.933 343.31 178.975C343.178 179.016 343.037 179.025 342.9 179L320.8 177.4C320.635 177.409 320.47 177.386 320.315 177.33C320.159 177.274 320.017 177.188 319.895 177.076C319.774 176.964 319.677 176.829 319.609 176.678C319.541 176.528 319.504 176.365 319.5 176.2Z" fill="#6DAFA7"/>
<path d="M673.4 222.6C650.3 245 621.6 249.4 611.2 234C602 220.4 610.7 196.2 629.5 178.7C648 161.5 672.4 154.4 685.6 163.5C700.5 173.7 696.1 200.6 673.4 222.6Z" fill="#F8AB5D"/>
<path d="M670.1 219.2C647 241.6 618.3 246 607.9 230.6C598.7 217 607.4 192.8 626.2 175.3C644.7 158.1 669.1 151 682.3 160.1C697.3 170.4 692.8 197.3 670.1 219.2Z" fill="#F8DA30"/>
<path d="M660.4 209.5C646.5 222.8 629.1 226.1 622.1 217.2C615.7 209 620.8 193.5 633 182.1C645.2 170.7 660.8 166.5 668.9 172.9C677.6 179.7 674.1 196.3 660.4 209.5Z" fill="#6DAFA7"/>
<path d="M651.5 200.6C646 205.8 639 207.3 636 204C633 200.7 635 194.3 640.2 189.4C645.4 184.5 652.1 182.9 655.3 185.8C658.5 188.7 657 195.4 651.5 200.6Z" fill="#F4C2C9"/>
<path d="M616 167C615.495 167.468 614.903 167.832 614.258 168.071C613.612 168.309 612.925 168.417 612.238 168.39C611.55 168.362 610.874 168.198 610.25 167.908C609.626 167.618 609.065 167.208 608.6 166.7L590.8 144C590.356 143.429 590.142 142.713 590.197 141.992C590.252 141.271 590.574 140.597 591.1 140.1C591.635 139.617 592.33 139.35 593.05 139.35C593.77 139.35 594.465 139.617 595 140.1L616.2 159.6C616.696 160.086 617.087 160.67 617.347 161.314C617.608 161.958 617.733 162.649 617.714 163.344C617.695 164.038 617.533 164.721 617.238 165.351C616.943 165.98 616.522 166.541 616 167V167Z" fill="#22272E"/>
<path d="M594.9 148.3L589.2 149.1C588.846 149.139 588.512 149.28 588.237 149.506C587.963 149.732 587.76 150.034 587.654 150.373C587.548 150.713 587.543 151.076 587.64 151.418C587.737 151.76 587.932 152.067 588.2 152.3V152.3C591.705 155.38 595.999 157.423 600.6 158.2L603.5 158.7C603.576 158.715 603.654 158.707 603.726 158.678C603.797 158.648 603.858 158.598 603.901 158.534C603.944 158.47 603.966 158.394 603.966 158.317C603.966 158.24 603.943 158.164 603.9 158.1L596.7 149C596.478 148.747 596.199 148.551 595.886 148.43C595.572 148.308 595.234 148.263 594.9 148.3Z" fill="#6DAFA7"/>
<path d="M599.1 144.5L600.4 138.9C600.479 138.555 600.656 138.239 600.909 137.991C601.161 137.742 601.48 137.571 601.827 137.497C602.173 137.424 602.534 137.451 602.866 137.575C603.198 137.7 603.487 137.917 603.7 138.2V138.2C606.514 141.916 608.213 146.355 608.6 151L608.8 153.9C608.8 154.2 608.4 154.4 608.2 154.2L599.7 146.4C599.431 146.172 599.232 145.873 599.126 145.537C599.02 145.2 599.011 144.841 599.1 144.5V144.5Z" fill="#6DAFA7"/>
<path d="M615.2 166.1L620.9 172.2" stroke="#22272E" stroke-width="1.8" stroke-linecap="round" stroke-linejoin="round"/>
<path d="M735.3 218.7V204.1C735.295 203.757 735.156 203.429 734.914 203.186C734.671 202.944 734.343 202.805 734 202.8H727.4C727.057 202.805 726.729 202.944 726.486 203.186C726.244 203.429 726.105 203.757 726.1 204.1V218.7H722.3C722.077 218.697 721.857 218.754 721.662 218.865C721.468 218.975 721.307 219.135 721.195 219.329C721.083 219.522 721.024 219.742 721.025 219.965C721.026 220.188 721.087 220.408 721.2 220.6L729.5 233.7C729.608 233.882 729.762 234.034 729.946 234.139C730.13 234.244 730.338 234.299 730.55 234.299C730.762 234.299 730.97 234.244 731.154 234.139C731.338 234.034 731.492 233.882 731.6 233.7L739.9 220.6C740.014 220.408 740.074 220.188 740.075 219.965C740.076 219.742 740.017 219.522 739.905 219.329C739.793 219.135 739.632 218.975 739.438 218.865C739.243 218.754 739.023 218.697 738.8 218.7H735.3Z" fill="#6DAFA7"/>
<path d="M764.3 234.5V219.9C764.295 219.557 764.156 219.229 763.914 218.986C763.671 218.744 763.343 218.605 763 218.6H756.4C756.057 218.605 755.729 218.744 755.486 218.986C755.244 219.229 755.105 219.557 755.1 219.9V234.5H751.3C751.077 234.497 750.857 234.554 750.662 234.665C750.468 234.775 750.307 234.935 750.195 235.129C750.083 235.322 750.024 235.542 750.025 235.765C750.026 235.988 750.087 236.208 750.2 236.4L758.5 249.5C758.608 249.682 758.762 249.834 758.946 249.939C759.13 250.044 759.338 250.099 759.55 250.099C759.762 250.099 759.97 250.044 760.154 249.939C760.338 249.834 760.492 249.682 760.6 249.5L768.9 236.4C769.014 236.208 769.074 235.988 769.075 235.765C769.076 235.542 769.017 235.322 768.905 235.129C768.793 234.935 768.632 234.775 768.438 234.665C768.243 234.554 768.023 234.497 767.8 234.5H764.3Z" fill="#22272E"/>
<path d="M286.6 292.1C286.769 291.437 286.738 290.738 286.509 290.092C286.281 289.447 285.867 288.883 285.318 288.474C284.77 288.064 284.112 287.826 283.429 287.79C282.745 287.754 282.066 287.922 281.477 288.272C280.889 288.622 280.418 289.139 280.124 289.757C279.829 290.375 279.725 291.067 279.823 291.744C279.922 292.422 280.22 293.055 280.678 293.563C281.137 294.072 281.736 294.432 282.4 294.6C282.84 294.715 283.299 294.742 283.749 294.678C284.199 294.614 284.633 294.462 285.023 294.229C285.414 293.997 285.755 293.689 286.026 293.323C286.296 292.957 286.492 292.542 286.6 292.1V292.1Z" fill="#22272E"/>
<path d="M290.8 283.9L291 283C291.364 281.595 291.158 280.103 290.428 278.848C289.697 277.594 288.502 276.678 287.1 276.3V276.3C285.695 275.936 284.203 276.142 282.948 276.872C281.694 277.603 280.778 278.798 280.4 280.2L280.2 281.1C279.901 282.098 279.389 283.019 278.7 283.8C278.1 284.4 277.5 285.1 276.9 285.7C276.609 286.025 276.404 286.418 276.306 286.844C276.208 287.269 276.22 287.712 276.34 288.131C276.46 288.551 276.684 288.933 276.992 289.243C277.3 289.552 277.681 289.778 278.1 289.9L283.1 291.2L288.1 292.5C288.519 292.611 288.96 292.612 289.38 292.502C289.8 292.392 290.185 292.176 290.496 291.875C290.808 291.573 291.037 291.196 291.16 290.78C291.283 290.364 291.297 289.923 291.2 289.5C291 288.6 290.8 287.7 290.6 286.9C290.47 285.897 290.538 284.877 290.8 283.9V283.9Z" fill="#6DAFA7"/>
<path d="M193.9 247.4C193.9 247.4 231.3 238.9 230.7 219.1L287.9 223.6C287.9 223.6 287.2 247.9 249.9 260.3C249.8 260.3 210.1 255 193.9 247.4Z" fill="#F8DA30"/>
<path d="M241.8 246.5L251.9 247.9" stroke="#22272E" stroke-width="1.8" stroke-linecap="round" stroke-linejoin="round"/>
<path d="M246 242.5L257.7 244.1" stroke="#22272E" stroke-width="1.8" stroke-linecap="round" stroke-linejoin="round"/>
<path d="M236 232.9C236 232.9 261.8 236.5 266.4 237.1" stroke="#22272E" stroke-width="1.8" stroke-linecap="round" stroke-linejoin="round"/>
<path d="M240.6 239.1C237.933 242.894 234.263 245.872 230 247.7C229.743 247.787 229.471 247.821 229.2 247.8C225.3 247 221.3 246.1 217.5 245.1C217.38 245.073 217.272 245.009 217.191 244.917C217.11 244.824 217.06 244.709 217.049 244.586C217.038 244.464 217.066 244.341 217.129 244.236C217.192 244.131 217.287 244.048 217.4 244C221.642 242.207 225.587 239.779 229.1 236.8C229.223 236.663 229.381 236.562 229.558 236.509C229.734 236.456 229.922 236.453 230.1 236.5C232.2 236.9 235.8 237.4 240.2 238.1C240.6 238.3 240.9 238.8 240.6 239.1Z" fill="#22272E"/>
<path d="M257.6 227.7C257.403 228.619 257.136 229.522 256.8 230.4C256.74 230.581 256.614 230.733 256.448 230.826C256.281 230.918 256.085 230.945 255.9 230.9L236.4 228.8C236.265 228.786 236.136 228.741 236.022 228.667C235.908 228.594 235.813 228.495 235.745 228.378C235.677 228.261 235.637 228.13 235.629 227.994C235.622 227.859 235.646 227.724 235.7 227.6C236.005 226.899 236.207 226.158 236.3 225.4C236.361 225.206 236.48 225.034 236.64 224.909C236.801 224.784 236.997 224.711 237.2 224.7L256.8 226.5C257.3 226.8 257.7 227.2 257.6 227.7Z" fill="#6DAFA7"/>
<path d="M597.1 258C593.2 266.5 583.8 272.1 577.4 270.4C571.8 268.9 570.7 262.2 574.3 255.6C577.7 249.2 584.8 244.2 590.8 244C597.5 243.9 600.8 250 597.1 258Z" fill="#F8AB5D"/>
<path d="M595.1 256.3C591.2 264.8 581.8 270.4 575.4 268.7C569.8 267.2 568.7 260.5 572.3 253.9C575.7 247.5 582.8 242.5 588.8 242.3C595.6 242.1 598.8 248.2 595.1 256.3Z" fill="#F8DA30"/>
<path d="M591.9 256C588.9 262.3 582 266.6 577.1 265.5C572.7 264.5 571.7 259.4 574.5 254.1C577.2 249.1 582.8 245.1 587.4 245.1C592.5 245.1 594.8 249.9 591.9 256Z" fill="#F8AB5D"/>
<path d="M578.6 261.4L579 260.7C579.1 260.4 579.1 260.2 578.9 260.1C578.474 259.976 578.093 259.733 577.8 259.4C577.7 259.3 577.7 259 577.9 258.7L578 258.6C578.2 258.3 578.6 258.2 578.7 258.4C578.982 258.682 579.327 258.892 579.707 259.012C580.086 259.132 580.49 259.159 580.882 259.09C581.274 259.021 581.644 258.859 581.961 258.617C582.277 258.375 582.531 258.061 582.7 257.7C582.814 257.518 582.889 257.315 582.92 257.103C582.952 256.891 582.939 256.675 582.882 256.468C582.826 256.262 582.727 256.069 582.593 255.902C582.458 255.736 582.29 255.599 582.1 255.5C581 254.7 580.5 253.8 581.3 252.4C581.614 251.801 582.054 251.276 582.588 250.862C583.123 250.448 583.741 250.154 584.4 250C584.537 249.981 584.665 249.924 584.771 249.836C584.877 249.747 584.957 249.631 585 249.5L585.4 248.8C585.463 248.663 585.561 248.545 585.684 248.457C585.807 248.37 585.95 248.316 586.1 248.3C586.3 248.3 586.4 248.5 586.3 248.8L586 249.4C585.9 249.7 585.9 249.9 586.2 249.9C586.555 249.972 586.894 250.107 587.2 250.3C587.4 250.4 587.3 250.7 587.1 251L587 251.1C586.917 251.23 586.794 251.33 586.65 251.384C586.506 251.438 586.348 251.444 586.2 251.4C585.819 251.135 585.364 250.995 584.9 251C584.443 250.958 583.985 251.06 583.59 251.294C583.195 251.527 582.883 251.879 582.7 252.3C582.3 253.1 582.6 253.6 583.5 254.3C583.784 254.464 584.031 254.686 584.223 254.952C584.415 255.218 584.548 255.521 584.615 255.843C584.681 256.164 584.678 256.496 584.606 256.816C584.535 257.136 584.396 257.437 584.2 257.7C583.889 258.378 583.416 258.969 582.823 259.423C582.231 259.876 581.536 260.177 580.8 260.3C580.663 260.319 580.535 260.376 580.429 260.464C580.323 260.553 580.243 260.669 580.2 260.8L579.8 261.6C579.728 261.73 579.628 261.843 579.507 261.929C579.385 262.016 579.247 262.074 579.1 262.1C578.5 261.9 578.4 261.7 578.6 261.4Z" fill="#F8DA30"/>
<path d="M275.3 404.4H265.5L265 422.2H274.4L275.3 404.4Z" fill="#6DAFA7"/>
<path d="M265 422.2L259.1 601.4C259.076 601.844 259.145 602.289 259.301 602.705C259.457 603.122 259.698 603.501 260.008 603.82C260.317 604.14 260.69 604.391 261.102 604.56C261.513 604.729 261.955 604.81 262.4 604.8C263.242 604.804 264.054 604.485 264.668 603.908C265.282 603.331 265.651 602.541 265.7 601.7L274.4 422.2H265Z" fill="#B0D7C0"/>
<path d="M761.6 404.4H751.9L752.7 422.2H762.2L761.6 404.4Z" fill="#6DAFA7"/>
<path d="M752.7 422.2L761.4 601.7C761.44 602.575 761.826 603.399 762.473 603.99C763.12 604.58 763.975 604.89 764.85 604.85C765.725 604.81 766.549 604.424 767.14 603.777C767.73 603.13 768.04 602.275 768 601.4L762.1 422.2H752.7Z" fill="#B0D7C0"/>
<path d="M301.4 380.1L295.9 548.6C295.881 548.977 295.939 549.355 296.072 549.709C296.205 550.063 296.408 550.385 296.671 550.657C296.933 550.929 297.249 551.144 297.598 551.289C297.947 551.434 298.322 551.506 298.7 551.5C299.427 551.506 300.127 551.226 300.651 550.721C301.174 550.217 301.479 549.527 301.5 548.8L309.7 380.1H301.4Z" fill="#B0D7C0"/>
<path d="M725.7 380.1L731.2 548.6C731.219 548.977 731.161 549.355 731.028 549.709C730.896 550.063 730.692 550.385 730.429 550.657C730.167 550.929 729.851 551.144 729.502 551.289C729.153 551.434 728.778 551.506 728.4 551.5C727.673 551.506 726.973 551.226 726.449 550.721C725.926 550.217 725.621 549.527 725.6 548.8L717.4 380.1H725.7Z" fill="#B0D7C0"/>
<path d="M789.3 400.6H237.8L295.6 373.1H731.6L789.3 400.6Z" fill="white"/>
<path d="M789.3 400.6H237.8V408.1H789.3V400.6Z" fill="#B0D7C0"/>
<path d="M689.8 374C689.8 374 685.1 371.7 683.5 367.1C681.9 362.5 684.7 359.4 685.9 359.7C687.1 360 688.9 365.8 690.4 365.8C691.9 365.8 691.6 355.6 694.6 354.5C697.6 353.4 697.3 364.6 697.4 365.5C697.6 367.8 701.5 362.8 702.9 360.8C704.6 358.3 710.1 367.3 698.6 374C695.69 374.523 692.71 374.523 689.8 374V374Z" fill="#6DAFA7"/>
<path d="M709.2 375.1V375.5C709.066 381.451 707.916 387.336 705.8 392.9V392.9C705.607 393.357 705.289 393.75 704.882 394.033C704.475 394.317 703.995 394.478 703.5 394.5H685.5C685 394.498 684.512 394.343 684.101 394.058C683.69 393.772 683.376 393.368 683.2 392.9C681.074 387.339 679.924 381.452 679.8 375.5V375.1C679.792 374.848 679.835 374.597 679.928 374.363C680.02 374.129 680.16 373.916 680.338 373.738C680.516 373.56 680.729 373.42 680.963 373.328C681.197 373.235 681.448 373.192 681.7 373.2H707.3C707.554 373.182 707.809 373.219 708.048 373.308C708.286 373.398 708.503 373.537 708.683 373.717C708.863 373.897 709.002 374.114 709.092 374.352C709.181 374.591 709.218 374.846 709.2 375.1Z" fill="#22272E"/>
<path d="M641.6 367.7C633.8 368.5 631.8 389.6 617 391.7C617 391.7 614.3 391.8 609.9 391.9C597.2 392.3 571 392.9 560.4 392C561.938 391.99 563.474 391.89 565 391.7C569.6 391.1 572.9 388.6 575.6 385.6C581.6 378.6 584.3 368.3 589.6 367.8H641.6V367.7Z" fill="#22272E"/>
<path d="M575.5 385.6C572.873 388.91 569.082 391.092 564.9 391.7C563.374 391.893 561.838 391.993 560.3 392C549.1 392 545.8 385.8 545.8 385.8C545.8 385.8 563.7 386.6 575.5 385.6Z" fill="#6DAFA7"/>
<path d="M499.9 394.1H427.3V388.7H505.3C505.303 389.41 505.165 390.113 504.894 390.77C504.624 391.426 504.226 392.022 503.724 392.524C503.222 393.026 502.626 393.424 501.97 393.694C501.313 393.965 500.61 394.103 499.9 394.1V394.1Z" fill="#22272E"/>
<path d="M442.9 394.1H331C329.234 394.09 327.522 393.496 326.129 392.411C324.736 391.325 323.741 389.81 323.3 388.1L304.9 314.8C304.743 314.161 304.733 313.494 304.87 312.851C305.007 312.207 305.288 311.603 305.693 311.083C306.097 310.564 306.613 310.142 307.203 309.851C307.793 309.559 308.442 309.405 309.1 309.4H421C422.766 309.41 424.478 310.004 425.871 311.09C427.264 312.175 428.259 313.69 428.7 315.4L447.1 388.7C447.267 389.34 447.285 390.01 447.152 390.658C447.019 391.306 446.738 391.914 446.332 392.436C445.926 392.958 445.405 393.38 444.81 393.668C444.215 393.957 443.561 394.105 442.9 394.1Z" fill="#22272E"/>
<path d="M376.794 358.082C379.442 355.042 378.313 349.725 374.273 346.207C370.233 342.689 364.811 342.302 362.164 345.342C359.516 348.382 360.645 353.699 364.685 357.217C368.725 360.736 374.146 361.123 376.794 358.082Z" fill="#63737A"/>
<path d="M506 383.3H482.3C481.744 383.297 481.211 383.075 480.818 382.682C480.425 382.289 480.203 381.756 480.2 381.2V381.2C480.208 378.312 481.359 375.544 483.401 373.501C485.444 371.459 488.212 370.308 491.1 370.3H497.1C499.988 370.308 502.756 371.459 504.799 373.501C506.841 375.544 507.992 378.312 508 381.2V381.2C508.014 381.471 507.972 381.742 507.877 381.996C507.783 382.25 507.638 382.483 507.451 382.679C507.264 382.876 507.039 383.032 506.789 383.139C506.54 383.245 506.271 383.3 506 383.3V383.3Z" fill="#22272E"/>
<path d="M650.4 385.7C648.2 385.3 644.6 384.2 643.4 380.2C642.2 376.2 651.3 367.5 654.1 367.5C656.9 367.5 662 370.3 664.7 374.1C667.4 377.9 662.4 380.3 663 382.1C663.6 383.9 658 387.2 650.4 385.7Z" fill="white" stroke="#B0D7C0" stroke-width="1.8" stroke-linecap="round" stroke-linejoin="round"/>
<path d="M643.4 380.2C643.4 380.2 648.1 383.6 650.3 382.6C652.5 381.6 654.2 378.8 658.1 379.2C662 379.6 661.2 372.8 658.1 371.7C655 370.6 652.8 377.6 650.3 377.7C647.8 377.8 647.2 376.2 649.5 374.4" fill="white"/>
<path d="M643.4 380.2C643.4 380.2 648.1 383.6 650.3 382.6C652.5 381.6 654.2 378.8 658.1 379.2C662 379.6 661.2 372.8 658.1 371.7C655 370.6 652.8 377.6 650.3 377.7C647.8 377.8 647.2 376.2 649.5 374.4" stroke="#B0D7C0" stroke-width="1.8" stroke-linecap="round" stroke-linejoin="round"/>
<path d="M638.7 391.9C638.7 391.9 641.2 389 640.1 387.4C639 385.8 638.1 385.3 637.6 384.4C636.9 383 637 380 635.4 378.5C633.8 377 631.2 379.4 625.2 378.6C620.6 378 616.4 385.1 618 387.1C618.594 388.018 619.337 388.829 620.2 389.5C620.2 389.5 619.3 391.3 619.8 392.4C620.3 393.5 623.8 395.1 629.1 395.6C634.4 396.1 638.7 391.9 638.7 391.9Z" fill="white" stroke="#B0D7C0" stroke-width="1.8" stroke-linecap="round" stroke-linejoin="round"/>
<path d="M620.2 389.6C620.2 389.6 625 393.3 628.4 392.5C631.8 391.7 635.1 385.5 634.9 383.8C634.7 382.1 633.3 381.3 629.9 384.4C626.5 387.5 623.9 386.7 624.2 384" fill="white"/>
<path d="M620.2 389.6C620.2 389.6 625 393.3 628.4 392.5C631.8 391.7 635.1 385.5 634.9 383.8C634.7 382.1 633.3 381.3 629.9 384.4C626.5 387.5 623.9 386.7 624.2 384" stroke="#B0D7C0" stroke-width="1.8" stroke-linecap="round" stroke-linejoin="round"/>
</g>
<defs>
<clipPath id="clip0_3_2">
<rect width="1024" height="768" fill="white"/>
</clipPath>
</defs>
</svg>
