<svg width="1024" height="768" viewBox="0 0 1024 768" fill="none" xmlns="http://www.w3.org/2000/svg">
<g clip-path="url(#clip0_5_1942)">
<path d="M766.3 602L246.3 587.1C234.608 586.775 223.436 582.199 214.876 574.228C206.316 566.257 200.956 555.439 199.8 543.8L174.7 295.8C174.032 289.162 174.749 282.457 176.808 276.11C178.866 269.764 182.22 263.914 186.657 258.932C191.095 253.949 196.518 249.943 202.585 247.166C208.651 244.389 215.229 242.902 221.9 242.8L800.7 234.8C807.583 234.707 814.406 236.089 820.71 238.853C827.014 241.617 832.653 245.699 837.248 250.825C841.843 255.95 845.287 262 847.349 268.568C849.41 275.135 850.041 282.068 849.2 288.9L815.5 559.8C813.998 571.685 808.13 582.587 799.037 590.387C789.944 598.186 778.275 602.325 766.3 602V602Z" fill="#EAF9F3"/>
<path d="M341.9 647H-73.6001C-77.5783 647 -81.3937 645.419 -84.2067 642.606C-87.0197 639.793 -88.6001 635.978 -88.6001 632V396.3C-88.6001 392.322 -87.0197 388.506 -84.2067 385.693C-81.3937 382.88 -77.5783 381.3 -73.6001 381.3H341.9C345.878 381.3 349.693 382.88 352.507 385.693C355.32 388.506 356.9 392.322 356.9 396.3V632C356.9 635.978 355.32 639.793 352.507 642.606C349.693 645.419 345.878 647 341.9 647Z" stroke="#B8D8C7" stroke-width="1.8" stroke-linecap="round" stroke-linejoin="round"/>
<path d="M891 631.2H471.9C467.922 631.2 464.106 629.62 461.293 626.806C458.48 623.993 456.9 620.178 456.9 616.2V271.9C456.9 267.922 458.48 264.106 461.293 261.293C464.106 258.48 467.922 256.9 471.9 256.9H891C894.978 256.9 898.793 258.48 901.607 261.293C904.42 264.106 906 267.922 906 271.9V616.2C906 620.178 904.42 623.993 901.607 626.806C898.793 629.62 894.978 631.2 891 631.2Z" stroke="#B8D8C7" stroke-width="1.8" stroke-linecap="round" stroke-linejoin="round"/>
<path d="M242.3 311H152.4V302.1H242.3C242.537 302.099 242.771 302.144 242.99 302.234C243.209 302.324 243.408 302.457 243.576 302.624C243.743 302.792 243.876 302.99 243.966 303.209C244.056 303.428 244.101 303.663 244.1 303.9V309.1C244.111 309.344 244.072 309.588 243.987 309.816C243.901 310.045 243.771 310.254 243.603 310.432C243.435 310.609 243.233 310.751 243.009 310.848C242.785 310.946 242.544 310.997 242.3 311V311Z" stroke="#B8D8C7" stroke-width="1.8" stroke-linecap="round" stroke-linejoin="round"/>
<path d="M226 302.1H205.7C204.642 302.103 203.62 301.717 202.828 301.017C202.035 300.317 201.527 299.35 201.4 298.3L199.8 283.9C199.734 283.296 199.796 282.684 199.982 282.105C200.168 281.527 200.474 280.993 200.879 280.541C201.285 280.088 201.781 279.726 202.336 279.477C202.891 279.229 203.492 279.1 204.1 279.1H227.6C228.207 279.102 228.808 279.232 229.362 279.48C229.916 279.729 230.412 280.092 230.817 280.544C231.222 280.996 231.528 281.529 231.715 282.107C231.901 282.685 231.964 283.296 231.9 283.9L230.3 298.3C230.155 299.342 229.641 300.298 228.853 300.995C228.064 301.692 227.052 302.084 226 302.1V302.1Z" stroke="#B8D8C7" stroke-width="1.8" stroke-linecap="round" stroke-linejoin="round"/>
<path d="M213.4 279.1C213.4 279.1 205.4 278.3 203.8 267.5C203.8 267.5 211 269.6 213.3 274.7C213.3 274.7 214.3 263.3 219.7 262.2C219.7 262.2 222.1 270.7 218.3 274.9C218.3 274.9 221.2 270.1 228.6 270.2C227.901 272.306 226.697 274.209 225.093 275.743C223.489 277.277 221.535 278.395 219.4 279" fill="#B8D8C7"/>
<path d="M338.7 431.1H248.5C247.388 431.092 246.325 430.647 245.539 429.861C244.753 429.075 244.308 428.011 244.3 426.9V399.5C244.308 398.388 244.753 397.325 245.539 396.539C246.325 395.753 247.388 395.308 248.5 395.3H338.7C339.811 395.308 340.875 395.753 341.661 396.539C342.447 397.325 342.892 398.388 342.9 399.5V426.9C342.914 427.455 342.814 428.007 342.608 428.523C342.402 429.039 342.093 429.507 341.7 429.9C341.307 430.293 340.839 430.602 340.323 430.808C339.807 431.014 339.255 431.114 338.7 431.1Z" stroke="#B8D8C7" stroke-width="1.8" stroke-linecap="round" stroke-linejoin="round"/>
<path d="M304 404.9H283.2C282.805 404.89 282.429 404.729 282.15 404.449C281.871 404.17 281.71 403.795 281.7 403.4V403.4C281.71 403.005 281.871 402.63 282.15 402.35C282.429 402.071 282.805 401.91 283.2 401.9H304C304.394 401.91 304.77 402.071 305.049 402.35C305.328 402.63 305.49 403.005 305.5 403.4V403.4C305.49 403.795 305.328 404.17 305.049 404.449C304.77 404.729 304.394 404.89 304 404.9Z" fill="#B8D8C7"/>
<path d="M338.7 476.9H248.5C247.388 476.892 246.325 476.447 245.539 475.661C244.753 474.875 244.308 473.811 244.3 472.7V445.3C244.308 444.188 244.753 443.125 245.539 442.339C246.325 441.553 247.388 441.108 248.5 441.1H338.7C339.811 441.108 340.875 441.553 341.661 442.339C342.447 443.125 342.892 444.188 342.9 445.3V472.7C342.914 473.255 342.814 473.807 342.608 474.323C342.402 474.839 342.093 475.307 341.7 475.7C341.307 476.093 340.839 476.402 340.323 476.608C339.807 476.814 339.255 476.914 338.7 476.9V476.9Z" stroke="#B8D8C7" stroke-width="1.8" stroke-linecap="round" stroke-linejoin="round"/>
<path d="M304 450.7H283.2C282.805 450.69 282.429 450.529 282.15 450.249C281.871 449.97 281.71 449.595 281.7 449.2C281.71 448.805 281.871 448.43 282.15 448.15C282.429 447.871 282.805 447.71 283.2 447.7H304C304.394 447.71 304.77 447.871 305.049 448.15C305.328 448.43 305.49 448.805 305.5 449.2C305.504 449.398 305.468 449.595 305.394 449.779C305.32 449.963 305.21 450.13 305.069 450.27C304.929 450.41 304.762 450.52 304.579 450.594C304.395 450.668 304.198 450.704 304 450.7Z" fill="#B8D8C7"/>
<path d="M801.9 509.2H711.7C710.589 509.192 709.525 508.747 708.739 507.961C707.953 507.175 707.508 506.111 707.5 505V477.6C707.508 476.488 707.953 475.425 708.739 474.639C709.525 473.853 710.589 473.408 711.7 473.4H801.9C803.012 473.408 804.075 473.853 804.861 474.639C805.647 475.425 806.092 476.488 806.1 477.6V505C806.114 505.555 806.014 506.107 805.808 506.623C805.602 507.139 805.293 507.608 804.9 508C804.508 508.393 804.039 508.702 803.523 508.908C803.008 509.114 802.455 509.214 801.9 509.2V509.2Z" stroke="#B8D8C7" stroke-width="1.8" stroke-linecap="round" stroke-linejoin="round"/>
<path d="M767.2 483.1H746.4C746.005 483.09 745.63 482.928 745.35 482.649C745.071 482.37 744.91 481.994 744.9 481.6C744.91 481.205 745.071 480.83 745.35 480.55C745.63 480.271 746.005 480.11 746.4 480.1H767.2C767.595 480.11 767.97 480.271 768.249 480.55C768.528 480.83 768.69 481.205 768.7 481.6V481.6C768.69 481.994 768.528 482.37 768.249 482.649C767.97 482.928 767.595 483.09 767.2 483.1V483.1Z" fill="#B8D8C7"/>
<path d="M686.1 509.2H595.9C594.788 509.192 593.724 508.747 592.939 507.961C592.153 507.175 591.708 506.111 591.7 505V477.6C591.708 476.488 592.153 475.425 592.939 474.639C593.724 473.853 594.788 473.408 595.9 473.4H686.1C687.211 473.408 688.275 473.853 689.061 474.639C689.847 475.425 690.292 476.488 690.3 477.6V505C690.292 506.111 689.847 507.175 689.061 507.961C688.275 508.747 687.211 509.192 686.1 509.2V509.2Z" stroke="#B8D8C7" stroke-width="1.8" stroke-linecap="round" stroke-linejoin="round"/>
<path d="M651.4 483.1H630.6C630.205 483.09 629.829 482.928 629.55 482.649C629.271 482.37 629.11 481.994 629.1 481.6C629.11 481.205 629.271 480.83 629.55 480.55C629.829 480.271 630.205 480.11 630.6 480.1H651.4C651.794 480.11 652.17 480.271 652.449 480.55C652.728 480.83 652.89 481.205 652.9 481.6V481.6C652.89 481.994 652.728 482.37 652.449 482.649C652.17 482.928 651.794 483.09 651.4 483.1V483.1Z" fill="#B8D8C7"/>
<path d="M223.7 431.1H133.5C132.388 431.092 131.325 430.647 130.539 429.861C129.753 429.075 129.308 428.011 129.3 426.9V399.5C129.308 398.388 129.753 397.325 130.539 396.539C131.325 395.753 132.388 395.308 133.5 395.3H223.7C224.811 395.308 225.875 395.753 226.661 396.539C227.447 397.325 227.892 398.388 227.9 399.5V426.9C227.914 427.455 227.814 428.007 227.608 428.523C227.402 429.039 227.093 429.507 226.7 429.9C226.307 430.293 225.839 430.602 225.323 430.808C224.807 431.014 224.255 431.114 223.7 431.1Z" stroke="#B8D8C7" stroke-width="1.8" stroke-linecap="round" stroke-linejoin="round"/>
<path d="M189 404.9H168.2C167.805 404.89 167.429 404.729 167.15 404.449C166.871 404.17 166.71 403.795 166.7 403.4V403.4C166.71 403.005 166.871 402.63 167.15 402.35C167.429 402.071 167.805 401.91 168.2 401.9H189C189.394 401.91 189.77 402.071 190.049 402.35C190.328 402.63 190.49 403.005 190.5 403.4V403.4C190.504 403.598 190.468 403.795 190.394 403.979C190.32 404.163 190.21 404.33 190.069 404.47C189.929 404.61 189.762 404.72 189.579 404.794C189.395 404.868 189.198 404.904 189 404.9Z" fill="#B8D8C7"/>
<path d="M223.7 476.9H133.5C132.388 476.892 131.325 476.447 130.539 475.661C129.753 474.875 129.308 473.811 129.3 472.7V445.3C129.308 444.188 129.753 443.125 130.539 442.339C131.325 441.553 132.388 441.108 133.5 441.1H223.7C224.811 441.108 225.875 441.553 226.661 442.339C227.447 443.125 227.892 444.188 227.9 445.3V472.7C227.914 473.255 227.814 473.807 227.608 474.323C227.402 474.839 227.093 475.307 226.7 475.7C226.307 476.093 225.839 476.402 225.323 476.608C224.807 476.814 224.255 476.914 223.7 476.9V476.9Z" stroke="#B8D8C7" stroke-width="1.8" stroke-linecap="round" stroke-linejoin="round"/>
<path d="M189 450.7H168.2C167.805 450.69 167.429 450.529 167.15 450.249C166.871 449.97 166.71 449.595 166.7 449.2V449.2C166.71 448.805 166.871 448.43 167.15 448.15C167.429 447.871 167.805 447.71 168.2 447.7H189C189.394 447.71 189.77 447.871 190.049 448.15C190.328 448.43 190.49 448.805 190.5 449.2V449.2C190.511 449.4 190.48 449.6 190.409 449.787C190.338 449.975 190.228 450.145 190.086 450.286C189.945 450.428 189.774 450.538 189.587 450.609C189.4 450.681 189.2 450.712 189 450.7V450.7Z" fill="#B8D8C7"/>
<path d="M933.2 361.7H478.2C476.984 361.687 475.822 361.198 474.962 360.338C474.102 359.478 473.613 358.316 473.6 357.1V277.4C473.613 276.184 474.102 275.021 474.962 274.161C475.822 273.302 476.984 272.813 478.2 272.8H933.2C934.416 272.813 935.579 273.302 936.438 274.161C937.298 275.021 937.787 276.184 937.8 277.4V357.1C937.801 357.704 937.683 358.303 937.453 358.862C937.222 359.42 936.883 359.928 936.456 360.355C936.028 360.783 935.521 361.122 934.962 361.352C934.403 361.583 933.805 361.701 933.2 361.7V361.7Z" stroke="#B8D8C7" stroke-width="1.8" stroke-linecap="round" stroke-linejoin="round"/>
<path d="M933.2 460.6H478.2C476.984 460.587 475.822 460.098 474.962 459.238C474.102 458.378 473.613 457.216 473.6 456V376.3C473.613 375.084 474.102 373.921 474.962 373.062C475.822 372.202 476.984 371.713 478.2 371.7H933.2C934.416 371.713 935.579 372.202 936.438 373.062C937.298 373.921 937.787 375.084 937.8 376.3V456C937.81 456.607 937.697 457.209 937.469 457.771C937.241 458.334 936.903 458.845 936.474 459.274C936.045 459.703 935.534 460.041 934.972 460.269C934.409 460.497 933.807 460.609 933.2 460.6V460.6Z" stroke="#B8D8C7" stroke-width="1.8" stroke-linecap="round" stroke-linejoin="round"/>
<path d="M514.2 311.4H504.3V361.7H514.2V311.4Z" stroke="#B8D8C7" stroke-width="1.8" stroke-linecap="round" stroke-linejoin="round"/>
<path d="M524.4 325.1H514.1V361.7H524.4V325.1Z" stroke="#B8D8C7" stroke-width="1.8" stroke-linecap="round" stroke-linejoin="round"/>
<path d="M812.5 410.2H802.6V460.5H812.5V410.2Z" stroke="#B8D8C7" stroke-width="1.8" stroke-linecap="round" stroke-linejoin="round"/>
<path d="M822.8 423.9H812.5V460.5H822.8V423.9Z" stroke="#B8D8C7" stroke-width="1.8" stroke-linecap="round" stroke-linejoin="round"/>
<path d="M792.4 410.2H782.5V460.5H792.4V410.2Z" stroke="#B8D8C7" stroke-width="1.8" stroke-linecap="round" stroke-linejoin="round"/>
<path d="M773.157 409.051L758.015 457.018L767.456 459.998L782.598 412.031L773.157 409.051Z" stroke="#B8D8C7" stroke-width="1.8" stroke-linecap="round" stroke-linejoin="round"/>
<path d="M802.7 423.9H792.4V460.5H802.7V423.9Z" stroke="#B8D8C7" stroke-width="1.8" stroke-linecap="round" stroke-linejoin="round"/>
<path d="M679 311.4H669.1V361.7H679V311.4Z" stroke="#B8D8C7" stroke-width="1.8" stroke-linecap="round" stroke-linejoin="round"/>
<path d="M689.3 325.1H679V361.7H689.3V325.1Z" stroke="#B8D8C7" stroke-width="1.8" stroke-linecap="round" stroke-linejoin="round"/>
<path d="M581.2 311.4H571.3V361.7H581.2V311.4Z" stroke="#B8D8C7" stroke-width="1.8" stroke-linecap="round" stroke-linejoin="round"/>
<path d="M561.968 310.248L546.826 358.214L556.267 361.195L571.409 313.228L561.968 310.248Z" stroke="#B8D8C7" stroke-width="1.8" stroke-linecap="round" stroke-linejoin="round"/>
<path d="M591.5 325.1H581.2V361.7H591.5V325.1Z" stroke="#B8D8C7" stroke-width="1.8" stroke-linecap="round" stroke-linejoin="round"/>
<path d="M812.4 318L813.5 303.1C813.521 302.867 813.493 302.631 813.417 302.41C813.34 302.189 813.217 301.986 813.057 301.816C812.896 301.646 812.701 301.512 812.484 301.423C812.267 301.334 812.034 301.292 811.8 301.3H803.2C802.969 301.301 802.74 301.349 802.527 301.441C802.315 301.533 802.123 301.667 801.964 301.836C801.805 302.004 801.682 302.203 801.603 302.42C801.523 302.637 801.488 302.869 801.5 303.1L802.6 318C802.6 318 793.6 323.8 793.7 328.6C793.8 332.3 796 350 797 357.8C797.127 358.85 797.635 359.817 798.428 360.517C799.22 361.217 800.242 361.603 801.3 361.6H813.7C814.758 361.603 815.78 361.217 816.572 360.517C817.365 359.817 817.873 358.85 818 357.8C819 350 821.2 332.3 821.3 328.6C821.4 323.7 812.4 318 812.4 318Z" fill="#B8D8C7"/>
<path d="M772.5 318L773.6 303.1C773.621 302.867 773.593 302.631 773.516 302.41C773.44 302.189 773.317 301.986 773.156 301.816C772.995 301.646 772.8 301.512 772.583 301.423C772.367 301.334 772.134 301.292 771.9 301.3H763.3C763.068 301.301 762.839 301.349 762.627 301.441C762.415 301.533 762.223 301.667 762.064 301.836C761.905 302.004 761.782 302.203 761.702 302.42C761.622 302.637 761.587 302.869 761.6 303.1L762.7 318C762.7 318 753.7 323.8 753.8 328.6C753.9 332.3 756.1 350 757.1 357.8C757.227 358.85 757.735 359.817 758.528 360.517C759.32 361.217 760.342 361.603 761.4 361.6H773.8C774.857 361.603 775.879 361.217 776.672 360.517C777.464 359.817 777.972 358.85 778.1 357.8C779.1 350 781.3 332.3 781.4 328.6C781.5 323.7 772.5 318 772.5 318Z" fill="#B8D8C7"/>
<path d="M173.2 555H1129" stroke="#B8D8C7" stroke-width="1.8" stroke-linecap="round" stroke-linejoin="round"/>
<path d="M261.1 565.2V685.5H269.2L271.8 565.2H261.1Z" fill="#B0D7C0"/>
<path d="M271.8 565.2H261.1V578.3H271.5L271.8 565.2Z" fill="#6DAFA7"/>
<path d="M741.6 565.2V685.5H733.4L730.9 565.2H741.6Z" fill="#B0D7C0"/>
<path d="M730.9 565.2H741.6V578.3H731.2L730.9 565.2Z" fill="#6DAFA7"/>
<path d="M776.2 560.3H226.5L285 534.7H717.6L776.2 560.3Z" fill="#F8DA30"/>
<path d="M776.2 560.3H226.5V568H776.2V560.3Z" fill="#B0D7C0"/>
<path d="M291.4 501.4L278.7 508.7C278.241 508.967 277.734 509.14 277.208 509.209C276.682 509.278 276.148 509.241 275.636 509.102C275.124 508.962 274.645 508.722 274.227 508.396C273.809 508.069 273.46 507.663 273.2 507.2L236.8 444.4C236.533 443.941 236.36 443.434 236.291 442.908C236.222 442.382 236.259 441.848 236.398 441.336C236.538 440.824 236.778 440.345 237.104 439.927C237.431 439.509 237.837 439.16 238.3 438.9L251 431.6C251.459 431.333 251.966 431.16 252.492 431.091C253.018 431.022 253.552 431.059 254.064 431.198C254.576 431.338 255.055 431.578 255.473 431.904C255.891 432.231 256.24 432.637 256.5 433.1L292.9 495.9C293.42 496.831 293.554 497.928 293.274 498.956C292.993 499.985 292.32 500.862 291.4 501.4V501.4Z" fill="#22272E"/>
<path d="M282.5 492.5C282.103 491.818 281.514 491.269 280.807 490.922C280.099 490.574 279.304 490.443 278.523 490.546C277.741 490.648 277.007 490.979 276.413 491.498C275.819 492.016 275.391 492.698 275.183 493.459C274.976 494.22 274.998 495.025 275.247 495.773C275.495 496.521 275.959 497.179 276.581 497.665C277.202 498.15 277.953 498.44 278.74 498.5C279.526 498.56 280.312 498.386 281 498C281.92 497.462 282.593 496.585 282.874 495.556C283.154 494.528 283.02 493.431 282.5 492.5V492.5Z" fill="#63737A"/>
<path d="M265.8 482.5L275.1 477.1" stroke="#63737A" stroke-width="1.8" stroke-linecap="round" stroke-linejoin="round"/>
<path d="M263.2 478.1L272.6 472.7" stroke="#63737A" stroke-width="1.8" stroke-linecap="round" stroke-linejoin="round"/>
<path d="M310.6 458.5L302.4 493.2C302.1 494.2 306.9 496.7 313.3 498.9C319.7 501.1 325.1 502.1 325.4 501.2L340.5 468.9L310.6 458.5Z" fill="#F8DA30"/>
<path d="M332.7 477.6L338.3 479.5C338.881 479.698 339.412 480.02 339.857 480.443C340.302 480.865 340.65 481.379 340.878 481.949C341.106 482.519 341.208 483.131 341.177 483.744C341.147 484.357 340.984 484.956 340.7 485.5L336 494.5C335.521 495.405 334.731 496.106 333.775 496.474C332.819 496.842 331.762 496.851 330.8 496.5L324.7 494.4" stroke="#F8DA30" stroke-width="1.8" stroke-linecap="round" stroke-linejoin="round"/>
<path d="M340.5 469C340.1 470.2 333 468.9 324.8 466C316.6 463.1 310.2 459.8 310.6 458.5C311 457.2 318.1 458.6 326.3 461.5C334.5 464.4 340.9 467.7 340.5 469Z" fill="#6DAFA7"/>
<path d="M393.7 288.8L279 319.2C278.023 319.466 277 319.517 276.001 319.35C275.003 319.183 274.052 318.8 273.216 318.23C272.379 317.66 271.676 316.915 271.156 316.046C270.635 315.178 270.309 314.207 270.2 313.2L255.9 189.5C255.814 188.801 255.886 188.091 256.109 187.423C256.332 186.755 256.701 186.145 257.189 185.637C257.678 185.129 258.273 184.737 258.932 184.488C259.592 184.24 260.298 184.141 261 184.2L377.6 192.3C379.208 192.399 380.734 193.05 381.918 194.143C383.102 195.236 383.873 196.705 384.1 198.3L397.1 283.5C397.301 284.649 397.063 285.831 396.434 286.813C395.804 287.795 394.828 288.504 393.7 288.8V288.8Z" fill="#63737A"/>
<path d="M399 289.2L283.1 319.9C282.11 320.155 281.077 320.196 280.07 320.019C279.064 319.841 278.107 319.451 277.263 318.873C276.42 318.295 275.711 317.543 275.182 316.668C274.654 315.793 274.319 314.815 274.2 313.8L259.8 188.8C259.724 188.089 259.804 187.371 260.036 186.694C260.267 186.018 260.644 185.401 261.14 184.886C261.635 184.371 262.238 183.972 262.905 183.715C263.572 183.458 264.287 183.35 265 183.4L382.9 191.5C384.518 191.6 386.054 192.25 387.254 193.34C388.454 194.431 389.246 195.898 389.5 197.5L402.7 283.6C402.83 284.818 402.532 286.043 401.857 287.065C401.181 288.087 400.171 288.842 399 289.2V289.2Z" fill="#22272E"/>
<path d="M308.3 207.1L280 206.7C279.724 206.703 279.457 206.602 279.253 206.417C279.049 206.231 278.923 205.975 278.9 205.7L278.5 202.5C278.48 202.341 278.494 202.18 278.54 202.027C278.585 201.874 278.662 201.732 278.766 201.61C278.869 201.487 278.996 201.388 279.14 201.318C279.284 201.247 279.44 201.207 279.6 201.2L308 202C308.276 201.996 308.543 202.098 308.747 202.283C308.951 202.469 309.077 202.725 309.1 203L309.5 205.9C309.495 206.217 309.367 206.519 309.143 206.743C308.919 206.967 308.616 207.095 308.3 207.1Z" fill="#6DAFA7"/>
<path d="M280.3 217.7L335.1 217" stroke="#63737A" stroke-width="1.8" stroke-linecap="round" stroke-linejoin="round"/>
<path d="M281.7 228.8L316.4 227.4" stroke="#63737A" stroke-width="1.8" stroke-linecap="round" stroke-linejoin="round"/>
<path d="M294.7 297.2L291.4 297.9C291.228 297.943 291.048 297.947 290.874 297.913C290.7 297.879 290.535 297.807 290.392 297.702C290.249 297.597 290.131 297.461 290.046 297.306C289.961 297.15 289.911 296.977 289.9 296.8L286.6 269.1C286.578 268.935 286.589 268.768 286.632 268.608C286.676 268.448 286.751 268.298 286.854 268.167C286.956 268.037 287.084 267.928 287.23 267.848C287.375 267.767 287.535 267.717 287.7 267.7L291 267.2C291.165 267.178 291.332 267.189 291.492 267.232C291.652 267.276 291.802 267.351 291.933 267.454C292.063 267.556 292.172 267.684 292.252 267.829C292.333 267.975 292.383 268.135 292.4 268.3L295.8 295.8C295.787 296.119 295.674 296.427 295.477 296.678C295.279 296.929 295.007 297.112 294.7 297.2V297.2Z" fill="#F8DA30"/>
<path d="M306.4 293.3L300.9 249.3C300.878 249.135 300.889 248.968 300.932 248.808C300.976 248.648 301.051 248.498 301.154 248.367C301.256 248.237 301.384 248.128 301.529 248.048C301.675 247.967 301.835 247.917 302 247.9L304.8 247.6C304.96 247.572 305.124 247.58 305.281 247.622C305.438 247.665 305.583 247.741 305.707 247.846C305.831 247.951 305.93 248.082 305.998 248.229C306.066 248.377 306.101 248.537 306.1 248.7L311.6 292.3C311.637 292.616 311.555 292.934 311.37 293.193C311.185 293.452 310.911 293.632 310.6 293.7L307.7 294.3C307.2 294.5 306.5 294 306.4 293.3Z" fill="#6DAFA7"/>
<path d="M321.7 290L319.6 273.8C319.556 273.483 319.635 273.161 319.821 272.901C320.007 272.64 320.286 272.461 320.6 272.4L323 272C323.164 271.978 323.332 271.989 323.492 272.032C323.652 272.076 323.802 272.151 323.933 272.254C324.063 272.356 324.172 272.484 324.252 272.629C324.332 272.775 324.383 272.935 324.4 273.1L326.5 289.2C326.537 289.516 326.455 289.834 326.27 290.093C326.085 290.352 325.811 290.533 325.5 290.6L323.1 291.1C322.934 291.13 322.764 291.125 322.601 291.084C322.438 291.043 322.285 290.969 322.153 290.865C322.02 290.761 321.912 290.63 321.833 290.481C321.755 290.332 321.71 290.168 321.7 290V290Z" fill="#F8DA30"/>
<path d="M339.3 287.6L337.2 288C337.035 288.044 336.863 288.053 336.694 288.025C336.526 287.997 336.366 287.934 336.224 287.839C336.082 287.745 335.961 287.621 335.871 287.476C335.781 287.331 335.722 287.169 335.7 287L334.5 278.3C334.456 277.983 334.535 277.661 334.721 277.401C334.907 277.14 335.186 276.961 335.5 276.9L337.6 276.5C337.765 276.47 337.935 276.475 338.099 276.516C338.262 276.557 338.415 276.631 338.547 276.735C338.679 276.839 338.788 276.97 338.866 277.119C338.944 277.268 338.99 277.432 339 277.6L340.2 286.3C340.25 286.591 340.183 286.891 340.015 287.134C339.847 287.377 339.59 287.544 339.3 287.6V287.6Z" fill="#F4C2C9"/>
<path d="M380.1 275.5L371.5 256.2L378.9 239.1C382.3 242.7 384.8 248.1 385.8 254.2C386.9 262.9 384.6 271.2 380.1 275.5Z" fill="#6DAFA7"/>
<path d="M378.8 239.1L371.4 256.2L356.9 244.6C359 238.7 363.1 234.6 368.2 234.3C372 234 375.8 235.8 378.8 239.1Z" fill="#F4C2C9"/>
<path d="M380.1 275.5C378.611 276.959 376.739 277.964 374.7 278.4C366.3 280.2 357.6 271.2 355.8 258.3C355.118 253.676 355.494 248.957 356.9 244.5L371.4 256.1L380.1 275.5Z" fill="#F8DA30"/>
<path d="M477 190.3C481.318 198.483 486.127 206.397 491.4 214C491.768 214.54 492.24 215 492.789 215.354C493.338 215.708 493.953 215.947 494.596 216.059C495.24 216.171 495.899 216.153 496.535 216.005C497.172 215.858 497.772 215.584 498.3 215.2C502.993 212.023 507.905 209.182 513 206.7C514.219 206.085 515.163 205.034 515.644 203.757C516.126 202.479 516.11 201.067 515.6 199.8C512.9 193.5 510.1 185.1 507.8 177.7C507.086 175.399 505.879 173.282 504.263 171.494C502.647 169.707 500.661 168.293 498.444 167.351C496.227 166.409 493.831 165.961 491.423 166.039C489.015 166.116 486.652 166.717 484.5 167.8V167.8C482.508 168.76 480.728 170.11 479.267 171.77C477.806 173.43 476.693 175.366 475.993 177.464C475.294 179.563 475.023 181.78 475.196 183.984C475.369 186.189 475.982 188.337 477 190.3V190.3Z" fill="#F8DA30"/>
<path d="M510.2 201.2C510.918 201.17 511.632 201.318 512.277 201.632C512.923 201.947 513.481 202.417 513.9 203C516.048 206.217 518.679 209.084 521.7 211.5C526.4 214.8 543.5 217.7 544.9 220.2C546.3 222.7 542.2 223.5 539.4 223.2C536.6 222.9 534.2 222.6 533.6 223.8C533 225 533.8 230 537.7 233.5C541.6 237 548.6 240.7 548.9 243.9C549.2 247.1 541.3 244 537.8 241.8C534.3 239.6 533.3 239.2 533.3 239.2C533.3 239.2 532.8 240.2 530 241.2C528.4 241.7 526.7 240.4 525.2 240.7C523.7 241 517 244.4 513.8 242.8C511.5 241.6 506.4 230 503.9 226.9C502.1 224.6 497.8 218 495.7 214.7C495.269 214.051 495.031 213.293 495.013 212.514C494.996 211.736 495.199 210.968 495.6 210.3C496.983 207.605 499.071 205.335 501.642 203.732C504.213 202.13 507.171 201.255 510.2 201.2V201.2Z" fill="#F4C2C9"/>
<path d="M533.2 239.3C531.237 238.31 529.392 237.103 527.7 235.7C527.078 235.036 526.54 234.297 526.1 233.5" stroke="#E26E85" stroke-width="1.8" stroke-linecap="round" stroke-linejoin="round"/>
<path d="M525.1 240.7C523.952 240.233 522.847 239.664 521.8 239C520.97 238.111 520.233 237.139 519.6 236.1" stroke="#E26E85" stroke-width="1.8" stroke-linecap="round" stroke-linejoin="round"/>
<path d="M519.3 242.7C518.293 242.306 517.35 241.767 516.5 241.1C515.749 240.346 515.047 239.545 514.4 238.7" stroke="#E26E85" stroke-width="1.8" stroke-linecap="round" stroke-linejoin="round"/>
<path d="M444 269.4C444.048 269.225 444.153 269.071 444.297 268.961C444.442 268.851 444.618 268.791 444.8 268.791C444.981 268.791 445.158 268.851 445.303 268.961C445.447 269.071 445.552 269.225 445.6 269.4C445.955 270.769 446.566 272.058 447.4 273.2C448.553 274.014 449.839 274.623 451.2 275C451.375 275.048 451.529 275.153 451.639 275.297C451.749 275.442 451.809 275.618 451.809 275.8C451.809 275.981 451.749 276.158 451.639 276.303C451.529 276.447 451.375 276.552 451.2 276.6C449.831 276.955 448.542 277.566 447.4 278.4C446.585 279.553 445.976 280.839 445.6 282.2C445.552 282.375 445.447 282.529 445.303 282.639C445.158 282.749 444.981 282.809 444.8 282.809C444.618 282.809 444.442 282.749 444.297 282.639C444.153 282.529 444.048 282.375 444 282.2C443.645 280.831 443.034 279.542 442.2 278.4C441.046 277.585 439.761 276.976 438.4 276.6C438.225 276.552 438.071 276.447 437.961 276.303C437.851 276.158 437.791 275.981 437.791 275.8C437.791 275.618 437.851 275.442 437.961 275.297C438.071 275.153 438.225 275.048 438.4 275C439.836 274.857 441.179 274.221 442.2 273.2C443.221 272.179 443.857 270.836 444 269.4V269.4Z" fill="#6DAFA7"/>
<path d="M456.1 211.7C456.141 211.573 456.221 211.462 456.329 211.383C456.436 211.305 456.567 211.262 456.7 211.262C456.834 211.262 456.964 211.305 457.071 211.383C457.179 211.462 457.259 211.573 457.3 211.7C457.548 212.678 457.99 213.597 458.6 214.4C459.416 214.99 460.33 215.43 461.3 215.7C461.433 215.735 461.55 215.812 461.634 215.921C461.718 216.03 461.764 216.163 461.764 216.3C461.764 216.437 461.718 216.571 461.634 216.679C461.55 216.788 461.433 216.866 461.3 216.9C460.322 217.148 459.404 217.59 458.6 218.2C458.01 219.016 457.57 219.93 457.3 220.9C457.259 221.027 457.179 221.138 457.071 221.217C456.964 221.296 456.834 221.338 456.7 221.338C456.567 221.338 456.436 221.296 456.329 221.217C456.221 221.138 456.141 221.027 456.1 220.9C455.852 219.922 455.41 219.004 454.8 218.2C453.984 217.61 453.07 217.17 452.1 216.9C451.967 216.866 451.85 216.788 451.766 216.679C451.682 216.571 451.636 216.437 451.636 216.3C451.636 216.163 451.682 216.03 451.766 215.921C451.85 215.812 451.967 215.735 452.1 215.7C453.121 215.584 454.073 215.126 454.799 214.399C455.526 213.673 455.984 212.721 456.1 211.7V211.7Z" fill="#6DAFA7"/>
<path d="M550.8 261.4C550.835 261.267 550.912 261.15 551.021 261.066C551.13 260.982 551.263 260.936 551.4 260.936C551.537 260.936 551.671 260.982 551.779 261.066C551.888 261.15 551.966 261.267 552 261.4C552.248 262.378 552.69 263.297 553.3 264.1C554.139 264.651 555.047 265.088 556 265.4C556.127 265.441 556.238 265.521 556.317 265.629C556.396 265.737 556.438 265.867 556.438 266C556.438 266.134 556.396 266.264 556.317 266.371C556.238 266.479 556.127 266.559 556 266.6C555.022 266.848 554.104 267.29 553.3 267.9C552.71 268.716 552.27 269.63 552 270.6C551.959 270.727 551.879 270.838 551.772 270.917C551.664 270.996 551.534 271.038 551.4 271.038C551.267 271.038 551.137 270.996 551.029 270.917C550.921 270.838 550.841 270.727 550.8 270.6C550.553 269.622 550.111 268.704 549.5 267.9C548.684 267.31 547.77 266.87 546.8 266.6C546.673 266.559 546.562 266.479 546.483 266.371C546.405 266.264 546.362 266.134 546.362 266C546.362 265.867 546.405 265.737 546.483 265.629C546.562 265.521 546.673 265.441 546.8 265.4C547.778 265.153 548.697 264.71 549.5 264.1C550.149 263.321 550.595 262.393 550.8 261.4V261.4Z" fill="#6DAFA7"/>
<path d="M466.2 244.3C466.4 243.8 467 243.8 467.1 244.3C467.336 245.074 467.672 245.814 468.1 246.5C468.741 247.008 469.496 247.352 470.3 247.5C470.8 247.7 470.8 248.3 470.3 248.4C469.526 248.636 468.787 248.972 468.1 249.4C467.592 250.041 467.248 250.796 467.1 251.6C466.9 252.1 466.3 252.1 466.2 251.6C465.964 250.826 465.628 250.087 465.2 249.4C464.559 248.892 463.804 248.548 463 248.4C462.5 248.2 462.5 247.6 463 247.5C463.774 247.264 464.514 246.928 465.2 246.5C465.648 245.824 465.985 245.082 466.2 244.3V244.3Z" fill="#F8DA30"/>
<path d="M558.8 288.1C558.849 287.925 558.953 287.771 559.098 287.661C559.242 287.551 559.419 287.491 559.6 287.491C559.782 287.491 559.958 287.551 560.103 287.661C560.247 287.771 560.352 287.925 560.4 288.1C560.755 289.469 561.366 290.758 562.2 291.9C563.354 292.715 564.639 293.324 566 293.7C566.175 293.748 566.33 293.853 566.44 293.997C566.549 294.142 566.609 294.319 566.609 294.5C566.609 294.682 566.549 294.858 566.44 295.003C566.33 295.147 566.175 295.252 566 295.3C564.631 295.655 563.342 296.266 562.2 297.1C561.386 298.254 560.777 299.539 560.4 300.9C560.352 301.075 560.247 301.229 560.103 301.339C559.958 301.449 559.782 301.509 559.6 301.509C559.419 301.509 559.242 301.449 559.098 301.339C558.953 301.229 558.849 301.075 558.8 300.9C558.445 299.531 557.834 298.242 557 297.1C555.847 296.286 554.561 295.677 553.2 295.3C553.025 295.252 552.871 295.147 552.761 295.003C552.651 294.858 552.591 294.682 552.591 294.5C552.591 294.319 552.651 294.142 552.761 293.997C552.871 293.853 553.025 293.748 553.2 293.7C554.569 293.345 555.858 292.734 557 291.9C557.795 290.735 558.402 289.453 558.8 288.1V288.1Z" fill="#F8DA30"/>
<path d="M727.8 268.2C727.8 268.2 726.4 269.6 729 280.2C730.728 286.879 733.604 293.207 737.5 298.9C739.814 296.706 741.519 293.95 742.448 290.9C743.377 287.85 743.498 284.611 742.8 281.5C740.6 270.5 727.8 268.2 727.8 268.2Z" fill="#22272E"/>
<path d="M729.3 299.4C729.3 299.4 727.3 300 722.6 304.9C717.9 309.8 711 312.3 702.8 316C694.6 319.7 690.6 302.5 692.7 293.8C694.8 285.1 703.7 279.1 703.7 279.1L721.2 281.5C721.2 281.5 727 274.6 729.3 279.1C731.6 283.6 731.3 293.7 729.3 299.4Z" fill="#F4C2C9"/>
<path d="M714.3 331.3L654.7 345C654.083 345.145 653.443 345.168 652.817 345.065C652.191 344.963 651.592 344.738 651.053 344.404C650.514 344.069 650.047 343.632 649.677 343.116C649.308 342.601 649.044 342.018 648.9 341.4L632 268.2C631.855 267.583 631.832 266.943 631.935 266.317C632.037 265.691 632.262 265.092 632.596 264.553C632.931 264.014 633.368 263.547 633.884 263.177C634.399 262.808 634.982 262.544 635.6 262.4L695.2 248.7C695.817 248.555 696.457 248.532 697.083 248.635C697.709 248.737 698.308 248.962 698.847 249.296C699.386 249.631 699.853 250.068 700.223 250.584C700.592 251.099 700.856 251.682 701 252.3L717.8 325.5C717.965 326.111 718.005 326.749 717.917 327.376C717.829 328.003 717.615 328.605 717.288 329.147C716.961 329.689 716.528 330.159 716.014 330.529C715.501 330.899 714.918 331.161 714.3 331.3V331.3Z" fill="#22272E"/>
<path d="M689.2 269.7L650.4 278.6C650.098 278.672 649.784 278.682 649.478 278.63C649.171 278.577 648.879 278.464 648.617 278.296C648.356 278.128 648.131 277.909 647.956 277.652C647.781 277.395 647.66 277.105 647.6 276.8C647.528 276.498 647.518 276.184 647.571 275.878C647.623 275.571 647.736 275.279 647.904 275.017C648.073 274.756 648.292 274.531 648.549 274.356C648.806 274.181 649.095 274.06 649.4 274L688.2 265.1C688.503 265.028 688.816 265.018 689.123 265.071C689.429 265.123 689.722 265.236 689.983 265.404C690.244 265.573 690.469 265.792 690.644 266.049C690.819 266.306 690.94 266.595 691 266.9V266.9C691.09 267.506 690.956 268.123 690.625 268.638C690.294 269.153 689.788 269.53 689.2 269.7V269.7Z" fill="#F8DA30"/>
<path d="M650.3 288.9L693.7 278.9" stroke="#63737A" stroke-width="1.8" stroke-linecap="round" stroke-linejoin="round"/>
<path d="M652 296.2L695.4 286.2" stroke="#63737A" stroke-width="1.8" stroke-linecap="round" stroke-linejoin="round"/>
<path d="M677.9 325L661.9 328.7C661.598 328.772 661.284 328.782 660.977 328.73C660.671 328.677 660.378 328.564 660.117 328.396C659.856 328.227 659.631 328.008 659.456 327.751C659.281 327.494 659.16 327.205 659.1 326.9L655.4 310.9C655.328 310.598 655.318 310.284 655.37 309.977C655.423 309.671 655.536 309.378 655.704 309.117C655.872 308.856 656.091 308.631 656.348 308.456C656.605 308.281 656.895 308.16 657.2 308.1L673.2 304.4C673.502 304.328 673.816 304.318 674.122 304.37C674.429 304.423 674.721 304.536 674.983 304.704C675.244 304.872 675.469 305.091 675.644 305.348C675.819 305.605 675.94 305.895 676 306.2L679.7 322.2C679.789 322.805 679.656 323.423 679.325 323.938C678.994 324.452 678.488 324.83 677.9 325V325Z" fill="#F8DA30"/>
<path d="M681.9 302.3L698.2 298.5" stroke="#63737A" stroke-width="1.8" stroke-linecap="round" stroke-linejoin="round"/>
<path d="M683.7 310.2L700.1 306.5" stroke="#63737A" stroke-width="1.8" stroke-linecap="round" stroke-linejoin="round"/>
<path d="M685.5 318.2L695.4 315.9" stroke="#63737A" stroke-width="1.8" stroke-linecap="round" stroke-linejoin="round"/>
<path d="M676.6 255.3L655.4 260.2C655.056 260.272 654.7 260.258 654.364 260.158C654.027 260.058 653.721 259.876 653.472 259.627C653.224 259.379 653.042 259.073 652.942 258.736C652.842 258.4 652.827 258.043 652.9 257.7L653.1 256.7C653.194 256.312 653.393 255.957 653.675 255.675C653.957 255.393 654.312 255.194 654.7 255.1L675 250.4C675.38 250.306 675.78 250.322 676.151 250.446C676.523 250.569 676.852 250.796 677.1 251.1L677.7 251.9C677.935 252.172 678.095 252.499 678.167 252.851C678.238 253.203 678.217 253.568 678.107 253.909C677.996 254.251 677.8 254.559 677.536 254.802C677.272 255.046 676.949 255.217 676.6 255.3V255.3Z" fill="#6DAFA7"/>
<path d="M722.6 275.4C722.6 275.4 720.1 276.7 715.3 275.4C710.5 274.1 709.7 272.9 704.7 271.6C699.7 270.3 692.8 271.7 691.6 273.8C690.4 275.9 693.6 277.2 697.9 277.7C702.2 278.2 704.2 286.4 711.1 289.5C722.6 294.6 732.8 279 722.6 275.4Z" fill="#F4C2C9"/>
<path d="M691.6 273.8C690.4 275.9 693.6 277.2 697.9 277.7C702.2 278.2 704.2 286.4 711.1 289.5C713.224 290.483 715.606 290.764 717.9 290.3" stroke="#E26E85" stroke-width="1.8" stroke-linecap="round" stroke-linejoin="round"/>
<path d="M730.2 270.8C730.2 270.8 724.9 274.2 722.6 275.4C725.747 278.873 727.92 283.117 728.9 287.7C730.7 295.6 729.3 299.4 729.3 299.4C729.3 299.4 735.2 298.8 738.1 296.7C738.1 296.7 740.9 292.1 738.6 283.1C736.3 274.1 730.2 270.8 730.2 270.8Z" fill="white"/>
<path d="M793 258.6C792.084 255.54 790.454 252.742 788.244 250.436C786.034 248.131 783.308 246.383 780.29 245.338C777.272 244.293 774.048 243.98 770.886 244.426C767.723 244.871 764.712 246.062 762.1 247.9C755.975 252.252 749.634 256.29 743.1 260L727.8 268.3C727.8 268.3 736.5 276.9 737.8 286.4C739.1 295.9 737.5 299 737.5 299C737.5 299 761.4 293.1 782.5 282.8C786.818 280.647 790.239 277.04 792.159 272.613C794.08 268.187 794.378 263.225 793 258.6V258.6Z" fill="#6DAFA7"/>
<path d="M735.5 291.7C735.5 291.463 735.43 291.231 735.298 291.033C735.166 290.836 734.979 290.682 734.759 290.591C734.54 290.501 734.299 290.477 734.066 290.523C733.833 290.569 733.619 290.684 733.452 290.851C733.284 291.019 733.169 291.233 733.123 291.466C733.077 291.699 733.101 291.94 733.191 292.159C733.282 292.378 733.436 292.566 733.633 292.698C733.831 292.83 734.063 292.9 734.3 292.9C734.459 292.906 734.618 292.878 734.766 292.82C734.914 292.762 735.048 292.673 735.161 292.561C735.274 292.448 735.362 292.314 735.42 292.166C735.478 292.018 735.506 291.859 735.5 291.7Z" fill="#22272E"/>
<path d="M601.3 476.3L672 468L670.8 480.8L656.9 482.8L655.5 485.4L601.3 476.3Z" fill="#63737A"/>
<path d="M655.5 484L673.9 411.1C674.207 409.864 674.874 408.747 675.818 407.892C676.762 407.038 677.94 406.483 679.2 406.3L773.7 392.2C774.168 392.133 774.646 392.185 775.089 392.352C775.532 392.518 775.926 392.793 776.235 393.152C776.544 393.51 776.758 393.941 776.856 394.404C776.955 394.867 776.936 395.347 776.8 395.8L757.5 461.1C757.162 462.204 756.54 463.199 755.699 463.989C754.857 464.778 753.823 465.334 752.7 465.6L658.8 487.5C658.328 487.593 657.841 487.566 657.383 487.419C656.925 487.272 656.512 487.012 656.182 486.662C655.853 486.313 655.617 485.885 655.498 485.419C655.378 484.954 655.379 484.465 655.5 484V484Z" fill="#22272E"/>
<path d="M727.8 437.4C726.8 441 723.5 444.5 720.2 445.2C716.9 445.9 715.1 443.5 716.1 439.9C717.1 436.3 720.4 432.8 723.7 432.1C727 431.4 728.8 433.8 727.8 437.4Z" fill="#63737A"/>
<path d="M656.9 487.2C656.6 487 615.6 481.6 604.2 480C603.392 479.91 602.647 479.522 602.111 478.912C601.574 478.301 601.285 477.513 601.3 476.7V476.3L656.9 482.8V487.2Z" fill="#22272E"/>
<path d="M742.9 349.8H773.7C774.045 349.803 774.385 349.877 774.7 350.016C775.015 350.156 775.298 350.358 775.532 350.611C775.766 350.864 775.946 351.162 776.061 351.487C776.176 351.811 776.223 352.156 776.2 352.5L774.6 371.8C774.549 372.615 774.209 373.385 773.641 373.972C773.072 374.558 772.313 374.923 771.5 375L740.5 378.4C740.145 378.439 739.785 378.399 739.447 378.284C739.108 378.169 738.799 377.98 738.541 377.732C738.284 377.484 738.084 377.182 737.956 376.848C737.828 376.515 737.775 376.157 737.8 375.8L739.5 353.1C739.507 352.66 739.6 352.226 739.774 351.822C739.949 351.418 740.201 351.052 740.517 350.746C740.832 350.439 741.205 350.198 741.614 350.036C742.023 349.873 742.46 349.793 742.9 349.8Z" stroke="#6DAFA7" stroke-width="1.8" stroke-linecap="round" stroke-linejoin="round"/>
<path d="M740.9 350.5L758.9 360.2C759.484 360.497 760.139 360.627 760.792 360.574C761.446 360.521 762.071 360.288 762.6 359.9L775.4 350.5" stroke="#6DAFA7" stroke-width="1.8" stroke-linecap="round" stroke-linejoin="round"/>
<path d="M569.8 252.5L566.6 256C566.358 256.277 566.225 256.632 566.225 257C566.225 257.368 566.358 257.723 566.6 258C566.828 258.237 567.126 258.394 567.45 258.448C567.774 258.502 568.107 258.45 568.4 258.3L572.2 256L569.8 252.5Z" fill="#22272E"/>
<path d="M599 261L599.9 265.7C599.957 266.055 599.888 266.419 599.705 266.73C599.523 267.04 599.238 267.277 598.9 267.4V267.4C598.568 267.506 598.208 267.482 597.893 267.334C597.578 267.186 597.33 266.923 597.2 266.6L595.2 262.6L599 261Z" fill="#22272E"/>
<path d="M588.3 265.1C600.34 265.1 610.1 255.34 610.1 243.3C610.1 231.26 600.34 221.5 588.3 221.5C576.26 221.5 566.5 231.26 566.5 243.3C566.5 255.34 576.26 265.1 588.3 265.1Z" fill="#6DAFA7"/>
<path d="M595.019 255.565C601.794 251.84 604.267 243.328 600.542 236.552C596.817 229.777 588.305 227.304 581.53 231.029C574.754 234.754 572.281 243.266 576.006 250.041C579.731 256.817 588.243 259.29 595.019 255.565Z" fill="#F8DA30"/>
<path d="M592.2 248.3L588.3 243.3L590.4 236.3" stroke="#63737A" stroke-width="1.8" stroke-linecap="round" stroke-linejoin="round"/>
<path d="M574.4 222.2C574.249 222.252 574.089 222.273 573.93 222.26C573.771 222.247 573.617 222.202 573.476 222.127C573.335 222.052 573.211 221.949 573.112 221.824C573.013 221.698 572.941 221.554 572.9 221.4C572.677 219.963 572.953 218.493 573.685 217.237C574.416 215.98 575.557 215.013 576.916 214.497C578.276 213.981 579.771 213.948 581.152 214.404C582.533 214.86 583.715 215.776 584.5 217C584.589 217.14 584.644 217.298 584.661 217.463C584.678 217.628 584.657 217.794 584.599 217.95C584.541 218.105 584.447 218.244 584.326 218.357C584.205 218.47 584.059 218.553 583.9 218.6L574.4 222.2Z" fill="#6DAFA7"/>
<path d="M611.3 233C611.401 233.125 611.526 233.227 611.669 233.301C611.811 233.374 611.968 233.417 612.128 233.426C612.288 233.436 612.448 233.412 612.598 233.355C612.749 233.299 612.885 233.212 613 233.1C613.964 232.013 614.523 230.628 614.584 229.177C614.645 227.726 614.203 226.298 613.333 225.135C612.464 223.972 611.22 223.144 609.811 222.791C608.402 222.439 606.915 222.583 605.6 223.2C605.459 223.269 605.335 223.368 605.236 223.491C605.138 223.613 605.067 223.755 605.029 223.907C604.991 224.059 604.986 224.218 605.016 224.372C605.045 224.527 605.108 224.672 605.2 224.8L611.3 233Z" fill="#6DAFA7"/>
<path d="M598.2 219.9L592.5 218.3C592.277 218.235 592.068 218.126 591.887 217.98C591.706 217.834 591.555 217.653 591.444 217.449C591.332 217.245 591.262 217.02 591.237 216.789C591.213 216.557 591.234 216.323 591.3 216.1C591.365 215.877 591.474 215.668 591.62 215.487C591.766 215.306 591.947 215.155 592.151 215.044C592.355 214.932 592.58 214.862 592.811 214.838C593.043 214.813 593.277 214.834 593.5 214.9L599.2 216.5C599.423 216.566 599.632 216.674 599.813 216.82C599.994 216.966 600.145 217.147 600.256 217.351C600.368 217.556 600.438 217.78 600.463 218.011C600.487 218.243 600.466 218.477 600.4 218.7V218.7C600.259 219.145 599.951 219.519 599.541 219.742C599.131 219.966 598.651 220.023 598.2 219.9Z" fill="#6DAFA7"/>
<path d="M593.535 217.429L591.973 222.806L596.102 224.006L597.664 218.628L593.535 217.429Z" fill="#6DAFA7"/>
<path d="M355.6 388.7L356.5 397.9C356.545 398.357 356.444 398.817 356.21 399.213C355.976 399.608 355.622 399.919 355.2 400.1C353.841 400.719 352.708 401.743 351.956 403.033C351.204 404.322 350.87 405.813 351 407.3L352.1 417.5C352.243 418.998 352.865 420.41 353.874 421.527C354.882 422.644 356.224 423.406 357.7 423.7C358.143 423.806 358.543 424.045 358.847 424.384C359.15 424.724 359.343 425.148 359.4 425.6L360.3 434.8C360.345 435.184 360.283 435.572 360.122 435.923C359.961 436.274 359.707 436.575 359.387 436.791C359.068 437.008 358.695 437.132 358.309 437.152C357.923 437.171 357.54 437.084 357.2 436.9L355 435.8C352.618 434.598 350.58 432.812 349.076 430.608C347.572 428.405 346.651 425.856 346.4 423.2L344.3 402.9C344.029 400.244 344.427 397.563 345.457 395.1C346.488 392.637 348.118 390.471 350.2 388.8L352.2 387.2C352.503 386.976 352.861 386.836 353.236 386.794C353.611 386.753 353.99 386.811 354.335 386.963C354.68 387.116 354.979 387.356 355.201 387.661C355.423 387.966 355.561 388.325 355.6 388.7V388.7Z" fill="#22272E"/>
<path d="M402.3 194.4C404.1 206.6 397.3 217.7 385.9 219.3C372.8 221.1 359.1 209.8 357.3 194.2C355.6 178.9 366.3 168.4 379.4 170.2C390.9 171.8 400.6 182.4 402.3 194.4Z" fill="#F8AB5D"/>
<path d="M407 192.3C408.8 204.9 401.9 216.4 390.1 218C376.5 219.9 362.4 208.2 360.6 192.1C358.8 176.3 369.9 165.5 383.4 167.3C395.2 169 405.2 180 407 192.3Z" fill="#F8DA30"/>
<path d="M390.6 185.3C391 188.4 389.1 190.8 386.3 190.8C383.5 190.8 380.6 188.1 380.2 184.9C379.8 181.7 381.9 179.3 384.8 179.5C386.267 179.702 387.627 180.378 388.675 181.425C389.722 182.472 390.398 183.833 390.6 185.3V185.3Z" fill="#22272E"/>
<path d="M393.3 204.9L383 205.6C380.5 205.8 378.2 203.7 377.8 200.9C377 194.8 381 190 386.3 190.1C391.3 190.2 395.8 194.7 396.6 200.1C396.8 202.7 395.4 204.8 393.3 204.9Z" fill="#22272E"/>
<path d="M714.8 372.6C714.274 372.005 713.583 371.579 712.815 371.378C712.047 371.177 711.237 371.209 710.487 371.47C709.737 371.73 709.081 372.209 708.604 372.843C708.127 373.478 707.849 374.24 707.807 375.033C707.765 375.826 707.959 376.614 708.366 377.296C708.772 377.978 709.373 378.523 710.091 378.863C710.808 379.203 711.611 379.321 712.396 379.203C713.181 379.085 713.914 378.736 714.5 378.2C714.897 377.858 715.222 377.44 715.453 376.97C715.685 376.5 715.818 375.987 715.846 375.464C715.874 374.941 715.796 374.417 715.616 373.925C715.436 373.433 715.159 372.982 714.8 372.6V372.6Z" fill="#22272E"/>
<path d="M709.6 363.5L708.9 362.7C707.779 361.492 706.228 360.773 704.582 360.698C702.936 360.624 701.326 361.199 700.1 362.3V362.3C698.892 363.421 698.173 364.972 698.098 366.618C698.023 368.264 698.599 369.874 699.7 371.1L700.4 371.9C701.214 372.778 701.797 373.842 702.1 375C702.3 375.9 702.6 376.9 702.8 377.9C702.926 378.388 703.177 378.835 703.528 379.197C703.879 379.558 704.318 379.823 704.802 379.964C705.286 380.105 705.798 380.118 706.289 380.002C706.779 379.885 707.231 379.644 707.6 379.3L712 375.3L716.4 371.3C716.77 370.959 717.046 370.529 717.201 370.05C717.356 369.571 717.384 369.061 717.284 368.568C717.183 368.075 716.957 367.616 716.627 367.236C716.297 366.857 715.874 366.569 715.4 366.4C714.4 366.1 713.5 365.7 712.6 365.4C711.448 365.047 710.412 364.391 709.6 363.5V363.5Z" fill="#6DAFA7"/>
<path d="M630.2 379.2C631.641 387.538 631.641 396.062 630.2 404.4L662.6 397.4C662.6 397.4 655.4 385.4 653.5 374.4L630.2 379.2Z" fill="#22272E"/>
<path d="M630.9 384.4L654.7 379.4" stroke="#63737A" stroke-width="1.8" stroke-linecap="round" stroke-linejoin="round"/>
<path d="M636.5 389.1L651.9 385.4" stroke="#63737A" stroke-width="1.8" stroke-linecap="round" stroke-linejoin="round"/>
<path d="M636.8 393.9L647.1 391.5" stroke="#63737A" stroke-width="1.8" stroke-linecap="round" stroke-linejoin="round"/>
<path d="M706.8 489.2L728.6 484.3C728.6 484.3 728.9 494.3 744.3 500.2C744.3 500.2 727.2 513.2 721.9 516.6C722 516.5 709.2 509.9 706.8 489.2Z" fill="#6DAFA7"/>
<path d="M708.1 495.8L730 488.7" stroke="#22272E" stroke-width="1.8" stroke-linecap="round" stroke-linejoin="round"/>
<path d="M715.3 499.9L729 493.6" stroke="#22272E" stroke-width="1.8" stroke-linecap="round" stroke-linejoin="round"/>
<path d="M717.6 504.1L731.3 496.7" stroke="#22272E" stroke-width="1.8" stroke-linecap="round" stroke-linejoin="round"/>
<path d="M720.6 508.1L728.5 503.3" stroke="#22272E" stroke-width="1.8" stroke-linecap="round" stroke-linejoin="round"/>
<path d="M361 333.3C359.126 333.696 357.197 333.764 355.3 333.5L357.1 330.7C353.2 330.8 343.8 325.7 342.8 321C342.676 320.468 342.711 319.912 342.9 319.4V319.4V319.3C344.4 316.3 352.3 317 358.1 322.7C365 329.4 361 333.3 361 333.3Z" fill="#B8D8C7"/>
<path d="M357.2 330.7L355.4 333.5C352.585 333.121 349.869 332.205 347.4 330.8C344.509 329.309 342.216 326.874 340.9 323.9C342 321.4 342.8 319.7 343 319.3C342.815 319.813 342.78 320.368 342.9 320.9C343.9 325.7 353.3 330.8 357.2 330.7Z" fill="#6DAFA7"/>
<path d="M301.6 361C301.6 361 306.2 363.1 310.5 362.5C314.8 361.9 323.2 359.5 324.9 360.4C326.6 361.3 329.5 361.4 328.6 364.3C327.7 367.2 326 370.6 322.2 370.8C318.4 371 314.6 374 308.3 372.2C302 370.4 298.3 369.5 298.1 367C297.9 364.5 301.6 361 301.6 361Z" fill="#F4C2C9"/>
<path d="M361 333.3C359.4 338 338.5 365.5 328.6 379.9C318.7 394.3 301.9 435.1 293.5 433.4C285.1 431.7 274.7 423.5 276.5 418.8C278.3 414.1 299.6 400.7 315.8 377.6C332 354.5 331.6 338.5 336.5 325.4C338.6 319.8 340.1 320.2 340.1 320.2C340.093 321.499 340.33 322.789 340.8 324C342.05 327.018 344.362 329.473 347.3 330.9C349.769 332.305 352.485 333.221 355.3 333.6C357.202 333.868 359.137 333.766 361 333.3V333.3Z" fill="white"/>
<path d="M325 374.7C325 374.7 329 367.3 330 362.8" stroke="#B8D8C7" stroke-width="1.8" stroke-linecap="round" stroke-linejoin="round"/>
<path d="M328.8 375.7C328.8 375.7 331.5 370.6 332.9 369.3" stroke="#B8D8C7" stroke-width="1.8" stroke-linecap="round" stroke-linejoin="round"/>
<path d="M314.1 395.1C312.976 398.027 311.639 400.868 310.1 403.6" stroke="#B8D8C7" stroke-width="1.8" stroke-linecap="round" stroke-linejoin="round"/>
<path d="M308.5 393.7C305.6 397.922 302.096 401.695 298.1 404.9" stroke="#B8D8C7" stroke-width="1.8" stroke-linecap="round" stroke-linejoin="round"/>
<path d="M317 367.2C320.105 369.222 323.346 371.026 326.7 372.6C330.3 374 334.9 372.5 335.3 372.5C335.7 372.5 337.6 375.5 335.9 377.6C334.2 379.7 332.3 380 332.1 380.7C331.9 381.4 332.4 385.4 331.3 386.8C330.2 388.2 328.1 389 327.4 389.9C326.7 390.8 326 395.3 324.9 396C323.8 396.7 322.4 399 319.6 399.4C316.8 399.8 305.8 395.4 295.6 387.5C292.301 384.837 288.712 382.556 284.9 380.7C284.9 380.7 289.4 361 297.6 362.8C305.8 364.6 317 367.2 317 367.2Z" fill="#F4C2C9"/>
<path d="M317 367.2C320.105 369.221 323.346 371.026 326.7 372.6C330.3 374 334.9 372.5 335.3 372.5" stroke="#E26E85" stroke-width="1.8" stroke-linecap="round" stroke-linejoin="round"/>
<path d="M292.3 354.4C292.652 354.141 293.081 354.01 293.517 354.028C293.954 354.046 294.371 354.213 294.7 354.5C296 355.5 300.9 359.4 301.5 361C302.1 362.6 298.8 372.5 293.5 378.6C288.2 384.7 285.4 384.7 285.1 384.6C284.8 384.5 277.4 381.1 276.4 379.8C276.108 379.421 275.903 378.983 275.799 378.517C275.696 378.05 275.696 377.566 275.8 377.1C275.8 377.1 289.9 354.3 292.3 354.4Z" fill="#6DAFA7"/>
<path d="M227.6 319.8C224.315 323.822 222.683 328.944 223.036 334.126C223.389 339.307 225.7 344.16 229.5 347.7C231.8 349.8 234.4 352.2 237.3 354.8C252.9 368.8 277.1 377.5 277.1 377.5C290.3 371.4 292.3 354.4 292.3 354.4C280.4 346.9 268.6 332.9 259.9 320.7C258.059 318.183 255.667 316.12 252.906 314.67C250.145 313.22 247.088 312.421 243.971 312.334C240.853 312.247 237.757 312.875 234.92 314.169C232.082 315.463 229.579 317.389 227.6 319.8V319.8Z" fill="#F8DA30"/>
<path d="M332.2 380.8C330.802 381.481 329.324 381.985 327.8 382.3C326.436 382.411 325.065 382.411 323.7 382.3" stroke="#E26E85" stroke-width="1.8" stroke-linecap="round" stroke-linejoin="round"/>
<path d="M328 389.6C327.149 390.255 326.155 390.7 325.1 390.9C324.03 391.003 322.954 390.795 322 390.3" stroke="#E26E85" stroke-width="1.8" stroke-linecap="round" stroke-linejoin="round"/>
<path d="M324.1 396.9C324.1 396.9 321.7 397.7 320.4 396.5" stroke="#E26E85" stroke-width="1.8" stroke-linecap="round" stroke-linejoin="round"/>
<path d="M592.6 496C573.5 496.4 543.5 503.6 525.3 511C514.883 515.214 504.702 519.988 494.8 525.3C494.8 525.3 499.1 522.9 504.2 532.7C509.3 542.5 507.5 553.9 507.5 553.9C510.1 553.2 572.1 551.3 591.9 548.7C611.7 546.1 634.6 538.9 633.2 519.6C631.8 500.3 614.8 495 591.5 490.7C568.2 486.4 555.2 488.2 553.8 487.8C550.627 486.873 547.761 485.111 545.5 482.7C543.1 479.8 540.6 471.9 540.6 471.9C540.6 471.9 480.2 468.1 474.1 478.3C468 488.5 495.4 517.7 495.4 517.7L592.6 496Z" fill="#22272E"/>
<path d="M448.6 470.7C448.6 470.7 445.3 477.9 444.1 480.5C442.9 483.1 415.2 484.1 402.8 484.3C390.4 484.5 366.1 489.5 364.2 507.4C362 527.8 379.1 537.3 409.6 539.5C443.9 542 475.7 541.2 482.4 541.9C489.1 542.6 507.6 534.3 509.7 526.6C511.8 518.9 540.9 513 540.9 513C540.9 513 547.3 481 536.8 474.6C526.3 468.2 448.6 470.7 448.6 470.7Z" fill="#22272E"/>
<path d="M509.7 519.4C509.7 519.4 452.9 486.7 407.8 488.6" stroke="#63737A" stroke-width="1.8" stroke-linecap="round" stroke-linejoin="round"/>
<path d="M494.8 525.4C494.8 525.4 492 526.6 493.6 536.2C495.2 545.8 504 556 507.5 554C511 552 509.2 534.6 505.2 528.8C501.2 523 494.8 525.4 494.8 525.4Z" fill="#22272E"/>
<path d="M488.3 528.6C488.3 528.6 482.8 535.3 480.3 537.2C477.8 539.1 466.6 539.9 462.5 546.3C458.4 552.7 467.8 567.4 475.4 565C473.3 566.3 471.5 567.5 470.1 568.4C463.3 573 450.9 579.9 442.1 569.8C434.7 561.2 437.3 550.8 442.7 543.9C448.1 537 462 536.2 465.2 535.3C468.4 534.4 475.7 529.1 478.9 527.2C481.6 525.6 483.6 527.7 488.3 528.6Z" fill="#6DAFA7"/>
<path d="M507.7 550.7C507.3 550.8 500.1 552 497.1 552.6C494.7 553.1 483.3 559.8 475.3 564.9C467.7 567.3 458.3 552.6 462.4 546.2C466.5 539.8 477.7 539 480.2 537.1C482.7 535.2 488.2 528.5 488.2 528.5L490.5 528.8C496.9 529.3 500.2 527.1 500.2 527.1C501.781 528.695 503.067 530.557 504 532.6C507.6 539.3 507.9 546.6 507.7 550.7Z" fill="#F4C2C9"/>
<path d="M592.6 496C573.5 496.4 543.5 503.6 525.3 511C514.883 515.214 504.702 519.988 494.8 525.3" stroke="#63737A" stroke-width="1.8" stroke-linecap="round" stroke-linejoin="round"/>
<path d="M368.3 497.4C369.165 497.022 370.096 496.818 371.04 496.801C371.984 496.784 372.922 496.953 373.8 497.3C379.2 499.1 381 511 378.3 518.4C375.6 525.8 369.6 525.5 367.6 523.4" stroke="#63737A" stroke-width="1.8" stroke-linecap="round" stroke-linejoin="round"/>
<path d="M629.7 508.1C629.7 508.1 624.7 502.4 618.8 509.5C612.3 517.2 615.7 530.2 620.9 533.3C626.1 536.4 629.1 533.3 629.1 533.3" stroke="#63737A" stroke-width="1.8" stroke-linecap="round" stroke-linejoin="round"/>
<path d="M411.4 367C411.4 367.217 411.336 367.43 411.215 367.611C411.094 367.792 410.922 367.933 410.721 368.016C410.52 368.099 410.299 368.121 410.086 368.079C409.872 368.036 409.676 367.932 409.522 367.778C409.369 367.624 409.264 367.428 409.221 367.215C409.179 367.001 409.201 366.78 409.284 366.579C409.367 366.378 409.508 366.206 409.689 366.085C409.87 365.964 410.083 365.9 410.3 365.9C410.591 365.903 410.869 366.019 411.075 366.225C411.281 366.431 411.398 366.709 411.4 367Z" stroke="#22272E" stroke-width="1.8" stroke-linecap="round" stroke-linejoin="round"/>
<path d="M433.2 348.3C431.1 355.3 428.9 358.3 429.1 364.7C425.511 365.808 421.702 366.004 418.019 365.27C414.335 364.537 410.892 362.898 408 360.5C408.6 357.8 408.9 355.7 408.5 354.4C407.3 349.6 400.8 347.4 396.3 341.4C391.8 335.4 391.4 324.8 393.6 323.5C394.6 322.9 395.6 323.1 397.1 328.1C397.718 330.151 398.556 332.13 399.6 334C397.5 329.2 396.6 313.4 402.4 315.8C404.3 316.6 402.1 320 404.4 326.1C405.454 329.36 407.565 332.176 410.4 334.1C410.052 331.165 410.723 328.199 412.3 325.7C414.5 322.6 420.1 319.1 421.1 322.4C422.1 325.7 417.1 326.8 416.7 330.9C416.1 335.8 421.6 339.6 425.3 336.4C429 333.2 426.9 329.6 425.3 327.3C423.7 325 421.2 322.2 423 320.9C424.8 319.6 429.3 321.1 432.5 326.6C435.7 332.1 435.3 341.3 433.2 348.3Z" fill="#F4C2C9"/>
<path d="M453.5 420C453.5 420 431 448.4 416.2 454.8C401.4 461.2 391.4 456.7 388.5 441.2C385.6 425.7 394.8 398 398.8 387.8C401.7 380.2 406.3 368.2 408 360.6C410.908 362.967 414.351 364.587 418.029 365.319C421.706 366.051 425.507 365.873 429.1 364.8C429.2 370.9 426.4 393.4 426.1 395.5C426.2 394.8 427.4 391.5 435.8 379.7C445.5 366.2 455.2 360.3 455.2 360.3C455.2 360.3 463.4 364.2 465.8 382.5C468.2 400.8 453.5 420 453.5 420Z" fill="#6DAFA7"/>
<path d="M426.1 395.5C426.1 395.5 425.2 421.1 421.9 429.4" stroke="#22272E" stroke-width="1.8" stroke-linecap="round" stroke-linejoin="round"/>
<path d="M410.3 334.2C410.527 335.761 411.071 337.258 411.9 338.6" stroke="#E26E85" stroke-width="1.8" stroke-linecap="round" stroke-linejoin="round"/>
<path d="M405.7 368.5C405.7 368.5 411.4 376.7 428.5 374.3" stroke="#22272E" stroke-width="1.8" stroke-linecap="round" stroke-linejoin="round"/>
<path d="M391.4 449.9C391.4 449.9 388.8 441 398.4 438.9C408 436.8 419.7 450.7 412.3 456.2" stroke="#22272E" stroke-width="1.8" stroke-linecap="round" stroke-linejoin="round"/>
<path d="M399.5 334.2C400.383 336.018 401.566 337.675 403 339.1C404 340.1 405.4 341.1 406 342.4" stroke="#E26E85" stroke-width="1.8" stroke-linecap="round" stroke-linejoin="round"/>
<path d="M518.9 273.7C530.3 276.6 535.7 283.1 535.2 299.5C534.7 315.9 532.5 321.8 540.3 330.9C548.1 340 550.2 352.8 535.4 360.9C520.6 369 488.2 371.1 472.1 360.9C456 350.7 454.1 339.8 458.9 329.1C463.7 318.4 476.5 311.4 473.7 303.7C470.9 296 474.3 304.4 474.3 304.4C471.649 302.186 469.567 299.369 468.228 296.185C466.888 293.001 466.33 289.543 466.6 286.1C467.2 273.9 482.2 269.3 490 268.9C494 268.7 498.3 271.2 504.2 272.2C510.1 273 516 273 518.9 273.7Z" fill="#22272E"/>
<path d="M495 351.5C495 351.5 473.4 352.7 460.8 357.2C448.2 361.7 450.5 371.7 448.9 382.2C447.3 392.7 437 403.4 442.2 417.7C447.4 432 452.5 440.1 449.8 451.1C447.1 462.1 444.6 467.6 445 470.7C445.4 473.8 459.8 483.3 465.3 485.2C470.8 487.1 481.5 479.5 481.5 479.5C481.5 479.5 487 486.7 495 488.3C503 489.9 535.4 481.6 542.8 473.3C539.746 466.882 538.044 459.904 537.8 452.8C537.6 441.6 544.1 427.7 546.5 420C548.9 412.3 562.4 382.6 557.1 372.7C553.3 365.6 524.9 349.6 495 351.5Z" fill="#F8DA30"/>
<path d="M440.6 482.6L441.6 483.8C441.929 484.212 442.082 484.737 442.026 485.262C441.97 485.786 441.709 486.267 441.3 486.6L440.1 487.6C439.688 487.929 439.163 488.082 438.638 488.026C438.114 487.97 437.633 487.709 437.3 487.3L436.3 486.1C435.971 485.688 435.818 485.163 435.874 484.638C435.93 484.114 436.191 483.633 436.6 483.3L437.8 482.3C438.001 482.129 438.234 482.001 438.486 481.923C438.738 481.845 439.002 481.82 439.265 481.848C439.527 481.876 439.78 481.957 440.01 482.086C440.239 482.216 440.44 482.39 440.6 482.6V482.6Z" fill="#F8AB5D"/>
<path d="M442.7 464.5L443.7 465.7C444.029 466.112 444.183 466.637 444.126 467.162C444.07 467.686 443.809 468.167 443.4 468.5L442.2 469.5C441.788 469.829 441.263 469.982 440.738 469.926C440.214 469.87 439.733 469.609 439.4 469.2L438.4 468C438.071 467.588 437.918 467.063 437.974 466.538C438.03 466.014 438.291 465.533 438.7 465.2L439.9 464.2C440.312 463.871 440.837 463.717 441.362 463.774C441.886 463.83 442.367 464.091 442.7 464.5V464.5Z" fill="#F8AB5D"/>
<path d="M444.9 446.5L445.9 447.7C446.229 448.112 446.382 448.637 446.326 449.162C446.27 449.686 446.009 450.167 445.6 450.5L444.4 451.5C443.988 451.829 443.462 451.983 442.938 451.926C442.414 451.87 441.933 451.609 441.6 451.2L440.6 450C440.271 449.588 440.117 449.063 440.173 448.538C440.23 448.014 440.491 447.533 440.9 447.2L442.1 446.2C442.296 446.019 442.528 445.882 442.781 445.798C443.035 445.714 443.303 445.686 443.568 445.714C443.833 445.743 444.089 445.828 444.319 445.963C444.549 446.099 444.747 446.282 444.9 446.5V446.5Z" fill="#F8AB5D"/>
<path d="M447 428.4L448 429.6C448.329 430.012 448.482 430.537 448.426 431.062C448.37 431.586 448.109 432.067 447.7 432.4L446.5 433.4C446.088 433.729 445.563 433.883 445.038 433.826C444.514 433.77 444.033 433.509 443.7 433.1L442.7 431.9C442.371 431.488 442.217 430.963 442.274 430.438C442.33 429.914 442.591 429.433 443 429.1L444.2 428.1C444.612 427.771 445.137 427.618 445.662 427.674C446.186 427.73 446.667 427.991 447 428.4Z" fill="#F8AB5D"/>
<path d="M449.1 410.3L450.1 411.5C450.429 411.912 450.582 412.437 450.526 412.962C450.47 413.486 450.209 413.967 449.8 414.3L448.6 415.3C448.188 415.629 447.663 415.782 447.138 415.726C446.614 415.67 446.133 415.409 445.8 415L444.8 413.8C444.471 413.388 444.318 412.863 444.374 412.338C444.43 411.814 444.691 411.333 445.1 411L446.3 410C446.712 409.671 447.237 409.517 447.762 409.574C448.286 409.63 448.767 409.891 449.1 410.3Z" fill="#F8AB5D"/>
<path d="M456.9 484.5L457.9 485.7C458.229 486.112 458.382 486.637 458.326 487.162C458.27 487.686 458.009 488.167 457.6 488.5L456.4 489.5C455.988 489.829 455.462 489.982 454.938 489.926C454.414 489.87 453.933 489.609 453.6 489.2L452.6 488C452.271 487.588 452.117 487.063 452.173 486.538C452.23 486.014 452.491 485.533 452.9 485.2L454.1 484.2C454.3 484.029 454.534 483.901 454.786 483.823C455.037 483.746 455.302 483.72 455.564 483.748C455.826 483.776 456.08 483.857 456.309 483.987C456.539 484.116 456.74 484.29 456.9 484.5V484.5Z" fill="#F8AB5D"/>
<path d="M459 466.4L460 467.6C460.329 468.012 460.482 468.537 460.426 469.062C460.37 469.586 460.109 470.067 459.7 470.4L458.5 471.4C458.088 471.729 457.563 471.883 457.038 471.826C456.514 471.77 456.033 471.509 455.7 471.1L454.7 469.9C454.371 469.488 454.217 468.963 454.274 468.438C454.33 467.914 454.591 467.433 455 467.1L456.2 466.1C456.612 465.771 457.137 465.618 457.662 465.674C458.186 465.73 458.667 465.991 459 466.4Z" fill="#F8AB5D"/>
<path d="M461.1 448.4L462.1 449.6C462.429 450.012 462.582 450.537 462.526 451.062C462.47 451.586 462.209 452.067 461.8 452.4L460.6 453.4C460.188 453.729 459.663 453.883 459.138 453.826C458.614 453.77 458.133 453.509 457.8 453.1L456.8 451.9C456.471 451.488 456.318 450.963 456.374 450.438C456.43 449.914 456.691 449.433 457.1 449.1L458.3 448.1C458.5 447.928 458.733 447.798 458.985 447.72C459.237 447.641 459.503 447.615 459.765 447.644C460.027 447.672 460.281 447.753 460.511 447.883C460.741 448.014 460.941 448.189 461.1 448.4V448.4Z" fill="#F8AB5D"/>
<path d="M463.3 430.3L464.3 431.5C464.629 431.912 464.783 432.437 464.727 432.962C464.67 433.486 464.409 433.967 464 434.3L462.8 435.3C462.388 435.629 461.863 435.782 461.338 435.726C460.814 435.67 460.333 435.409 460 435L459 433.8C458.671 433.388 458.518 432.863 458.574 432.338C458.63 431.814 458.891 431.333 459.3 431L460.5 430C460.912 429.671 461.438 429.517 461.962 429.574C462.486 429.63 462.967 429.891 463.3 430.3Z" fill="#F8AB5D"/>
<path d="M465.4 412.2L466.4 413.4C466.729 413.812 466.882 414.337 466.826 414.862C466.77 415.386 466.509 415.867 466.1 416.2L464.9 417.2C464.488 417.529 463.962 417.683 463.438 417.626C462.914 417.57 462.433 417.309 462.1 416.9L461.1 415.7C460.771 415.288 460.617 414.763 460.673 414.238C460.73 413.714 460.991 413.233 461.4 412.9L462.6 411.9C463.012 411.571 463.537 411.418 464.062 411.474C464.586 411.53 465.067 411.791 465.4 412.2Z" fill="#F8AB5D"/>
<path d="M473.2 486.4L474.2 487.6C474.529 488.012 474.683 488.537 474.626 489.062C474.57 489.586 474.309 490.067 473.9 490.4L472.7 491.4C472.288 491.729 471.763 491.883 471.238 491.826C470.714 491.77 470.233 491.509 469.9 491.1L468.9 489.9C468.571 489.488 468.418 488.963 468.474 488.438C468.53 487.914 468.791 487.433 469.2 487.1L470.4 486.1C470.812 485.771 471.337 485.618 471.862 485.674C472.386 485.73 472.867 485.991 473.2 486.4V486.4Z" fill="#F8AB5D"/>
<path d="M475.3 468.3L476.3 469.5C476.629 469.912 476.783 470.437 476.727 470.962C476.67 471.486 476.409 471.967 476 472.3L474.8 473.3C474.388 473.629 473.863 473.782 473.338 473.726C472.814 473.67 472.333 473.409 472 473L471 471.8C470.671 471.388 470.518 470.863 470.574 470.338C470.63 469.814 470.891 469.333 471.3 469L472.5 468C472.912 467.671 473.438 467.517 473.962 467.574C474.486 467.63 474.967 467.891 475.3 468.3Z" fill="#F8AB5D"/>
<path d="M477.4 450.3L478.4 451.5C478.729 451.912 478.882 452.437 478.826 452.962C478.77 453.486 478.509 453.967 478.1 454.3L476.9 455.3C476.488 455.629 475.962 455.783 475.438 455.726C474.914 455.67 474.433 455.409 474.1 455L473.1 453.8C472.771 453.388 472.617 452.863 472.673 452.338C472.73 451.814 472.991 451.333 473.4 451L474.6 450C474.8 449.829 475.034 449.701 475.286 449.623C475.537 449.546 475.802 449.52 476.064 449.548C476.326 449.576 476.58 449.657 476.809 449.787C477.039 449.916 477.24 450.091 477.4 450.3V450.3Z" fill="#F8AB5D"/>
<path d="M479.5 432.2L480.5 433.4C480.829 433.812 480.982 434.337 480.926 434.862C480.87 435.386 480.609 435.867 480.2 436.2L479 437.2C478.588 437.529 478.063 437.683 477.538 437.626C477.014 437.57 476.533 437.309 476.2 436.9L475.2 435.7C474.871 435.288 474.717 434.763 474.774 434.238C474.83 433.714 475.091 433.233 475.5 432.9L476.7 431.9C476.901 431.729 477.134 431.601 477.386 431.523C477.637 431.446 477.902 431.42 478.164 431.448C478.426 431.476 478.68 431.557 478.91 431.687C479.139 431.816 479.34 431.991 479.5 432.2V432.2Z" fill="#F8AB5D"/>
<path d="M481.6 414.1L482.6 415.3C482.929 415.712 483.082 416.237 483.026 416.762C482.97 417.286 482.709 417.767 482.3 418.1L481.1 419.1C480.688 419.429 480.163 419.582 479.638 419.526C479.114 419.47 478.633 419.209 478.3 418.8L477.3 417.6C476.971 417.188 476.818 416.663 476.874 416.138C476.93 415.614 477.191 415.133 477.6 414.8L478.8 413.8C479.212 413.471 479.737 413.318 480.262 413.374C480.786 413.43 481.267 413.691 481.6 414.1Z" fill="#F8AB5D"/>
<path d="M489.4 488.3L490.4 489.5C490.729 489.912 490.882 490.437 490.826 490.962C490.77 491.486 490.509 491.967 490.1 492.3L488.9 493.3C488.488 493.629 487.962 493.782 487.438 493.726C486.914 493.67 486.433 493.409 486.1 493L485.1 491.8C484.771 491.388 484.617 490.863 484.673 490.338C484.73 489.814 484.991 489.333 485.4 489L486.6 488C487.012 487.671 487.537 487.517 488.062 487.574C488.586 487.63 489.067 487.891 489.4 488.3Z" fill="#F8AB5D"/>
<path d="M491.6 470.3L492.6 471.5C492.929 471.912 493.082 472.437 493.026 472.962C492.97 473.486 492.709 473.967 492.3 474.3L491.1 475.3C490.688 475.629 490.163 475.783 489.638 475.726C489.114 475.67 488.633 475.409 488.3 475L487.3 473.8C486.971 473.388 486.818 472.863 486.874 472.338C486.93 471.814 487.191 471.333 487.6 471L488.8 470C488.996 469.819 489.228 469.682 489.482 469.598C489.735 469.515 490.003 469.486 490.268 469.514C490.533 469.543 490.789 469.628 491.019 469.763C491.249 469.899 491.447 470.082 491.6 470.3V470.3Z" fill="#F8AB5D"/>
<path d="M493.7 452.2L494.7 453.4C495.029 453.812 495.183 454.337 495.126 454.862C495.07 455.386 494.809 455.867 494.4 456.2L493.2 457.2C492.788 457.529 492.263 457.683 491.738 457.626C491.214 457.57 490.733 457.309 490.4 456.9L489.4 455.7C489.071 455.288 488.918 454.763 488.974 454.238C489.03 453.714 489.291 453.233 489.7 452.9L490.9 451.9C491.312 451.571 491.837 451.418 492.362 451.474C492.886 451.53 493.367 451.791 493.7 452.2Z" fill="#F8AB5D"/>
<path d="M495.8 434.1L496.8 435.3C497.129 435.712 497.283 436.237 497.227 436.762C497.17 437.286 496.909 437.767 496.5 438.1L495.3 439.1C494.888 439.429 494.363 439.582 493.838 439.526C493.314 439.47 492.833 439.209 492.5 438.8L491.5 437.6C491.171 437.188 491.018 436.663 491.074 436.138C491.13 435.614 491.391 435.133 491.8 434.8L493 433.8C493.412 433.471 493.938 433.318 494.462 433.374C494.986 433.43 495.467 433.691 495.8 434.1V434.1Z" fill="#F8AB5D"/>
<path d="M497.9 416.1L498.9 417.3C499.229 417.712 499.382 418.237 499.326 418.762C499.27 419.286 499.009 419.767 498.6 420.1L497.4 421.1C496.988 421.429 496.462 421.583 495.938 421.526C495.414 421.47 494.933 421.209 494.6 420.8L493.6 419.6C493.271 419.188 493.117 418.663 493.173 418.138C493.23 417.614 493.491 417.133 493.9 416.8L495.1 415.8C495.296 415.619 495.528 415.482 495.781 415.398C496.035 415.315 496.303 415.286 496.568 415.314C496.833 415.343 497.089 415.428 497.319 415.563C497.549 415.699 497.747 415.882 497.9 416.1Z" fill="#F8AB5D"/>
<path d="M505.7 490.2L506.7 491.4C507.029 491.812 507.183 492.337 507.126 492.862C507.07 493.386 506.809 493.867 506.4 494.2L505.2 495.2C504.788 495.529 504.263 495.682 503.738 495.626C503.214 495.57 502.733 495.309 502.4 494.9L501.4 493.7C501.071 493.288 500.918 492.763 500.974 492.238C501.03 491.714 501.291 491.233 501.7 490.9L502.9 489.9C503.312 489.571 503.837 489.417 504.362 489.474C504.886 489.53 505.367 489.791 505.7 490.2Z" fill="#F8AB5D"/>
<path d="M507.8 472.2L508.8 473.4C509.129 473.812 509.283 474.337 509.227 474.862C509.17 475.386 508.909 475.867 508.5 476.2L507.3 477.2C506.888 477.529 506.363 477.682 505.838 477.626C505.314 477.57 504.833 477.309 504.5 476.9L503.5 475.7C503.171 475.288 503.018 474.763 503.074 474.238C503.13 473.714 503.391 473.233 503.8 472.9L505 471.9C505.196 471.719 505.428 471.582 505.682 471.498C505.935 471.414 506.203 471.386 506.468 471.414C506.733 471.443 506.99 471.527 507.219 471.663C507.449 471.798 507.647 471.982 507.8 472.2Z" fill="#F8AB5D"/>
<path d="M509.9 454.1L510.9 455.3C511.229 455.712 511.382 456.237 511.326 456.762C511.27 457.286 511.009 457.767 510.6 458.1L509.4 459.1C508.988 459.429 508.462 459.583 507.938 459.526C507.414 459.47 506.933 459.209 506.6 458.8L505.6 457.6C505.271 457.188 505.117 456.663 505.173 456.138C505.23 455.614 505.491 455.133 505.9 454.8L507.1 453.8C507.3 453.628 507.533 453.498 507.785 453.42C508.037 453.341 508.302 453.315 508.565 453.344C508.827 453.372 509.081 453.453 509.311 453.583C509.54 453.713 509.741 453.889 509.9 454.1V454.1Z" fill="#F8AB5D"/>
<path d="M512.1 436L513.1 437.2C513.429 437.612 513.582 438.137 513.526 438.662C513.47 439.186 513.209 439.667 512.8 440L511.6 441C511.188 441.329 510.663 441.482 510.138 441.426C509.614 441.37 509.133 441.109 508.8 440.7L507.8 439.5C507.471 439.088 507.318 438.563 507.374 438.038C507.43 437.514 507.691 437.033 508.1 436.7L509.3 435.7C509.712 435.371 510.237 435.217 510.762 435.274C511.286 435.33 511.767 435.591 512.1 436V436Z" fill="#F8AB5D"/>
<path d="M514.2 418L515.2 419.2C515.529 419.612 515.683 420.137 515.626 420.662C515.57 421.186 515.309 421.667 514.9 422L513.7 423C513.288 423.329 512.763 423.482 512.238 423.426C511.714 423.37 511.233 423.109 510.9 422.7L509.9 421.5C509.571 421.088 509.418 420.563 509.474 420.038C509.53 419.514 509.791 419.033 510.2 418.7L511.4 417.7C511.812 417.371 512.337 417.217 512.862 417.274C513.386 417.33 513.867 417.591 514.2 418Z" fill="#F8AB5D"/>
<path d="M522 492.1L523 493.3C523.329 493.712 523.482 494.237 523.426 494.762C523.37 495.286 523.109 495.767 522.7 496.1L521.5 497.1C521.088 497.429 520.563 497.582 520.038 497.526C519.514 497.47 519.033 497.209 518.7 496.8L517.7 495.6C517.371 495.188 517.217 494.663 517.274 494.138C517.33 493.614 517.591 493.133 518 492.8L519.2 491.8C519.612 491.471 520.137 491.318 520.662 491.374C521.186 491.43 521.667 491.691 522 492.1Z" fill="#F8AB5D"/>
<path d="M524.1 474.1L525.1 475.3C525.429 475.712 525.583 476.237 525.526 476.762C525.47 477.286 525.209 477.767 524.8 478.1L523.6 479.1C523.188 479.429 522.663 479.582 522.138 479.526C521.614 479.47 521.133 479.209 520.8 478.8L519.8 477.6C519.471 477.188 519.318 476.663 519.374 476.138C519.43 475.614 519.691 475.133 520.1 474.8L521.3 473.8C521.712 473.471 522.237 473.318 522.762 473.374C523.286 473.43 523.767 473.691 524.1 474.1Z" fill="#F8AB5D"/>
<path d="M526.2 456L527.2 457.2C527.529 457.612 527.683 458.137 527.626 458.662C527.57 459.186 527.309 459.667 526.9 460L525.7 461C525.288 461.329 524.763 461.483 524.238 461.426C523.714 461.37 523.233 461.109 522.9 460.7L521.9 459.5C521.571 459.088 521.418 458.563 521.474 458.038C521.53 457.514 521.791 457.033 522.2 456.7L523.4 455.7C523.601 455.529 523.834 455.401 524.086 455.323C524.338 455.246 524.603 455.22 524.865 455.248C525.127 455.276 525.38 455.357 525.61 455.487C525.839 455.616 526.04 455.791 526.2 456V456Z" fill="#F8AB5D"/>
<path d="M528.3 437.9L529.3 439.1C529.629 439.512 529.783 440.037 529.727 440.562C529.67 441.086 529.409 441.567 529 441.9L527.8 442.9C527.388 443.229 526.863 443.383 526.338 443.326C525.814 443.27 525.333 443.009 525 442.6L524 441.4C523.671 440.988 523.518 440.463 523.574 439.938C523.63 439.414 523.891 438.933 524.3 438.6L525.5 437.6C525.912 437.271 526.438 437.118 526.962 437.174C527.486 437.23 527.967 437.491 528.3 437.9Z" fill="#F8AB5D"/>
<path d="M530.4 419.9L531.4 421.1C531.729 421.512 531.882 422.037 531.826 422.562C531.77 423.086 531.509 423.567 531.1 423.9L529.9 424.9C529.488 425.229 528.962 425.383 528.438 425.326C527.914 425.27 527.433 425.009 527.1 424.6L526.1 423.4C525.77 422.988 525.617 422.463 525.673 421.938C525.73 421.414 525.991 420.933 526.4 420.6L527.6 419.6C527.8 419.428 528.033 419.298 528.285 419.22C528.537 419.141 528.802 419.115 529.065 419.144C529.327 419.172 529.581 419.253 529.811 419.383C530.04 419.514 530.241 419.689 530.4 419.9Z" fill="#F8AB5D"/>
<path d="M538.2 494L539.2 495.2C539.529 495.612 539.683 496.137 539.626 496.662C539.57 497.186 539.309 497.667 538.9 498L537.7 499C537.288 499.329 536.763 499.483 536.238 499.426C535.714 499.37 535.233 499.109 534.9 498.7L533.9 497.5C533.571 497.088 533.418 496.563 533.474 496.038C533.53 495.514 533.791 495.033 534.2 494.7L535.4 493.7C535.812 493.371 536.337 493.218 536.862 493.274C537.386 493.33 537.867 493.591 538.2 494Z" fill="#F8AB5D"/>
<path d="M540.4 476L541.4 477.2C541.729 477.612 541.882 478.137 541.826 478.662C541.77 479.186 541.509 479.667 541.1 480L539.9 481C539.488 481.329 538.962 481.482 538.438 481.426C537.914 481.37 537.433 481.109 537.1 480.7L536.1 479.5C535.77 479.088 535.617 478.563 535.673 478.038C535.73 477.514 535.991 477.033 536.4 476.7L537.6 475.7C538.012 475.371 538.537 475.217 539.062 475.274C539.586 475.33 540.067 475.591 540.4 476Z" fill="#F8AB5D"/>
<path d="M542.5 457.9L543.5 459.1C543.829 459.512 543.982 460.037 543.926 460.562C543.87 461.086 543.609 461.567 543.2 461.9L542 462.9C541.588 463.229 541.063 463.383 540.538 463.326C540.014 463.27 539.533 463.009 539.2 462.6L538.2 461.4C537.871 460.988 537.717 460.463 537.774 459.938C537.83 459.414 538.091 458.933 538.5 458.6L539.7 457.6C540.112 457.271 540.637 457.118 541.162 457.174C541.686 457.23 542.167 457.491 542.5 457.9Z" fill="#F8AB5D"/>
<path d="M544.6 439.8L545.6 441C545.929 441.412 546.083 441.937 546.026 442.462C545.97 442.986 545.709 443.467 545.3 443.8L544.1 444.8C543.688 445.129 543.163 445.282 542.638 445.226C542.114 445.17 541.633 444.909 541.3 444.5L540.3 443.3C539.971 442.888 539.818 442.363 539.874 441.838C539.93 441.314 540.191 440.833 540.6 440.5L541.8 439.5C542.212 439.171 542.737 439.017 543.262 439.074C543.786 439.13 544.267 439.391 544.6 439.8Z" fill="#F8AB5D"/>
<path d="M546.7 421.8L547.7 423C548.029 423.412 548.183 423.937 548.126 424.462C548.07 424.986 547.809 425.467 547.4 425.8L546.2 426.8C545.788 427.129 545.263 427.283 544.738 427.226C544.214 427.17 543.733 426.909 543.4 426.5L542.4 425.3C542.071 424.888 541.918 424.363 541.974 423.838C542.03 423.314 542.291 422.833 542.7 422.5L543.9 421.5C544.101 421.329 544.334 421.201 544.586 421.123C544.838 421.046 545.103 421.02 545.365 421.048C545.627 421.076 545.88 421.157 546.11 421.287C546.339 421.416 546.54 421.591 546.7 421.8V421.8Z" fill="#F8AB5D"/>
<path d="M451.2 392.3L452.2 393.5C452.529 393.912 452.683 394.437 452.626 394.962C452.57 395.486 452.309 395.967 451.9 396.3L450.7 397.3C450.288 397.629 449.763 397.783 449.238 397.726C448.714 397.67 448.233 397.409 447.9 397L446.9 395.8C446.571 395.388 446.418 394.863 446.474 394.338C446.53 393.814 446.791 393.333 447.2 393L448.4 392C448.596 391.819 448.828 391.682 449.082 391.598C449.335 391.515 449.603 391.486 449.868 391.514C450.133 391.543 450.389 391.628 450.619 391.763C450.849 391.899 451.047 392.082 451.2 392.3V392.3Z" fill="#F8AB5D"/>
<path d="M453.3 374.2L454.3 375.4C454.629 375.812 454.783 376.337 454.727 376.862C454.67 377.386 454.409 377.867 454 378.2L452.8 379.2C452.388 379.529 451.863 379.683 451.338 379.626C450.814 379.57 450.333 379.309 450 378.9L449 377.7C448.671 377.288 448.518 376.763 448.574 376.238C448.63 375.714 448.891 375.233 449.3 374.9L450.5 373.9C450.7 373.728 450.933 373.599 451.185 373.52C451.437 373.441 451.703 373.415 451.965 373.444C452.228 373.472 452.481 373.553 452.711 373.683C452.941 373.814 453.141 373.989 453.3 374.2V374.2Z" fill="#F8AB5D"/>
<path d="M455.5 356.1L456.5 357.3C456.829 357.712 456.982 358.237 456.926 358.762C456.87 359.286 456.609 359.767 456.2 360.1L455 361.1C454.588 361.429 454.063 361.582 453.538 361.526C453.014 361.47 452.533 361.209 452.2 360.8L451.2 359.6C450.871 359.188 450.717 358.663 450.774 358.138C450.83 357.614 451.091 357.133 451.5 356.8L452.7 355.8C453.112 355.471 453.637 355.318 454.162 355.374C454.686 355.43 455.167 355.691 455.5 356.1Z" fill="#F8AB5D"/>
<path d="M457.6 338.1L458.6 339.3C458.929 339.712 459.082 340.237 459.026 340.762C458.97 341.286 458.709 341.767 458.3 342.1L457.1 343.1C456.688 343.429 456.163 343.582 455.638 343.526C455.114 343.47 454.633 343.209 454.3 342.8L453.3 341.6C452.971 341.188 452.818 340.663 452.874 340.138C452.93 339.614 453.191 339.133 453.6 338.8L454.8 337.8C455.212 337.471 455.737 337.318 456.262 337.374C456.786 337.43 457.267 337.691 457.6 338.1Z" fill="#F8AB5D"/>
<path d="M467.5 394.2L468.5 395.4C468.829 395.812 468.982 396.337 468.926 396.862C468.87 397.386 468.609 397.867 468.2 398.2L467 399.2C466.588 399.529 466.063 399.683 465.538 399.626C465.014 399.57 464.533 399.309 464.2 398.9L463.2 397.7C462.871 397.288 462.717 396.763 462.774 396.238C462.83 395.714 463.091 395.233 463.5 394.9L464.7 393.9C464.901 393.729 465.134 393.601 465.386 393.523C465.637 393.446 465.902 393.42 466.164 393.448C466.426 393.476 466.68 393.557 466.91 393.687C467.139 393.816 467.34 393.991 467.5 394.2V394.2Z" fill="#F8AB5D"/>
<path d="M469.6 376.1L470.6 377.3C470.929 377.712 471.082 378.237 471.026 378.762C470.97 379.286 470.709 379.767 470.3 380.1L469.1 381.1C468.688 381.429 468.163 381.582 467.638 381.526C467.114 381.47 466.633 381.209 466.3 380.8L465.3 379.6C464.971 379.188 464.818 378.663 464.874 378.138C464.93 377.614 465.191 377.133 465.6 376.8L466.8 375.8C467.001 375.629 467.234 375.501 467.486 375.423C467.738 375.345 468.002 375.32 468.265 375.348C468.527 375.376 468.78 375.457 469.01 375.586C469.239 375.716 469.44 375.89 469.6 376.1V376.1Z" fill="#F8AB5D"/>
<path d="M471.7 358L472.7 359.2C473.029 359.612 473.183 360.137 473.126 360.662C473.07 361.186 472.809 361.667 472.4 362L471.2 363C470.788 363.329 470.263 363.482 469.738 363.426C469.214 363.37 468.733 363.109 468.4 362.7L467.4 361.5C467.071 361.088 466.918 360.563 466.974 360.038C467.03 359.514 467.291 359.033 467.7 358.7L468.9 357.7C469.312 357.371 469.837 357.217 470.362 357.274C470.886 357.33 471.367 357.591 471.7 358V358Z" fill="#F8AB5D"/>
<path d="M473.9 340L474.9 341.2C475.229 341.612 475.382 342.137 475.326 342.662C475.27 343.186 475.009 343.667 474.6 344L473.4 345C472.988 345.329 472.462 345.482 471.938 345.426C471.414 345.37 470.933 345.109 470.6 344.7L469.6 343.5C469.271 343.088 469.117 342.563 469.173 342.038C469.23 341.514 469.491 341.033 469.9 340.7L471.1 339.7C471.512 339.371 472.037 339.217 472.562 339.274C473.086 339.33 473.567 339.591 473.9 340Z" fill="#F8AB5D"/>
<path d="M483.8 396.1L484.8 397.3C485.129 397.712 485.283 398.237 485.227 398.762C485.17 399.286 484.909 399.767 484.5 400.1L483.3 401.1C482.888 401.429 482.363 401.582 481.838 401.526C481.314 401.47 480.833 401.209 480.5 400.8L479.5 399.6C479.171 399.188 479.018 398.663 479.074 398.138C479.13 397.614 479.391 397.133 479.8 396.8L481 395.8C481.412 395.471 481.938 395.318 482.462 395.374C482.986 395.43 483.467 395.691 483.8 396.1V396.1Z" fill="#F8AB5D"/>
<path d="M485.9 378L486.9 379.2C487.229 379.612 487.382 380.137 487.326 380.662C487.27 381.186 487.009 381.667 486.6 382L485.4 383C484.988 383.329 484.462 383.482 483.938 383.426C483.414 383.37 482.933 383.109 482.6 382.7L481.6 381.5C481.271 381.088 481.117 380.563 481.173 380.038C481.23 379.514 481.491 379.033 481.9 378.7L483.1 377.7C483.512 377.371 484.037 377.217 484.562 377.274C485.086 377.33 485.567 377.591 485.9 378Z" fill="#F8AB5D"/>
<path d="M488 359.9L489 361.1C489.329 361.512 489.482 362.037 489.426 362.562C489.37 363.086 489.109 363.567 488.7 363.9L487.5 364.9C487.088 365.229 486.563 365.383 486.038 365.326C485.514 365.27 485.033 365.009 484.7 364.6L483.7 363.4C483.371 362.988 483.217 362.463 483.274 361.938C483.33 361.414 483.591 360.933 484 360.6L485.2 359.6C485.612 359.271 486.137 359.118 486.662 359.174C487.186 359.23 487.667 359.491 488 359.9Z" fill="#F8AB5D"/>
<path d="M490.1 341.9L491.1 343.1C491.429 343.512 491.582 344.037 491.526 344.562C491.47 345.086 491.209 345.567 490.8 345.9L489.6 346.9C489.188 347.229 488.663 347.382 488.138 347.326C487.614 347.27 487.133 347.009 486.8 346.6L485.8 345.4C485.471 344.988 485.318 344.463 485.374 343.938C485.43 343.414 485.691 342.933 486.1 342.6L487.3 341.6C487.501 341.429 487.734 341.301 487.986 341.223C488.238 341.146 488.502 341.12 488.765 341.148C489.027 341.176 489.28 341.257 489.51 341.387C489.739 341.516 489.94 341.691 490.1 341.9V341.9Z" fill="#F8AB5D"/>
<path d="M500 398L501 399.2C501.329 399.612 501.482 400.137 501.426 400.662C501.37 401.186 501.109 401.667 500.7 402L499.5 403C499.088 403.329 498.563 403.483 498.038 403.426C497.514 403.37 497.033 403.109 496.7 402.7L495.7 401.5C495.371 401.088 495.217 400.563 495.274 400.038C495.33 399.514 495.591 399.033 496 398.7L497.2 397.7C497.401 397.529 497.634 397.401 497.886 397.323C498.137 397.246 498.402 397.22 498.664 397.248C498.926 397.276 499.18 397.357 499.41 397.487C499.639 397.616 499.84 397.791 500 398V398Z" fill="#F8AB5D"/>
<path d="M502.2 379.9L503.2 381.1C503.529 381.512 503.683 382.037 503.626 382.562C503.57 383.086 503.309 383.567 502.9 383.9L501.7 384.9C501.288 385.229 500.763 385.383 500.238 385.326C499.714 385.27 499.233 385.009 498.9 384.6L497.9 383.4C497.571 382.988 497.418 382.463 497.474 381.938C497.53 381.414 497.791 380.933 498.2 380.6L499.4 379.6C499.812 379.271 500.337 379.118 500.862 379.174C501.386 379.23 501.867 379.491 502.2 379.9V379.9Z" fill="#F8AB5D"/>
<path d="M504.3 361.9L505.3 363.1C505.629 363.512 505.783 364.037 505.727 364.562C505.67 365.086 505.409 365.567 505 365.9L503.8 366.9C503.388 367.229 502.863 367.382 502.338 367.326C501.814 367.27 501.333 367.009 501 366.6L500 365.4C499.671 364.988 499.518 364.463 499.574 363.938C499.63 363.414 499.891 362.933 500.3 362.6L501.5 361.6C501.696 361.419 501.928 361.282 502.182 361.198C502.435 361.114 502.703 361.086 502.968 361.114C503.233 361.143 503.49 361.227 503.719 361.363C503.949 361.498 504.147 361.682 504.3 361.9V361.9Z" fill="#F8AB5D"/>
<path d="M506.4 343.8L507.4 345C507.729 345.412 507.882 345.937 507.826 346.462C507.77 346.986 507.509 347.467 507.1 347.8L505.9 348.8C505.488 349.129 504.962 349.282 504.438 349.226C503.914 349.17 503.433 348.909 503.1 348.5L502.1 347.3C501.771 346.888 501.617 346.363 501.673 345.838C501.73 345.314 501.991 344.833 502.4 344.5L503.6 343.5C504.012 343.171 504.537 343.017 505.062 343.074C505.586 343.13 506.067 343.391 506.4 343.8Z" fill="#F8AB5D"/>
<path d="M516.3 399.9L517.3 401.1C517.629 401.512 517.783 402.037 517.727 402.562C517.67 403.086 517.409 403.567 517 403.9L515.8 404.9C515.388 405.229 514.863 405.382 514.338 405.326C513.814 405.27 513.333 405.009 513 404.6L512 403.4C511.671 402.988 511.518 402.463 511.574 401.938C511.63 401.414 511.891 400.933 512.3 400.6L513.5 399.6C513.701 399.429 513.934 399.301 514.186 399.223C514.438 399.146 514.703 399.12 514.965 399.148C515.227 399.176 515.48 399.257 515.71 399.387C515.939 399.516 516.14 399.691 516.3 399.9Z" fill="#F8AB5D"/>
<path d="M518.4 381.8L519.4 383C519.729 383.412 519.882 383.937 519.826 384.462C519.77 384.986 519.509 385.467 519.1 385.8L517.9 386.8C517.488 387.129 516.962 387.282 516.438 387.226C515.914 387.17 515.433 386.909 515.1 386.5L514.1 385.3C513.77 384.888 513.617 384.363 513.673 383.838C513.73 383.314 513.991 382.833 514.4 382.5L515.6 381.5C516.012 381.171 516.537 381.017 517.062 381.074C517.586 381.13 518.067 381.391 518.4 381.8Z" fill="#F8AB5D"/>
<path d="M520.5 363.8L521.5 365C521.829 365.412 521.982 365.937 521.926 366.462C521.87 366.986 521.609 367.467 521.2 367.8L520 368.8C519.588 369.129 519.063 369.283 518.538 369.226C518.014 369.17 517.533 368.909 517.2 368.5L516.2 367.3C515.871 366.888 515.717 366.363 515.774 365.838C515.83 365.314 516.091 364.833 516.5 364.5L517.7 363.5C517.9 363.328 518.133 363.198 518.385 363.12C518.637 363.041 518.902 363.015 519.165 363.043C519.427 363.072 519.681 363.153 519.911 363.283C520.14 363.413 520.341 363.589 520.5 363.8V363.8Z" fill="#F8AB5D"/>
<path d="M522.7 345.7L523.7 346.9C524.029 347.312 524.183 347.837 524.126 348.362C524.07 348.886 523.809 349.367 523.4 349.7L522.2 350.7C521.788 351.029 521.263 351.183 520.738 351.126C520.214 351.07 519.733 350.809 519.4 350.4L518.4 349.2C518.071 348.788 517.918 348.263 517.974 347.738C518.03 347.214 518.291 346.733 518.7 346.4L519.9 345.4C520.312 345.071 520.837 344.918 521.362 344.974C521.886 345.03 522.367 345.291 522.7 345.7Z" fill="#F8AB5D"/>
<path d="M532.6 401.8L533.6 403C533.929 403.412 534.083 403.937 534.026 404.462C533.97 404.986 533.709 405.467 533.3 405.8L532.1 406.8C531.688 407.129 531.163 407.282 530.638 407.226C530.114 407.17 529.633 406.909 529.3 406.5L528.3 405.3C527.971 404.888 527.818 404.363 527.874 403.838C527.93 403.314 528.191 402.833 528.6 402.5L529.8 401.5C530.212 401.171 530.737 401.017 531.262 401.074C531.786 401.13 532.267 401.391 532.6 401.8Z" fill="#F8AB5D"/>
<path d="M534.7 383.7L535.7 384.9C536.029 385.312 536.183 385.837 536.126 386.362C536.07 386.886 535.809 387.367 535.4 387.7L534.2 388.7C533.788 389.029 533.263 389.183 532.738 389.126C532.214 389.07 531.733 388.809 531.4 388.4L530.4 387.2C530.071 386.788 529.918 386.263 529.974 385.738C530.03 385.214 530.291 384.733 530.7 384.4L531.9 383.4C532.312 383.071 532.837 382.918 533.362 382.974C533.886 383.03 534.367 383.291 534.7 383.7Z" fill="#F8AB5D"/>
<path d="M536.8 365.7L537.8 366.9C538.129 367.312 538.283 367.837 538.227 368.362C538.17 368.886 537.909 369.367 537.5 369.7L536.3 370.7C535.888 371.029 535.363 371.183 534.838 371.126C534.314 371.07 533.833 370.809 533.5 370.4L532.5 369.2C532.171 368.788 532.018 368.263 532.074 367.738C532.13 367.214 532.391 366.733 532.8 366.4L534 365.4C534.201 365.229 534.434 365.101 534.686 365.023C534.938 364.946 535.203 364.92 535.465 364.948C535.727 364.976 535.98 365.057 536.21 365.187C536.439 365.316 536.64 365.491 536.8 365.7V365.7Z" fill="#F8AB5D"/>
<path d="M538.9 347.6L539.9 348.8C540.229 349.212 540.382 349.737 540.326 350.262C540.27 350.786 540.009 351.267 539.6 351.6L538.4 352.6C537.988 352.929 537.462 353.082 536.938 353.026C536.414 352.97 535.933 352.709 535.6 352.3L534.6 351.1C534.27 350.688 534.117 350.163 534.173 349.638C534.23 349.114 534.491 348.633 534.9 348.3L536.1 347.3C536.3 347.129 536.534 347.001 536.785 346.923C537.037 346.845 537.302 346.82 537.564 346.848C537.826 346.876 538.08 346.957 538.309 347.086C538.539 347.216 538.74 347.39 538.9 347.6V347.6Z" fill="#F8AB5D"/>
<path d="M548.8 403.7L549.8 404.9C550.129 405.312 550.283 405.837 550.227 406.362C550.17 406.886 549.909 407.367 549.5 407.7L548.3 408.7C547.888 409.029 547.363 409.183 546.838 409.126C546.314 409.07 545.833 408.809 545.5 408.4L544.5 407.2C544.171 406.788 544.018 406.263 544.074 405.738C544.13 405.214 544.391 404.733 544.8 404.4L546 403.4C546.2 403.228 546.433 403.099 546.685 403.02C546.937 402.941 547.203 402.915 547.465 402.944C547.728 402.972 547.982 403.053 548.211 403.183C548.441 403.314 548.641 403.489 548.8 403.7V403.7Z" fill="#F8AB5D"/>
<path d="M551 385.7L552 386.9C552.329 387.312 552.482 387.837 552.426 388.362C552.37 388.886 552.109 389.367 551.7 389.7L550.5 390.7C550.088 391.029 549.563 391.182 549.038 391.126C548.514 391.07 548.033 390.809 547.7 390.4L546.7 389.2C546.371 388.788 546.217 388.263 546.274 387.738C546.33 387.214 546.591 386.733 547 386.4L548.2 385.4C548.396 385.219 548.628 385.082 548.881 384.998C549.135 384.914 549.403 384.886 549.668 384.914C549.933 384.943 550.189 385.027 550.419 385.163C550.649 385.298 550.847 385.482 551 385.7V385.7Z" fill="#F8AB5D"/>
<path d="M553.1 367.6L554.1 368.8C554.429 369.212 554.583 369.737 554.526 370.262C554.47 370.786 554.209 371.267 553.8 371.6L552.6 372.6C552.188 372.929 551.663 373.082 551.138 373.026C550.614 372.97 550.133 372.709 549.8 372.3L548.8 371.1C548.471 370.688 548.318 370.163 548.374 369.638C548.43 369.114 548.691 368.633 549.1 368.3L550.3 367.3C550.712 366.971 551.237 366.818 551.762 366.874C552.286 366.93 552.767 367.191 553.1 367.6Z" fill="#F8AB5D"/>
<path d="M555.2 349.5L556.2 350.7C556.529 351.112 556.683 351.637 556.626 352.162C556.57 352.686 556.309 353.167 555.9 353.5L554.7 354.5C554.288 354.829 553.763 354.982 553.238 354.926C552.714 354.87 552.233 354.609 551.9 354.2L550.9 353C550.571 352.588 550.418 352.063 550.474 351.538C550.53 351.014 550.791 350.533 551.2 350.2L552.4 349.2C552.812 348.871 553.337 348.717 553.862 348.774C554.386 348.83 554.867 349.091 555.2 349.5Z" fill="#F8AB5D"/>
<path d="M557.5 373.8C564.959 381.821 571.163 390.924 575.9 400.8C575.9 400.8 576.4 366.2 577.1 363.8C584.285 365.251 591.733 364.662 598.6 362.1C598.6 362.1 601.5 388.8 605.8 409.1C610.1 429.4 614.9 459.7 600.3 463.7C585.7 467.7 572.4 458.5 554.7 434.8C537 411.1 538.5 399.3 538.5 393.3C538.4 386.2 548 368 557.5 373.8Z" fill="#6DAFA7"/>
<path d="M575.9 400.9C575.9 400.9 575.2 422.4 577.8 436" stroke="#22272E" stroke-width="1.8" stroke-linecap="round" stroke-linejoin="round"/>
<path d="M576.5 373.2C576.5 373.2 589.3 377.2 599.5 370.7" stroke="#22272E" stroke-width="1.8" stroke-linecap="round" stroke-linejoin="round"/>
<path d="M595.6 368.1C595.6 368.318 595.535 368.53 595.415 368.711C595.294 368.892 595.122 369.033 594.921 369.116C594.72 369.2 594.499 369.221 594.285 369.179C594.072 369.136 593.876 369.032 593.722 368.878C593.568 368.724 593.463 368.528 593.421 368.315C593.379 368.101 593.4 367.88 593.484 367.679C593.567 367.478 593.708 367.306 593.889 367.185C594.07 367.064 594.282 367 594.5 367C594.648 366.984 594.798 367.002 594.939 367.052C595.079 367.101 595.207 367.182 595.313 367.287C595.418 367.393 595.499 367.52 595.548 367.661C595.598 367.802 595.616 367.952 595.6 368.1V368.1Z" stroke="#22272E" stroke-width="1.8" stroke-linecap="round" stroke-linejoin="round"/>
<path d="M597.8 362.5C597.8 362.5 596.8 355.4 601.6 353.1C606.4 350.8 610.8 351.9 615.7 348.3C620.6 344.7 628.9 333.3 628.6 330.8C628.3 328.3 626.5 329.4 623.2 332.1C621.773 333.432 620.155 334.544 618.4 335.4C618.4 335.4 620.4 328.6 619.5 323.6C618.6 318.6 615.2 318 614.4 318.5C613.6 319 614.4 321.1 614.2 325.1C614 329.1 612.8 332.4 609.3 334.9C609.742 332.548 609.499 330.118 608.6 327.9C607 324.1 604.3 321.6 602.2 322.2C600.1 322.8 600.8 324.4 601.8 326.6C602.8 328.8 604.4 332.8 600.2 337C599.368 337.927 598.233 338.526 596.999 338.692C595.765 338.858 594.512 338.579 593.465 337.905C592.418 337.231 591.645 336.206 591.285 335.014C590.925 333.822 591.001 332.541 591.5 331.4C593.8 325.8 597.3 324.5 599.1 323C600.9 321.5 600.4 318.8 596.6 319.4C592.8 320 586.3 324.6 582.5 329.7C578.7 334.8 577.6 341.7 577.5 348.5C577.4 355.3 577.1 364 577.1 364C577.1 364 579.6 367.1 585.1 367.1C590.6 367.1 597.8 365 597.8 362.5Z" fill="#F4C2C9"/>
<path d="M618.4 335.5C617.299 338.454 615.927 341.3 614.3 344" stroke="#E26E85" stroke-width="1.8" stroke-linecap="round" stroke-linejoin="round"/>
<path d="M609.2 334.9C608.785 337.722 607.686 340.399 606 342.7" stroke="#E26E85" stroke-width="1.8" stroke-linecap="round" stroke-linejoin="round"/>
<path d="M585.6 463.3C585.6 463.3 583.1 459.3 589.2 453.2C595.3 447.1 608.3 447.8 608.7 454.1" stroke="#22272E" stroke-width="1.8" stroke-linecap="round" stroke-linejoin="round"/>
<path d="M488.5 350.1C488.5 350.1 482.9 349.8 479.4 357.4C475.9 365 476.9 380.6 480.7 383C484.5 385.4 494.7 375.1 494.7 375.1C494.7 375.1 503.3 386.7 509.5 386.2C515.7 385.7 523.5 374.6 523 362.4C522.5 350.2 517.5 348.8 514.8 348.5C512.2 348 488.5 350.1 488.5 350.1Z" fill="white"/>
<path d="M494.7 375C494.7 375 475 396.8 474.8 400.9C474.6 405 481.3 406.3 483.1 405.4C484.9 404.5 496.7 374.7 494.7 375Z" fill="white"/>
<path d="M494.5 377.7C494.5 377.7 497.9 401.9 500.1 405.7C502.3 409.5 509.3 403.8 508.5 400.5C507.7 397.2 498.2 377.9 494.7 375.1C491.2 372.3 494.5 377.7 494.5 377.7Z" fill="white"/>
<path d="M518.9 328.8C518.9 328.8 516.7 342.5 518.3 352.8C518.3 352.8 508.8 373.9 494.8 373.9C487.9 373.9 485.7 359.7 486.9 354.1L489 338.5C489 338.5 503 314.3 518.9 328.8Z" fill="#F4C2C9"/>
<path d="M507.4 343.3C501.4 346.9 494.8 348.7 487.8 347.3L487 353.2C494.6 351.7 502.3 349.5 507.4 343.3Z" fill="#E26E85"/>
<path d="M475.3 299.3C475.547 306.144 475.279 312.996 474.5 319.8C473.2 332.5 473.7 340.8 484.5 346.2C495.3 351.6 512.8 346.7 519.2 331.3C525.6 315.9 534.1 286.6 511.1 282.2C488.1 277.8 475 283.3 475.3 299.3Z" fill="#F4C2C9"/>
<path d="M491.3 289.2C491.3 289.2 495.7 304 505.5 307.8C515.3 311.6 513.8 320.8 518.7 319.7C523.6 318.6 527.4 314.6 530.7 318.5C534 322.4 534.3 288.1 517.4 282.2C500.5 276.3 482.6 276 477.3 281.4C472 286.8 473.9 304.1 473.9 304.1C473.9 304.1 484.7 301.6 491.3 289.2Z" fill="#22272E"/>
<path d="M519.8 319.8C519.8 319.8 522.1 314.1 527 315.1C531.9 316.1 531.5 331.6 519 330.8" fill="#F4C2C9"/>
<path d="M484.8 314.5C485.366 315.831 485.437 317.321 485 318.7C484.804 319.409 484.5 320.083 484.1 320.7L483.5 321.6C483.4 321.8 483.2 322.1 483.1 322.3C482.923 322.779 482.866 323.294 482.936 323.8C483.006 324.306 483.2 324.787 483.5 325.2C484.231 326.222 485.29 326.963 486.5 327.3C485.823 327.553 485.077 327.553 484.4 327.3C483.686 327.095 483.034 326.717 482.5 326.2C481.9 325.658 481.452 324.969 481.2 324.2C481.017 323.365 481.086 322.495 481.4 321.7C481.578 321.354 481.778 321.02 482 320.7C482.2 320.4 482.4 320.2 482.6 319.9C482.991 319.405 483.326 318.868 483.6 318.3C484.251 317.127 484.659 315.834 484.8 314.5Z" fill="#22272E"/>
<path d="M492.2 334C493.755 334.352 495.382 334.179 496.829 333.51C498.276 332.841 499.461 331.712 500.2 330.3" stroke="#22272E" stroke-width="1.8" stroke-linecap="round" stroke-linejoin="round"/>
<path d="M498.6 314.5C498.6 314.5 499 316.7 502.8 317.1C503.712 317.217 504.638 317.073 505.47 316.683C506.302 316.294 507.006 315.675 507.5 314.9" stroke="#22272E" stroke-width="1.8" stroke-linecap="round" stroke-linejoin="round"/>
<path d="M483 312.9C483 312.9 480 315.3 477.6 312.3" stroke="#22272E" stroke-width="1.8" stroke-linecap="round" stroke-linejoin="round"/>
<path d="M485.8 303.4C486 302.1 484.5 299.9 482.5 299.3C480.5 298.7 477.3 301.5 477.6 302.7C477.9 303.9 479.9 302.1 481.7 302.3C483.3 302.5 485.6 304.5 485.8 303.4Z" fill="#22272E"/>
<path d="M509.7 305.6C509.9 304.3 508.4 302.1 506.4 301.5C504.4 300.9 501.2 303.7 501.5 304.9C501.8 306.1 503.8 304.3 505.6 304.5C507.4 304.7 509.6 306.7 509.7 305.6Z" fill="#22272E"/>
<path d="M526.6 319.8C525.746 319.98 524.994 320.481 524.5 321.2C524.377 321.519 524.309 321.858 524.3 322.2V323.6C524.306 324.18 524.205 324.757 524 325.3C523.899 325.614 523.73 325.902 523.505 326.144C523.28 326.386 523.006 326.576 522.7 326.7C522.163 326.902 521.587 326.981 521.015 326.929C520.444 326.877 519.892 326.696 519.4 326.4C520.294 326.245 521.146 325.904 521.9 325.4C522.143 325.133 522.323 324.814 522.427 324.468C522.531 324.122 522.556 323.757 522.5 323.4V321.8C522.556 321.156 522.84 320.554 523.3 320.1C523.785 319.789 524.339 319.599 524.913 319.546C525.488 319.494 526.066 319.581 526.6 319.8Z" fill="#22272E"/>
<path d="M476 322.7C480.915 322.7 484.9 318.357 484.9 313C484.9 307.643 480.915 303.3 476 303.3C471.085 303.3 467.1 307.643 467.1 313C467.1 318.357 471.085 322.7 476 322.7Z" stroke="#22272E" stroke-width="1.8" stroke-linecap="round" stroke-linejoin="round"/>
<path d="M501.68 326.07C507.368 326.07 511.98 321.458 511.98 315.77C511.98 310.081 507.368 305.47 501.68 305.47C495.991 305.47 491.38 310.081 491.38 315.77C491.38 321.458 495.991 326.07 501.68 326.07Z" stroke="#22272E" stroke-width="1.8" stroke-linecap="round" stroke-linejoin="round"/>
<path d="M484.9 313.8C484.9 313.8 486.5 312.1 491.5 314.2" stroke="#22272E" stroke-width="1.8" stroke-linecap="round" stroke-linejoin="round"/>
<path d="M512 315.8L521.8 316.7" stroke="#22272E" stroke-width="1.8" stroke-linecap="round" stroke-linejoin="round"/>
<path d="M524.2 328.4L520.8 334.3C520.702 334.474 520.651 334.671 520.653 334.87C520.655 335.07 520.709 335.266 520.81 335.438C520.911 335.61 521.056 335.753 521.23 335.851C521.404 335.95 521.6 336.001 521.8 336H528.6C528.8 336.001 528.996 335.95 529.17 335.851C529.344 335.753 529.488 335.61 529.59 335.438C529.691 335.266 529.745 335.07 529.747 334.87C529.749 334.671 529.698 334.474 529.6 334.3L526.2 328.4C526.089 328.237 525.94 328.104 525.765 328.012C525.591 327.92 525.397 327.871 525.2 327.871C525.003 327.871 524.809 327.92 524.634 328.012C524.46 328.104 524.311 328.237 524.2 328.4Z" fill="#F8DA30"/>
<path d="M663.5 528.5L665.9 550.7C665.9 552.3 674.2 553.5 684.4 553.5C694.6 553.5 702.9 552.2 702.9 550.7L705.3 528.5H663.5Z" fill="#22272E"/>
<path d="M705.3 528.5C705.3 530.3 695.9 531.7 684.4 531.7C672.9 531.7 663.5 530.3 663.5 528.5C663.5 526.7 672.9 525.3 684.4 525.3C695.9 525.3 705.3 526.8 705.3 528.5Z" fill="#F8DA30"/>
<path d="M678.8 528.5C678.8 528.5 667.6 524.1 668.8 515.5C670 506.9 678.3 524.7 680.4 522C682.5 519.3 679.8 506.2 684.4 505C689 503.8 687.8 522.2 687.8 522.2C690.647 520.759 693.219 518.83 695.4 516.5C698.3 513.1 702.5 520.7 690.6 528.5C686.821 530.058 682.579 530.058 678.8 528.5V528.5Z" fill="#6DAFA7"/>
<path d="M777.5 522.7C777.5 523.768 777.184 524.812 776.59 525.7C775.997 526.588 775.153 527.28 774.167 527.689C773.18 528.098 772.094 528.205 771.047 527.996C769.999 527.788 769.037 527.274 768.282 526.518C767.527 525.763 767.012 524.801 766.804 523.754C766.596 522.706 766.703 521.62 767.111 520.634C767.52 519.647 768.212 518.804 769.1 518.21C769.988 517.617 771.032 517.3 772.1 517.3C773.524 517.328 774.881 517.906 775.887 518.913C776.894 519.92 777.472 521.277 777.5 522.7V522.7Z" fill="#F8DA30"/>
<path d="M392.6 542C389.64 542.75 386.899 544.189 384.6 546.2C379.383 550.401 372.786 552.505 366.1 552.1C362.157 551.925 358.305 550.853 354.839 548.964C351.373 547.075 348.384 544.419 346.1 541.2C361.551 542.755 377.105 543.023 392.6 542V542Z" fill="white"/>
<path d="M366 552.2C348.4 552.5 323.8 552.2 316.2 552.1C307.4 552.8 297.5 549.4 290.9 538.5C290.9 538.5 297.4 539.5 314.1 539.6C330.8 539.7 344.1 538.5 344.1 538.5C344.7 539.5 345.3 540.4 345.9 541.3C348.243 544.483 351.259 547.11 354.733 548.994C358.207 550.878 362.054 551.973 366 552.2Z" fill="#22272E"/>
</g>
<defs>
<clipPath id="clip0_5_1942">
<rect width="1024" height="768" fill="white"/>
</clipPath>
</defs>
</svg>
