<svg width="1024" height="768" viewBox="0 0 1024 768" fill="none" xmlns="http://www.w3.org/2000/svg">
<g clip-path="url(#clip0_5_949)">
<path d="M766.3 565.3L246.3 550.4C234.608 550.075 223.436 545.499 214.876 537.528C206.316 529.557 200.956 518.739 199.8 507.1L174.7 259.1C174.032 252.462 174.75 245.757 176.808 239.41C178.866 233.064 182.22 227.214 186.658 222.232C191.095 217.249 196.519 213.243 202.585 210.466C208.652 207.689 215.229 206.202 221.9 206.1L800.7 198.1C807.583 198.007 814.406 199.389 820.71 202.153C827.014 204.917 832.654 208.999 837.249 214.125C841.843 219.25 845.287 225.3 847.349 231.868C849.41 238.435 850.042 245.368 849.2 252.2L815.5 523.1C814.035 535.001 808.177 545.925 799.076 553.732C789.974 561.539 778.285 565.664 766.3 565.3Z" fill="#EAF9F3"/>
<path d="M691.4 632.6H1106.9C1110.88 632.6 1114.69 631.02 1117.51 628.207C1120.32 625.394 1121.9 621.578 1121.9 617.6V382C1121.9 378.022 1120.32 374.206 1117.51 371.393C1114.69 368.58 1110.88 367 1106.9 367H691.4C687.422 367 683.606 368.58 680.793 371.393C677.98 374.206 676.4 378.022 676.4 382V617.6C676.4 621.578 677.98 625.394 680.793 628.207C683.606 631.02 687.422 632.6 691.4 632.6Z" stroke="#B8D8C7" stroke-width="1.8" stroke-linecap="round" stroke-linejoin="round"/>
<path d="M142.3 616.8H561.4C565.378 616.8 569.194 615.22 572.007 612.407C574.82 609.594 576.4 605.778 576.4 601.8V257.5C576.4 253.522 574.82 249.706 572.007 246.893C569.194 244.08 565.378 242.5 561.4 242.5H142.3C138.322 242.5 134.506 244.08 131.693 246.893C128.88 249.706 127.3 253.522 127.3 257.5V601.8C127.3 605.778 128.88 609.594 131.693 612.407C134.506 615.22 138.322 616.8 142.3 616.8Z" stroke="#B8D8C7" stroke-width="1.8" stroke-linecap="round" stroke-linejoin="round"/>
<path d="M714 366.9H734.3C735.358 366.903 736.38 366.517 737.172 365.817C737.965 365.117 738.473 364.15 738.6 363.1L740.2 348.7C740.266 348.096 740.204 347.484 740.018 346.905C739.832 346.327 739.527 345.794 739.121 345.341C738.715 344.888 738.219 344.526 737.664 344.277C737.109 344.029 736.508 343.901 735.9 343.9H712.4C711.793 343.902 711.192 344.032 710.638 344.281C710.084 344.529 709.588 344.892 709.183 345.344C708.778 345.796 708.472 346.329 708.285 346.907C708.099 347.485 708.036 348.096 708.1 348.7L709.7 363.1C709.827 364.15 710.335 365.117 711.128 365.817C711.921 366.517 712.943 366.903 714 366.9Z" stroke="#B8D8C7" stroke-width="1.8" stroke-linecap="round" stroke-linejoin="round"/>
<path d="M726.5 344C726.5 344 734.5 343.2 736.1 332.4C736.1 332.4 728.9 334.5 726.6 339.6C726.6 339.6 725.6 328.2 720.2 327.1C720.2 327.1 717.8 335.6 721.6 339.8C721.6 339.8 718.7 335 711.3 335.1C711.999 337.206 713.203 339.109 714.807 340.643C716.41 342.177 718.365 343.295 720.5 343.9" fill="#B8D8C7"/>
<path d="M228.3 347.2H248.6C249.658 347.203 250.68 346.817 251.472 346.117C252.265 345.417 252.773 344.45 252.9 343.4L254.5 329C254.566 328.396 254.504 327.784 254.318 327.205C254.132 326.627 253.826 326.094 253.421 325.641C253.015 325.188 252.519 324.826 251.964 324.577C251.409 324.329 250.808 324.201 250.2 324.2H226.7C226.093 324.202 225.492 324.332 224.938 324.581C224.384 324.829 223.888 325.192 223.483 325.644C223.078 326.096 222.772 326.629 222.585 327.207C222.399 327.785 222.336 328.396 222.4 329L224 343.4C224.129 344.449 224.638 345.415 225.43 346.115C226.222 346.815 227.243 347.201 228.3 347.2Z" stroke="#B8D8C7" stroke-width="1.8" stroke-linecap="round" stroke-linejoin="round"/>
<path d="M240.8 324.2C240.8 324.2 248.8 323.4 250.4 312.6C250.4 312.6 243.2 314.7 240.9 319.8C240.9 319.8 239.9 308.4 234.5 307.3C234.5 307.3 232.1 315.8 235.9 320C235.9 320 233 315.2 225.6 315.3C226.299 317.406 227.503 319.309 229.107 320.843C230.71 322.377 232.665 323.495 234.8 324.1" fill="#B8D8C7"/>
<path d="M694.6 416.7H784.8C785.912 416.692 786.975 416.247 787.761 415.461C788.547 414.675 788.992 413.612 789 412.5V385C788.992 383.889 788.547 382.825 787.761 382.039C786.975 381.253 785.912 380.808 784.8 380.8H694.6C693.489 380.808 692.425 381.253 691.639 382.039C690.853 382.825 690.408 383.889 690.4 385V412.4C690.394 412.958 690.497 413.512 690.704 414.03C690.912 414.548 691.22 415.021 691.61 415.42C692 415.819 692.464 416.138 692.978 416.357C693.491 416.577 694.042 416.694 694.6 416.7Z" stroke="#B8D8C7" stroke-width="1.8" stroke-linecap="round" stroke-linejoin="round"/>
<path d="M729.3 390.6H750.1C750.494 390.59 750.87 390.429 751.149 390.15C751.428 389.87 751.59 389.495 751.6 389.1C751.59 388.705 751.428 388.33 751.149 388.051C750.87 387.771 750.494 387.61 750.1 387.6H729.3C728.905 387.61 728.53 387.771 728.25 388.051C727.971 388.33 727.81 388.705 727.8 389.1V389.1C727.81 389.495 727.971 389.87 728.25 390.15C728.53 390.429 728.905 390.59 729.3 390.6V390.6Z" fill="#B8D8C7"/>
<path d="M694.6 462.5H784.8C785.911 462.492 786.975 462.047 787.761 461.261C788.547 460.475 788.992 459.411 789 458.3V430.9C788.992 429.788 788.547 428.725 787.761 427.939C786.975 427.153 785.911 426.708 784.8 426.7H694.6C693.488 426.708 692.425 427.153 691.639 427.939C690.853 428.725 690.408 429.788 690.4 430.9V458.3C690.408 459.411 690.853 460.475 691.639 461.261C692.425 462.047 693.488 462.492 694.6 462.5V462.5Z" stroke="#B8D8C7" stroke-width="1.8" stroke-linecap="round" stroke-linejoin="round"/>
<path d="M729.3 436.4H750.1C750.494 436.39 750.87 436.229 751.149 435.949C751.428 435.67 751.59 435.295 751.6 434.9C751.59 434.505 751.428 434.13 751.149 433.85C750.87 433.571 750.494 433.41 750.1 433.4H729.3C728.905 433.41 728.53 433.571 728.25 433.85C727.971 434.13 727.81 434.505 727.8 434.9V434.9C727.81 435.295 727.971 435.67 728.25 435.949C728.53 436.229 728.905 436.39 729.3 436.4V436.4Z" fill="#B8D8C7"/>
<path d="M231.4 494.9H321.6C322.712 494.892 323.775 494.447 324.561 493.661C325.347 492.875 325.792 491.812 325.8 490.7V463.3C325.792 462.189 325.347 461.125 324.561 460.339C323.775 459.553 322.712 459.108 321.6 459.1H231.4C230.289 459.108 229.225 459.553 228.439 460.339C227.653 461.125 227.208 462.189 227.2 463.3V490.7C227.208 491.812 227.653 492.875 228.439 493.661C229.225 494.447 230.289 494.892 231.4 494.9V494.9Z" stroke="#B8D8C7" stroke-width="1.8" stroke-linecap="round" stroke-linejoin="round"/>
<path d="M266.2 468.7H287C287.395 468.69 287.77 468.529 288.05 468.249C288.329 467.97 288.49 467.595 288.5 467.2C288.49 466.805 288.329 466.43 288.05 466.15C287.77 465.871 287.395 465.71 287 465.7H266.2C265.806 465.71 265.43 465.871 265.151 466.15C264.872 466.43 264.71 466.805 264.7 467.2V467.2C264.689 467.4 264.719 467.6 264.791 467.787C264.862 467.975 264.972 468.145 265.114 468.286C265.255 468.428 265.425 468.538 265.613 468.609C265.8 468.681 266 468.712 266.2 468.7V468.7Z" fill="#B8D8C7"/>
<path d="M347.2 494.9H437.4C438.511 494.892 439.575 494.447 440.361 493.661C441.147 492.875 441.592 491.812 441.6 490.7V463.3C441.592 462.189 441.147 461.125 440.361 460.339C439.575 459.553 438.511 459.108 437.4 459.1H347.2C346.089 459.108 345.025 459.553 344.239 460.339C343.453 461.125 343.008 462.189 343 463.3V490.7C343.008 491.812 343.453 492.875 344.239 493.661C345.025 494.447 346.089 494.892 347.2 494.9V494.9Z" stroke="#B8D8C7" stroke-width="1.8" stroke-linecap="round" stroke-linejoin="round"/>
<path d="M382 468.7H402.8C403.195 468.69 403.57 468.529 403.849 468.249C404.129 467.97 404.29 467.595 404.3 467.2C404.29 466.805 404.129 466.43 403.849 466.15C403.57 465.871 403.195 465.71 402.8 465.7H382C381.605 465.71 381.23 465.871 380.951 466.15C380.671 466.43 380.51 466.805 380.5 467.2V467.2C380.488 467.4 380.519 467.6 380.59 467.787C380.662 467.975 380.772 468.145 380.913 468.286C381.055 468.428 381.225 468.538 381.412 468.609C381.6 468.681 381.8 468.712 382 468.7V468.7Z" fill="#B8D8C7"/>
<path d="M809.6 416.7H899.8C900.912 416.692 901.975 416.247 902.761 415.461C903.547 414.675 903.992 413.612 904 412.5V385C903.992 383.889 903.547 382.825 902.761 382.039C901.975 381.253 900.912 380.808 899.8 380.8H809.6C808.489 380.808 807.425 381.253 806.639 382.039C805.853 382.825 805.408 383.889 805.4 385V412.4C805.394 412.958 805.497 413.512 805.704 414.03C805.912 414.548 806.22 415.021 806.61 415.42C807 415.819 807.464 416.138 807.978 416.357C808.491 416.577 809.042 416.694 809.6 416.7Z" stroke="#B8D8C7" stroke-width="1.8" stroke-linecap="round" stroke-linejoin="round"/>
<path d="M844.3 390.6H865.1C865.494 390.59 865.87 390.429 866.149 390.15C866.428 389.87 866.59 389.495 866.6 389.1V389.1C866.59 388.705 866.428 388.33 866.149 388.051C865.87 387.771 865.494 387.61 865.1 387.6H844.3C843.905 387.61 843.53 387.771 843.25 388.051C842.971 388.33 842.81 388.705 842.8 389.1C842.81 389.495 842.971 389.87 843.25 390.15C843.53 390.429 843.905 390.59 844.3 390.6V390.6Z" fill="#B8D8C7"/>
<path d="M809.6 462.5H899.8C900.911 462.492 901.975 462.047 902.761 461.261C903.547 460.475 903.992 459.411 904 458.3V430.9C903.992 429.788 903.547 428.725 902.761 427.939C901.975 427.153 900.911 426.708 899.8 426.7H809.6C808.488 426.708 807.425 427.153 806.639 427.939C805.853 428.725 805.408 429.788 805.4 430.9V458.3C805.408 459.411 805.853 460.475 806.639 461.261C807.425 462.047 808.488 462.492 809.6 462.5V462.5Z" stroke="#B8D8C7" stroke-width="1.8" stroke-linecap="round" stroke-linejoin="round"/>
<path d="M844.3 436.4H865.1C865.494 436.39 865.87 436.229 866.149 435.949C866.428 435.67 866.59 435.295 866.6 434.9V434.9C866.59 434.505 866.428 434.13 866.149 433.85C865.87 433.571 865.494 433.41 865.1 433.4H844.3C843.905 433.41 843.53 433.571 843.25 433.85C842.971 434.13 842.81 434.505 842.8 434.9V434.9C842.81 435.295 842.971 435.67 843.25 435.949C843.53 436.229 843.905 436.39 844.3 436.4V436.4Z" fill="#B8D8C7"/>
<path d="M100.1 347.3H555.1C556.316 347.287 557.478 346.798 558.338 345.938C559.198 345.078 559.687 343.916 559.7 342.7V263C559.687 261.784 559.198 260.621 558.338 259.762C557.478 258.902 556.316 258.413 555.1 258.4H100.1C98.884 258.413 97.7216 258.902 96.8617 259.762C96.0018 260.621 95.513 261.784 95.5 263V342.7C95.4987 343.304 95.6168 343.903 95.8475 344.462C96.0782 345.021 96.417 345.528 96.8444 345.956C97.2718 346.383 97.7794 346.722 98.3381 346.952C98.8968 347.183 99.4956 347.301 100.1 347.3V347.3Z" stroke="#B8D8C7" stroke-width="1.8" stroke-linecap="round" stroke-linejoin="round"/>
<path d="M100.1 446.3H555.1C556.316 446.287 557.478 445.798 558.338 444.938C559.198 444.078 559.687 442.916 559.7 441.7V362C559.687 360.784 559.198 359.621 558.338 358.762C557.478 357.902 556.316 357.413 555.1 357.4H100.1C98.884 357.413 97.7216 357.902 96.8617 358.762C96.0018 359.621 95.513 360.784 95.5 362V441.7C95.513 442.916 96.0018 444.078 96.8617 444.938C97.7216 445.798 98.884 446.287 100.1 446.3V446.3Z" stroke="#B8D8C7" stroke-width="1.8" stroke-linecap="round" stroke-linejoin="round"/>
<path d="M529.13 297.09H519.23V347.39H529.13V297.09Z" stroke="#B8D8C7" stroke-width="1.8" stroke-linecap="round" stroke-linejoin="round"/>
<path d="M519.19 310.7H508.89V347.3H519.19V310.7Z" stroke="#B8D8C7" stroke-width="1.8" stroke-linecap="round" stroke-linejoin="round"/>
<path d="M230.75 395.83H220.85V446.13H230.75V395.83Z" stroke="#B8D8C7" stroke-width="1.8" stroke-linecap="round" stroke-linejoin="round"/>
<path d="M220.81 409.54H210.51V446.14H220.81V409.54Z" stroke="#B8D8C7" stroke-width="1.8" stroke-linecap="round" stroke-linejoin="round"/>
<path d="M250.84 395.83H240.94V446.13H250.84V395.83Z" stroke="#B8D8C7" stroke-width="1.8" stroke-linecap="round" stroke-linejoin="round"/>
<path d="M260.118 394.792L250.677 397.772L265.819 445.739L275.26 442.759L260.118 394.792Z" stroke="#B8D8C7" stroke-width="1.8" stroke-linecap="round" stroke-linejoin="round"/>
<path d="M241 409.54H230.7V446.14H241V409.54Z" stroke="#B8D8C7" stroke-width="1.8" stroke-linecap="round" stroke-linejoin="round"/>
<path d="M439.9 303.6L438.8 288.7C438.778 288.467 438.807 288.232 438.883 288.01C438.96 287.789 439.083 287.586 439.243 287.416C439.404 287.246 439.599 287.112 439.816 287.023C440.033 286.934 440.266 286.892 440.5 286.9H449.1C449.331 286.901 449.56 286.949 449.773 287.041C449.985 287.133 450.176 287.267 450.335 287.436C450.494 287.604 450.617 287.803 450.697 288.02C450.777 288.238 450.812 288.469 450.8 288.7L449.7 303.6C449.7 303.6 458.7 309.4 458.6 314.2C458.5 317.9 456.3 335.6 455.3 343.4C455.173 344.45 454.664 345.417 453.872 346.117C453.079 346.817 452.057 347.203 451 347.2H438.6C437.542 347.203 436.52 346.817 435.728 346.117C434.935 345.417 434.427 344.45 434.3 343.4C433.3 335.6 431.1 317.9 431 314.2C430.9 309.4 439.9 303.6 439.9 303.6Z" fill="#B8D8C7"/>
<path d="M395.7 303.6L394.6 288.7C394.579 288.467 394.607 288.232 394.684 288.01C394.76 287.789 394.883 287.586 395.044 287.416C395.204 287.246 395.4 287.112 395.616 287.023C395.833 286.934 396.066 286.892 396.3 286.9H404.9C405.132 286.901 405.361 286.949 405.573 287.041C405.785 287.133 405.977 287.267 406.136 287.436C406.295 287.604 406.418 287.803 406.498 288.02C406.577 288.238 406.612 288.469 406.6 288.7L405.5 303.6C405.5 303.6 414.5 309.4 414.4 314.2C414.3 317.9 412.1 335.6 411.1 343.4C410.973 344.45 410.465 345.417 409.672 346.117C408.88 346.817 407.858 347.203 406.8 347.2H394.4C393.343 347.203 392.321 346.817 391.528 346.117C390.736 345.417 390.227 344.45 390.1 343.4C389.1 335.6 386.9 317.9 386.8 314.2C386.7 309.4 395.7 303.6 395.7 303.6Z" fill="#B8D8C7"/>
<path d="M837.2 540.7H-95.7" stroke="#B8D8C7" stroke-width="1.8" stroke-linecap="round" stroke-linejoin="round"/>
<path d="M423.9 446.3H340.7C339.401 446.297 338.156 445.78 337.238 444.862C336.32 443.943 335.802 442.699 335.8 441.4V428.3C335.802 427.001 336.32 425.756 337.238 424.838C338.156 423.92 339.401 423.403 340.7 423.4H423.9C425.199 423.403 426.443 423.92 427.362 424.838C428.28 425.756 428.797 427.001 428.8 428.3V441.4C428.797 442.699 428.28 443.943 427.362 444.862C426.443 445.78 425.199 446.297 423.9 446.3V446.3Z" stroke="#B8D8C7" stroke-width="1.8" stroke-linecap="round" stroke-linejoin="round"/>
<path d="M412.2 402.3H352.2V423.3H412.2V402.3Z" stroke="#B8D8C7" stroke-width="1.8" stroke-linecap="round" stroke-linejoin="round"/>
<path d="M345.2 432.5C346.029 432.5 346.7 431.828 346.7 431C346.7 430.172 346.029 429.5 345.2 429.5C344.372 429.5 343.7 430.172 343.7 431C343.7 431.828 344.372 432.5 345.2 432.5Z" fill="#B8D8C7"/>
<path d="M434.3 423.8L476.5 408.1C477.288 407.794 477.967 407.259 478.448 406.564C478.929 405.869 479.191 405.045 479.2 404.2V404.2L395.4 398.2L408.3 421.4L430.1 424.3C431.52 424.487 432.964 424.315 434.3 423.8V423.8Z" fill="#63737A"/>
<path d="M328.1 408.5L320.5 349.2C320.453 348.812 320.491 348.418 320.612 348.046C320.733 347.674 320.934 347.334 321.201 347.048C321.468 346.762 321.794 346.538 322.157 346.391C322.519 346.245 322.91 346.18 323.3 346.2L424.7 353.4C425.427 353.447 426.112 353.757 426.628 354.272C427.143 354.788 427.453 355.473 427.5 356.2L433.5 421.5C433.54 421.899 433.489 422.303 433.35 422.679C433.212 423.056 432.991 423.397 432.702 423.676C432.413 423.955 432.065 424.165 431.684 424.29C431.303 424.416 430.898 424.453 430.5 424.4L330.7 411.2C330.037 411.083 329.427 410.759 328.96 410.274C328.493 409.788 328.192 409.167 328.1 408.5Z" fill="#22272E"/>
<path d="M479.2 404.3C479.205 405.149 478.949 405.979 478.466 406.676C477.983 407.374 477.296 407.906 476.5 408.2L434.3 423.9C433.252 424.316 432.124 424.487 431 424.4C429.941 423.544 429.058 422.491 428.4 421.3L479.2 404.3Z" fill="#22272E"/>
<path d="M376.54 388.839C379.205 386.871 379.505 382.754 377.209 379.644C374.912 376.534 370.89 375.608 368.224 377.576C365.558 379.545 365.259 383.662 367.555 386.772C369.851 389.882 373.874 390.807 376.54 388.839Z" fill="#63737A"/>
<path d="M611.3 140.1H580.7L577.6 142.1C577.372 142.248 577.107 142.331 576.835 142.339C576.563 142.348 576.293 142.281 576.056 142.147C575.819 142.013 575.623 141.817 575.49 141.579C575.357 141.342 575.291 141.072 575.3 140.8V119.1C575.3 118.039 575.722 117.022 576.472 116.272C577.222 115.522 578.239 115.1 579.3 115.1H611.4C612.461 115.1 613.478 115.522 614.229 116.272C614.979 117.022 615.4 118.039 615.4 119.1V136C615.38 137.081 614.941 138.112 614.177 138.877C613.412 139.641 612.381 140.08 611.3 140.1Z" fill="#F4C2C9"/>
<path d="M594.9 125.1H605.6" stroke="#22272E" stroke-width="1.8" stroke-linecap="round" stroke-linejoin="round"/>
<path d="M594.9 130.6H601.4" stroke="#22272E" stroke-width="1.8" stroke-linecap="round" stroke-linejoin="round"/>
<path d="M589.4 125.1H583.9V130.6H589.4V125.1Z" stroke="#22272E" stroke-width="1.8" stroke-linecap="round" stroke-linejoin="round"/>
<path d="M428.5 302L259.5 327.6C258.608 327.738 257.696 327.689 256.824 327.456C255.951 327.223 255.137 326.812 254.432 326.248C253.727 325.684 253.147 324.979 252.728 324.179C252.309 323.379 252.061 322.501 252 321.6L241.9 169.4C241.83 168.41 241.974 167.417 242.321 166.488C242.668 165.558 243.211 164.714 243.913 164.013C244.614 163.311 245.458 162.768 246.388 162.421C247.317 162.074 248.31 161.93 249.3 162L418.6 172.8C420.152 172.898 421.619 173.545 422.737 174.626C423.855 175.708 424.551 177.152 424.7 178.7L434.4 294.6C434.507 296.345 433.963 298.068 432.874 299.435C431.784 300.802 430.225 301.716 428.5 302V302Z" fill="#63737A"/>
<path d="M433.1 301.8L263.3 327.5C262.407 327.638 261.496 327.589 260.624 327.356C259.751 327.123 258.937 326.712 258.232 326.148C257.527 325.584 256.946 324.879 256.528 324.079C256.109 323.279 255.861 322.401 255.8 321.5L245.6 168.6C245.525 167.596 245.668 166.588 246.018 165.644C246.369 164.7 246.919 163.843 247.631 163.131C248.343 162.419 249.2 161.869 250.144 161.519C251.087 161.168 252.096 161.025 253.1 161.1L423.1 171.9C424.667 172.003 426.145 172.665 427.265 173.766C428.385 174.868 429.071 176.335 429.2 177.9L439 294.3C439.195 296.074 438.687 297.854 437.583 299.256C436.48 300.659 434.87 301.572 433.1 301.8V301.8Z" fill="#22272E"/>
<path d="M322.4 249.4L274.6 252C273.872 252.033 273.161 251.779 272.619 251.293C272.076 250.807 271.746 250.127 271.7 249.4L268.9 209C268.878 208.617 268.935 208.234 269.065 207.873C269.196 207.513 269.398 207.182 269.659 206.902C269.921 206.622 270.237 206.397 270.587 206.242C270.938 206.087 271.317 206.005 271.7 206L319.5 206.3C320.212 206.288 320.901 206.553 321.423 207.037C321.945 207.522 322.259 208.189 322.3 208.9L325.1 246.4C325.124 246.775 325.073 247.152 324.95 247.507C324.827 247.862 324.634 248.189 324.382 248.469C324.13 248.748 323.825 248.975 323.485 249.135C323.145 249.295 322.776 249.385 322.4 249.4V249.4Z" fill="#6DAFA7"/>
<path d="M373.8 233.8L333.8 235.2C333.072 235.233 332.361 234.979 331.818 234.493C331.276 234.007 330.946 233.327 330.9 232.6L329.2 209.3C329.178 208.917 329.234 208.534 329.365 208.173C329.495 207.813 329.697 207.482 329.959 207.202C330.221 206.922 330.536 206.697 330.887 206.542C331.238 206.387 331.616 206.305 332 206.3L372 206.6C372.702 206.621 373.374 206.895 373.889 207.374C374.404 207.852 374.727 208.501 374.8 209.2L376.5 230.8C376.533 231.177 376.488 231.557 376.368 231.916C376.248 232.275 376.055 232.605 375.802 232.887C375.549 233.168 375.24 233.394 374.896 233.552C374.551 233.709 374.178 233.793 373.8 233.8V233.8Z" fill="#F8DA30"/>
<path d="M419.1 232.3L385.4 233.5C384.672 233.533 383.961 233.279 383.419 232.793C382.876 232.307 382.546 231.627 382.5 230.9L380.8 209.8C380.778 209.417 380.834 209.034 380.965 208.673C381.095 208.313 381.298 207.982 381.559 207.702C381.821 207.422 382.137 207.197 382.487 207.042C382.838 206.887 383.217 206.805 383.6 206.8L417.3 207C418.002 207.021 418.674 207.295 419.189 207.774C419.704 208.252 420.028 208.901 420.1 209.6L421.7 229.3C421.737 229.67 421.698 230.043 421.586 230.398C421.474 230.752 421.29 231.08 421.047 231.36C420.803 231.641 420.505 231.87 420.17 232.031C419.835 232.193 419.471 232.284 419.1 232.3V232.3Z" fill="#F4C2C9"/>
<path d="M325.4 288.6L277.6 293.8C277.223 293.846 276.841 293.814 276.478 293.706C276.114 293.598 275.776 293.416 275.486 293.173C275.195 292.929 274.958 292.628 274.788 292.289C274.618 291.949 274.52 291.579 274.5 291.2L272.7 265.1C272.663 264.361 272.913 263.637 273.397 263.078C273.882 262.519 274.563 262.169 275.3 262.1L323.2 258.9C323.568 258.873 323.937 258.918 324.288 259.035C324.638 259.151 324.961 259.335 325.24 259.576C325.519 259.818 325.747 260.112 325.912 260.442C326.077 260.773 326.174 261.132 326.2 261.5L328 285.6C328.006 286.331 327.746 287.039 327.267 287.592C326.788 288.144 326.124 288.503 325.4 288.6Z" stroke="#63737A" stroke-width="1.8" stroke-linecap="round" stroke-linejoin="round"/>
<path d="M378.3 287.6L338.4 292.3C338.024 292.346 337.642 292.314 337.278 292.206C336.914 292.098 336.577 291.916 336.286 291.673C335.995 291.429 335.758 291.128 335.588 290.789C335.419 290.449 335.321 290.079 335.3 289.7L332.1 246.6C332.048 245.858 332.292 245.125 332.78 244.562C333.267 244 333.958 243.654 334.7 243.6L374.7 241.7C375.428 241.667 376.139 241.921 376.682 242.407C377.224 242.894 377.554 243.573 377.6 244.3L380.8 284.6C380.844 285.324 380.609 286.038 380.145 286.596C379.68 287.153 379.021 287.512 378.3 287.6Z" fill="#F4C2C9"/>
<path d="M370 249.2L341.3 250.9C341.138 250.899 340.977 250.934 340.829 251.002C340.682 251.07 340.551 251.169 340.446 251.293C340.341 251.417 340.265 251.562 340.222 251.719C340.18 251.876 340.172 252.04 340.2 252.2L341.5 270C341.507 270.16 341.547 270.316 341.618 270.46C341.688 270.603 341.787 270.731 341.91 270.834C342.032 270.937 342.174 271.014 342.327 271.06C342.48 271.106 342.641 271.119 342.8 271.1L371.5 268.6C371.66 268.593 371.816 268.553 371.96 268.482C372.103 268.412 372.231 268.312 372.334 268.19C372.437 268.068 372.514 267.926 372.56 267.773C372.606 267.62 372.619 267.459 372.6 267.3L371.3 250.3C371.238 249.998 371.076 249.725 370.84 249.526C370.604 249.326 370.308 249.211 370 249.2V249.2Z" fill="#6DAFA7"/>
<path d="M423.1 277.7L389.4 281.4C389.024 281.446 388.642 281.414 388.278 281.306C387.914 281.198 387.577 281.016 387.286 280.772C386.995 280.529 386.758 280.228 386.588 279.889C386.419 279.549 386.321 279.179 386.3 278.8L383.6 244.1C383.548 243.357 383.792 242.625 384.28 242.062C384.767 241.5 385.458 241.154 386.2 241.1L419.9 239.5C420.628 239.467 421.339 239.721 421.882 240.207C422.424 240.693 422.754 241.373 422.8 242.1L425.5 274.7C425.542 275.055 425.513 275.415 425.414 275.758C425.316 276.102 425.15 276.422 424.927 276.701C424.704 276.98 424.427 277.212 424.114 277.384C423.8 277.555 423.456 277.663 423.1 277.7V277.7Z" fill="#F8DA30"/>
<path d="M301 272.1L301.6 279.5" stroke="#63737A" stroke-width="1.8" stroke-linecap="round" stroke-linejoin="round"/>
<path d="M297.8 276.1L304.8 275.5" stroke="#63737A" stroke-width="1.8" stroke-linecap="round" stroke-linejoin="round"/>
<path d="M348.9 280.3C348.7 278.3 347.2 276.7 345.4 276.9C344.465 277.06 343.63 277.577 343.07 278.342C342.51 279.108 342.269 280.061 342.4 281C342.408 281.461 342.507 281.916 342.694 282.339C342.88 282.761 343.148 283.141 343.484 283.458C343.819 283.775 344.215 284.022 344.647 284.183C345.079 284.345 345.539 284.419 346 284.4C346.891 284.171 347.672 283.633 348.203 282.882C348.734 282.131 348.981 281.216 348.9 280.3Z" fill="#282828"/>
<path d="M354.7 279.7L373.4 277.8" stroke="#282828" stroke-width="1.8" stroke-linecap="round" stroke-linejoin="round"/>
<path d="M396.3 250.5C396.285 249.663 395.96 248.862 395.387 248.252C394.814 247.642 394.034 247.267 393.2 247.2C391.6 247.3 390.5 248.9 390.6 250.8C390.7 252.7 392.1 254.2 393.7 254.1C395.3 254 396.5 252.4 396.3 250.5Z" fill="#6DAFA7"/>
<path d="M401.4 250.2L417.5 249.2" stroke="#282828" stroke-width="1.8" stroke-linecap="round" stroke-linejoin="round"/>
<path d="M397.2 261.2C397 259.3 395.7 257.9 394.1 258C392.5 258.1 391.4 259.8 391.5 261.7C391.6 263.6 393.1 265.1 394.6 264.9C395.431 264.746 396.169 264.273 396.655 263.581C397.142 262.889 397.337 262.034 397.2 261.2V261.2Z" fill="#6DAFA7"/>
<path d="M402.2 260.8L418.4 259.5" stroke="#282828" stroke-width="1.8" stroke-linecap="round" stroke-linejoin="round"/>
<path d="M398.1 271.9C397.9 270 396.6 268.6 395 268.7C393.4 268.8 392.3 270.5 392.4 272.4C392.5 274.3 394 275.7 395.5 275.6C396.322 275.428 397.047 274.95 397.53 274.263C398.013 273.576 398.217 272.732 398.1 271.9V271.9Z" fill="#6DAFA7"/>
<path d="M403.1 271.4L419.2 269.8" stroke="#282828" stroke-width="1.8" stroke-linecap="round" stroke-linejoin="round"/>
<path d="M285.6 222.2L279.1 222.3C278.804 222.284 278.522 222.166 278.303 221.965C278.084 221.765 277.941 221.494 277.9 221.2L277.4 214.4C277.395 214.241 277.422 214.082 277.48 213.934C277.538 213.786 277.627 213.652 277.739 213.539C277.852 213.426 277.986 213.338 278.134 213.28C278.283 213.222 278.441 213.194 278.6 213.2H285.1C285.397 213.216 285.679 213.334 285.898 213.535C286.116 213.735 286.259 214.006 286.3 214.3L286.8 221C286.762 221.305 286.624 221.589 286.406 221.806C286.189 222.024 285.905 222.162 285.6 222.2V222.2Z" fill="#F8DA30"/>
<path d="M292.6 213.2L315.1 213.1" stroke="#282828" stroke-width="1.8" stroke-linecap="round" stroke-linejoin="round"/>
<path d="M293 219L315.5 218.8" stroke="#282828" stroke-width="1.8" stroke-linecap="round" stroke-linejoin="round"/>
<path d="M393.5 220.6L388.4 220.7C388.238 220.677 388.087 220.608 387.963 220.502C387.839 220.395 387.748 220.256 387.7 220.1L387.2 213.6C387.197 213.507 387.213 213.415 387.248 213.329C387.282 213.243 387.333 213.164 387.399 213.099C387.464 213.033 387.543 212.982 387.629 212.948C387.715 212.913 387.807 212.897 387.9 212.9H393C393.162 212.923 393.313 212.992 393.437 213.098C393.561 213.204 393.652 213.344 393.7 213.5L394.2 219.9C394.188 220.082 394.111 220.253 393.982 220.382C393.853 220.511 393.682 220.588 393.5 220.6V220.6Z" fill="#282828"/>
<path d="M398.3 212.8H415" stroke="#282828" stroke-width="1.8" stroke-linecap="round" stroke-linejoin="round"/>
<path d="M398.8 217.9L415.4 217.7" stroke="#282828" stroke-width="1.8" stroke-linecap="round" stroke-linejoin="round"/>
<path d="M388.2 226.2L416 225.5" stroke="#282828" stroke-width="1.8" stroke-linecap="round" stroke-linejoin="round"/>
<path d="M286.7 237.7L280.2 237.9C279.899 237.901 279.608 237.789 279.385 237.585C279.163 237.381 279.025 237.101 279 236.8L278.5 230C278.491 229.848 278.512 229.696 278.563 229.553C278.613 229.41 278.692 229.278 278.795 229.166C278.898 229.054 279.022 228.964 279.16 228.901C279.299 228.838 279.448 228.804 279.6 228.8L286.1 228.6C286.397 228.616 286.679 228.734 286.898 228.935C287.117 229.135 287.259 229.406 287.3 229.7L287.8 236.4C287.82 236.717 287.717 237.029 287.512 237.271C287.307 237.514 287.016 237.667 286.7 237.7V237.7Z" fill="#F8DA30"/>
<path d="M293.7 228.5L316.2 227.9" stroke="#282828" stroke-width="1.8" stroke-linecap="round" stroke-linejoin="round"/>
<path d="M294.1 234.4L316.6 233.7" stroke="#282828" stroke-width="1.8" stroke-linecap="round" stroke-linejoin="round"/>
<path d="M303.1 189.3L269.4 188.3C268.864 188.287 268.353 188.075 267.964 187.705C267.576 187.335 267.339 186.835 267.3 186.3L266.9 181C266.876 180.7 266.915 180.399 267.016 180.116C267.117 179.832 267.276 179.574 267.484 179.356C267.692 179.139 267.943 178.968 268.222 178.855C268.5 178.742 268.8 178.689 269.1 178.7L302.8 180.1C303.336 180.114 303.847 180.326 304.236 180.695C304.624 181.065 304.86 181.566 304.9 182.1L305.3 187C305.316 187.298 305.272 187.596 305.168 187.876C305.065 188.156 304.905 188.411 304.699 188.627C304.492 188.843 304.244 189.014 303.969 189.129C303.694 189.245 303.398 189.303 303.1 189.3Z" fill="#6DAFA7"/>
<path d="M337.2 213L369 212.9" stroke="#282828" stroke-width="1.8" stroke-linecap="round" stroke-linejoin="round"/>
<path d="M337.6 218.6L369.4 218.2" stroke="#282828" stroke-width="1.8" stroke-linecap="round" stroke-linejoin="round"/>
<path d="M338.2 227.4L355.3 227" stroke="#282828" stroke-width="1.8" stroke-linecap="round" stroke-linejoin="round"/>
<path d="M418.1 188.8C418.086 188.101 417.829 187.429 417.373 186.899C416.916 186.37 416.289 186.016 415.6 185.9C414.4 185.8 413.4 187.1 413.6 188.6C413.582 189.307 413.828 189.996 414.29 190.532C414.752 191.068 415.397 191.413 416.1 191.5C417.3 191.6 418.2 190.3 418.1 188.8Z" fill="#63737A"/>
<path d="M409.2 188.5C409.198 187.798 408.945 187.119 408.487 186.587C408.028 186.055 407.394 185.705 406.7 185.6C405.4 185.5 404.5 186.8 404.6 188.4C404.603 189.118 404.869 189.81 405.348 190.345C405.828 190.879 406.486 191.219 407.2 191.3C408.4 191.3 409.3 190 409.2 188.5Z" fill="#63737A"/>
<path d="M400 188.1C399.981 187.377 399.711 186.682 399.237 186.135C398.763 185.588 398.114 185.222 397.4 185.1C396.1 185 395.1 186.3 395.2 187.9C395.22 188.624 395.49 189.318 395.964 189.865C396.438 190.412 397.087 190.778 397.8 190.9C399.2 191 400.1 189.7 400 188.1Z" fill="#63737A"/>
<path d="M458.7 201.9L414.3 201.1C413.432 201.101 412.596 200.771 411.964 200.176C411.332 199.581 410.951 198.767 410.9 197.9L406.9 149C406.875 148.613 406.933 148.224 407.07 147.861C407.207 147.498 407.42 147.168 407.694 146.894C407.969 146.619 408.298 146.407 408.662 146.27C409.025 146.133 409.413 146.075 409.8 146.1L454.4 150.8C455.213 150.877 455.972 151.241 456.54 151.828C457.109 152.415 457.449 153.185 457.5 154L461.4 198.9C461.441 199.279 461.401 199.661 461.284 200.024C461.167 200.386 460.975 200.72 460.72 201.003C460.465 201.286 460.154 201.512 459.806 201.667C459.458 201.821 459.081 201.901 458.7 201.9V201.9Z" fill="#F8AB5D"/>
<path d="M461.1 201.1L416.7 200.3C415.832 200.302 414.996 199.971 414.364 199.376C413.732 198.781 413.351 197.967 413.3 197.1L409.3 148.2C409.275 147.813 409.333 147.425 409.47 147.061C409.607 146.698 409.82 146.368 410.094 146.094C410.368 145.82 410.698 145.607 411.061 145.47C411.425 145.333 411.813 145.275 412.2 145.3L456.8 150C457.613 150.077 458.372 150.442 458.94 151.028C459.509 151.615 459.849 152.385 459.9 153.2L463.8 198.1C463.832 198.477 463.786 198.856 463.665 199.215C463.544 199.573 463.352 199.903 463.099 200.184C462.846 200.465 462.538 200.691 462.194 200.849C461.85 201.006 461.478 201.092 461.1 201.1V201.1Z" fill="#F8DA30"/>
<path d="M428.7 154.4L452.2 156.6" stroke="#63737A" stroke-width="1.8" stroke-linecap="round" stroke-linejoin="round"/>
<path d="M429.1 159.2L452.6 161.2" stroke="#63737A" stroke-width="1.8" stroke-linecap="round" stroke-linejoin="round"/>
<path d="M430 170.2L453.6 171.8" stroke="#63737A" stroke-width="1.8" stroke-linecap="round" stroke-linejoin="round"/>
<path d="M430.4 174.9L453.9 176.3" stroke="#63737A" stroke-width="1.8" stroke-linecap="round" stroke-linejoin="round"/>
<path d="M431.4 186L454.9 187" stroke="#63737A" stroke-width="1.8" stroke-linecap="round" stroke-linejoin="round"/>
<path d="M431.8 190.7L455.3 191.5" stroke="#63737A" stroke-width="1.8" stroke-linecap="round" stroke-linejoin="round"/>
<path d="M420.6 157.1L421.8 158.6L423.5 156.3" stroke="#6DAFA7" stroke-width="1.8" stroke-linecap="round" stroke-linejoin="round"/>
<path d="M421.9 173.1L423.1 174.5L424.9 172.2" stroke="#6DAFA7" stroke-width="1.8" stroke-linecap="round" stroke-linejoin="round"/>
<path d="M423.2 188.8L424.5 190.2L426.2 187.8" stroke="#6DAFA7" stroke-width="1.8" stroke-linecap="round" stroke-linejoin="round"/>
<path d="M479.8 272.2C479.8 272.2 473.6 285.1 473.1 293.3C472.6 301.5 481.3 334.4 495.5 359.5C495.5 359.5 508.9 355.1 508.9 351C508.9 346.9 501 298.4 501.5 297C502 295.6 507.5 285.3 507.5 280.9C507.5 276.5 481.9 267.4 479.8 272.2Z" fill="#F4C2C9"/>
<path d="M507.5 280.9C507.5 276.5 482 267.4 479.9 272.2C479.9 272.2 479.1 274 478 276.6C486.1 282.9 494.8 288.3 504.7 290.1C506.1 286.9 507.5 283.1 507.5 280.9Z" fill="#E26E85"/>
<path d="M506.4 217.4C506.4 217.4 496.4 220.8 488.8 238C481.2 255.2 473.1 269.6 473.1 269.6C473.1 269.6 485.6 282 501.6 288.3C517.6 294.8 518.2 219 506.4 217.4Z" fill="#6DAFA7"/>
<path d="M475.9 264.5C475.9 264.5 493 278.5 508.9 284.6" stroke="#282828" stroke-width="1.8" stroke-linecap="round" stroke-linejoin="round"/>
<path d="M539.8 590.4C539.8 590.4 538.9 611.4 539.1 613.4C539.3 615.4 532.1 619.7 523.2 619.4C514.3 619.1 513.5 616.5 513.5 616.5C513.5 616.5 511.5 593.8 511.3 590.6C511.1 587.4 538 586.1 539.8 590.4Z" fill="#F4C2C9"/>
<path d="M539.3 602.5C539.5 596.5 539.8 590.4 539.8 590.4C538 586.1 511.1 587.4 511.3 590.6C511.4 592.1 511.9 597.7 512.3 603.3C520.2 607.2 530.6 606.2 539.3 602.5Z" fill="#22272E"/>
<path d="M539.1 612.8C539.1 612.8 539.9 618.7 540.2 625.1C540.5 631.5 541.5 643.2 540.4 645.2C539.3 647.2 533.2 648.9 518.9 650C504.6 651.1 491.4 650.1 489.1 648.3C486.8 646.5 487.5 643.8 489.7 641.7C491.9 639.6 500.6 630.3 504.2 626.5C508.9 621.5 512.3 616.4 512.3 615.8C512.6 613.4 513.1 613.4 513.1 613.4C513.1 613.4 513.7 614.9 514.5 614.8C515.3 614.7 516.4 610.2 521.2 611.3C526 612.4 528 615.7 529.8 615.7C531.6 615.7 536.5 615 539.1 612.8Z" fill="#22272E"/>
<path d="M577.3 594.6C577.3 594.6 580 616.2 580.5 617.5C581 618.8 586 622.4 593.8 622C601.6 621.6 604.6 619.3 604.9 618.8C605.2 618.3 604.7 593.6 604.5 592C604.3 590.4 579.1 590.8 577.3 594.6Z" fill="#F4C2C9"/>
<path d="M604.8 603.1C604.7 597.6 604.5 592.5 604.4 591.8C604.1 590.2 579.1 590.7 577.2 594.5C577.2 594.5 577.8 599.3 578.5 604.5C587.221 606.555 596.347 606.069 604.8 603.1V603.1Z" fill="#22272E"/>
<path d="M580.1 615.6C579.884 617.157 579.817 618.731 579.9 620.3C580 621.6 580.1 623.4 580.1 625.6C580.2 630.2 580.6 646.1 581.7 648.4C582.8 650.7 595.4 652.6 604.9 652.7C614.4 652.8 621.4 650.3 622.5 647.7C623.6 645.1 623 641.3 619.7 637.1C616.4 632.9 608.8 626.4 607.9 623.3C607.158 620.654 606.188 618.078 605 615.6C604.314 616.563 603.381 617.322 602.3 617.8C601 618.2 599.1 612.8 595 612.6C590.9 612.4 589.1 614 586.5 617.8C584.163 617.917 581.871 617.129 580.1 615.6V615.6Z" fill="#22272E"/>
<path d="M492.4 333.8C490.681 342.252 489.479 350.802 488.8 359.4C487.6 374.1 491.8 465.2 492.4 472.3C493 479.4 495.3 519.9 497.9 539.6C500 555.8 498.5 588.5 503.4 593.1C508.3 597.7 523.3 600.2 532.6 597.7C541.9 595.2 546.2 590.6 547.3 586.8C548.4 583 544 554.1 544.3 539.4C544.6 524.7 544.3 481.3 543.8 471C543.8 471 547.9 418.4 552.8 406.4C557.7 394.4 564.8 350.2 551.2 337.4C537.4 324.6 493.6 331.7 492.4 333.8Z" fill="#22272E"/>
<path d="M514.3 339.6C514.3 339.6 514.2 359.4 515 374.2C515.145 378.699 515.646 383.18 516.5 387.6C519 398 524.4 398.8 528.5 401.2C532.6 403.6 547.3 462.5 553.3 477.8C553.3 477.8 557.9 513 561.5 534C565.1 555 564.5 580.4 567.2 589.1C569.9 597.8 585.7 599.5 593.4 598.8C601.1 598.1 611.4 595.1 611.1 586.1C610.8 577.1 609.3 551.5 608 529.7C606.7 507.9 604.2 475.4 603.6 467.8C603.6 467.8 600.6 431.8 599 413.3C597.4 394.8 598.3 375.9 595.9 344C593.3 312 514.2 321.8 514.3 339.6Z" fill="#22272E"/>
<path d="M515 374.2C515.145 378.699 515.646 383.18 516.5 387.6C519 398 524.4 398.8 528.5 401.2C532.6 403.6 547.3 462.5 553.3 477.8" stroke="#63737A" stroke-width="1.8" stroke-linecap="round" stroke-linejoin="round"/>
<path d="M528.5 401.2C528.5 401.2 516.8 395.2 511.6 397.4" stroke="#63737A" stroke-width="1.8" stroke-linecap="round" stroke-linejoin="round"/>
<path d="M510.6 486.9C517.89 486.9 523.8 480.408 523.8 472.4C523.8 464.392 517.89 457.9 510.6 457.9C503.31 457.9 497.4 464.392 497.4 472.4C497.4 480.408 503.31 486.9 510.6 486.9Z" stroke="#63737A" stroke-width="1.8" stroke-linecap="round" stroke-linejoin="round"/>
<path d="M579.6 486C587.111 486 593.2 479.508 593.2 471.5C593.2 463.492 587.111 457 579.6 457C572.089 457 566 463.492 566 471.5C566 479.508 572.089 486 579.6 486Z" stroke="#63737A" stroke-width="1.8" stroke-linecap="round" stroke-linejoin="round"/>
<path d="M516.4 604.8C516.242 603.806 516.242 602.794 516.4 601.8" stroke="#63737A" stroke-width="1.8" stroke-linecap="round" stroke-linejoin="round"/>
<path d="M524.7 606.1V601.8" stroke="#63737A" stroke-width="1.8" stroke-linecap="round" stroke-linejoin="round"/>
<path d="M534.8 604.1C534.8 604.1 534.9 601.6 534.8 600.5" stroke="#63737A" stroke-width="1.8" stroke-linecap="round" stroke-linejoin="round"/>
<path d="M582.8 605.4C582.8 605.4 582.3 602.7 582.3 601.9" stroke="#63737A" stroke-width="1.8" stroke-linecap="round" stroke-linejoin="round"/>
<path d="M592.8 605.8C592.902 604.368 592.902 602.932 592.8 601.5" stroke="#63737A" stroke-width="1.8" stroke-linecap="round" stroke-linejoin="round"/>
<path d="M601.4 604.2C601.506 603.069 601.506 601.931 601.4 600.8" stroke="#63737A" stroke-width="1.8" stroke-linecap="round" stroke-linejoin="round"/>
<path d="M507 625C507 625 514.6 618.9 529.5 627.3" stroke="white" stroke-width="1.8" stroke-linecap="round" stroke-linejoin="round"/>
<path d="M501.3 632.7C501.3 632.7 510.7 625.2 524.7 634.3" stroke="white" stroke-width="1.8" stroke-linecap="round" stroke-linejoin="round"/>
<path d="M610.2 629.4C610.2 629.4 601.1 625.4 588.8 631.9" stroke="white" stroke-width="1.8" stroke-linecap="round" stroke-linejoin="round"/>
<path d="M614.3 636.2C614.3 636.2 603.8 631.6 591.1 639.9" stroke="white" stroke-width="1.8" stroke-linecap="round" stroke-linejoin="round"/>
<path d="M554.8 213.9C554.8 213.9 559.8 215.4 570.4 215.6C581 215.8 593.1 218.9 597.8 224.8C602.5 230.7 604 274.2 603.3 293.9C602.6 313.6 588.5 342.9 588.5 342.9C588.5 342.9 554.8 346.7 527.2 345.4C499.6 344.1 493 338 491.1 336.1C489.2 334.2 488.1 329.6 489.2 327.6C490.3 325.6 495.7 310.1 497.7 295.2C499.7 280.3 495.5 259.5 497.4 241.2C499.3 222.9 506.4 217.5 506.4 217.5C506.4 217.5 515.3 214.5 530.7 214C538.727 213.555 546.77 213.522 554.8 213.9V213.9Z" fill="#F8DA30"/>
<path d="M515.2 209.9C515.2 209.9 502.3 229.7 506.4 271.4C510.5 313.1 492.5 334.6 500.7 353.8" stroke="#F8AB5D" stroke-width="1.8" stroke-linecap="round" stroke-linejoin="round"/>
<path d="M584.9 213.6C584.9 213.6 569.2 216.2 565.3 242.7C561.4 269.2 571.7 304.6 569.8 324.5C567.9 344.4 562.6 356.1 562.6 356.1" stroke="#F8AB5D" stroke-width="1.8" stroke-linecap="round" stroke-linejoin="round"/>
<path d="M586.6 349.7C586.6 349.7 591.9 299.8 586.6 272.2C581.3 244.6 593.3 220.6 606.8 223.9" stroke="#F8AB5D" stroke-width="1.8" stroke-linecap="round" stroke-linejoin="round"/>
<path d="M540.2 351.8C540.2 351.8 544.6 319.4 543.1 290.4C542.5 279.5 536.2 226 559.5 209.1" stroke="#F8AB5D" stroke-width="1.8" stroke-linecap="round" stroke-linejoin="round"/>
<path d="M515.2 349.7C515.2 349.7 522.1 308.9 521.7 284.9C521.3 260.9 519.3 210.1 531.4 201.9" stroke="#F8AB5D" stroke-width="1.8" stroke-linecap="round" stroke-linejoin="round"/>
<path d="M553.3 266.6C556.89 266.6 559.8 263.69 559.8 260.1C559.8 256.51 556.89 253.6 553.3 253.6C549.71 253.6 546.8 256.51 546.8 260.1C546.8 263.69 549.71 266.6 553.3 266.6Z" fill="#F8AB5D"/>
<path d="M531.5 210.1C528.8 210.2 526.7 211.8 524.8 213.7C523.426 215.039 522.456 216.737 522 218.6C518.2 237 524 259.2 531.4 259C540.7 258.7 553.2 241.8 563 222.6C567 214.7 559.3 209.2 554.8 209.2C551.3 209.1 537.1 209.8 531.5 210.1Z" fill="#6DAFA7"/>
<path d="M574.2 171.2C573.953 176.867 572.341 182.39 569.5 187.3C564.8 195.3 559.1 199.5 557.2 203.1C555.3 206.7 555.8 197.3 557.2 192.8C558.6 188.3 566.9 164.3 574.2 171.2Z" fill="#22272E"/>
<path d="M529.4 201.6C529.4 201.6 528.3 211.3 527.6 215C526.9 218.7 525.3 228.4 537.7 229C548.8 229.6 554.8 221 557 216.8C557.686 215.547 557.998 214.125 557.9 212.7C557.6 208.3 557 197.5 557.3 188.7C557.7 177.5 529.4 193.7 529.4 201.6Z" fill="#F4C2C9"/>
<path d="M551.4 202.3C545.5 207 536.8 209.2 528.6 208C528.3 210.6 527.9 213.4 527.6 215C527.5 215.5 527.4 216.1 527.3 216.8C537.4 217.3 548.9 212.3 551.4 202.3Z" fill="#E26E85"/>
<path d="M517.6 165.6C517.6 165.6 514.9 169.5 515.3 172.5C515.7 175.5 521.4 185.6 524.3 185.3C527.2 185 530.2 172.6 526.8 168.5C523.4 164.4 518.7 163.7 517.6 165.6Z" fill="#22272E"/>
<path d="M519.9 171.3C520.023 176.32 519.688 181.341 518.9 186.3C517.6 194.3 516.7 206.3 528.6 209.6C540.5 212.9 554.5 208.4 558.9 192C563.3 175.6 566.5 159 551.3 154.2C536.1 149.4 518.1 155.6 519.9 171.3Z" fill="#F4C2C9"/>
<path d="M525 179.3C525.282 180.494 525.212 181.744 524.8 182.9C524.6 183.484 524.295 184.026 523.9 184.5C523.726 184.754 523.524 184.989 523.3 185.2C523.2 185.3 523.1 185.5 523 185.6C522.9 185.892 522.9 186.208 523 186.5C523.157 186.94 523.394 187.347 523.7 187.7C524.38 188.526 525.191 189.236 526.1 189.8C524.868 189.884 523.65 189.49 522.7 188.7C522.14 188.284 521.693 187.734 521.4 187.1C521.227 186.741 521.138 186.348 521.138 185.95C521.138 185.552 521.227 185.159 521.4 184.8C521.55 184.443 521.791 184.133 522.1 183.9C522.3 183.7 522.5 183.6 522.6 183.4C522.932 183.025 523.233 182.623 523.5 182.2C524.118 181.299 524.622 180.325 525 179.3Z" fill="#22272E"/>
<path d="M558.3 183.9C557.125 181.765 556.377 179.421 556.1 177C555.5 172.4 550.6 172.7 548.3 164.2C546 155.7 540.4 166.2 531.5 170C522.6 173.8 515.6 167.7 512 160.9C508.4 154.1 514.5 148.1 518.6 145.3C522.7 142.5 527 147 535 145C543 143 555.9 140.5 562.1 149.5C568.3 158.5 574.7 160.7 574.3 170.5C573.9 180.3 562.4 191.2 561.7 191.3C561 191.4 558.3 183.9 558.3 183.9Z" fill="#22272E"/>
<path d="M537.2 174.5C536.9 173.7 536.6 172.2 537.7 171.4C538.8 170.6 541.3 170.9 543.7 172.4C545.8 173.7 546.4 175.8 545 175.6C543.6 175.4 542.5 174.8 540.8 174.7C539.1 174.6 537.5 175.2 537.2 174.5Z" fill="#22272E"/>
<path d="M525.2 173.4C525.369 172.925 525.43 172.418 525.378 171.916C525.326 171.414 525.163 170.931 524.9 170.5C524.3 169.7 522.7 169.8 521.2 170.9C519.9 171.9 519.5 173.8 520.4 173.7C521.246 173.454 522.12 173.32 523 173.3C524.1 173.4 525 174 525.2 173.4Z" fill="#22272E"/>
<path d="M518.3 191.4C518.3 191.4 518.2 192.6 519.9 192.9C521.6 193.2 521.8 190.6 524.7 190.2C526.5 190 532.8 190.5 535.4 192.9C538 195.3 541.6 198.1 546.8 196.5C552 194.9 555.1 187.6 556.1 177C557 167.3 560.6 176.7 560.6 179C560.6 180.6 559.1 178.3 557.3 184.8C556.5 187.7 557.3 195.9 554.2 201.9C551.8 206.5 545.1 211.2 536.6 211.8C528.1 212.4 521.1 208.9 519 203.3C516.9 197.9 517.7 191.8 518.3 191.4Z" fill="#22272E"/>
<path d="M522.4 180.9C522.784 180.939 523.169 180.824 523.468 180.581C523.768 180.337 523.959 179.984 524 179.6L524.1 178.8C524.139 178.415 524.024 178.031 523.78 177.731C523.537 177.431 523.184 177.24 522.8 177.2V177.2C522.415 177.161 522.031 177.276 521.731 177.519C521.431 177.763 521.24 178.116 521.2 178.5L521.1 179.3C521.061 179.684 521.176 180.069 521.419 180.369C521.663 180.668 522.016 180.86 522.4 180.9V180.9Z" fill="#22272E"/>
<path d="M538.3 181.9C538.684 181.939 539.069 181.824 539.369 181.581C539.669 181.337 539.86 180.984 539.9 180.6L540 179.8C540.039 179.415 539.924 179.031 539.681 178.731C539.437 178.431 539.084 178.24 538.7 178.2V178.2C538.316 178.161 537.931 178.276 537.631 178.519C537.331 178.763 537.14 179.116 537.1 179.5L537 180.3C536.964 180.493 536.97 180.691 537.018 180.881C537.066 181.072 537.155 181.249 537.279 181.401C537.403 181.554 537.558 181.677 537.734 181.763C537.911 181.849 538.104 181.896 538.3 181.9V181.9Z" fill="#22272E"/>
<path d="M557.2 184.8C557.2 184.8 559.9 178.8 564.6 179.5C569.3 180.2 567 192.9 558.3 192.8" fill="#F4C2C9"/>
<path d="M564.3 184C564.063 183.735 563.794 183.5 563.5 183.3C563.2 183.2 563.3 183.4 563.1 183.5C563.1 183.6 562.9 184.4 562.8 185.1C562.705 185.87 562.468 186.616 562.1 187.3C561.926 187.726 561.652 188.104 561.3 188.4C561.123 188.55 560.908 188.648 560.678 188.683C560.449 188.718 560.214 188.69 560 188.6C560.153 188.52 560.287 188.406 560.391 188.268C560.494 188.13 560.566 187.97 560.6 187.8C560.7 187.5 560.7 187.2 560.8 186.9C560.857 186.162 560.958 185.427 561.1 184.7L561.4 183.5L561.7 182.9C561.8 182.8 561.8 182.7 562 182.6C562.2 182.5 562.3 182.4 562.4 182.3C562.68 182.164 562.989 182.096 563.3 182.1C563.611 182.181 563.89 182.356 564.1 182.6C564.226 182.808 564.308 183.039 564.342 183.28C564.377 183.52 564.362 183.765 564.3 184V184Z" fill="#22272E"/>
<path d="M529.4 197C531.106 197.708 532.97 197.95 534.8 197.7" stroke="#F4C2C9" stroke-width="1.8" stroke-linecap="round" stroke-linejoin="round"/>
<path d="M524.546 178.008C525.023 173.005 522.736 168.694 519.437 168.379C516.139 168.064 513.077 171.865 512.6 176.868C512.123 181.871 514.41 186.182 517.709 186.497C521.007 186.812 524.069 183.011 524.546 178.008Z" stroke="#22272E" stroke-width="1.8" stroke-linecap="round" stroke-linejoin="round"/>
<path d="M546.782 179.952C547.259 174.949 544.214 170.566 539.981 170.162C535.747 169.758 531.929 173.487 531.451 178.49C530.974 183.493 534.019 187.876 538.252 188.28C542.485 188.684 546.304 184.955 546.782 179.952Z" stroke="#22272E" stroke-width="1.8" stroke-linecap="round" stroke-linejoin="round"/>
<path d="M524.3 179.5C524.3 179.5 526 176.3 531.4 180.1" stroke="#22272E" stroke-width="1.8" stroke-linecap="round" stroke-linejoin="round"/>
<path d="M546.7 180L558 182.4" stroke="#22272E" stroke-width="1.8" stroke-linecap="round" stroke-linejoin="round"/>
<path d="M590 290.4L595.3 301.1C595.3 301.1 589.7 308.7 583.7 323.1C577.7 337.5 573.3 355.3 569.2 360.4C569.2 360.4 573.2 370 583 374.2C583 374.2 602.1 346.2 610.8 334C619.5 321.8 627.8 306.2 627.2 298.4C626.3 286.9 617.6 269.9 616.8 265.3C616 260.7 590.2 277.1 590 290.4Z" fill="#F4C2C9"/>
<path d="M616.7 265.3C616 260.8 590.2 277.1 590 290.4L590.8 291.9C599.895 285.169 610.124 280.122 621 277C618.9 271.8 617 267.3 616.7 265.3Z" fill="#E26E85"/>
<path d="M574.2 350C575.6 352.4 580.4 358.8 591.6 361.4C591.684 361.416 591.763 361.453 591.829 361.509C591.895 361.564 591.945 361.635 591.975 361.716C592.005 361.796 592.014 361.883 592.001 361.968C591.988 362.052 591.953 362.132 591.9 362.2L586.8 369.1C586.7 369.3 586.4 369.3 586.2 369.3C573.7 365.5 570.4 359.2 569.9 358C569.851 357.945 569.824 357.874 569.824 357.8C569.824 357.726 569.851 357.655 569.9 357.6L573.3 350.1C573.5 349.6 574 349.6 574.2 350Z" fill="#22272E"/>
<path d="M579.894 364.833C581.273 362.58 580.64 359.682 578.48 358.361C576.321 357.04 573.453 357.796 572.074 360.049C570.696 362.302 571.329 365.2 573.488 366.521C575.648 367.842 578.516 367.086 579.894 364.833Z" fill="white"/>
<path d="M592.9 224C594.069 223.797 595.271 223.913 596.379 224.335C597.488 224.757 598.462 225.471 599.2 226.4C601.5 229.3 605.3 234.9 610 244.5C617.9 260.6 623.4 271.2 623.4 271.2C623.4 271.2 596 286 590 290.4C590 290.4 578.9 271.7 575.3 263.9C571.8 256.5 572.8 227.7 592.9 224Z" fill="#6DAFA7"/>
<path d="M586.6 284.6C597.15 277.013 608.441 270.513 620.3 265.2" stroke="#282828" stroke-width="1.8" stroke-linecap="round" stroke-linejoin="round"/>
<path d="M565.3 353.8C567.137 359.358 570.272 364.398 574.446 368.502C578.62 372.606 583.712 375.657 589.3 377.4" stroke="#63737A" stroke-width="1.8" stroke-linecap="round" stroke-linejoin="round"/>
<path d="M595.3 301.1C597.455 298.691 600.331 297.042 603.5 296.4" stroke="#E26E85" stroke-width="1.8" stroke-linecap="round" stroke-linejoin="round"/>
<path d="M743.5 326.1L655 315.2C653.624 315.035 652.368 314.332 651.507 313.246C650.646 312.16 650.248 310.778 650.4 309.4L659.8 221.6C659.988 219.948 660.718 218.404 661.876 217.21C663.034 216.016 664.554 215.239 666.2 215L757.8 202.6C758.605 202.488 759.426 202.563 760.197 202.819C760.969 203.074 761.672 203.504 762.252 204.074C762.831 204.644 763.273 205.339 763.541 206.107C763.809 206.874 763.898 207.693 763.8 208.5L750.2 321C749.976 322.56 749.148 323.968 747.895 324.923C746.641 325.877 745.063 326.3 743.5 326.1V326.1Z" fill="#63737A"/>
<path d="M740.5 325.8L652 314.8C650.624 314.634 649.368 313.932 648.507 312.846C647.646 311.76 647.248 310.378 647.4 309L656.8 221.2C656.988 219.547 657.718 218.004 658.876 216.81C660.034 215.616 661.554 214.839 663.2 214.6L754.8 202.2C755.605 202.088 756.426 202.163 757.197 202.419C757.969 202.674 758.672 203.103 759.252 203.674C759.831 204.244 760.273 204.939 760.541 205.707C760.809 206.474 760.898 207.293 760.8 208.1L747.2 320.6C746.988 322.172 746.167 323.598 744.914 324.57C743.661 325.543 742.076 325.985 740.5 325.8V325.8Z" fill="#22272E"/>
<path d="M737.2 244.2L667.9 247.7C667.623 247.721 667.345 247.681 667.086 247.582C666.827 247.482 666.593 247.326 666.401 247.125C666.21 246.924 666.065 246.683 665.979 246.419C665.892 246.155 665.865 245.875 665.9 245.6L667.6 230.1C667.648 229.665 667.842 229.26 668.151 228.951C668.46 228.642 668.866 228.447 669.3 228.4L739.2 221.5C739.492 221.471 739.786 221.509 740.061 221.611C740.336 221.713 740.584 221.876 740.787 222.088C740.989 222.3 741.14 222.555 741.229 222.835C741.318 223.114 741.343 223.41 741.3 223.7L739 242.7C739 243.4 738.2 244.1 737.2 244.2Z" fill="#6DAFA7"/>
<path d="M685.6 233.8L731.5 230.1" stroke="#22272E" stroke-width="1.8" stroke-linecap="round" stroke-linejoin="round"/>
<path d="M685 239.7L709.7 238" stroke="#22272E" stroke-width="1.8" stroke-linecap="round" stroke-linejoin="round"/>
<path d="M677.632 238.672C678.524 237.019 678.143 235.084 676.782 234.35C675.421 233.616 673.595 234.361 672.703 236.013C671.812 237.666 672.193 239.601 673.554 240.335C674.915 241.069 676.741 240.324 677.632 238.672Z" fill="#22272E"/>
<path d="M733.3 275.9L664.8 274.7C664.537 274.687 664.28 274.623 664.042 274.51C663.804 274.398 663.591 274.239 663.414 274.044C663.238 273.849 663.102 273.621 663.013 273.373C662.925 273.126 662.887 272.863 662.9 272.6L664.6 257.2C664.641 256.728 664.86 256.289 665.213 255.973C665.566 255.657 666.026 255.488 666.5 255.5L735.5 253.3C735.78 253.299 736.058 253.356 736.315 253.469C736.571 253.582 736.801 253.747 736.99 253.955C737.179 254.162 737.321 254.407 737.409 254.673C737.497 254.939 737.528 255.221 737.5 255.5L735.3 274.3C735.196 274.753 734.942 275.158 734.579 275.449C734.216 275.739 733.765 275.898 733.3 275.9V275.9Z" fill="#F4C2C9"/>
<path d="M682.5 262L727.9 261.4" stroke="#22272E" stroke-width="1.8" stroke-linecap="round" stroke-linejoin="round"/>
<path d="M681.8 267.8H706.3" stroke="#22272E" stroke-width="1.8" stroke-linecap="round" stroke-linejoin="round"/>
<path d="M674.681 266.31C675.498 264.619 675.072 262.722 673.729 262.074C672.387 261.425 670.636 262.269 669.819 263.96C669.002 265.651 669.428 267.547 670.771 268.196C672.114 268.845 673.864 268 674.681 266.31Z" fill="#22272E"/>
<path d="M729.5 307.3L661.8 301.5C661.287 301.449 660.814 301.202 660.479 300.811C660.143 300.42 659.972 299.914 660 299.4L661.7 284.1C661.746 283.612 661.981 283.161 662.354 282.843C662.728 282.525 663.211 282.366 663.7 282.4L731.9 284.9C732.172 284.912 732.438 284.98 732.683 285.098C732.928 285.217 733.146 285.385 733.324 285.591C733.502 285.797 733.636 286.037 733.718 286.296C733.8 286.556 733.828 286.829 733.8 287.1L731.6 305.7C731.489 306.168 731.219 306.584 730.836 306.876C730.453 307.168 729.981 307.317 729.5 307.3V307.3Z" fill="#F8DA30"/>
<path d="M679.4 290L724.2 292.4" stroke="#22272E" stroke-width="1.8" stroke-linecap="round" stroke-linejoin="round"/>
<path d="M678.7 295.7L702.9 297.4" stroke="#22272E" stroke-width="1.8" stroke-linecap="round" stroke-linejoin="round"/>
<path d="M671.801 293.039C672.54 291.313 672.028 289.437 670.658 288.85C669.287 288.263 667.576 289.186 666.837 290.912C666.097 292.638 666.609 294.514 667.98 295.101C669.351 295.688 671.061 294.765 671.801 293.039Z" fill="#22272E"/>
</g>
<defs>
<clipPath id="clip0_5_949">
<rect width="1024" height="768" fill="white"/>
</clipPath>
</defs>
</svg>
