<svg width="1024" height="768" viewBox="0 0 1024 768" fill="none" xmlns="http://www.w3.org/2000/svg">
<path d="M766.3 546.8L246.3 531.9C234.608 531.575 223.436 526.999 214.876 519.028C206.316 511.057 200.956 500.239 199.8 488.6L174.7 240.6C174.032 233.962 174.749 227.257 176.808 220.91C178.866 214.564 182.22 208.714 186.657 203.732C191.095 198.749 196.518 194.742 202.585 191.966C208.651 189.189 215.229 187.702 221.9 187.6L800.7 179.6C807.583 179.507 814.406 180.889 820.71 183.653C827.014 186.417 832.653 190.499 837.248 195.624C841.843 200.75 845.287 206.8 847.349 213.368C849.41 219.935 850.041 226.868 849.2 233.7L815.5 504.6C813.998 516.485 808.13 527.387 799.037 535.187C789.944 542.986 778.275 547.125 766.3 546.8V546.8Z" fill="#EAF9F3"/>
<path d="M610.6 558.6L612.4 599.1C612.4 603.078 610.819 606.894 608.006 609.707C605.193 612.52 601.378 614.1 597.4 614.1H181.8C177.822 614.1 174.006 612.52 171.193 609.707C168.38 606.894 166.8 603.078 166.8 599.1V363.4C166.8 359.422 168.38 355.606 171.193 352.793C174.006 349.98 177.822 348.4 181.8 348.4H597.3C601.278 348.4 605.093 349.98 607.906 352.793C610.719 355.606 612.3 359.422 612.3 363.4V522.8" stroke="#B8D8C7" stroke-width="1.8" stroke-linecap="round" stroke-linejoin="round"/>
<path d="M703.7 523.8V291.7C703.7 287.722 705.28 283.906 708.093 281.093C710.906 278.28 714.721 276.7 718.7 276.7H842.7C846.678 276.7 850.493 278.28 853.306 281.093C856.119 283.906 857.7 287.722 857.7 291.7V636C857.7 639.978 856.119 643.794 853.306 646.607C850.493 649.42 846.678 651 842.7 651H718.7C714.721 651 710.906 649.42 708.093 646.607C705.28 643.794 703.7 639.978 703.7 636V561.1" stroke="#B8D8C7" stroke-width="1.8" stroke-linecap="round" stroke-linejoin="round"/>
<path d="M259.9 278.1H170V269.2H259.9C260.137 269.199 260.371 269.244 260.59 269.334C260.809 269.424 261.008 269.557 261.176 269.724C261.343 269.892 261.476 270.091 261.566 270.31C261.656 270.529 261.701 270.763 261.7 271V276.2C261.72 276.446 261.687 276.694 261.605 276.926C261.523 277.159 261.393 277.372 261.223 277.551C261.054 277.73 260.848 277.872 260.62 277.966C260.392 278.061 260.147 278.106 259.9 278.1V278.1Z" stroke="#B8D8C7" stroke-width="1.8" stroke-linecap="round" stroke-linejoin="round"/>
<path d="M246.2 348.4H225.9C224.842 348.403 223.82 348.018 223.028 347.317C222.235 346.617 221.727 345.65 221.6 344.6L220 330.2C219.934 329.596 219.996 328.984 220.182 328.406C220.368 327.827 220.673 327.294 221.079 326.841C221.485 326.388 221.981 326.026 222.536 325.777C223.091 325.529 223.692 325.401 224.3 325.4H247.8C248.407 325.402 249.007 325.532 249.562 325.781C250.116 326.029 250.611 326.392 251.017 326.844C251.422 327.297 251.728 327.829 251.914 328.407C252.101 328.985 252.164 329.596 252.1 330.2L250.5 344.6C250.387 345.656 249.884 346.632 249.088 347.335C248.292 348.039 247.262 348.418 246.2 348.4V348.4Z" stroke="#B8D8C7" stroke-width="1.8" stroke-linecap="round" stroke-linejoin="round"/>
<path d="M233.7 325.5C233.7 325.5 225.7 324.7 224.1 313.9C224.1 313.9 231.3 316 233.6 321.1C233.6 321.1 234.6 309.7 240 308.6C240 308.6 242.4 317.1 238.6 321.3C238.6 321.3 241.5 316.5 248.9 316.6C248.2 318.706 246.997 320.609 245.393 322.143C243.789 323.677 241.835 324.795 239.7 325.4" fill="#B8D8C7"/>
<path d="M792.3 276.7H772C770.942 276.703 769.92 276.318 769.128 275.617C768.335 274.917 767.827 273.95 767.7 272.9L766.1 258.5C766.034 257.896 766.096 257.284 766.282 256.706C766.468 256.127 766.773 255.594 767.179 255.141C767.585 254.688 768.081 254.326 768.636 254.078C769.191 253.829 769.792 253.701 770.4 253.7H793.9C794.507 253.702 795.107 253.832 795.662 254.081C796.216 254.329 796.712 254.692 797.117 255.144C797.522 255.597 797.828 256.129 798.015 256.707C798.201 257.285 798.264 257.896 798.2 258.5L796.6 272.9C796.472 273.95 795.964 274.917 795.172 275.617C794.379 276.318 793.357 276.703 792.3 276.7V276.7Z" stroke="#B8D8C7" stroke-width="1.8" stroke-linecap="round" stroke-linejoin="round"/>
<path d="M779.7 253.8C779.7 253.8 771.7 253 770.1 242.2C770.1 242.2 777.3 244.3 779.6 249.4C779.6 249.4 780.6 238 786 236.9C786 236.9 788.4 245.4 784.6 249.6C784.6 249.6 787.5 244.8 794.9 244.9C794.2 247.006 792.997 248.909 791.393 250.443C789.789 251.977 787.835 253.095 785.7 253.7" fill="#B8D8C7"/>
<path d="M594.2 398.1H504C502.888 398.092 501.825 397.647 501.039 396.861C500.253 396.075 499.808 395.012 499.8 393.9V366.5C499.808 365.389 500.253 364.325 501.039 363.539C501.825 362.753 502.888 362.308 504 362.3H594.2C595.311 362.308 596.375 362.753 597.161 363.539C597.947 364.325 598.392 365.389 598.4 366.5V393.9C598.392 395.012 597.947 396.075 597.161 396.861C596.375 397.647 595.311 398.092 594.2 398.1V398.1Z" stroke="#B8D8C7" stroke-width="1.8" stroke-linecap="round" stroke-linejoin="round"/>
<path d="M559.4 372H538.6C538.205 371.99 537.829 371.829 537.55 371.549C537.271 371.27 537.11 370.895 537.1 370.5C537.11 370.105 537.271 369.73 537.55 369.451C537.829 369.171 538.205 369.01 538.6 369H559.4C559.794 369.01 560.17 369.171 560.449 369.451C560.728 369.73 560.89 370.105 560.9 370.5V370.5C560.904 370.698 560.868 370.895 560.794 371.079C560.72 371.263 560.61 371.43 560.469 371.57C560.329 371.71 560.162 371.82 559.978 371.894C559.795 371.968 559.598 372.004 559.4 372V372Z" fill="#B8D8C7"/>
<path d="M594.2 444H504C502.888 443.992 501.825 443.547 501.039 442.761C500.253 441.975 499.808 440.912 499.8 439.8V412.4C499.808 411.289 500.253 410.225 501.039 409.439C501.825 408.653 502.888 408.208 504 408.2H594.2C595.311 408.208 596.375 408.653 597.161 409.439C597.947 410.225 598.392 411.289 598.4 412.4V439.8C598.392 440.912 597.947 441.975 597.161 442.761C596.375 443.547 595.311 443.992 594.2 444V444Z" stroke="#B8D8C7" stroke-width="1.8" stroke-linecap="round" stroke-linejoin="round"/>
<path d="M559.4 417.8H538.6C538.205 417.79 537.829 417.629 537.55 417.35C537.271 417.07 537.11 416.695 537.1 416.3V416.3C537.11 415.905 537.271 415.53 537.55 415.251C537.829 414.971 538.205 414.81 538.6 414.8H559.4C559.794 414.81 560.17 414.971 560.449 415.251C560.728 415.53 560.89 415.905 560.9 416.3V416.3C560.904 416.498 560.868 416.695 560.794 416.879C560.72 417.063 560.61 417.23 560.469 417.37C560.329 417.51 560.162 417.62 559.978 417.694C559.795 417.768 559.598 417.804 559.4 417.8Z" fill="#B8D8C7"/>
<path d="M479.2 398.1H389C387.888 398.092 386.825 397.647 386.039 396.861C385.253 396.075 384.808 395.012 384.8 393.9V366.5C384.808 365.389 385.253 364.325 386.039 363.539C386.825 362.753 387.888 362.308 389 362.3H479.2C480.311 362.308 481.375 362.753 482.161 363.539C482.947 364.325 483.392 365.389 483.4 366.5V393.9C483.392 395.012 482.947 396.075 482.161 396.861C481.375 397.647 480.311 398.092 479.2 398.1V398.1Z" stroke="#B8D8C7" stroke-width="1.8" stroke-linecap="round" stroke-linejoin="round"/>
<path d="M444.5 372H423.7C423.305 371.99 422.929 371.829 422.65 371.549C422.371 371.27 422.21 370.895 422.2 370.5V370.5C422.21 370.105 422.371 369.73 422.65 369.451C422.929 369.171 423.305 369.01 423.7 369H444.5C444.894 369.01 445.27 369.171 445.549 369.451C445.828 369.73 445.99 370.105 446 370.5V370.5C445.99 370.895 445.828 371.27 445.549 371.549C445.27 371.829 444.894 371.99 444.5 372Z" fill="#B8D8C7"/>
<path d="M479.2 444H389C387.888 443.992 386.825 443.547 386.039 442.761C385.253 441.975 384.808 440.912 384.8 439.8V412.4C384.808 411.289 385.253 410.225 386.039 409.439C386.825 408.653 387.888 408.208 389 408.2H479.2C480.311 408.208 481.375 408.653 482.161 409.439C482.947 410.225 483.392 411.289 483.4 412.4V439.8C483.392 440.912 482.947 441.975 482.161 442.761C481.375 443.547 480.311 443.992 479.2 444V444Z" stroke="#B8D8C7" stroke-width="1.8" stroke-linecap="round" stroke-linejoin="round"/>
<path d="M444.5 417.8H423.7C423.305 417.79 422.929 417.629 422.65 417.35C422.371 417.07 422.21 416.695 422.2 416.3V416.3C422.21 415.905 422.371 415.53 422.65 415.251C422.929 414.971 423.305 414.81 423.7 414.8H444.5C444.894 414.81 445.27 414.971 445.549 415.251C445.828 415.53 445.99 415.905 446 416.3V416.3C445.99 416.695 445.828 417.07 445.549 417.35C445.27 417.629 444.894 417.79 444.5 417.8Z" fill="#B8D8C7"/>
<path d="M594.2 488.8H504C502.888 488.792 501.825 488.347 501.039 487.561C500.253 486.775 499.808 485.712 499.8 484.6V457.2C499.808 456.089 500.253 455.025 501.039 454.239C501.825 453.453 502.888 453.008 504 453H594.2C595.311 453.008 596.375 453.453 597.161 454.239C597.947 455.025 598.392 456.089 598.4 457.2V484.6C598.392 485.712 597.947 486.775 597.161 487.561C596.375 488.347 595.311 488.792 594.2 488.8V488.8Z" stroke="#B8D8C7" stroke-width="1.8" stroke-linecap="round" stroke-linejoin="round"/>
<path d="M559.4 462.7H538.6C538.205 462.69 537.829 462.529 537.55 462.25C537.271 461.97 537.11 461.595 537.1 461.2V461.2C537.11 460.805 537.271 460.43 537.55 460.151C537.829 459.871 538.205 459.71 538.6 459.7H559.4C559.794 459.71 560.17 459.871 560.449 460.151C560.728 460.43 560.89 460.805 560.9 461.2V461.2C560.904 461.398 560.868 461.595 560.794 461.779C560.72 461.963 560.61 462.13 560.469 462.27C560.329 462.41 560.162 462.52 559.978 462.594C559.795 462.668 559.598 462.704 559.4 462.7V462.7Z" fill="#B8D8C7"/>
<path d="M479.2 488.8H389C387.888 488.792 386.825 488.347 386.039 487.561C385.253 486.775 384.808 485.712 384.8 484.6V457.2C384.808 456.089 385.253 455.025 386.039 454.239C386.825 453.453 387.888 453.008 389 453H479.2C480.311 453.008 481.375 453.453 482.161 454.239C482.947 455.025 483.392 456.089 483.4 457.2V484.6C483.392 485.712 482.947 486.775 482.161 487.561C481.375 488.347 480.311 488.792 479.2 488.8V488.8Z" stroke="#B8D8C7" stroke-width="1.8" stroke-linecap="round" stroke-linejoin="round"/>
<path d="M444.5 462.7H423.7C423.305 462.69 422.929 462.529 422.65 462.25C422.371 461.97 422.21 461.595 422.2 461.2V461.2C422.21 460.805 422.371 460.43 422.65 460.151C422.929 459.871 423.305 459.71 423.7 459.7H444.5C444.894 459.71 445.27 459.871 445.549 460.151C445.828 460.43 445.99 460.805 446 461.2V461.2C445.99 461.595 445.828 461.97 445.549 462.25C445.27 462.529 444.894 462.69 444.5 462.7Z" fill="#B8D8C7"/>
<path d="M884.9 381.5H725C723.784 381.487 722.621 380.998 721.762 380.138C720.902 379.279 720.413 378.116 720.4 376.9V297.2C720.413 295.984 720.902 294.822 721.762 293.962C722.621 293.102 723.784 292.613 725 292.6H884.9C886.116 292.613 887.278 293.102 888.138 293.962C888.998 294.822 889.487 295.984 889.5 297.2V376.9C889.509 377.507 889.397 378.109 889.169 378.672C888.941 379.234 888.603 379.745 888.174 380.174C887.745 380.603 887.234 380.941 886.671 381.169C886.109 381.397 885.507 381.51 884.9 381.5V381.5Z" stroke="#B8D8C7" stroke-width="1.8" stroke-linecap="round" stroke-linejoin="round"/>
<path d="M884.9 480.5H725C723.784 480.487 722.621 479.998 721.762 479.138C720.902 478.278 720.413 477.116 720.4 475.9V396.2C720.413 394.984 720.902 393.822 721.762 392.962C722.621 392.102 723.784 391.613 725 391.6H884.9C886.116 391.613 887.278 392.102 888.138 392.962C888.998 393.822 889.487 394.984 889.5 396.2V475.9C889.501 476.504 889.383 477.103 889.152 477.662C888.922 478.221 888.583 478.728 888.156 479.156C887.728 479.583 887.22 479.922 886.662 480.153C886.103 480.383 885.504 480.501 884.9 480.5V480.5Z" stroke="#B8D8C7" stroke-width="1.8" stroke-linecap="round" stroke-linejoin="round"/>
<path d="M761 331.2H751.1V381.5H761V331.2Z" stroke="#B8D8C7" stroke-width="1.8" stroke-linecap="round" stroke-linejoin="round"/>
<path d="M771.2 345H760.9V381.6H771.2V345Z" stroke="#B8D8C7" stroke-width="1.8" stroke-linecap="round" stroke-linejoin="round"/>
<path d="M223.7 218.9H213.8V269.2H223.7V218.9Z" stroke="#B8D8C7" stroke-width="1.8" stroke-linecap="round" stroke-linejoin="round"/>
<path d="M233.9 232.6H223.6V269.2H233.9V232.6Z" stroke="#B8D8C7" stroke-width="1.8" stroke-linecap="round" stroke-linejoin="round"/>
<path d="M203.5 239.8H193.6V269.2H203.5V239.8Z" stroke="#B8D8C7" stroke-width="1.8" stroke-linecap="round" stroke-linejoin="round"/>
<path d="M213.8 210.3H203.5V269.1H213.8V210.3Z" stroke="#B8D8C7" stroke-width="1.8" stroke-linecap="round" stroke-linejoin="round"/>
<path d="M754.8 436.8L755.9 421.9C755.921 421.667 755.893 421.432 755.817 421.21C755.74 420.989 755.617 420.786 755.457 420.616C755.296 420.446 755.1 420.312 754.884 420.223C754.667 420.134 754.434 420.092 754.2 420.1H745.7C745.469 420.101 745.24 420.149 745.027 420.241C744.815 420.333 744.623 420.468 744.464 420.636C744.305 420.804 744.182 421.003 744.103 421.22C744.023 421.438 743.988 421.669 744 421.9L745.1 436.8C745.1 436.8 736.1 442.6 736.2 447.4C736.3 451.1 738.5 468.8 739.5 476.6C739.627 477.65 740.135 478.617 740.928 479.317C741.72 480.018 742.742 480.403 743.8 480.4H756.2C757.258 480.403 758.28 480.018 759.072 479.317C759.865 478.617 760.373 477.65 760.5 476.6C761.5 468.8 763.7 451.1 763.8 447.4C763.8 442.6 754.8 436.8 754.8 436.8Z" fill="#B8D8C7"/>
<path d="M803 337.9L804.1 323C804.121 322.767 804.093 322.532 804.016 322.31C803.94 322.089 803.817 321.886 803.656 321.716C803.495 321.546 803.3 321.412 803.083 321.323C802.867 321.234 802.634 321.192 802.4 321.2H793.8C793.568 321.201 793.339 321.249 793.127 321.341C792.915 321.433 792.723 321.568 792.564 321.736C792.405 321.904 792.282 322.103 792.202 322.32C792.122 322.538 792.087 322.769 792.1 323L793.2 337.9C793.2 337.9 784.2 343.7 784.3 348.5C784.4 352.2 786.6 369.9 787.6 377.7C787.727 378.75 788.235 379.717 789.028 380.417C789.82 381.118 790.842 381.503 791.9 381.5H804.3C805.357 381.503 806.379 381.118 807.172 380.417C807.964 379.717 808.472 378.75 808.6 377.7C809.6 369.9 811.8 352.2 811.9 348.5C812 343.7 803 337.9 803 337.9Z" fill="#B8D8C7"/>
<path d="M180.4 518.1L883.4 525.8" stroke="#B8D8C7" stroke-width="1.8" stroke-linecap="round" stroke-linejoin="round"/>
<path d="M550.5 162.2C546.6 170.5 537.6 176 531.3 174.3C525.8 172.8 524.8 166.3 528.3 159.8C531.7 153.6 538.5 148.6 544.4 148.5C550.9 148.3 554.1 154.3 550.5 162.2Z" fill="#F8AB5D"/>
<path d="M548.6 160.5C544.7 168.8 535.7 174.3 529.4 172.6C523.9 171.1 522.9 164.6 526.4 158.1C529.8 151.9 536.6 146.9 542.5 146.8C549 146.6 552.2 152.6 548.6 160.5Z" fill="#F8DA30"/>
<path d="M545.4 160.1C542.5 166.3 535.7 170.5 530.9 169.4C526.6 168.4 525.6 163.4 528.3 158.3C530.9 153.4 536.4 149.5 540.9 149.5C546 149.6 548.2 154.2 545.4 160.1Z" fill="#F8AB5D"/>
<path d="M532.4 165.4L532.8 164.7C532.9 164.4 532.9 164.2 532.7 164.1C532.258 164.015 531.864 163.765 531.6 163.4C531.5 163.3 531.5 163 531.7 162.7L531.8 162.6C532 162.3 532.4 162.2 532.5 162.4C532.846 162.768 533.302 163.014 533.8 163.1C534.312 163.173 534.835 163.076 535.287 162.823C535.738 162.57 536.094 162.175 536.3 161.7C536.414 161.518 536.489 161.315 536.52 161.103C536.552 160.891 536.539 160.675 536.482 160.468C536.426 160.262 536.327 160.069 536.193 159.902C536.058 159.736 535.89 159.599 535.7 159.5C535.435 159.372 535.2 159.187 535.013 158.96C534.825 158.733 534.689 158.468 534.613 158.183C534.537 157.899 534.523 157.601 534.573 157.31C534.622 157.02 534.734 156.743 534.9 156.5C535.181 155.906 535.599 155.387 536.121 154.987C536.643 154.587 537.253 154.317 537.9 154.2C538.1 154.2 538.3 154 538.5 153.7L538.9 153C538.951 152.855 539.046 152.729 539.171 152.64C539.296 152.55 539.446 152.501 539.6 152.5V152.5C539.8 152.5 539.9 152.7 539.8 153L539.5 153.6C539.4 153.9 539.4 154.1 539.7 154.1C540.03 154.151 540.341 154.289 540.6 154.5C540.8 154.6 540.7 154.9 540.5 155.2L540.4 155.3C540.2 155.6 539.8 155.7 539.7 155.5C539.357 155.234 538.934 155.092 538.5 155.1C538.045 155.071 537.592 155.179 537.2 155.411C536.807 155.643 536.494 155.987 536.3 156.4C535.9 157.2 536.2 157.7 537.1 158.4C537.376 158.558 537.616 158.773 537.804 159.03C537.992 159.287 538.123 159.582 538.189 159.893C538.255 160.205 538.255 160.527 538.188 160.838C538.121 161.15 537.988 161.443 537.8 161.7C537.484 162.366 537.009 162.942 536.415 163.379C535.822 163.815 535.129 164.097 534.4 164.2C534.263 164.219 534.135 164.276 534.029 164.364C533.923 164.453 533.843 164.569 533.8 164.7L533.4 165.5C533.337 165.637 533.239 165.755 533.116 165.843C532.993 165.93 532.85 165.984 532.7 166V166C532.3 166 532.2 165.7 532.4 165.4Z" fill="#F8DA30"/>
<path d="M732.8 340.9L694 338.5C693.361 338.458 692.738 338.29 692.165 338.005C691.592 337.721 691.081 337.325 690.663 336.841C690.244 336.357 689.926 335.795 689.726 335.187C689.526 334.579 689.449 333.938 689.5 333.3L695.4 253.7C695.512 252.368 696.099 251.121 697.053 250.185C698.007 249.249 699.266 248.686 700.6 248.6L740.3 246.2C740.988 246.164 741.675 246.275 742.317 246.525C742.959 246.775 743.54 247.159 744.022 247.65C744.504 248.142 744.876 248.731 745.114 249.377C745.352 250.024 745.449 250.713 745.4 251.4L738.8 335.8C738.646 337.258 737.937 338.6 736.82 339.55C735.703 340.499 734.263 340.983 732.8 340.9V340.9Z" fill="#22272E"/>
<path d="M730.1 340.9L691.3 338.5C690.662 338.458 690.038 338.29 689.465 338.005C688.892 337.721 688.382 337.325 687.963 336.841C687.544 336.357 687.226 335.795 687.026 335.187C686.827 334.579 686.75 333.938 686.8 333.3L692.7 253.7C692.812 252.368 693.399 251.121 694.353 250.185C695.308 249.249 696.566 248.686 697.9 248.6L737.6 246.2C738.288 246.164 738.975 246.275 739.617 246.525C740.259 246.775 740.84 247.159 741.322 247.65C741.804 248.142 742.177 248.731 742.414 249.377C742.652 250.024 742.749 250.713 742.7 251.4L736.1 335.8C735.946 337.258 735.237 338.6 734.12 339.55C733.003 340.499 731.564 340.983 730.1 340.9V340.9Z" fill="#22272E"/>
<path d="M718.2 255.5L710.8 255.9C710.666 255.909 710.532 255.889 710.407 255.842C710.282 255.795 710.168 255.721 710.073 255.627C709.978 255.532 709.905 255.418 709.858 255.293C709.811 255.168 709.791 255.034 709.8 254.9V254.9C709.803 254.609 709.919 254.331 710.125 254.125C710.331 253.919 710.609 253.803 710.9 253.8L718.3 253.4C718.434 253.391 718.567 253.411 718.693 253.458C718.818 253.505 718.932 253.579 719.027 253.673C719.121 253.768 719.195 253.882 719.242 254.007C719.289 254.132 719.309 254.266 719.3 254.4V254.4C719.297 254.691 719.181 254.969 718.975 255.175C718.769 255.381 718.491 255.497 718.2 255.5V255.5Z" fill="#63737A"/>
<path d="M722.5 255.3H722.3C722.166 255.309 722.032 255.289 721.907 255.242C721.782 255.195 721.668 255.121 721.573 255.027C721.478 254.932 721.405 254.818 721.358 254.693C721.311 254.568 721.291 254.434 721.3 254.3V254.3C721.338 253.995 721.476 253.711 721.694 253.494C721.911 253.276 722.195 253.138 722.5 253.1H722.7C722.834 253.091 722.967 253.111 723.093 253.158C723.218 253.205 723.332 253.279 723.427 253.373C723.521 253.468 723.595 253.582 723.642 253.707C723.689 253.832 723.709 253.966 723.7 254.1V254.1C723.662 254.405 723.524 254.689 723.306 254.906C723.089 255.124 722.805 255.262 722.5 255.3V255.3Z" fill="#63737A"/>
<path d="M710.9 268.8L701 269.1C700.759 269.103 700.519 269.055 700.298 268.958C700.077 268.861 699.879 268.717 699.718 268.537C699.557 268.357 699.436 268.144 699.364 267.914C699.292 267.683 699.27 267.44 699.3 267.2V267.2C699.353 266.687 699.58 266.209 699.945 265.844C700.309 265.48 700.788 265.253 701.3 265.2L711.2 264.8C711.442 264.797 711.681 264.845 711.903 264.942C712.124 265.039 712.322 265.183 712.483 265.363C712.644 265.543 712.765 265.756 712.837 265.986C712.909 266.217 712.93 266.46 712.9 266.7V266.7C712.887 267.236 712.675 267.747 712.305 268.136C711.935 268.524 711.435 268.76 710.9 268.8Z" fill="#63737A"/>
<path d="M708.3 303.2L698.5 303.1C698.263 303.087 698.032 303.028 697.818 302.926C697.605 302.823 697.413 302.679 697.255 302.503C697.097 302.326 696.976 302.12 696.898 301.897C696.82 301.673 696.786 301.437 696.8 301.2V301.2C696.856 300.698 697.087 300.232 697.453 299.885C697.819 299.537 698.296 299.33 698.8 299.3L708.6 299.4C708.839 299.405 709.075 299.458 709.292 299.558C709.51 299.658 709.704 299.801 709.864 299.98C710.023 300.158 710.145 300.367 710.22 300.594C710.295 300.822 710.322 301.062 710.3 301.3V301.3C710.263 301.809 710.037 302.285 709.667 302.637C709.297 302.988 708.81 303.189 708.3 303.2V303.2Z" fill="#63737A"/>
<path d="M706.2 331L696.4 330.5C696.156 330.484 695.918 330.419 695.699 330.309C695.48 330.199 695.286 330.046 695.128 329.859C694.969 329.673 694.85 329.456 694.776 329.223C694.703 328.99 694.677 328.744 694.7 328.5C694.721 328.012 694.931 327.551 695.286 327.215C695.64 326.879 696.112 326.694 696.6 326.7L706.4 327.1C706.647 327.108 706.89 327.167 707.113 327.274C707.336 327.382 707.534 327.534 707.694 327.723C707.854 327.911 707.973 328.131 708.043 328.368C708.113 328.606 708.132 328.855 708.1 329.1V329.1C708.1 329.604 707.9 330.087 707.544 330.444C707.187 330.8 706.704 331 706.2 331V331Z" fill="#63737A"/>
<path d="M729 290.9L699.8 291C699.507 291.001 699.216 290.941 698.947 290.823C698.679 290.705 698.437 290.533 698.24 290.316C698.042 290.099 697.891 289.843 697.799 289.565C697.706 289.287 697.672 288.992 697.7 288.7L698.6 276C698.637 275.491 698.863 275.015 699.233 274.663C699.602 274.312 700.09 274.111 700.6 274.1L729.9 273.3C730.193 273.299 730.484 273.359 730.753 273.477C731.021 273.594 731.262 273.767 731.46 273.984C731.658 274.201 731.808 274.456 731.901 274.735C731.994 275.013 732.028 275.308 732 275.6L731 288.9C731 289.43 730.789 289.939 730.414 290.314C730.039 290.689 729.53 290.9 729 290.9Z" fill="#B0D7C0"/>
<path d="M707.6 320.3L697.6 319.9C697.314 319.891 697.033 319.822 696.775 319.7C696.517 319.577 696.287 319.402 696.099 319.186C695.911 318.97 695.77 318.718 695.684 318.445C695.598 318.172 695.57 317.884 695.6 317.6L696.2 310C696.213 309.737 696.277 309.48 696.39 309.242C696.503 309.004 696.661 308.791 696.856 308.614C697.051 308.438 697.279 308.302 697.527 308.213C697.775 308.125 698.037 308.087 698.3 308.1L708.4 308.3C708.982 308.331 709.528 308.59 709.921 309.02C710.314 309.45 710.522 310.018 710.5 310.6L709.9 318.4C709.809 318.94 709.526 319.43 709.104 319.778C708.682 320.127 708.148 320.312 707.6 320.3Z" fill="#F8DA30"/>
<path d="M726.6 320.9L715.9 320.5C715.614 320.491 715.333 320.422 715.075 320.299C714.817 320.177 714.586 320.002 714.399 319.786C714.211 319.57 714.07 319.318 713.984 319.045C713.898 318.772 713.87 318.484 713.9 318.2L714.5 310.3C714.513 310.037 714.577 309.78 714.69 309.542C714.802 309.304 714.961 309.091 715.156 308.914C715.351 308.738 715.579 308.601 715.827 308.513C716.074 308.425 716.337 308.386 716.6 308.4L727.4 308.6C727.982 308.631 728.528 308.89 728.921 309.32C729.314 309.75 729.522 310.318 729.5 310.9L728.9 319C728.813 319.542 728.531 320.034 728.108 320.383C727.685 320.733 727.149 320.917 726.6 320.9Z" fill="#F4C2C9"/>
<path d="M487.2 217.8L454.7 219.3C454.102 219.324 453.506 219.214 452.956 218.977C452.406 218.741 451.917 218.384 451.523 217.933C451.13 217.482 450.843 216.948 450.683 216.371C450.523 215.795 450.495 215.189 450.6 214.6L456 160.6C456.146 159.23 456.731 157.945 457.669 156.935C458.606 155.926 459.845 155.247 461.2 155L494.3 150.7C497.2 150.3 499.2 152.4 498.9 155.3L492.8 212.4C492.626 213.805 491.976 215.109 490.956 216.092C489.937 217.075 488.611 217.678 487.2 217.8V217.8Z" fill="#22272E"/>
<path d="M484.8 216.7L452.3 218.2C451.702 218.224 451.106 218.114 450.556 217.877C450.007 217.641 449.517 217.284 449.123 216.833C448.73 216.382 448.443 215.848 448.283 215.271C448.123 214.695 448.095 214.089 448.2 213.5L453.6 159.5C453.746 158.13 454.332 156.845 455.269 155.835C456.206 154.826 457.445 154.147 458.8 153.9L491.9 149.6C494.8 149.2 496.8 151.3 496.5 154.2L490.4 211.3C490.245 212.713 489.6 214.026 488.577 215.013C487.554 215.999 486.217 216.596 484.8 216.7V216.7Z" fill="#22272E"/>
<path d="M486.3 167.8L461 170.5C460.811 170.521 460.62 170.498 460.441 170.435C460.262 170.372 460.099 170.27 459.965 170.135C459.83 170.001 459.728 169.838 459.665 169.659C459.602 169.48 459.58 169.289 459.6 169.1L460.2 162.9C460.219 162.614 460.341 162.345 460.543 162.143C460.746 161.941 461.015 161.819 461.3 161.8L486.7 158.8C486.889 158.779 487.08 158.801 487.259 158.865C487.439 158.928 487.601 159.03 487.736 159.164C487.87 159.299 487.973 159.462 488.036 159.641C488.099 159.82 488.121 160.011 488.1 160.2L487.4 166.7C487.398 166.991 487.281 167.269 487.075 167.475C486.869 167.681 486.591 167.797 486.3 167.8Z" fill="#F4C2C9"/>
<path d="M462.8 185L459.5 185.3C459.311 185.321 459.12 185.299 458.941 185.235C458.762 185.172 458.599 185.07 458.465 184.936C458.33 184.801 458.228 184.638 458.165 184.459C458.102 184.28 458.08 184.089 458.1 183.9L458.5 180.3C458.519 180.014 458.641 179.745 458.843 179.543C459.046 179.341 459.315 179.219 459.6 179.2L462.9 178.9C463.089 178.879 463.28 178.902 463.459 178.965C463.639 179.028 463.801 179.13 463.936 179.265C464.07 179.399 464.173 179.562 464.236 179.741C464.299 179.92 464.321 180.111 464.3 180.3L463.9 183.9C463.881 184.186 463.76 184.455 463.557 184.657C463.355 184.859 463.086 184.981 462.8 185V185Z" fill="#B0D7C0"/>
<path d="M484.7 183.1L481.1 183.4C480.911 183.421 480.72 183.398 480.541 183.335C480.361 183.272 480.199 183.17 480.064 183.035C479.93 182.901 479.828 182.738 479.764 182.559C479.701 182.38 479.679 182.189 479.7 182L480.1 178.2C480.119 177.914 480.241 177.645 480.443 177.443C480.645 177.241 480.914 177.119 481.2 177.1L484.8 176.7C484.989 176.679 485.18 176.701 485.359 176.765C485.538 176.828 485.701 176.93 485.835 177.064C485.97 177.199 486.072 177.362 486.135 177.541C486.198 177.72 486.22 177.911 486.2 178.1L485.8 181.9C485.784 182.197 485.666 182.478 485.465 182.697C485.264 182.916 484.994 183.059 484.7 183.1V183.1Z" fill="#B0D7C0"/>
<path d="M473.6 184L470.2 184.3C470.011 184.321 469.82 184.298 469.641 184.235C469.462 184.172 469.299 184.07 469.164 183.935C469.03 183.801 468.928 183.638 468.865 183.459C468.801 183.28 468.779 183.089 468.8 182.9L469.2 179.2C469.219 178.914 469.341 178.645 469.543 178.443C469.745 178.241 470.014 178.119 470.3 178.1L473.7 177.8C473.889 177.779 474.08 177.801 474.259 177.865C474.438 177.928 474.601 178.03 474.735 178.164C474.87 178.299 474.972 178.462 475.035 178.641C475.098 178.82 475.121 179.011 475.1 179.2L474.7 182.9C474.697 183.191 474.581 183.469 474.375 183.675C474.169 183.881 473.891 183.997 473.6 184Z" fill="#B0D7C0"/>
<path d="M461.5 197.3L458.2 197.5C458.013 197.513 457.825 197.486 457.649 197.421C457.473 197.355 457.313 197.252 457.181 197.12C457.048 196.987 456.945 196.827 456.88 196.651C456.814 196.475 456.787 196.287 456.8 196.1L457.2 192.5C457.242 192.206 457.384 191.935 457.603 191.735C457.822 191.534 458.104 191.416 458.4 191.4L461.7 191.1C461.889 191.079 462.08 191.101 462.259 191.165C462.439 191.228 462.601 191.33 462.736 191.464C462.87 191.599 462.973 191.762 463.036 191.941C463.099 192.12 463.121 192.311 463.1 192.5L462.7 196.1C462.679 196.411 462.546 196.704 462.325 196.925C462.105 197.146 461.812 197.279 461.5 197.3V197.3Z" fill="#B0D7C0"/>
<path d="M483.4 195.8L479.8 196.1C479.613 196.113 479.425 196.086 479.249 196.021C479.073 195.955 478.913 195.852 478.78 195.72C478.647 195.587 478.545 195.427 478.479 195.251C478.413 195.075 478.386 194.887 478.4 194.7L478.8 191C478.841 190.706 478.984 190.435 479.202 190.235C479.421 190.034 479.703 189.916 480 189.9L483.6 189.6C483.789 189.579 483.98 189.601 484.159 189.665C484.338 189.728 484.501 189.83 484.635 189.964C484.77 190.099 484.872 190.262 484.935 190.441C484.998 190.62 485.02 190.811 485 191L484.6 194.8C484.504 195.057 484.344 195.284 484.133 195.46C483.922 195.635 483.67 195.753 483.4 195.8V195.8Z" fill="#B0D7C0"/>
<path d="M472.3 196.6L468.9 196.8C468.713 196.813 468.525 196.786 468.349 196.721C468.173 196.655 468.013 196.552 467.88 196.42C467.748 196.287 467.645 196.127 467.579 195.951C467.514 195.775 467.487 195.587 467.5 195.4L467.9 191.7C467.941 191.406 468.084 191.135 468.303 190.935C468.521 190.734 468.803 190.616 469.1 190.6L472.5 190.3C472.689 190.279 472.88 190.301 473.059 190.365C473.238 190.428 473.401 190.53 473.535 190.664C473.67 190.799 473.772 190.962 473.835 191.141C473.898 191.32 473.92 191.511 473.9 191.7L473.5 195.4C473.446 195.698 473.302 195.973 473.087 196.187C472.873 196.402 472.598 196.546 472.3 196.6V196.6Z" fill="#B0D7C0"/>
<path d="M460.2 209.6L457 209.8C456.818 209.81 456.636 209.78 456.466 209.712C456.297 209.644 456.145 209.54 456.021 209.406C455.897 209.272 455.803 209.113 455.748 208.939C455.693 208.765 455.676 208.581 455.7 208.4L456.1 204.8C456.141 204.506 456.284 204.235 456.503 204.035C456.722 203.834 457.003 203.716 457.3 203.7L460.5 203.5C460.685 203.48 460.871 203.503 461.045 203.568C461.219 203.633 461.376 203.737 461.502 203.873C461.628 204.009 461.721 204.173 461.773 204.351C461.825 204.53 461.834 204.717 461.8 204.9L461.4 208.5C461.375 208.801 461.237 209.081 461.015 209.285C460.793 209.488 460.502 209.601 460.2 209.6V209.6Z" fill="#B0D7C0"/>
<path d="M482 208.4L478.4 208.6C478.218 208.61 478.036 208.58 477.866 208.512C477.697 208.444 477.545 208.339 477.421 208.206C477.297 208.072 477.203 207.913 477.148 207.739C477.093 207.565 477.076 207.381 477.1 207.2L477.5 203.5C477.541 203.206 477.684 202.935 477.903 202.735C478.122 202.534 478.403 202.416 478.7 202.4L482.3 202.2C482.485 202.18 482.671 202.203 482.845 202.268C483.019 202.332 483.176 202.437 483.302 202.573C483.428 202.709 483.521 202.873 483.573 203.051C483.625 203.23 483.634 203.417 483.6 203.6L483.2 207.4C483.137 207.675 482.985 207.922 482.769 208.102C482.552 208.283 482.282 208.387 482 208.4Z" fill="#F8DA30"/>
<path d="M471 209L467.6 209.2C467.418 209.21 467.236 209.18 467.067 209.112C466.897 209.044 466.745 208.939 466.621 208.806C466.497 208.672 466.404 208.513 466.348 208.339C466.293 208.165 466.276 207.981 466.3 207.8L466.7 204.2C466.742 203.906 466.884 203.635 467.103 203.435C467.322 203.234 467.604 203.116 467.9 203.1L471.3 202.9C471.485 202.88 471.671 202.903 471.845 202.968C472.019 203.032 472.176 203.137 472.302 203.273C472.429 203.409 472.521 203.573 472.573 203.751C472.625 203.929 472.634 204.117 472.6 204.3L472.2 208C472.137 208.275 471.985 208.522 471.769 208.702C471.552 208.883 471.282 208.987 471 209Z" fill="#F8DA30"/>
<path d="M518.7 217.2L675.3 201C675.978 200.932 676.662 201.014 677.305 201.239C677.948 201.465 678.534 201.829 679.02 202.306C679.507 202.783 679.883 203.361 680.121 204C680.359 204.638 680.455 205.321 680.4 206L667 358.4C666.847 360.204 666.001 361.878 664.64 363.071C663.279 364.264 661.508 364.884 659.7 364.8L507.6 356.6C506.369 356.528 505.216 355.972 504.392 355.055C503.568 354.137 503.14 352.932 503.2 351.7L512.4 223.8C512.517 222.138 513.21 220.569 514.36 219.364C515.511 218.159 517.045 217.394 518.7 217.2Z" fill="#F8AB5D"/>
<path d="M513 215.5L671.4 199.1C672.088 199.026 672.784 199.107 673.436 199.337C674.089 199.567 674.681 199.94 675.171 200.429C675.66 200.919 676.033 201.511 676.263 202.164C676.493 202.816 676.574 203.512 676.5 204.2L663 358.3C662.864 360.129 662.009 361.829 660.622 363.029C659.235 364.228 657.429 364.829 655.6 364.7L501.7 356.4C501.08 356.37 500.472 356.215 499.912 355.946C499.352 355.676 498.853 355.297 498.442 354.831C498.032 354.364 497.719 353.821 497.523 353.231C497.327 352.642 497.251 352.019 497.3 351.4L506.6 222C506.775 220.353 507.504 218.813 508.666 217.633C509.828 216.453 511.356 215.701 513 215.5Z" fill="#F8DA30"/>
<path d="M529.4 248.7L522.2 249.1L521.3 262.5L528.4 262.3L529.4 248.7Z" fill="#6DAFA7"/>
<path d="M521.3 262.5L520.8 269.1L527.9 268.9L528.4 262.3L521.3 262.5Z" fill="#B0D7C0"/>
<path d="M544.9 230.5L537.7 231L536.5 248.3L543.6 248L544.9 230.5Z" fill="#6DAFA7"/>
<path d="M536.5 248.3L535 268.7L542.1 268.5L543.6 248L536.5 248.3Z" fill="#B0D7C0"/>
<path d="M551.5 236.8L550.7 247.6L557.8 247.2L558.6 236.3L551.5 236.8Z" fill="#6DAFA7"/>
<path d="M550.7 247.6L549.2 268.4L556.3 268.2L557.8 247.2L550.7 247.6Z" fill="#B0D7C0"/>
<path d="M572 246.4L564.9 246.8L564.4 254.4L571.5 254L572 246.4Z" fill="#6DAFA7"/>
<path d="M564.4 254.4L563.4 268L570.5 267.8L571.5 254L564.4 254.4Z" fill="#B0D7C0"/>
<path d="M587.1 234.3L586.2 245.7L585.7 253.2L578.6 253.6L579.1 246L580 234.8L587.1 234.3Z" fill="#6DAFA7"/>
<path d="M578.6 253.6L577.5 267.6L584.6 267.5L585.7 253.2L578.6 253.6Z" fill="#B0D7C0"/>
<path d="M644.2 226.1L631.5 246.2L620.4 231.1C624.7 227.49 630.007 225.29 635.6 224.8C638.528 224.589 641.466 225.033 644.2 226.1V226.1Z" fill="#22272E"/>
<path d="M654.1 244.6L631.5 246.2L644.2 226.1C651.2 228.9 655.3 235.9 654.1 244.6Z" fill="#F4C2C9"/>
<path d="M654.1 244.6C654.1 244.9 654 245.2 654 245.5C651.9 257.4 640.8 267.3 629.1 268.2L631.5 246.2L654.1 244.6Z" fill="#B0D7C0"/>
<path d="M631.5 246.2L629.1 268.2C628.47 268.283 627.835 268.317 627.2 268.3C615.3 268.3 608 258.6 610.5 246.9C611.945 240.704 615.432 235.174 620.4 231.2L631.5 246.2Z" fill="white"/>
<path d="M650.9 285.3L645.7 336L515 333.6L515.2 329.7L543.5 310.2C544.132 309.752 544.892 309.519 545.667 309.537C546.441 309.555 547.189 309.823 547.8 310.3L558.4 318.1C558.793 318.392 559.24 318.602 559.715 318.72C560.19 318.838 560.683 318.86 561.167 318.785C561.651 318.711 562.115 318.541 562.532 318.286C562.95 318.031 563.313 317.696 563.6 317.3L574.1 303.3C574.451 302.831 574.908 302.451 575.434 302.193C575.96 301.935 576.54 301.806 577.126 301.815C577.711 301.825 578.287 301.974 578.804 302.249C579.321 302.525 579.765 302.919 580.1 303.4L589.4 316.3C589.689 316.708 590.058 317.054 590.484 317.316C590.91 317.579 591.385 317.753 591.88 317.827C592.375 317.902 592.879 317.876 593.364 317.751C593.849 317.626 594.303 317.405 594.7 317.1C595.33 316.623 596.094 316.357 596.884 316.339C597.674 316.321 598.449 316.552 599.1 317L605.7 321.7C606.111 321.99 606.576 322.194 607.068 322.3C607.559 322.407 608.067 322.413 608.561 322.32C609.056 322.227 609.526 322.036 609.945 321.757C610.364 321.479 610.723 321.119 611 320.7L625.8 297.9C626.077 297.481 626.436 297.121 626.855 296.843C627.274 296.565 627.744 296.373 628.239 296.28C628.733 296.187 629.241 296.194 629.732 296.3C630.224 296.407 630.689 296.611 631.1 296.9L635.4 300C635.793 300.293 636.239 300.505 636.714 300.623C637.19 300.741 637.684 300.764 638.168 300.69C638.652 300.615 639.116 300.445 639.534 300.189C639.951 299.934 640.314 299.597 640.6 299.2L650.9 285.3Z" fill="#6DAFA7"/>
<path d="M555.8 301.4H550.1C549.969 301.396 549.838 301.421 549.717 301.473C549.596 301.525 549.488 301.602 549.4 301.7L548.1 303C547.913 303.183 547.662 303.286 547.4 303.286C547.138 303.286 546.887 303.183 546.7 303L545.7 301.7C545.612 301.602 545.504 301.525 545.383 301.473C545.262 301.421 545.132 301.396 545 301.4H539.5C539.385 301.406 539.269 301.386 539.162 301.342C539.056 301.297 538.96 301.229 538.883 301.143C538.807 301.056 538.75 300.953 538.718 300.842C538.687 300.731 538.681 300.614 538.7 300.5L539.5 289.7C539.519 289.441 539.63 289.197 539.814 289.014C539.997 288.83 540.241 288.719 540.5 288.7L556.8 288.1C557.039 288.1 557.268 288.195 557.437 288.364C557.605 288.532 557.7 288.761 557.7 289L556.8 300.3C556.814 300.439 556.799 300.58 556.755 300.713C556.711 300.847 556.639 300.969 556.545 301.073C556.451 301.176 556.336 301.259 556.207 301.316C556.079 301.372 555.94 301.401 555.8 301.4V301.4Z" fill="white"/>
<path d="M609.2 306.8L603.5 306.7C603.369 306.696 603.238 306.721 603.117 306.773C602.996 306.825 602.888 306.902 602.8 307L601.5 308.3C601.409 308.399 601.296 308.476 601.171 308.525C601.045 308.575 600.911 308.595 600.776 308.586C600.642 308.576 600.511 308.536 600.394 308.47C600.277 308.403 600.177 308.311 600.1 308.2L599.1 306.9C599.012 306.802 598.904 306.725 598.783 306.673C598.662 306.621 598.532 306.596 598.4 306.6L593 306.5C592.5 306.5 592.2 306.1 592.2 305.5L593 294.6C593.013 294.355 593.11 294.123 593.273 293.941C593.437 293.759 593.658 293.639 593.9 293.6L610.2 293.2C610.326 293.202 610.451 293.23 610.565 293.283C610.68 293.335 610.783 293.411 610.867 293.504C610.952 293.598 611.016 293.708 611.056 293.828C611.096 293.948 611.111 294.074 611.1 294.2L610.2 305.8C610.209 305.934 610.189 306.068 610.142 306.193C610.095 306.318 610.022 306.432 609.927 306.527C609.832 306.621 609.718 306.695 609.593 306.742C609.468 306.789 609.334 306.809 609.2 306.8V306.8Z" fill="#F4C2C9"/>
<path d="M335.3 595.3C334.9 596.6 334 601.8 333.3 606.6C325.825 607.718 318.187 606.784 311.2 603.9C311.7 598.9 312.2 593.7 312.2 593.7C312.2 590.9 336.1 592.9 335.3 595.3Z" fill="#22272E"/>
<path d="M333.3 606.5C332.7 610.7 332.1 614.4 332.1 614.4C332.1 614.4 329.4 620.7 322.6 620.7C315.8 620.7 310.3 615 310.4 612.6C310.5 611.5 310.8 607.7 311.2 603.8C318.183 606.697 325.825 607.631 333.3 606.5Z" fill="#F4C2C9"/>
<path d="M310.5 610.7C311.479 611.786 312.514 612.821 313.6 613.8C314.7 614.8 318.1 611.7 322.9 612.3C327.7 612.9 329.2 614.8 329.2 614.8C330.309 614.576 331.363 614.134 332.3 613.5C332.392 616 332.899 618.467 333.8 620.8C335.3 624.7 342.9 636.1 342.9 638.3C342.9 640.5 342.4 642.2 340.8 642.9C339.2 643.6 328.6 643.7 319.7 643.9C310.8 644.1 303.9 644.6 302.9 641.1C301.9 637.6 306 626.7 307.7 620C309.4 613.3 309.1 610.8 310.5 610.7Z" fill="#22272E"/>
<path d="M312 629.2C312 629.2 322.7 623.5 332.9 629.2" stroke="white" stroke-width="1.8" stroke-linecap="round" stroke-linejoin="round"/>
<path d="M314 623.6C319.557 622.021 325.443 622.021 331 623.6" stroke="white" stroke-width="1.8" stroke-linecap="round" stroke-linejoin="round"/>
<path d="M439.1 602.2C427.7 606.1 415.9 603.7 416 603.8C415.6 598.2 415.1 592.3 415.1 592.3C416.6 588.8 438.1 587.2 438.3 588.7C438.3 589.5 438.7 596.1 439.1 602.2Z" fill="#22272E"/>
<path d="M439.7 612.8C439.7 612.8 438.2 617.5 431.7 619.9C425.2 622.3 416.9 615.8 416.8 613.9C416.7 613.1 416.4 608.5 416 603.8C416 603.7 427.7 606.1 439.1 602.2C439.4 607.7 439.7 612.8 439.7 612.8Z" fill="#F4C2C9"/>
<path d="M416.6 612.5C415.9 612.5 415.4 613.5 415 619.8C414.6 626.1 412.6 640 415 642.1C417.4 644.2 465.3 643.6 470.8 643.2C476.3 642.8 479.3 639.2 477.6 636.8C475.9 634.4 464.1 630 453.7 623C443.3 616 440.8 614.5 439.6 612.8C439.6 612.8 440.2 607.1 437.1 608C434 608.9 431.9 616.3 427.9 617.3C423.9 618.3 423.4 612.1 416.6 612.5Z" fill="#22272E"/>
<path d="M456 623.2C456 623.2 453.3 622.4 447.2 628.9" stroke="white" stroke-width="1.8" stroke-linecap="round" stroke-linejoin="round"/>
<path d="M449.4 618.9C449.4 618.9 444.6 618.7 439.1 625.8" stroke="white" stroke-width="1.8" stroke-linecap="round" stroke-linejoin="round"/>
<path d="M315 605.2L315.6 601.2" stroke="#63737A" stroke-width="1.8" stroke-linecap="round" stroke-linejoin="round"/>
<path d="M321.9 606.7L322.5 602.7" stroke="#63737A" stroke-width="1.8" stroke-linecap="round" stroke-linejoin="round"/>
<path d="M329.5 607L330.2 603.4" stroke="#63737A" stroke-width="1.8" stroke-linecap="round" stroke-linejoin="round"/>
<path d="M420.5 604.3L420.2 600.1" stroke="#63737A" stroke-width="1.8" stroke-linecap="round" stroke-linejoin="round"/>
<path d="M428.8 604.2L428.5 599.6" stroke="#63737A" stroke-width="1.8" stroke-linecap="round" stroke-linejoin="round"/>
<path d="M436.3 603L436 598.7" stroke="#63737A" stroke-width="1.8" stroke-linecap="round" stroke-linejoin="round"/>
<path d="M308.3 371.4C306.589 379.29 305.651 387.328 305.5 395.4C305.2 409.1 315.9 452 319.8 466.5C323.7 481 322.9 483.3 322.3 486.1C321.7 488.9 315.7 511.1 313.7 534.1C311.7 557.1 304.5 575.6 305.3 582.7C306.4 592.3 310.5 595.1 312.2 596.2C313.9 597.3 327.9 601.8 337.4 599.6C337.4 599.6 347.5 593.2 349.4 584.2C351.3 575.2 350.2 564.3 356.7 534.9C363.2 505.5 366.2 493.4 367.1 481.7C367.6 474.7 367.7 454.7 367.8 439.4C367.9 429 367.9 420.7 368 419.9C368.3 417.9 373.2 420.2 375.8 413.8C376.9 410.9 377.5 405.4 377.6 399.5C377.8 392 377.3 383.8 376.3 379.3C374.7 371 309.9 362.6 308.3 371.4Z" fill="#22272E"/>
<path d="M445.5 584.5C443.8 588.7 440.7 593.5 437.9 594.6C435.1 595.7 422.5 597.4 416.1 596.8C416.1 596.8 405.4 593.7 404.3 585.6C403.2 577.5 405.1 568.5 401.5 550.3C397.9 532.1 394.8 499.9 393.9 490.4C393 480.9 373.4 452.6 364.2 435.5C355 418.4 345.1 387.1 353.3 379.8C361.5 372.5 390.8 369.2 399.5 375.1C399.5 375.1 409.6 399.7 419.7 429.1C429 456.1 430.9 465.2 432.2 473C432.285 473.708 432.419 474.41 432.6 475.1C433 477.5 433.5 483.7 434.2 491.7C435.8 512 437.7 543.5 438.5 550.7C439.6 560.7 447.2 580.3 445.5 584.5Z" fill="#22272E"/>
<path d="M362.4 421.4C368.907 419.055 375.597 417.249 382.4 416" stroke="#63737A" stroke-width="1.8" stroke-linecap="round" stroke-linejoin="round"/>
<path d="M361.863 493.691C363.343 486.438 358.751 479.377 351.607 477.919C344.463 476.461 337.471 481.158 335.991 488.411C334.511 495.663 339.103 502.725 346.247 504.183C353.391 505.641 360.383 500.943 361.863 493.691Z" stroke="#63737A" stroke-width="1.80036" stroke-linecap="round" stroke-linejoin="round"/>
<path d="M434.2 491.6C432.979 493.133 431.427 494.37 429.661 495.218C427.895 496.067 425.96 496.505 424 496.5C420.473 496.513 417.084 495.125 414.581 492.64C412.077 490.155 410.663 486.777 410.65 483.25C410.637 479.723 412.025 476.334 414.51 473.831C416.995 471.327 420.373 469.913 423.9 469.9C426.932 469.902 429.868 470.963 432.2 472.9" stroke="#63737A" stroke-width="1.8" stroke-linecap="round" stroke-linejoin="round"/>
<path d="M310.6 418.7C314.138 415.442 316.961 411.483 318.889 407.076C320.817 402.67 321.808 397.91 321.8 393.1C318.039 392.888 314.297 392.421 310.6 391.7" stroke="#63737A" stroke-width="1.8" stroke-linecap="round" stroke-linejoin="round"/>
<path d="M367.8 439.4C367.9 429 367.9 420.7 368 419.9C368.3 417.9 373.2 420.2 375.8 413.8C376.9 410.9 377.5 405.4 377.6 399.5" stroke="#63737A" stroke-width="1.8" stroke-linecap="round" stroke-linejoin="round"/>
<path d="M397.3 256.9C397.3 256.9 405.5 257.3 418.7 283.7C431.9 310.1 436.6 319.6 436.6 319.6C436.6 319.6 445.3 317.5 459.5 315.2C473.7 312.9 493.7 310 493.7 310C493.7 310 499.1 310.1 501.4 317.8C501.986 319.749 502.074 321.814 501.654 323.806C501.235 325.798 500.322 327.653 499 329.2C498.503 329.827 497.847 330.311 497.1 330.6C491 333.2 455.4 348.2 443.3 350.8C430 353.6 423.5 353.2 411.7 337C399.9 320.8 390.6 308.2 386.3 301.7C382 294.9 378.9 257.9 397.3 256.9Z" fill="#6DAFA7"/>
<path d="M419.8 346.2C419.8 346.2 419.1 340.9 429.4 340.9C439.7 340.9 445 348.6 442.5 350.8" stroke="#22272E" stroke-width="1.8" stroke-linecap="round" stroke-linejoin="round"/>
<path d="M436.6 319.5C436.6 319.5 432.3 321.5 431.4 324.5" stroke="#22272E" stroke-width="1.8" stroke-linecap="round" stroke-linejoin="round"/>
<path d="M494.2 310.8C494.2 310.8 498.6 309.2 499.7 308.6C500.8 308 503.2 303.8 505.2 301.2C507.2 298.6 512.9 297.1 514.5 297.4C514.935 297.458 515.354 297.604 515.732 297.827C516.11 298.05 516.439 298.347 516.7 298.7C516.7 298.7 521.7 296.9 525.1 295.5C528.5 294.1 534.8 291 535.7 293.5C536.2 295 532.3 297.2 529.6 298.7C526.3 300.6 524.1 302 524.1 302C524.624 302.309 525.074 302.729 525.419 303.23C525.765 303.73 525.997 304.3 526.1 304.9C526.5 307 527.6 309.3 525.6 312.5C525 313.4 527.3 315.9 525.5 318.2C522.4 321.9 514.9 323.8 510.9 325C506.9 326.2 497.5 326.8 497.5 326.8C497.5 326.8 494.5 326.1 493.2 319.6C491.9 313.1 494.2 310.8 494.2 310.8Z" fill="#F4C2C9"/>
<path d="M516.7 298.7C516.7 298.7 517.4 300.5 518.2 303.2C519 305.9 519.6 308 517.5 308.1C515.4 308.2 513.5 305 512.7 303.4" stroke="#E26E85" stroke-width="1.8" stroke-linecap="round" stroke-linejoin="round"/>
<path d="M514.1 305.7C514.1 305.7 516.4 310.3 511.1 314.3" stroke="#E26E85" stroke-width="1.8" stroke-linecap="round" stroke-linejoin="round"/>
<path d="M524.2 302L518.6 304.6" stroke="#E26E85" stroke-width="1.8" stroke-linecap="round" stroke-linejoin="round"/>
<path d="M515.8 307.5C515.8 307.5 514.8 309.1 515.8 310C516.8 310.9 522.3 308.9 526.3 306.6" stroke="#E26E85" stroke-width="1.8" stroke-linecap="round" stroke-linejoin="round"/>
<path d="M516.7 310.2C516.231 310.448 515.876 310.867 515.709 311.37C515.541 311.872 515.574 312.421 515.8 312.9C516.6 314.7 520.9 314 525.6 312.5" stroke="#E26E85" stroke-width="1.8" stroke-linecap="round" stroke-linejoin="round"/>
<path d="M517.6 314C517.6 314 515.1 314.3 516.4 316.8C517.2 318.3 522 317.8 523 318.2" stroke="#E26E85" stroke-width="1.8" stroke-linecap="round" stroke-linejoin="round"/>
<path d="M488.4 311.7C487.6 313.1 486.6 315.8 487.3 320.6C487.496 322.672 488.155 324.673 489.228 326.455C490.301 328.238 491.761 329.757 493.5 330.9" stroke="#22272E" stroke-width="1.8" stroke-linecap="round" stroke-linejoin="round"/>
<path d="M364.9 220.3C364.9 220.3 361.7 236.4 359.9 240.8C358.1 245.2 367.9 252.1 377.7 252.5C387.5 252.9 386.5 247.2 386.5 247.2L389.4 231.2C389.4 231.3 368.4 216.6 364.9 220.3Z" fill="#F4C2C9"/>
<path d="M369.3 225.1C367.9 237.3 376.7 243.2 386.5 247.8V247.2L388.1 238.7C380.8 236.3 374.4 231.1 369.3 225.1Z" fill="#E26E85"/>
<path d="M322.9 252.6C325.1 246.1 333.5 242.2 340.3 242.8C347.3 243.4 360.7 243.6 373.6 247.6C395.6 254.4 400.9 258.4 402.2 259.6C409.5 266.6 408.8 277 404.6 305.7C401.9 324.6 399.6 329.4 400.2 338.7C400.8 348 402.5 364.5 403.6 367.9C404.7 371.3 401.9 377.2 399.5 379.3C397.1 381.4 377.7 385.8 359.7 385.4C341.7 385 313.4 380.1 308.9 377.1C304.4 374.1 301.2 368.9 302.2 364.4C303.443 357.521 305.045 350.712 307 344C309.8 334.5 310 322.1 314.4 302.2C317.8 287.5 318.3 266.2 322.9 252.6Z" fill="#F8DA30"/>
<path d="M403.887 231.15C406.307 229.939 407.789 227.996 407.196 226.811C406.602 225.625 404.16 225.646 401.74 226.857C399.319 228.068 397.838 230.01 398.431 231.196C399.024 232.381 401.467 232.36 403.887 231.15Z" fill="#F8AB5D"/>
<path d="M420.384 242.371C422.804 241.16 424.285 239.217 423.692 238.032C423.099 236.847 420.656 236.867 418.236 238.078C415.816 239.289 414.335 241.232 414.928 242.417C415.521 243.602 417.964 243.582 420.384 242.371Z" fill="#F8AB5D"/>
<path d="M383.689 241.274C386.109 240.063 387.59 238.12 386.997 236.935C386.404 235.75 383.961 235.77 381.541 236.981C379.121 238.192 377.64 240.135 378.233 241.32C378.826 242.505 381.269 242.485 383.689 241.274Z" fill="#F8AB5D"/>
<path d="M400.278 252.449C402.699 251.238 404.18 249.296 403.587 248.11C402.994 246.925 400.551 246.946 398.131 248.156C395.71 249.367 394.229 251.31 394.822 252.495C395.415 253.681 397.858 253.66 400.278 252.449Z" fill="#F8AB5D"/>
<path d="M419.083 261.555C421.503 260.344 422.984 258.402 422.391 257.216C421.798 256.031 419.356 256.052 416.935 257.263C414.515 258.473 413.034 260.416 413.627 261.601C414.22 262.787 416.663 262.766 419.083 261.555Z" fill="#F8AB5D"/>
<path d="M435.58 272.777C438 271.566 439.481 269.623 438.888 268.438C438.295 267.252 435.852 267.273 433.432 268.484C431.012 269.695 429.531 271.637 430.124 272.823C430.717 274.008 433.16 273.987 435.58 272.777Z" fill="#F8AB5D"/>
<path d="M398.894 271.675C401.314 270.464 402.795 268.522 402.202 267.336C401.609 266.151 399.167 266.172 396.746 267.383C394.326 268.593 392.845 270.536 393.438 271.721C394.031 272.907 396.474 272.886 398.894 271.675Z" fill="#F8AB5D"/>
<path d="M415.493 282.85C417.913 281.64 419.395 279.697 418.802 278.512C418.208 277.326 415.766 277.347 413.346 278.558C410.925 279.769 409.444 281.711 410.037 282.897C410.63 284.082 413.073 284.061 415.493 282.85Z" fill="#F8AB5D"/>
<path d="M363.603 251.348C366.023 250.137 367.504 248.194 366.911 247.009C366.318 245.824 363.876 245.844 361.455 247.055C359.035 248.266 357.554 250.209 358.147 251.394C358.74 252.579 361.183 252.559 363.603 251.348Z" fill="#F8AB5D"/>
<path d="M380.099 262.569C382.519 261.358 384.001 259.416 383.407 258.23C382.814 257.045 380.372 257.065 377.951 258.276C375.531 259.487 374.05 261.43 374.643 262.615C375.236 263.8 377.679 263.78 380.099 262.569Z" fill="#F8AB5D"/>
<path d="M343.369 261.379C345.789 260.169 347.27 258.226 346.677 257.041C346.084 255.855 343.641 255.876 341.221 257.087C338.801 258.298 337.32 260.24 337.913 261.426C338.506 262.611 340.949 262.59 343.369 261.379Z" fill="#F8AB5D"/>
<path d="M359.958 272.555C362.378 271.344 363.859 269.401 363.266 268.216C362.673 267.031 360.231 267.051 357.81 268.262C355.39 269.473 353.909 271.416 354.502 272.601C355.095 273.786 357.538 273.766 359.958 272.555Z" fill="#F8AB5D"/>
<path d="M378.753 281.661C381.173 280.45 382.654 278.508 382.061 277.322C381.468 276.137 379.025 276.157 376.605 277.368C374.185 278.579 372.703 280.522 373.297 281.707C373.89 282.893 376.332 282.872 378.753 281.661Z" fill="#F8AB5D"/>
<path d="M395.3 292.984C397.72 291.773 399.201 289.83 398.608 288.645C398.015 287.46 395.572 287.48 393.152 288.691C390.732 289.902 389.251 291.844 389.844 293.03C390.437 294.215 392.88 294.195 395.3 292.984Z" fill="#F8AB5D"/>
<path d="M358.569 291.794C360.99 290.583 362.471 288.641 361.878 287.455C361.285 286.27 358.842 286.291 356.422 287.502C354.001 288.712 352.52 290.655 353.113 291.84C353.707 293.026 356.149 293.005 358.569 291.794Z" fill="#F8AB5D"/>
<path d="M375.158 302.969C377.578 301.759 379.06 299.816 378.467 298.631C377.873 297.445 375.431 297.466 373.011 298.677C370.59 299.888 369.109 301.83 369.702 303.016C370.295 304.201 372.738 304.18 375.158 302.969Z" fill="#F8AB5D"/>
<path d="M434.694 292.753C437.114 291.542 438.595 289.6 438.002 288.414C437.409 287.229 434.966 287.25 432.546 288.46C430.126 289.671 428.645 291.614 429.238 292.799C429.831 293.985 432.274 293.964 434.694 292.753Z" fill="#F8AB5D"/>
<path d="M451.199 303.97C453.619 302.759 455.101 300.817 454.508 299.631C453.914 298.446 451.472 298.466 449.052 299.677C446.631 300.888 445.15 302.831 445.743 304.016C446.336 305.201 448.779 305.181 451.199 303.97Z" fill="#F8AB5D"/>
<path d="M414.46 302.785C416.88 301.574 418.361 299.631 417.768 298.446C417.175 297.261 414.732 297.281 412.312 298.492C409.892 299.703 408.41 301.646 409.004 302.831C409.597 304.016 412.039 303.996 414.46 302.785Z" fill="#F8AB5D"/>
<path d="M431.058 313.966C433.478 312.755 434.959 310.812 434.366 309.627C433.773 308.441 431.33 308.462 428.91 309.673C426.49 310.884 425.009 312.826 425.602 314.012C426.195 315.197 428.638 315.177 431.058 313.966Z" fill="#F8AB5D"/>
<path d="M449.899 323.155C452.319 321.944 453.8 320.001 453.207 318.816C452.614 317.63 450.171 317.651 447.751 318.862C445.331 320.073 443.849 322.015 444.443 323.201C445.036 324.386 447.478 324.365 449.899 323.155Z" fill="#F8AB5D"/>
<path d="M466.395 334.376C468.815 333.165 470.296 331.222 469.703 330.037C469.11 328.852 466.668 328.872 464.247 330.083C461.827 331.294 460.346 333.237 460.939 334.422C461.532 335.607 463.975 335.587 466.395 334.376Z" fill="#F8AB5D"/>
<path d="M429.665 333.186C432.085 331.975 433.566 330.033 432.973 328.847C432.38 327.662 429.937 327.683 427.517 328.894C425.097 330.104 423.616 332.047 424.209 333.232C424.802 334.418 427.244 334.397 429.665 333.186Z" fill="#F8AB5D"/>
<path d="M446.253 344.362C448.674 343.151 450.155 341.208 449.562 340.023C448.969 338.837 446.526 338.858 444.106 340.069C441.686 341.28 440.204 343.222 440.798 344.408C441.391 345.593 443.833 345.572 446.253 344.362Z" fill="#F8AB5D"/>
<path d="M394.363 312.859C396.784 311.648 398.265 309.705 397.672 308.52C397.079 307.335 394.636 307.355 392.216 308.566C389.795 309.777 388.314 311.72 388.907 312.905C389.5 314.09 391.943 314.07 394.363 312.859Z" fill="#F8AB5D"/>
<path d="M410.87 324.08C413.29 322.869 414.771 320.927 414.178 319.741C413.585 318.556 411.142 318.576 408.722 319.787C406.302 320.998 404.821 322.941 405.414 324.126C406.007 325.312 408.45 325.291 410.87 324.08Z" fill="#F8AB5D"/>
<path d="M374.175 322.983C376.596 321.772 378.077 319.83 377.484 318.644C376.891 317.459 374.448 317.48 372.028 318.69C369.607 319.901 368.126 321.844 368.719 323.029C369.312 324.215 371.755 324.194 374.175 322.983Z" fill="#F8AB5D"/>
<path d="M390.774 334.164C393.194 332.953 394.675 331.01 394.082 329.825C393.489 328.64 391.046 328.66 388.626 329.871C386.206 331.082 384.724 333.025 385.318 334.21C385.911 335.395 388.353 335.375 390.774 334.164Z" fill="#F8AB5D"/>
<path d="M409.569 343.265C411.989 342.054 413.47 340.111 412.877 338.926C412.284 337.74 409.841 337.761 407.421 338.972C405.001 340.183 403.52 342.125 404.113 343.311C404.706 344.496 407.149 344.475 409.569 343.265Z" fill="#F8AB5D"/>
<path d="M426.079 354.49C428.499 353.279 429.981 351.337 429.387 350.152C428.794 348.966 426.352 348.987 423.931 350.198C421.511 351.409 420.03 353.351 420.623 354.537C421.216 355.722 423.659 355.701 426.079 354.49Z" fill="#F8AB5D"/>
<path d="M405.969 364.56C408.39 363.349 409.871 361.406 409.278 360.221C408.684 359.036 406.242 359.056 403.822 360.267C401.401 361.478 399.92 363.421 400.513 364.606C401.106 365.791 403.549 365.771 405.969 364.56Z" fill="#F8AB5D"/>
<path d="M323.069 271.557C325.49 270.346 326.971 268.403 326.378 267.218C325.785 266.033 323.342 266.053 320.922 267.264C318.501 268.475 317.02 270.418 317.613 271.603C318.207 272.788 320.649 272.768 323.069 271.557Z" fill="#F8AB5D"/>
<path d="M339.579 282.782C341.999 281.572 343.481 279.629 342.887 278.444C342.294 277.258 339.852 277.279 337.431 278.49C335.011 279.701 333.53 281.643 334.123 282.829C334.716 284.014 337.159 283.993 339.579 282.782Z" fill="#F8AB5D"/>
<path d="M302.973 281.641C305.393 280.43 306.874 278.487 306.281 277.302C305.688 276.116 303.245 276.137 300.825 277.348C298.405 278.559 296.924 280.501 297.517 281.687C298.11 282.872 300.553 282.851 302.973 281.641Z" fill="#F8AB5D"/>
<path d="M319.484 292.871C321.904 291.66 323.385 289.717 322.792 288.532C322.199 287.347 319.756 287.367 317.336 288.578C314.916 289.789 313.435 291.732 314.028 292.917C314.621 294.102 317.064 294.082 319.484 292.871Z" fill="#F8AB5D"/>
<path d="M338.279 301.967C340.699 300.756 342.18 298.814 341.587 297.628C340.994 296.443 338.551 296.463 336.131 297.674C333.711 298.885 332.23 300.828 332.823 302.013C333.416 303.199 335.859 303.178 338.279 301.967Z" fill="#F8AB5D"/>
<path d="M354.868 313.152C357.288 311.941 358.769 309.999 358.176 308.814C357.583 307.628 355.14 307.649 352.72 308.86C350.3 310.071 348.819 312.013 349.412 313.198C350.005 314.384 352.448 314.363 354.868 313.152Z" fill="#F8AB5D"/>
<path d="M318.183 312.045C320.603 310.835 322.085 308.892 321.491 307.707C320.898 306.521 318.456 306.542 316.035 307.753C313.615 308.964 312.134 310.906 312.727 312.092C313.32 313.277 315.763 313.256 318.183 312.045Z" fill="#F8AB5D"/>
<path d="M334.68 323.267C337.1 322.056 338.581 320.113 337.988 318.928C337.395 317.742 334.952 317.763 332.532 318.974C330.112 320.185 328.631 322.127 329.224 323.313C329.817 324.498 332.26 324.478 334.68 323.267Z" fill="#F8AB5D"/>
<path d="M282.79 291.764C285.21 290.553 286.691 288.61 286.098 287.425C285.505 286.24 283.062 286.26 280.642 287.471C278.222 288.682 276.741 290.625 277.334 291.81C277.927 292.995 280.369 292.975 282.79 291.764Z" fill="#F8AB5D"/>
<path d="M299.383 302.936C301.803 301.725 303.284 299.782 302.691 298.597C302.098 297.412 299.655 297.432 297.235 298.643C294.815 299.854 293.334 301.797 293.927 302.982C294.52 304.167 296.963 304.147 299.383 302.936Z" fill="#F8AB5D"/>
<path d="M262.648 301.76C265.068 300.549 266.549 298.606 265.956 297.421C265.363 296.235 262.92 296.256 260.5 297.467C258.08 298.678 256.599 300.62 257.192 301.806C257.785 302.991 260.228 302.97 262.648 301.76Z" fill="#F8AB5D"/>
<path d="M279.199 313.069C281.619 311.858 283.101 309.916 282.508 308.73C281.914 307.545 279.472 307.566 277.052 308.776C274.631 309.987 273.15 311.93 273.743 313.115C274.336 314.301 276.779 314.28 279.199 313.069Z" fill="#F8AB5D"/>
<path d="M297.994 322.165C300.414 320.954 301.896 319.012 301.302 317.826C300.709 316.641 298.267 316.662 295.846 317.873C293.426 319.083 291.945 321.026 292.538 322.211C293.131 323.397 295.574 323.376 297.994 322.165Z" fill="#F8AB5D"/>
<path d="M314.584 333.351C317.004 332.14 318.485 330.197 317.892 329.012C317.299 327.826 314.856 327.847 312.436 329.058C310.016 330.269 308.534 332.211 309.128 333.397C309.721 334.582 312.163 334.561 314.584 333.351Z" fill="#F8AB5D"/>
<path d="M277.853 332.151C280.273 330.94 281.754 328.998 281.161 327.812C280.568 326.627 278.126 326.647 275.705 327.858C273.285 329.069 271.804 331.012 272.397 332.197C272.99 333.383 275.433 333.362 277.853 332.151Z" fill="#F8AB5D"/>
<path d="M294.349 343.382C296.769 342.171 298.251 340.229 297.657 339.043C297.064 337.858 294.622 337.879 292.201 339.09C289.781 340.3 288.3 342.243 288.893 343.428C289.486 344.614 291.929 344.593 294.349 343.382Z" fill="#F8AB5D"/>
<path d="M333.798 343.24C336.219 342.029 337.7 340.086 337.107 338.901C336.514 337.716 334.071 337.736 331.651 338.947C329.231 340.158 327.749 342.101 328.342 343.286C328.936 344.471 331.378 344.451 333.798 343.24Z" fill="#F8AB5D"/>
<path d="M385.683 374.752C388.103 373.541 389.585 371.598 388.991 370.413C388.398 369.227 385.956 369.248 383.535 370.459C381.115 371.67 379.634 373.612 380.227 374.798C380.82 375.983 383.263 375.962 385.683 374.752Z" fill="#F8AB5D"/>
<path d="M348.944 373.567C351.364 372.356 352.845 370.413 352.252 369.228C351.659 368.042 349.216 368.063 346.796 369.274C344.376 370.485 342.895 372.427 343.488 373.613C344.081 374.798 346.524 374.777 348.944 373.567Z" fill="#F8AB5D"/>
<path d="M365.495 384.876C367.915 383.665 369.397 381.722 368.803 380.537C368.21 379.352 365.768 379.372 363.347 380.583C360.927 381.794 359.446 383.737 360.039 384.922C360.632 386.107 363.075 386.087 365.495 384.876Z" fill="#F8AB5D"/>
<path d="M313.569 353.281C315.989 352.07 317.47 350.127 316.877 348.942C316.284 347.756 313.841 347.777 311.421 348.988C309.001 350.199 307.52 352.141 308.113 353.327C308.706 354.512 311.149 354.491 313.569 353.281Z" fill="#F8AB5D"/>
<path d="M330.153 364.447C332.574 363.236 334.055 361.293 333.462 360.108C332.869 358.923 330.426 358.943 328.006 360.154C325.585 361.365 324.104 363.308 324.697 364.493C325.29 365.678 327.733 365.658 330.153 364.447Z" fill="#F8AB5D"/>
<path d="M293.463 363.359C295.884 362.148 297.365 360.205 296.772 359.02C296.179 357.835 293.736 357.855 291.316 359.066C288.896 360.277 287.414 362.22 288.007 363.405C288.601 364.59 291.043 364.57 293.463 363.359Z" fill="#F8AB5D"/>
<path d="M309.96 374.58C312.38 373.369 313.861 371.427 313.268 370.241C312.675 369.056 310.232 369.077 307.812 370.287C305.392 371.498 303.911 373.441 304.504 374.626C305.097 375.812 307.54 375.791 309.96 374.58Z" fill="#F8AB5D"/>
<path d="M328.765 383.676C331.185 382.465 332.666 380.523 332.073 379.338C331.48 378.152 329.037 378.173 326.617 379.384C324.197 380.595 322.716 382.537 323.309 383.723C323.902 384.908 326.345 384.887 328.765 383.676Z" fill="#F8AB5D"/>
<path d="M345.354 394.862C347.774 393.651 349.255 391.708 348.662 390.523C348.069 389.337 345.626 389.358 343.206 390.569C340.786 391.78 339.305 393.722 339.898 394.908C340.491 396.093 342.933 396.073 345.354 394.862Z" fill="#F8AB5D"/>
<path d="M308.659 393.765C311.079 392.554 312.561 390.611 311.967 389.426C311.374 388.241 308.932 388.261 306.512 389.472C304.091 390.683 302.61 392.625 303.203 393.811C303.796 394.996 306.239 394.976 308.659 393.765Z" fill="#F8AB5D"/>
<path d="M325.175 404.982C327.595 403.771 329.076 401.828 328.483 400.643C327.89 399.457 325.447 399.478 323.027 400.689C320.607 401.9 319.126 403.842 319.719 405.028C320.312 406.213 322.755 406.192 325.175 404.982Z" fill="#F8AB5D"/>
<path d="M350.4 325.9C361.521 328.246 372.837 329.552 384.2 329.8C384.939 329.82 385.648 330.102 386.197 330.597C386.747 331.092 387.103 331.767 387.2 332.5C387.75 336.538 389.531 340.309 392.3 343.3C392.559 343.564 392.763 343.876 392.901 344.22C393.038 344.563 393.106 344.93 393.1 345.3C393.2 349.5 393.4 363.7 390.6 365.9C387.4 368.3 353.4 370.5 332.3 364.6C331.628 364.429 331.031 364.043 330.598 363.502C330.165 362.96 329.92 362.293 329.9 361.6C330 357.5 330.2 348.9 330.9 343.5C330.998 342.963 331.221 342.457 331.551 342.023C331.881 341.588 332.309 341.238 332.8 341C336.1 339.5 343.7 335.5 346.4 328C346.722 327.242 347.297 326.619 348.025 326.237C348.754 325.854 349.593 325.735 350.4 325.9V325.9Z" stroke="#F8AB5D" stroke-width="1.8" stroke-linecap="round" stroke-linejoin="round"/>
<path d="M358.6 238.4C358.703 238.173 358.858 237.974 359.053 237.819C359.249 237.664 359.478 237.558 359.722 237.509C359.966 237.46 360.219 237.47 360.458 237.538C360.698 237.606 360.918 237.73 361.1 237.9C363 239.9 367.1 242.9 374.5 244.3C385.8 246.4 386.9 244.7 386.9 244.7C386.9 244.7 388.7 245.3 388.9 246.8C388.959 249.225 388.69 251.647 388.1 254C387.5 255.9 379.1 256.1 372.4 254.7C366.48 253.615 361.016 250.796 356.7 246.6C356.359 246.271 356.128 245.845 356.038 245.379C355.949 244.914 356.005 244.432 356.2 244C356.8 242.5 357.8 240.3 358.6 238.4Z" fill="#6DAFA7"/>
<path d="M407.9 201.3C407.998 205.586 407.32 209.855 405.9 213.9C403.9 219.1 400.6 233.6 394.1 238.3C387.6 243 373.4 242.1 367.2 230C361 217.9 363 205.2 366.2 195C369.4 184.8 382.6 181.1 394.1 185.3C405.6 189.5 407.9 196.8 407.9 201.3Z" fill="#F4C2C9"/>
<path d="M365.9 208.3C366.582 209.194 367.153 210.168 367.6 211.2C368.5 213.3 370.4 212.1 371.1 208.3C371.8 204.5 373.4 201.8 374.6 202C376.141 202.368 377.762 202.203 379.197 201.531C380.632 200.859 381.797 199.72 382.5 198.3C385 193.7 386.1 194.4 386.1 194.4C386.1 194.4 388.1 189.6 393.3 196.5C398.5 203.4 401.8 208.8 408 207.7C414.2 206.6 419.7 196.5 415 186.8C410.3 177.1 395.5 174.8 384.5 177.7C373.5 180.6 367.8 178.2 361.2 183.8C354.6 189.4 356.2 195.3 355.8 201.9C355.4 208.5 352 212 356.5 217.9C361 223.8 359.8 229.3 362.3 232.6C362.3 232.6 365 223.9 364.7 217.6C364.4 211.3 365.9 208.3 365.9 208.3Z" fill="#22272E"/>
<path d="M395.6 213.8C395.528 216.314 394.491 218.704 392.703 220.473C390.915 222.242 388.515 223.255 386 223.3C384.747 223.29 383.51 223.029 382.36 222.533C381.209 222.037 380.17 221.316 379.304 220.412C378.437 219.508 377.76 218.439 377.313 217.269C376.865 216.099 376.657 214.852 376.7 213.6C376.692 212.306 376.939 211.023 377.428 209.825C377.916 208.627 378.636 207.537 379.546 206.617C380.457 205.698 381.539 204.967 382.733 204.466C383.926 203.966 385.206 203.705 386.5 203.7C387.765 203.751 389.008 204.054 390.155 204.592C391.302 205.13 392.329 205.892 393.177 206.833C394.025 207.774 394.676 208.875 395.092 210.072C395.508 211.268 395.681 212.536 395.6 213.8V213.8Z" stroke="#22272E" stroke-width="1.8" stroke-linecap="round" stroke-linejoin="round"/>
<path d="M411.024 219.723C412.414 214.95 410.833 210.293 407.492 209.32C404.152 208.347 400.317 211.427 398.927 216.199C397.537 220.971 399.118 225.629 402.458 226.602C405.799 227.575 409.634 224.495 411.024 219.723Z" stroke="#22272E" stroke-width="1.8" stroke-linecap="round" stroke-linejoin="round"/>
<path d="M399.1 215.9C399.1 215.9 399 213.9 395.5 215" stroke="#22272E" stroke-width="1.8" stroke-linecap="round" stroke-linejoin="round"/>
<path d="M377.5 209.5L365.9 207.4" stroke="#22272E" stroke-width="1.8" stroke-linecap="round" stroke-linejoin="round"/>
<path d="M366.9 210.1C366.9 210.1 366 204.8 361.7 204.7C357.4 204.6 354.8 217.8 365.5 219.6" fill="#F4C2C9"/>
<path d="M361 208.8C361.498 208.672 362.024 208.7 362.506 208.878C362.989 209.057 363.405 209.379 363.7 209.8C363.984 210.32 364.122 210.908 364.1 211.5C364.1 211.8 364 212 364 212.3C364 212.6 363.9 212.7 363.9 212.9C363.822 213.227 363.788 213.564 363.8 213.9C363.779 214.024 363.786 214.152 363.82 214.273C363.855 214.394 363.916 214.506 364 214.6C364.538 215.184 365.183 215.659 365.9 216C365.425 216.171 364.918 216.233 364.416 216.181C363.914 216.129 363.43 215.965 363 215.7C362.52 215.333 362.198 214.796 362.1 214.2C362.03 213.665 362.064 213.122 362.2 212.6C362.3 212.4 362.3 212.1 362.4 211.9C362.5 211.7 362.5 211.6 362.5 211.4C362.6 211.143 362.6 210.857 362.5 210.6C362.392 210.211 362.202 209.849 361.944 209.539C361.685 209.228 361.363 208.977 361 208.8V208.8Z" fill="#22272E"/>
<path d="M397.7 214.3C397.768 215.429 398.004 216.541 398.4 217.6C398.573 218.063 398.808 218.501 399.1 218.9C399.52 219.395 399.827 219.975 400 220.6C400.16 221.269 400.172 221.965 400.033 222.639C399.895 223.313 399.611 223.948 399.2 224.5C398.835 225.032 398.357 225.476 397.8 225.8C397.272 226.161 396.639 226.336 396 226.3C396.885 225.649 397.549 224.741 397.9 223.7C398.289 222.856 398.394 221.909 398.2 221C398.024 220.538 397.788 220.101 397.5 219.7C397.196 219.105 396.993 218.462 396.9 217.8C396.855 216.583 397.131 215.376 397.7 214.3V214.3Z" fill="#22272E"/>
<path d="M387.7 230.2C386.301 230.149 384.943 229.711 383.778 228.934C382.612 228.157 381.686 227.072 381.1 225.8" stroke="#22272E" stroke-width="1.8" stroke-linecap="round" stroke-linejoin="round"/>
<path d="M383.6 215.7C383.409 215.654 383.23 215.571 383.071 215.456C382.913 215.341 382.779 215.195 382.677 215.028C382.574 214.861 382.506 214.675 382.476 214.482C382.446 214.288 382.454 214.09 382.5 213.9L382.9 212.4C382.946 212.21 383.029 212.03 383.144 211.871C383.259 211.713 383.405 211.579 383.572 211.477C383.739 211.374 383.925 211.306 384.118 211.276C384.312 211.246 384.51 211.254 384.7 211.3C384.891 211.346 385.07 211.429 385.229 211.544C385.387 211.659 385.521 211.805 385.623 211.972C385.726 212.139 385.794 212.325 385.824 212.518C385.854 212.712 385.846 212.91 385.8 213.1L385.4 214.6C385.354 214.791 385.271 214.97 385.156 215.129C385.041 215.287 384.895 215.421 384.728 215.523C384.561 215.626 384.375 215.694 384.182 215.724C383.988 215.754 383.79 215.746 383.6 215.7V215.7Z" fill="#22272E"/>
<path d="M399.5 219.8C399.309 219.754 399.13 219.671 398.971 219.556C398.813 219.441 398.679 219.295 398.577 219.128C398.474 218.961 398.406 218.775 398.376 218.582C398.346 218.388 398.354 218.19 398.4 218L398.8 216.5C398.846 216.309 398.929 216.13 399.044 215.971C399.159 215.813 399.305 215.679 399.472 215.577C399.639 215.474 399.825 215.406 400.018 215.376C400.212 215.346 400.409 215.354 400.6 215.4V215.4C400.79 215.446 400.97 215.529 401.128 215.644C401.287 215.759 401.421 215.905 401.523 216.072C401.625 216.239 401.694 216.425 401.724 216.618C401.754 216.812 401.746 217.01 401.7 217.2L401.3 218.7C401.254 218.891 401.171 219.07 401.056 219.229C400.941 219.387 400.795 219.521 400.628 219.623C400.461 219.726 400.275 219.794 400.082 219.824C399.888 219.854 399.69 219.846 399.5 219.8V219.8Z" fill="#22272E"/>
<path d="M387.6 208.8C386.5 209 386 207.5 384.4 207.6C381.9 207.7 380.5 208.2 380.3 207.1C380.2 206.3 382.1 204.8 384.5 204.7C388 204.7 389.6 208.5 387.6 208.8Z" fill="#22272E"/>
<path d="M399.5 211.8C400.2 212.4 401.2 211.3 402.2 212C403.7 212.9 404.2 213.7 404.7 213C405.2 212.3 404.7 210.6 403.3 209.7C401 208.1 398 210.7 399.5 211.8Z" fill="#22272E"/>
<path d="M273.5 379C272.826 380.42 272.387 381.94 272.2 383.5C272.2 385.2 273.6 400.9 273.2 404C272.8 407.1 271.8 413.2 271.2 414.1C270.6 415 267 412.2 266.9 402.8C266.8 393.4 263.6 380.5 266.3 379C269 377.5 272.7 377.8 273.5 379Z" fill="#F4C2C9"/>
<path d="M208 425.4L232 387.6C232.266 387.182 232.612 386.822 233.019 386.54C233.426 386.258 233.885 386.06 234.369 385.957C234.853 385.855 235.353 385.85 235.839 385.943C236.325 386.036 236.788 386.226 237.2 386.5L293.7 422.4C294.118 422.666 294.478 423.012 294.76 423.419C295.042 423.826 295.24 424.285 295.343 424.769C295.445 425.253 295.45 425.753 295.357 426.239C295.264 426.725 295.074 427.188 294.8 427.6L270.8 465.4C270.534 465.818 270.188 466.178 269.781 466.46C269.375 466.742 268.916 466.94 268.431 467.043C267.947 467.145 267.447 467.15 266.961 467.057C266.475 466.964 266.012 466.774 265.6 466.5L209.1 430.6C208.275 430.047 207.699 429.195 207.494 428.223C207.288 427.252 207.47 426.239 208 425.4V425.4Z" fill="#22272E"/>
<path d="M274.3 454.3L286.3 435.5C286.425 435.298 286.597 435.13 286.801 435.01C287.006 434.891 287.237 434.823 287.473 434.813C287.71 434.803 287.946 434.851 288.16 434.954C288.374 435.056 288.559 435.209 288.7 435.4L290.6 437.9C290.787 438.14 290.897 438.431 290.915 438.734C290.933 439.038 290.858 439.34 290.7 439.6L279.9 456.6C279.756 456.856 279.528 457.055 279.256 457.164C278.983 457.273 278.681 457.286 278.4 457.2L275.3 456.6C275.067 456.538 274.851 456.424 274.668 456.267C274.485 456.11 274.34 455.913 274.244 455.692C274.148 455.471 274.103 455.23 274.113 454.989C274.122 454.748 274.186 454.513 274.3 454.3V454.3Z" fill="#6DAFA7"/>
<path d="M270.8 378C270.8 378 270.2 395.4 270.1 399.1C270 402.8 270.2 410.1 269.3 413.6C268.4 417.1 266.9 425.9 264.2 426.5C261.5 427.1 264.4 415.7 264.4 413.5C264.18 410.974 263.779 408.468 263.2 406C263.2 406 262.2 411.5 261.5 413.9C260.8 416.3 256.2 423.8 254.4 423.5C252.6 423.2 254.8 417.6 256.2 414.2C257.5 411.1 258 404.6 258 404.6C257.22 406.587 256.319 408.524 255.3 410.4C254.1 412.4 250 418.6 248.3 418.3C246.6 418 249.4 411.7 251.1 408.8C252.063 407.287 252.678 405.579 252.9 403.8C252.9 403.8 250.2 406.5 248.5 407.8C246.8 409.1 240.8 412 240.3 410.5C239.8 409 242.5 407.4 245 405.1C247.5 402.8 250.2 398.2 250.8 397.4C251.4 396.6 249.7 389.6 252.4 384.9C255.1 380.2 256.7 378.3 257.4 375.1C258.1 371.9 270.5 375.7 270.8 378Z" fill="#F4C2C9"/>
<path d="M333.3 242.8C333.3 242.8 321.9 241.7 308.2 258.9C294.5 276.1 281 290.5 277.2 297.3C273.4 304.1 265 329.6 260.8 349.7C256.6 369.8 256.2 373.4 256.3 375.6C256.4 377.6 266.5 380.4 273.1 380.3C273.68 380.312 274.25 380.145 274.732 379.824C275.215 379.502 275.587 379.04 275.8 378.5C278.4 372.4 287.5 351.6 291.1 344C295.3 335.1 300.2 321.9 300.8 321C301.4 320.1 328.7 292.3 333.8 285C338.9 277.7 343.8 265.9 342.7 255.5C341.5 244.2 335.7 242.7 333.3 242.8Z" fill="#6DAFA7"/>
<path d="M278.6 295C278.6 295 281.7 290.7 285.6 294.6C289.7 298.7 287.9 307.6 282.2 313.2C277.5 317.8 270.8 315.9 271.4 311.6" stroke="#22272E" stroke-width="1.8" stroke-linecap="round" stroke-linejoin="round"/>
<path d="M257.7 370.8C260.4 372.1 268.5 375.7 276.4 374.7" stroke="#22272E" stroke-width="1.8" stroke-linecap="round" stroke-linejoin="round"/>
<path d="M519.5 399.2L536.3 344.2C536.545 343.467 537.015 342.831 537.644 342.382C538.273 341.933 539.027 341.694 539.8 341.7L639.2 344.5C639.587 344.504 639.967 344.597 640.312 344.772C640.657 344.947 640.958 345.199 641.19 345.508C641.422 345.817 641.579 346.176 641.651 346.556C641.722 346.936 641.704 347.328 641.6 347.7L622.1 414.8C621.864 415.619 621.339 416.325 620.621 416.785C619.903 417.245 619.043 417.428 618.2 417.3L521.7 402.4C521.325 402.38 520.96 402.274 520.633 402.091C520.306 401.907 520.025 401.651 519.812 401.342C519.6 401.032 519.461 400.678 519.407 400.307C519.353 399.936 519.385 399.557 519.5 399.2V399.2Z" fill="#22272E"/>
<path d="M518.6 402L460.8 407.4L559.9 431.8C562.296 432.401 564.804 432.401 567.2 431.8L621 417.9L518.6 402Z" fill="#63737A"/>
<path d="M560 431.8L460.9 407.4C460.907 408.314 461.214 409.201 461.774 409.924C462.334 410.647 463.116 411.165 464 411.4L557.4 436.2C561.343 437.234 565.494 437.165 569.4 436L618.4 421.6C619.22 421.364 619.94 420.864 620.446 420.176C620.953 419.489 621.218 418.654 621.2 417.8L567.4 431.7C564.985 432.381 562.433 432.416 560 431.8V431.8Z" fill="#22272E"/>
<path d="M584.8 353.9L577.8 377.7C577.697 377.99 577.508 378.242 577.257 378.421C577.007 378.6 576.708 378.697 576.4 378.7L537.1 375.3C536.902 375.285 536.709 375.226 536.536 375.128C536.363 375.03 536.214 374.895 536.1 374.732C535.985 374.57 535.908 374.384 535.873 374.189C535.839 373.993 535.848 373.792 535.9 373.6L542.5 351.8C542.581 351.516 542.751 351.266 542.985 351.086C543.219 350.906 543.505 350.806 543.8 350.8L583.5 352.2C583.705 352.206 583.905 352.258 584.088 352.352C584.27 352.445 584.429 352.578 584.554 352.741C584.678 352.904 584.765 353.092 584.807 353.293C584.85 353.493 584.847 353.701 584.8 353.9V353.9Z" fill="white"/>
<path d="M577.3 358.2L572.9 372.5L542.3 370.3L543.4 367.1L554.7 362.1L561.1 367.1L577.3 358.2Z" fill="#F4C2C9"/>
<path d="M554.4 387.4L551.5 396.4C551.397 396.704 551.19 396.961 550.915 397.126C550.641 397.291 550.316 397.352 550 397.3L531.1 394.8C530.906 394.782 530.719 394.72 530.552 394.619C530.386 394.518 530.244 394.38 530.138 394.216C530.032 394.053 529.965 393.867 529.941 393.674C529.917 393.481 529.937 393.284 530 393.1L532.5 384.7C532.603 384.41 532.792 384.158 533.042 383.979C533.293 383.8 533.592 383.703 533.9 383.7L553.2 385.7C553.407 385.692 553.612 385.736 553.798 385.827C553.983 385.919 554.143 386.055 554.262 386.224C554.381 386.393 554.456 386.589 554.48 386.794C554.505 387 554.477 387.208 554.4 387.4V387.4Z" fill="#F8DA30"/>
<path d="M584 390.4L580.8 400.3C580.698 400.604 580.491 400.861 580.216 401.026C579.941 401.191 579.616 401.252 579.3 401.2L561.3 398.8C561.099 398.775 560.906 398.704 560.736 398.594C560.566 398.484 560.423 398.337 560.317 398.165C560.212 397.992 560.146 397.797 560.126 397.596C560.106 397.394 560.131 397.19 560.2 397L563.2 387.7C563.291 387.41 563.482 387.161 563.737 386.997C563.993 386.832 564.298 386.763 564.6 386.8L582.8 388.6C583.01 388.611 583.214 388.671 583.397 388.775C583.579 388.879 583.735 389.024 583.851 389.199C583.968 389.374 584.042 389.574 584.068 389.782C584.094 389.99 584.07 390.202 584 390.4V390.4Z" fill="#6DAFA7"/>
<path d="M618 393.8L614.6 404.8C614.497 405.104 614.29 405.361 614.015 405.526C613.74 405.691 613.416 405.752 613.1 405.7L591.4 402.8C591.199 402.775 591.006 402.704 590.836 402.594C590.666 402.484 590.522 402.337 590.417 402.165C590.311 401.992 590.246 401.797 590.226 401.596C590.205 401.394 590.231 401.19 590.3 401L593.6 390.7C593.691 390.41 593.881 390.161 594.137 389.997C594.393 389.832 594.698 389.763 595 389.8L616.7 392C616.915 392.004 617.126 392.059 617.317 392.159C617.508 392.258 617.672 392.401 617.799 392.576C617.925 392.75 618.008 392.952 618.043 393.164C618.078 393.377 618.063 393.594 618 393.8Z" fill="#F4C2C9"/>
<path d="M606.3 358.7C605.907 360.192 605.021 361.507 603.787 362.432C602.553 363.358 601.042 363.84 599.5 363.8C596.6 363.6 595.1 361.1 595.9 358.3C596.342 356.965 597.183 355.799 598.31 354.958C599.437 354.118 600.795 353.643 602.2 353.6C602.836 353.574 603.469 353.698 604.048 353.962C604.627 354.225 605.137 354.621 605.536 355.117C605.934 355.613 606.211 356.195 606.344 356.817C606.477 357.44 606.462 358.085 606.3 358.7V358.7Z" fill="#F8DA30"/>
<path d="M613.4 355.4L628 355.9" stroke="#63737A" stroke-width="1.8" stroke-linecap="round" stroke-linejoin="round"/>
<path d="M590.6 374.4L621.9 376.6" stroke="#63737A" stroke-width="1.8" stroke-linecap="round" stroke-linejoin="round"/>
<path d="M611.7 361.3L626.3 361.9" stroke="#63737A" stroke-width="1.8" stroke-linecap="round" stroke-linejoin="round"/>
<path d="M691.8 211.9L615.8 217.8C615.346 217.829 614.891 217.762 614.465 217.601C614.039 217.441 613.653 217.191 613.331 216.869C613.009 216.548 612.76 216.161 612.599 215.735C612.439 215.309 612.371 214.854 612.4 214.4L615.6 170.5C615.691 169.227 616.218 168.025 617.092 167.095C617.967 166.166 619.135 165.567 620.4 165.4L697.6 154.9C698.07 154.841 698.546 154.887 698.996 155.035C699.446 155.182 699.857 155.427 700.201 155.752C700.545 156.077 700.813 156.473 700.986 156.914C701.159 157.355 701.232 157.828 701.2 158.3L696.9 206.9C696.756 208.193 696.17 209.397 695.24 210.308C694.311 211.219 693.096 211.781 691.8 211.9V211.9Z" fill="#6DAFA7"/>
<path d="M689.3 210.3L613.3 216.2C612.846 216.229 612.391 216.162 611.965 216.001C611.539 215.841 611.153 215.591 610.831 215.269C610.509 214.948 610.26 214.561 610.099 214.135C609.939 213.709 609.871 213.254 609.9 212.8L613.1 168.9C613.191 167.627 613.718 166.425 614.592 165.495C615.467 164.566 616.635 163.967 617.9 163.8L695.1 153.3C695.57 153.242 696.046 153.287 696.496 153.435C696.946 153.582 697.357 153.827 697.701 154.152C698.045 154.477 698.313 154.874 698.486 155.314C698.659 155.755 698.732 156.228 698.7 156.7L694.4 205.3C694.29 206.606 693.715 207.83 692.779 208.747C691.843 209.665 690.608 210.216 689.3 210.3V210.3Z" fill="#B0D7C0"/>
<path d="M638.7 180.9C638.559 182.394 637.921 183.797 636.887 184.885C635.853 185.973 634.485 186.683 633 186.9C632.349 186.985 631.688 186.92 631.067 186.709C630.445 186.498 629.881 186.147 629.417 185.683C628.953 185.219 628.602 184.654 628.391 184.033C628.18 183.412 628.115 182.751 628.2 182.1C628.319 180.615 628.937 179.213 629.954 178.124C630.971 177.034 632.326 176.321 633.8 176.1C636.8 175.7 638.9 177.9 638.7 180.9Z" fill="#22272E"/>
<path d="M637.2 200L626.8 201C626.278 201.056 625.751 200.993 625.257 200.815C624.764 200.638 624.317 200.35 623.951 199.975C623.585 199.599 623.309 199.145 623.144 198.647C622.98 198.149 622.93 197.62 623 197.1V197.1C623.257 194.448 624.389 191.958 626.218 190.02C628.046 188.083 630.468 186.809 633.1 186.4V186.4C638.3 185.8 642.3 189.8 641.8 195.3C641.673 196.486 641.15 197.595 640.315 198.448C639.481 199.301 638.383 199.847 637.2 200V200Z" fill="#22272E"/>
<path d="M651 175.5L683.4 171.7" stroke="#63737A" stroke-width="1.8" stroke-linecap="round" stroke-linejoin="round"/>
<path d="M650.2 184.4L682.6 180.9" stroke="#63737A" stroke-width="1.8" stroke-linecap="round" stroke-linejoin="round"/>
<path d="M649.5 193.3L669 191.4" stroke="#63737A" stroke-width="1.8" stroke-linecap="round" stroke-linejoin="round"/>
<path d="M605.6 133.9C601.7 130 596.2 127.7 589.4 126.9C584.886 126.234 580.275 126.858 576.1 128.7C571.3 130.8 567.7 134.5 565 139.9L560.5 141.8L563.1 144.5L574.8 146.6C575.606 144.068 577.013 141.77 578.9 139.9C580.9 137.9 583.6 137.1 587 137.6C590.4 138.1 592.7 139.4 593.6 141.5C594.5 143.625 594.606 146.003 593.9 148.2C593.293 150.254 592.114 152.092 590.5 153.5C589.486 154.403 588.339 155.145 587.1 155.7L583.1 157.7C579.2 159.6 576.6 161.4 575.3 163.2C574.01 165.199 572.969 167.349 572.2 169.6L568.2 170.9L570.8 173.6L582.8 176.9C583.262 174.97 584.004 173.117 585 171.4C586.203 169.526 587.947 168.062 590 167.2L594.1 165.3C597.308 163.954 600.332 162.206 603.1 160.1C606.175 157.484 608.316 153.939 609.2 150C610.9 143.4 609.7 138 605.6 133.9Z" fill="#F8AB5D"/>
<path d="M575 180.8L574.6 180.7C573.733 180.477 572.83 180.43 571.944 180.562C571.059 180.694 570.209 181.003 569.444 181.469C568.68 181.935 568.017 182.549 567.494 183.276C566.971 184.003 566.599 184.827 566.4 185.7C565.836 187.466 565.967 189.38 566.766 191.052C567.565 192.724 568.972 194.029 570.7 194.7L571.1 194.9C574.7 196.1 578.5 193.9 579.6 189.9C580.7 185.9 578.6 181.8 575 180.8Z" fill="#F8AB5D"/>
<path d="M573.6 126C577.802 124.255 582.386 123.634 586.9 124.2C593.7 125 599.1 127.3 603.1 131.2C607.1 135.1 608.4 140.7 606.6 147.5C605.69 151.429 603.554 154.966 600.5 157.6C598.8 159.1 595.8 160.8 591.5 162.8L587.4 164.7C585.347 165.562 583.603 167.026 582.4 168.9C581.465 170.646 580.727 172.491 580.2 174.4L568.2 171.1C569.9 165.9 571.3 162.5 572.7 160.7C574.1 158.9 576.6 157.1 580.5 155.2L584.5 153.2C585.732 152.632 586.877 151.892 587.9 151C589.567 149.638 590.757 147.782 591.3 145.7C591.908 143.491 591.803 141.146 591 139C590.2 136.9 587.9 135.6 584.4 135.1C580.9 134.6 578.3 135.4 576.3 137.4C574.372 139.237 572.959 141.547 572.2 144.1L560.5 142C563.3 133.9 567.5 128.7 573.6 126ZM572.3 179.2L572.7 179.3C574.486 179.908 575.965 181.188 576.823 182.868C577.682 184.548 577.853 186.496 577.3 188.3V188.3C576.2 192.3 572.3 194.5 568.8 193.3L568.4 193.1C566.672 192.429 565.265 191.124 564.466 189.452C563.667 187.78 563.536 185.866 564.1 184.1V184.1C564.539 182.364 565.649 180.872 567.186 179.954C568.724 179.035 570.563 178.764 572.3 179.2V179.2Z" fill="#F8DA30"/>
<path d="M301.5 187.7H339.9L343.8 190.2C344.085 190.384 344.415 190.488 344.755 190.5C345.094 190.511 345.431 190.431 345.728 190.267C346.026 190.103 346.273 189.861 346.444 189.568C346.615 189.274 346.704 188.94 346.7 188.6V161.5C346.7 160.174 346.173 158.902 345.236 157.964C344.298 157.027 343.026 156.5 341.7 156.5H301.5C300.174 156.5 298.902 157.027 297.964 157.964C297.027 158.902 296.5 160.174 296.5 161.5V182.7C296.5 184.026 297.027 185.298 297.964 186.236C298.902 187.173 300.174 187.7 301.5 187.7V187.7Z" fill="#F4C2C9"/>
<path d="M334.3 165.4H308.7" stroke="#22272E" stroke-width="1.8" stroke-linecap="round" stroke-linejoin="round"/>
<path d="M334.3 172.4H308.7" stroke="#22272E" stroke-width="1.8" stroke-linecap="round" stroke-linejoin="round"/>
<path d="M334.3 179.4H319.6" stroke="#22272E" stroke-width="1.8" stroke-linecap="round" stroke-linejoin="round"/>
</svg>
