<svg width="823" height="548" viewBox="0 0 823 548" fill="none" xmlns="http://www.w3.org/2000/svg">
<path d="M115.2 439.72V498.52C115.2 504.4 116.647 508.927 119.54 512.1C122.433 515.273 126.68 516.86 132.28 516.86C137.88 516.86 142.173 515.273 145.16 512.1C148.147 508.927 149.64 504.4 149.64 498.52V439.72H173.58V498.38C173.58 507.153 171.713 514.573 167.98 520.64C164.247 526.707 159.207 531.28 152.86 534.36C146.607 537.44 139.607 538.98 131.86 538.98C124.113 538.98 117.16 537.487 111 534.5C104.933 531.42 100.127 526.847 96.58 520.78C93.0333 514.62 91.26 507.153 91.26 498.38V439.72H115.2ZM338.335 519.52H369.695V538H314.395V439.72H338.335V519.52ZM405.054 439.72V538H381.114V439.72H405.054ZM459.223 439.72C469.583 439.72 478.636 441.773 486.383 445.88C494.129 449.987 500.103 455.773 504.303 463.24C508.596 470.613 510.743 479.153 510.743 488.86C510.743 498.473 508.596 507.013 504.303 514.48C500.103 521.947 494.083 527.733 486.243 531.84C478.496 535.947 469.489 538 459.223 538H422.403V439.72H459.223ZM457.683 517.28C466.736 517.28 473.783 514.807 478.823 509.86C483.863 504.913 486.383 497.913 486.383 488.86C486.383 479.807 483.863 472.76 478.823 467.72C473.783 462.68 466.736 460.16 457.683 460.16H446.343V517.28H457.683ZM585.301 520.64H548.621L542.741 538H517.681L553.241 439.72H580.961L616.521 538H591.181L585.301 520.64ZM579.141 502.16L566.961 466.18L554.921 502.16H579.141ZM664.164 439.72C674.524 439.72 683.577 441.773 691.324 445.88C699.071 449.987 705.044 455.773 709.244 463.24C713.537 470.613 715.684 479.153 715.684 488.86C715.684 498.473 713.537 507.013 709.244 514.48C705.044 521.947 699.024 527.733 691.184 531.84C683.437 535.947 674.431 538 664.164 538H627.344V439.72H664.164ZM662.624 517.28C671.677 517.28 678.724 514.807 683.764 509.86C688.804 504.913 691.324 497.913 691.324 488.86C691.324 479.807 688.804 472.76 683.764 467.72C678.724 462.68 671.677 460.16 662.624 460.16H651.284V517.28H662.624ZM753.003 458.9V478.78H785.063V497.26H753.003V518.82H789.263V538H729.063V439.72H789.263V458.9H753.003Z" fill="black"/>
<path d="M261.091 439.72V458.9H235.051V538H211.111V458.9H185.071V439.72H261.091ZM297.046 439.72V538H273.106V439.72H297.046Z" fill="#F8DA30"/>
<g clip-path="url(#clip0_4_3)">
<path d="M267.911 361.907C267.913 357.512 266.611 353.215 264.171 349.56C261.73 345.904 258.261 343.055 254.201 341.372C250.141 339.688 245.673 339.247 241.362 340.103C237.051 340.959 233.091 343.075 229.982 346.182C226.874 349.289 224.757 353.248 223.898 357.559C223.04 361.869 223.48 366.338 225.161 370.398C226.843 374.459 229.691 377.93 233.345 380.372C236.999 382.814 241.296 384.117 245.691 384.117C248.616 384.147 251.518 383.592 254.226 382.487C256.935 381.381 259.396 379.746 261.465 377.678C263.534 375.61 265.169 373.15 266.276 370.442C267.383 367.734 267.939 364.833 267.911 361.907Z" fill="#6DAFA7"/>
<path d="M375.041 120.857C376.3 138.542 373.934 156.298 368.088 173.037C362.241 189.775 353.037 205.143 341.041 218.197C316.235 245.051 302.481 280.28 302.531 316.837V339.697C302.458 345.739 300.025 351.513 295.751 355.785C291.478 360.057 285.703 362.487 279.661 362.557H213.031C206.99 362.485 201.218 360.053 196.947 355.781C192.675 351.51 190.243 345.738 190.171 339.697V316.837C190.171 280.247 176.451 244.977 151.631 218.837C129.277 194.924 116.891 163.382 117.001 130.647C117.001 56.1874 180.371 -3.91264 255.531 1.31736C318.861 5.23736 370.471 56.8374 375.041 120.857Z" fill="#F8DA30"/>
<path d="M189.521 316.837H301.871" stroke="#22272E" stroke-width="11.76" stroke-linecap="round" stroke-linejoin="round"/>
<path d="M189.521 339.047H301.871" stroke="#22272E" stroke-width="11.76" stroke-linecap="round" stroke-linejoin="round"/>
<path d="M233.941 316.837V137.837C233.941 121.497 215.651 111.707 201.941 120.837C191.481 128.027 190.181 143.697 199.941 152.837L207.781 160.027" stroke="#22272E" stroke-width="11.76" stroke-linecap="round" stroke-linejoin="round"/>
<path d="M257.451 316.837V137.837C257.451 121.497 275.741 111.707 289.451 120.837C299.901 128.027 301.211 143.697 291.451 152.837L283.611 160.027" stroke="#22272E" stroke-width="11.76" stroke-linecap="round" stroke-linejoin="round"/>
</g>
<defs>
<clipPath id="clip0_4_3">
<rect width="491.3" height="384" fill="white"/>
</clipPath>
</defs>
</svg>
