<svg width="1024" height="768" viewBox="0 0 1024 768" fill="none" xmlns="http://www.w3.org/2000/svg">
<path d="M895.795 657.408H128.205L265.994 570.229H760.115L895.795 657.408Z" fill="#D0F0E4"/>
<path d="M568.3 231.212H430.203V145.657C430.203 139.864 434.586 135.168 439.993 135.168H558.51C563.917 135.168 568.3 139.864 568.3 145.657V231.212V231.212Z" fill="white" stroke="#66B0F0" stroke-width="6" stroke-miterlimit="10"/>
<path d="M557.875 225.638H441.201C438.129 225.638 435.63 222.961 435.63 219.67V146.337C435.63 143.045 438.129 140.368 441.201 140.368H557.875C560.947 140.368 563.446 143.045 563.446 146.337V219.692C563.446 222.983 560.947 225.638 557.875 225.638Z" fill="#66B0F0"/>
<path d="M592.507 251.29C597.791 254.976 596.562 262.195 590.316 262.195H402.186C396.923 262.195 395.121 254.581 400.282 251.092L592.507 251.29Z" fill="#66B0F0" stroke="#66B0F0" stroke-width="6" stroke-miterlimit="10"/>
<path d="M590.315 257.17H402.186C398.827 257.17 397.496 252.935 400.281 251.092L430.244 231.212H567.91L592.486 251.29C594.944 253.286 593.51 257.17 590.315 257.17Z" fill="white" stroke="#66B0F0" stroke-width="6" stroke-miterlimit="10"/>
<path d="M568.607 251.18H423.895C421.314 251.18 420.29 247.91 422.42 246.506L443.228 231.212H551.362L570.265 246.66C572.17 248.196 571.064 251.18 568.607 251.18Z" fill="white" stroke="#66B0F0" stroke-width="6" stroke-miterlimit="10"/>
<path d="M542.003 231.212L560.927 251.18" stroke="#66B0F0" stroke-width="6" stroke-miterlimit="10"/>
<path d="M531.968 231.212L548.639 251.18" stroke="#66B0F0" stroke-width="6" stroke-miterlimit="10"/>
<path d="M522.588 231.212L537.047 251.18" stroke="#66B0F0" stroke-width="6" stroke-miterlimit="10"/>
<path d="M512.103 231.212L524.329 251.18" stroke="#66B0F0" stroke-width="6" stroke-miterlimit="10"/>
<path d="M503.398 231.212L509.358 251.18" stroke="#66B0F0" stroke-width="6" stroke-miterlimit="10"/>
<path d="M452.014 231.212L433.09 251.18" stroke="#66B0F0" stroke-width="6" stroke-miterlimit="10"/>
<path d="M462.049 231.212L445.378 251.18" stroke="#66B0F0" stroke-width="6" stroke-miterlimit="10"/>
<path d="M471.429 231.212L456.97 251.18" stroke="#66B0F0" stroke-width="6" stroke-miterlimit="10"/>
<path d="M481.915 231.212L469.688 251.18" stroke="#66B0F0" stroke-width="6" stroke-miterlimit="10"/>
<path d="M490.619 231.212L484.659 251.18" stroke="#66B0F0" stroke-width="6" stroke-miterlimit="10"/>
<path d="M496.517 251.421V231.212" stroke="#66B0F0" stroke-width="6" stroke-miterlimit="10"/>
<path d="M433.09 238.672H560.517" stroke="#66B0F0" stroke-width="6" stroke-miterlimit="10"/>
<path d="M548.167 225.638H444.559L446.423 211.485C447.57 202.774 453.406 195.621 461.291 193.207L486.543 187.589H506.183L531.435 193.207C539.341 195.599 545.177 202.774 546.304 211.485L548.167 225.638Z" fill="#F8DA30"/>
<path d="M503.357 203.761L495.882 195.665C495.718 195.489 495.718 195.204 495.882 195.05C496.046 194.875 496.312 194.875 496.456 195.05L503.316 202.489L513.966 189.564C514.109 189.389 514.376 189.367 514.539 189.521C514.703 189.674 514.724 189.959 514.58 190.135L503.357 203.761Z" fill="white"/>
<path d="M489.472 203.761L478.249 190.135C478.106 189.959 478.106 189.674 478.29 189.521C478.454 189.367 478.72 189.367 478.863 189.564L489.513 202.489L496.374 195.05C496.538 194.875 496.783 194.875 496.947 195.05C497.111 195.226 497.111 195.489 496.947 195.665L489.472 203.761Z" fill="white"/>
<path d="M496.538 209.05C495.555 209.05 494.756 208.194 494.756 207.141C494.756 206.087 495.555 205.232 496.538 205.232C497.521 205.232 498.319 206.087 498.319 207.141C498.319 208.194 497.521 209.05 496.538 209.05ZM496.538 206.109C496.005 206.109 495.575 206.57 495.575 207.141C495.575 207.711 496.005 208.172 496.538 208.172C497.07 208.172 497.5 207.711 497.5 207.141C497.5 206.57 497.07 206.109 496.538 206.109Z" fill="white"/>
<path d="M496.538 219.802C495.555 219.802 494.756 218.946 494.756 217.893C494.756 216.839 495.555 215.984 496.538 215.984C497.521 215.984 498.319 216.839 498.319 217.893C498.319 218.946 497.521 219.802 496.538 219.802ZM496.538 216.861C496.005 216.861 495.575 217.322 495.575 217.893C495.575 218.463 496.005 218.924 496.538 218.924C497.07 218.924 497.5 218.463 497.5 217.893C497.5 217.322 497.07 216.861 496.538 216.861Z" fill="white"/>
<path d="M486.42 225.178H452.956L444.027 196.784L477.491 186.514L486.42 225.178Z" fill="white" stroke="#66B0F0" stroke-width="4" stroke-miterlimit="10"/>
<path d="M454.697 200.47H454.062C452.444 200.47 451.133 199.066 451.133 197.332V187.48C451.133 186.778 451.666 186.207 452.321 186.207H455.086C455.741 186.207 456.274 186.778 456.274 187.48V198.758C456.294 199.702 455.577 200.47 454.697 200.47Z" fill="white"/>
<path d="M454.697 200.47H454.062C452.444 200.47 451.133 199.066 451.133 197.332V187.48C451.133 186.778 451.666 186.207 452.321 186.207H455.086C455.741 186.207 456.274 186.778 456.274 187.48V198.758C456.294 199.702 455.577 200.47 454.697 200.47Z" stroke="#66B0F0" stroke-width="4" stroke-miterlimit="10" stroke-linecap="round"/>
<path d="M468.173 200.47H468.808C470.425 200.47 471.736 199.066 471.736 197.332V187.48C471.736 186.778 471.204 186.207 470.548 186.207H467.763C467.108 186.207 466.575 186.778 466.575 187.48V198.758C466.575 199.702 467.292 200.47 468.173 200.47Z" fill="white"/>
<path d="M459.837 201.611H458.363C457.216 201.611 456.294 200.624 456.294 199.395V187.502C456.294 186.8 456.827 186.229 457.482 186.229H460.247C460.902 186.229 461.435 186.8 461.435 187.502V199.899C461.435 200.843 460.718 201.611 459.837 201.611Z" fill="white"/>
<path d="M464.998 202.05H463.769C462.479 202.05 461.435 200.931 461.435 199.548V187.48C461.435 186.778 461.967 186.207 462.622 186.207H465.387C466.043 186.207 466.575 186.778 466.575 187.48V200.338C466.575 201.282 465.858 202.05 464.998 202.05Z" fill="white"/>
<path d="M468.173 200.47H468.808C470.425 200.47 471.736 199.066 471.736 197.332V187.48C471.736 186.778 471.204 186.207 470.548 186.207H467.763C467.108 186.207 466.575 186.778 466.575 187.48V198.758C466.575 199.702 467.292 200.47 468.173 200.47Z" stroke="#66B0F0" stroke-width="4" stroke-miterlimit="10" stroke-linecap="round"/>
<path d="M459.837 201.611H458.363C457.216 201.611 456.294 200.624 456.294 199.395V187.502C456.294 186.8 456.827 186.229 457.482 186.229H460.247C460.902 186.229 461.435 186.8 461.435 187.502V199.899C461.435 200.843 460.718 201.611 459.837 201.611Z" stroke="#66B0F0" stroke-width="4" stroke-miterlimit="10" stroke-linecap="round"/>
<path d="M464.998 202.05H463.769C462.479 202.05 461.435 200.931 461.435 199.548V187.48C461.435 186.778 461.967 186.207 462.622 186.207H465.387C466.043 186.207 466.575 186.778 466.575 187.48V200.338C466.575 201.282 465.858 202.05 464.998 202.05Z" stroke="#66B0F0" stroke-width="4" stroke-miterlimit="10" stroke-linecap="round"/>
<path d="M506.204 174.687V190.705C506.204 193.47 501.801 195.73 496.373 195.73C490.946 195.73 486.543 193.47 486.543 190.705V174.687H506.204Z" fill="white"/>
<path d="M506.204 174.687C506.204 186.778 498.974 190.376 492.032 189.74C492.011 189.74 491.991 189.74 491.97 189.74C488.898 189.433 486.563 186.624 486.563 183.333V174.709H506.204V174.687Z" fill="#66B0F0"/>
<path d="M510.771 170.562V171.374C510.771 173.173 509.419 174.621 507.74 174.621H506.183L506.204 174.994C506.204 180.173 502.292 184.364 497.459 184.364H495.309C490.475 184.364 486.564 180.173 486.564 174.994L486.584 174.621H485.028C483.348 174.621 481.997 173.173 481.997 171.374V170.562C481.997 168.762 483.348 167.314 485.028 167.314H487.014L487.239 163.343C487.239 162.728 487.321 162.136 487.485 161.587C493.343 163.145 500.203 159.108 502.046 157.901C504.094 158.735 505.549 160.841 505.549 163.321L505.774 167.292H507.76C509.419 167.314 510.771 168.762 510.771 170.562Z" fill="white"/>
<path d="M507.883 167.314H505.753L505.528 163.343C505.528 160.863 504.074 158.757 502.026 157.923C500.183 159.108 493.322 163.145 487.465 161.609C487.301 162.158 487.219 162.75 487.219 163.365L486.993 167.336H485.662C485.662 167.336 482.938 153.205 485.621 150.616C487.608 148.707 505.794 152.876 507.801 155.838C508.928 157.528 507.883 167.314 507.883 167.314Z" fill="#E57281"/>
<path d="M502.763 166.459C502.702 166.459 502.62 166.437 502.558 166.371C502.538 166.349 501.207 165.186 499.077 165.186C498.913 165.186 498.77 165.032 498.77 164.857C498.77 164.681 498.913 164.528 499.077 164.528C501.432 164.528 502.886 165.8 502.947 165.866C503.07 165.976 503.091 166.195 502.988 166.327C502.947 166.415 502.845 166.459 502.763 166.459Z" fill="#66B0F0"/>
<path d="M494.981 173.261C494.94 173.261 494.899 173.261 494.879 173.239C494.715 173.173 494.633 172.976 494.694 172.822C495.268 171.198 495.124 169.158 494.326 167.358C493.855 166.261 493.179 165.471 492.585 165.252C491.274 164.769 489.431 165.449 489.41 165.449C489.247 165.515 489.083 165.427 489.021 165.252C488.96 165.076 489.042 164.901 489.206 164.835C489.288 164.813 491.254 164.089 492.769 164.637C493.527 164.923 494.305 165.822 494.858 167.095C495.718 169.048 495.862 171.286 495.247 173.085C495.227 173.173 495.104 173.261 494.981 173.261Z" fill="#66B0F0"/>
<path d="M499.015 176.75C499.036 176.925 498.892 177.079 498.729 177.101H498.708C498.544 177.101 498.421 176.969 498.401 176.794C498.381 176.574 498.34 176.355 498.278 176.157C497.397 176.618 496.599 176.772 495.943 176.772C494.653 176.772 493.875 176.201 493.834 176.157C493.691 176.048 493.67 175.85 493.752 175.696C493.854 175.543 494.039 175.521 494.182 175.609C494.223 175.631 494.878 176.113 495.943 176.113C496.517 176.113 497.213 175.982 498.012 175.565C497.889 175.345 497.766 175.214 497.766 175.214C497.643 175.082 497.664 174.863 497.787 174.753C497.909 174.643 498.114 174.643 498.217 174.775C498.258 174.841 498.954 175.675 499.015 176.75Z" fill="#66B0F0"/>
<path d="M500.121 170.479C500.404 170.46 500.604 169.954 500.569 169.35C500.533 168.745 500.276 168.27 499.994 168.289C499.712 168.308 499.511 168.813 499.547 169.418C499.582 170.023 499.839 170.498 500.121 170.479Z" fill="#66B0F0"/>
<path d="M491.76 170.391C492.02 170.374 492.204 169.909 492.172 169.352C492.139 168.796 491.903 168.359 491.643 168.376C491.383 168.393 491.199 168.859 491.231 169.415C491.264 169.971 491.501 170.408 491.76 170.391Z" fill="#66B0F0"/>
<path d="M486.031 171.615C485.867 171.615 485.724 171.461 485.724 171.286C485.724 170.32 484.987 169.552 484.106 169.552C483.942 169.552 483.799 169.399 483.799 169.223C483.799 169.048 483.942 168.894 484.106 168.894C485.335 168.894 486.338 169.969 486.338 171.286C486.338 171.483 486.195 171.615 486.031 171.615Z" fill="#66B0F0"/>
<path d="M506.634 171.615C506.47 171.615 506.327 171.461 506.327 171.286C506.327 169.969 507.33 168.894 508.559 168.894C508.723 168.894 508.866 169.048 508.866 169.223C508.866 169.399 508.723 169.552 508.559 169.552C507.658 169.552 506.941 170.342 506.941 171.286C506.941 171.483 506.818 171.615 506.634 171.615Z" fill="#66B0F0"/>
<path d="M877.363 657.408L789.647 346.653C787.906 340.465 782.561 336.23 776.519 336.23H244.142C238.039 336.23 232.673 340.553 230.973 346.851L147.271 657.408" stroke="#66B0F0" stroke-width="6" stroke-miterlimit="10"/>
<path d="M389.98 231.212H622.838" stroke="#66B0F0" stroke-width="6" stroke-miterlimit="10"/>
<path d="M470.794 278.433H525.804V329.055H470.794C470.794 329.055 470.794 276.524 470.794 278.433Z" fill="#F8DA30"/>
<path d="M676.496 513.638L650.916 445.396H692.101L676.496 513.638Z" fill="#9A3B82"/>
<path d="M606.311 354.311C611.799 343.186 622.592 336.23 634.327 336.23H666.01L687.534 354.311H606.311Z" fill="#9A3B82"/>
<path d="M726.426 434.205H646.615L676.659 512.344C674.57 508.701 662.057 512.497 648.807 521.209C635.72 529.81 626.872 540.167 628.675 543.941L563.917 423.212C547.123 392.755 567.603 354.311 600.617 354.311H779.469L779.858 355.628C791.532 394.467 764.498 434.205 726.426 434.205Z" fill="#3FB1B5"/>
<path d="M782.562 376.715C782.275 383.846 780.8 390.736 778.302 397.122L684.503 354.333H777.605L779.776 361.136C781.292 365.217 782.132 370.944 782.562 376.715Z" fill="#E6E6E6"/>
<path d="M676.68 512.344C678.769 515.986 669.635 525.926 656.405 534.638C643.154 543.349 630.846 547.716 628.757 544.073C626.668 540.431 635.577 530.139 648.827 521.428C662.057 512.717 674.57 508.701 676.68 512.344Z" fill="#66B0F0"/>
<path d="M647.291 521.472L589.046 411.143C584.479 402.41 590.357 391.614 599.716 391.614H713.155C728.433 391.614 739.84 376.539 736.686 360.521" stroke="white" stroke-width="6" stroke-miterlimit="10" stroke-linecap="round"/>
<path d="M628.081 544.315C625.992 540.672 635.024 529.086 648.827 520.463C664.331 510.786 674.366 507.911 677.356 513.046" stroke="white" stroke-width="6" stroke-miterlimit="10" stroke-linecap="round"/>
<path d="M677.807 513.529L639.755 416.322" stroke="white" stroke-width="6" stroke-miterlimit="10" stroke-linecap="round"/>
<path d="M598.385 353.587H691.221" stroke="white" stroke-width="6" stroke-miterlimit="10"/>
<path d="M650.896 549.098L645.366 541.023L637.748 529.92C640.861 527.111 644.608 524.193 648.807 521.428C657.163 515.942 665.211 512.3 670.557 511.291L674.263 519.212L678.892 529.086C675.615 541.572 650.896 549.098 650.896 549.098Z" fill="#E57281"/>
<path d="M674.284 519.212C670.843 523.71 664.372 529.393 656.405 534.638C652.575 537.161 648.827 539.312 645.387 541.023L637.768 529.92C640.881 527.111 644.629 524.193 648.827 521.428C657.183 515.942 665.232 512.3 670.577 511.291L674.284 519.212Z" fill="#9A3B82"/>
<path d="M704.205 572.599L648.008 615.848C643.236 619.403 635.822 622.365 636.805 609.507C638.178 591.777 641.844 565.402 650.896 549.076C651.285 548.966 675.615 541.44 678.892 529.064L704.512 548.571C711.885 554.715 711.721 566.696 704.205 572.599Z" fill="white" stroke="#F8DA30" stroke-width="6" stroke-miterlimit="10"/>
<path d="M648.295 554.803C652.76 555.703 677.827 546.18 681.718 531.5" stroke="#F8DA30" stroke-width="6" stroke-miterlimit="10" stroke-linecap="round"/>
<path d="M642.253 611.394C642.253 611.394 678.933 556.8 705.025 559.872C733.43 563.185 619.029 643.233 642.253 611.394Z" fill="#F8DA30"/>
<path d="M641.209 618.832C638.362 619.03 635.352 615.475 639.509 609.77C639.509 609.77 677.684 553.157 704.861 556.361C709.059 556.844 710.472 560.508 709.489 563.668" stroke="#F8DA30" stroke-width="6" stroke-miterlimit="10" stroke-linecap="round"/>
<path d="M782.767 381.169C769.782 377.878 737.465 369.211 700.601 360.082C683.275 355.803 668.775 343.164 661.3 325.873L627.733 248.064L648.049 213.57C654.295 202.95 664.945 196.191 676.639 195.423L696.628 194.107C716.78 192.79 732.959 206.263 739.103 226.867L779.756 354.311C784.221 366.248 782.767 381.169 782.767 381.169Z" fill="white" stroke="#FE5244" stroke-width="6" stroke-miterlimit="10"/>
<path d="M645.407 252.431C645.407 252.431 656.098 270.424 680.449 274.395" stroke="#FE5244" stroke-width="6" stroke-miterlimit="10"/>
<path d="M659.825 219.692C658.719 218.419 656.774 218.77 656.098 220.328C655.34 222.084 656.712 224.037 658.494 223.751C660.317 223.466 661.074 221.118 659.825 219.692Z" fill="#F8DA30" stroke="#FE5244" stroke-width="6" stroke-miterlimit="10" stroke-linejoin="round"/>
<path d="M710.841 257.192C709.735 255.92 707.789 256.271 707.113 257.829C706.356 259.584 707.728 261.537 709.51 261.252C711.332 260.966 712.09 258.619 710.841 257.192Z" fill="#F8DA30" stroke="#FE5244" stroke-width="6" stroke-miterlimit="10" stroke-linejoin="round"/>
<path d="M727 272.552C725.894 271.28 723.948 271.631 723.272 273.189C722.514 274.944 723.887 276.897 725.668 276.612C727.471 276.348 728.228 274.001 727 272.552Z" fill="#F8DA30" stroke="#FE5244" stroke-width="6" stroke-miterlimit="10" stroke-linejoin="round"/>
<path d="M757.986 359.468C756.88 358.195 754.934 358.546 754.259 360.104C753.501 361.86 754.873 363.813 756.655 363.527C758.457 363.242 759.215 360.916 757.986 359.468Z" fill="#F8DA30" stroke="#FE5244" stroke-width="6" stroke-miterlimit="10" stroke-linejoin="round"/>
<path d="M740.639 317.93C739.533 316.657 737.588 317.009 736.912 318.566C736.154 320.322 737.526 322.275 739.308 321.99C741.131 321.704 741.888 319.356 740.639 317.93Z" fill="#F8DA30" stroke="#FE5244" stroke-width="6" stroke-miterlimit="10" stroke-linejoin="round"/>
<path d="M747.827 288.044C746.23 288.263 745.349 290.172 746.148 291.665C747.049 293.354 749.322 293.288 750.142 291.555C750.981 289.799 749.63 287.781 747.827 288.044Z" fill="#F8DA30" stroke="#FE5244" stroke-width="6" stroke-miterlimit="10" stroke-linejoin="round"/>
<path d="M760.914 332.369C759.317 332.588 758.436 334.497 759.235 335.989C760.136 337.679 762.409 337.613 763.229 335.879C764.068 334.124 762.737 332.105 760.914 332.369Z" fill="#F8DA30" stroke="#FE5244" stroke-width="6" stroke-miterlimit="10" stroke-linejoin="round"/>
<path d="M706.642 284.555C705.536 283.282 703.591 283.633 702.915 285.191C702.157 286.947 703.529 288.9 705.311 288.614C707.113 288.329 707.871 286.003 706.642 284.555Z" fill="#F8DA30" stroke="#FE5244" stroke-width="6" stroke-miterlimit="10" stroke-linejoin="round"/>
<path d="M695.358 309.416C694.252 308.144 692.306 308.495 691.631 310.053C690.873 311.808 692.245 313.761 694.027 313.476C695.849 313.19 696.607 310.843 695.358 309.416Z" fill="#F8DA30" stroke="#FE5244" stroke-width="6" stroke-miterlimit="10" stroke-linejoin="round"/>
<path d="M675.164 300.727C676.352 299.542 676.025 297.457 674.571 296.733C672.932 295.921 671.109 297.392 671.376 299.301C671.642 301.232 673.813 302.043 675.164 300.727Z" fill="#F8DA30" stroke="#FE5244" stroke-width="6" stroke-miterlimit="10" stroke-linejoin="round"/>
<path d="M693.084 343.515C694.272 342.331 693.945 340.246 692.491 339.522C690.852 338.71 689.029 340.18 689.296 342.089C689.562 344.042 691.753 344.854 693.084 343.515Z" fill="#F8DA30" stroke="#FE5244" stroke-width="6" stroke-miterlimit="10" stroke-linejoin="round"/>
<path d="M723.251 306.805C724.439 305.62 724.112 303.536 722.657 302.812C721.019 302 719.196 303.47 719.463 305.379C719.729 307.31 721.92 308.144 723.251 306.805Z" fill="#F8DA30" stroke="#FE5244" stroke-width="6" stroke-miterlimit="10" stroke-linejoin="round"/>
<path d="M733.553 352.753C734.741 351.568 734.413 349.484 732.959 348.76C731.321 347.948 729.498 349.418 729.764 351.327C730.01 353.28 732.201 354.092 733.553 352.753Z" fill="#F8DA30" stroke="#FE5244" stroke-width="6" stroke-miterlimit="10" stroke-linejoin="round"/>
<path d="M671.785 259.694C670.679 258.421 668.734 258.772 668.058 260.33C667.3 262.086 668.672 264.038 670.454 263.753C672.277 263.468 673.034 261.12 671.785 259.694Z" fill="#F8DA30" stroke="#FE5244" stroke-width="6" stroke-miterlimit="10" stroke-linejoin="round"/>
<path d="M675.451 202.774C674.345 201.501 672.4 201.852 671.724 203.41C670.966 205.166 672.338 207.119 674.12 206.833C675.943 206.548 676.701 204.2 675.451 202.774Z" fill="#F8DA30" stroke="#FE5244" stroke-width="6" stroke-miterlimit="10" stroke-linejoin="round"/>
<path d="M710.841 202.774C709.735 201.501 707.789 201.852 707.113 203.41C706.356 205.166 707.728 207.119 709.51 206.833C711.332 206.548 712.09 204.2 710.841 202.774Z" fill="#F8DA30" stroke="#FE5244" stroke-width="6" stroke-miterlimit="10" stroke-linejoin="round"/>
<path d="M710.902 227.35C709.407 227.986 708.977 230.049 710.103 231.3C711.353 232.682 713.544 232.046 713.953 230.159C714.363 228.25 712.602 226.626 710.902 227.35Z" fill="#F8DA30" stroke="#FE5244" stroke-width="6" stroke-miterlimit="10" stroke-linejoin="round"/>
<path d="M690.791 213.35C689.234 213.833 688.64 215.83 689.623 217.19C690.75 218.705 692.982 218.288 693.555 216.466C694.149 214.601 692.531 212.802 690.791 213.35Z" fill="#F8DA30" stroke="#FE5244" stroke-width="6" stroke-miterlimit="10" stroke-linejoin="round"/>
<path d="M687.821 274.132C686.224 274.33 685.323 276.217 686.101 277.731C686.982 279.42 689.255 279.398 690.095 277.687C690.955 275.953 689.644 273.913 687.821 274.132Z" fill="#F8DA30" stroke="#FE5244" stroke-width="6" stroke-miterlimit="10" stroke-linejoin="round"/>
<path d="M670.27 319.839C668.672 320.037 667.771 321.924 668.549 323.438C669.43 325.127 671.703 325.105 672.543 323.394C673.403 321.66 672.092 319.62 670.27 319.839Z" fill="#F8DA30" stroke="#FE5244" stroke-width="6" stroke-miterlimit="10" stroke-linejoin="round"/>
<path d="M676.168 231.475C674.612 231.958 674.018 233.955 675.001 235.315C676.127 236.829 678.359 236.412 678.933 234.591C679.527 232.748 677.929 230.949 676.168 231.475Z" fill="#F8DA30" stroke="#FE5244" stroke-width="6" stroke-miterlimit="10" stroke-linejoin="round"/>
<path d="M693.126 243.763C691.569 244.246 690.975 246.243 691.958 247.603C693.085 249.117 695.317 248.7 695.89 246.879C696.484 245.014 694.887 243.215 693.126 243.763Z" fill="#F8DA30" stroke="#FE5244" stroke-width="6" stroke-miterlimit="10" stroke-linejoin="round"/>
<path d="M656.405 243.237C657.429 241.898 656.876 239.879 655.319 239.375C653.599 238.804 651.961 240.516 652.473 242.359C652.985 244.246 655.238 244.751 656.405 243.237Z" fill="#F8DA30" stroke="#FE5244" stroke-width="6" stroke-miterlimit="10" stroke-linejoin="round"/>
<path d="M734.044 243.302C735.068 241.964 734.516 239.945 732.959 239.44C731.239 238.87 729.6 240.581 730.112 242.425C730.604 244.312 732.877 244.816 734.044 243.302Z" fill="#F8DA30" stroke="#FE5244" stroke-width="6" stroke-miterlimit="10" stroke-linejoin="round"/>
<path d="M714.343 332.259C715.367 330.92 714.814 328.902 713.257 328.397C711.537 327.826 709.899 329.538 710.411 331.381C710.902 333.246 713.175 333.751 714.343 332.259Z" fill="#F8DA30" stroke="#FE5244" stroke-width="6" stroke-miterlimit="10" stroke-linejoin="round"/>
<path d="M698 193.382C697.549 193.404 697.099 193.426 696.628 193.448L676.639 194.765C671.54 195.094 666.665 196.564 662.242 199L656.098 179.295L683.479 157.791L698 193.382Z" fill="#E57281"/>
<path d="M662.16 198.693C667.853 195.928 672.4 191.013 674.98 184.912L684.933 161.324L683.479 157.769L656.098 179.273L662.16 198.693Z" fill="#9A3B82"/>
<path d="M685.24 159.766C685.24 161.807 684.462 163.65 683.213 164.988C681.964 166.327 680.243 167.161 678.339 167.161H672.318C669.942 177.057 660.746 183.837 650.855 181.972L646.328 181.116C641.372 180.173 637.993 175.214 638.689 169.882L643.994 141.422C644.915 135.344 650.752 131.635 656.179 133.72L664.965 137.494C669.717 139.249 672.912 144.033 672.912 149.409V152.152L678.339 152.371C682.148 152.371 685.24 155.685 685.24 159.766Z" fill="#E57281"/>
<path d="M675.042 161.192C675.042 158.362 677.171 156.08 679.813 156.08" stroke="#9A3B82" stroke-width="5" stroke-miterlimit="10" stroke-linecap="round"/>
<path d="M646.943 147.412C646.943 147.412 651.244 147.412 654.316 151.823" stroke="#9A3B82" stroke-width="5" stroke-miterlimit="10" stroke-linecap="round"/>
<path d="M649.801 155.625C650.018 154.349 649.742 153.227 649.186 153.119C648.629 153.01 648.003 153.957 647.786 155.232C647.57 156.508 647.846 157.63 648.402 157.739C648.958 157.847 649.585 156.901 649.801 155.625Z" fill="#9A3B82"/>
<path d="M678.339 152.371C682.148 152.371 685.241 155.685 685.241 159.766C685.241 159.788 685.241 159.832 685.241 159.876C688.313 154.807 695.849 141.904 695.849 137.538C695.849 131.679 689.029 125.82 681.964 128.497C682.435 128.124 682.926 127.729 683.438 127.312C686.162 125.03 687.596 123.319 687.821 122.09C687.903 121.651 687.842 121.256 687.637 120.949C686.818 119.698 685.916 119.15 684.954 119.325C683.541 119.567 682.087 121.432 680.633 124.855C679.977 126.413 679.465 127.949 679.179 128.892C678.605 125.228 675.84 113.093 663.962 114.959C659.866 115.595 657.941 117.416 657.408 119.413C654.009 116.56 649.462 114.322 645.694 116.451C639.181 120.115 639.98 126.128 643.748 130.384C640.185 130.319 637.686 131.438 637.686 134.663C637.686 137.626 640.533 139.052 644.444 139.622C648.356 140.193 653.374 139.886 657.715 139.359C660.808 138.986 663.593 138.525 665.375 138.196C664.187 140.807 663.716 143.045 663.819 144.933C664.003 148.838 666.645 151.142 670.372 151.954C671.171 152.13 672.031 152.24 672.912 152.283L678.339 152.371ZM685.077 120.203C685.138 120.181 685.2 120.181 685.282 120.181C685.855 120.181 686.408 120.62 686.961 121.454C687.002 121.541 687.063 121.673 687.022 121.914C686.695 123.692 682.496 127.071 680.059 128.848C681.022 125.82 683.049 120.576 685.077 120.203Z" fill="#F8DA30"/>
<path d="M661.996 126.698C660.583 126.698 659.149 125.886 658.105 124.46C656.937 122.88 656.548 120.927 657.04 119.237C657.101 119.018 657.306 118.886 657.511 118.93C657.593 118.93 657.674 118.952 657.736 119.018C660.828 121.388 663.306 124.767 662.938 126.106C662.856 126.457 662.59 126.676 662.242 126.698C662.16 126.698 662.078 126.698 661.996 126.698ZM657.695 120.071C657.511 121.344 657.879 122.748 658.739 123.911C659.661 125.162 660.931 125.886 662.16 125.798C662.201 125.228 660.828 122.617 657.695 120.071Z" fill="white"/>
<path d="M621.568 320.453H490.496C487.261 320.453 485.315 316.635 487.035 313.717L504.484 284.357C506.758 280.539 510.669 278.235 514.888 278.235H603.607L621.568 320.453Z" fill="#E57281"/>
<path d="M517.776 278.257L528.221 259.825C528.835 258.728 529.961 258.048 531.149 258.048C533.832 258.048 535.471 261.186 534.078 263.643L525.784 278.257H517.776Z" fill="#FE5244"/>
<path d="M621.569 320.453H592.098C592.036 320.388 591.954 320.3 591.893 320.234C584.725 312.335 581.673 300.354 585.708 288.812L589.906 278.235H603.608L621.569 320.453Z" fill="#9A3B82"/>
<path d="M509.01 300.749H492.585C491.479 300.749 490.455 301.385 489.902 302.416L488.161 305.664C486.994 307.858 488.469 310.601 490.844 310.601H504.054C506.348 310.601 508.478 309.328 509.686 307.222L511.099 304.742C512.082 302.987 510.915 300.749 509.01 300.749Z" fill="#E57281"/>
<path d="M504.771 310.601H488.346C487.24 310.601 486.216 311.237 485.663 312.269L483.922 315.516C482.755 317.711 484.229 320.453 486.605 320.453H499.815C502.108 320.453 504.238 319.181 505.447 317.074L506.86 314.595C507.863 312.839 506.675 310.601 504.771 310.601Z" fill="#E57281"/>
<path d="M513.7 290.765H497.275C496.169 290.765 495.145 291.401 494.592 292.432L492.851 295.68C491.684 297.874 493.159 300.617 495.534 300.617H508.744C511.038 300.617 513.168 299.344 514.376 297.238L515.789 294.758C516.793 293.003 515.605 290.765 513.7 290.765Z" fill="#E57281"/>
<path d="M509.01 300.749H492.585C491.479 300.749 490.455 301.385 489.902 302.416L488.161 305.664C486.994 307.858 488.469 310.601 490.844 310.601H504.054C506.348 310.601 508.478 309.328 509.686 307.222L511.099 304.742C512.082 302.987 510.915 300.749 509.01 300.749Z" stroke="#9A3B82" stroke-width="5" stroke-miterlimit="10" stroke-linecap="round"/>
<path d="M504.771 310.601H488.346C487.24 310.601 486.216 311.237 485.663 312.269L483.922 315.516C482.755 317.711 484.229 320.453 486.605 320.453H499.815C502.108 320.453 504.238 319.181 505.447 317.074L506.86 314.595C507.863 312.839 506.675 310.601 504.771 310.601Z" stroke="#9A3B82" stroke-width="5" stroke-miterlimit="10" stroke-linecap="round"/>
<path d="M513.7 290.765H497.275C496.169 290.765 495.145 291.401 494.592 292.432L492.851 295.68C491.684 297.874 493.159 300.617 495.534 300.617H508.744C511.038 300.617 513.168 299.344 514.376 297.238L515.789 294.758C516.793 293.003 515.605 290.765 513.7 290.765Z" stroke="#9A3B82" stroke-width="5" stroke-miterlimit="10" stroke-linecap="round"/>
<path d="M537.477 305.445C532.542 305.445 527.79 303.535 524.063 300.047L517.837 294.21H512.103L510.628 295.899C507.986 298.927 504.73 300.661 500.859 300.661H498.115C496.681 300.661 495.8 298.949 496.579 297.655L503.48 286.069H537.498V305.445H537.477Z" fill="#E57281"/>
<path d="M503.48 286.069L496.579 297.655C495.8 298.949 496.681 300.661 498.115 300.661H500.859C504.73 300.661 507.986 298.949 510.628 295.899L512.103 294.21H517.837L524.063 300.047C527.77 303.514 532.542 305.445 537.477 305.445" stroke="#9A3B82" stroke-width="5" stroke-miterlimit="10" stroke-linecap="round"/>
<path d="M675.758 279.42L644.485 316.855C637.911 324.732 628.511 329.231 618.64 329.231C599.143 329.231 585.646 308.385 592.487 288.812L629.637 195.291L617.083 187.765C615.301 186.273 614.441 183.837 614.83 181.467L616.96 166.085C617.616 162.662 620.872 159.985 624.046 159.195L638.751 155.641C640 155.333 641.147 156.475 640.942 157.813L638.812 169.684C637.973 175.477 641.618 180.48 647.025 181.467C651.449 182.279 654.562 187.041 654.152 191.824L644.137 258.75C644.117 258.794 654.377 275.931 675.758 279.42Z" fill="#E57281"/>
<path d="M651.776 207.733L639.693 291.796" stroke="#9A3B82" stroke-width="5" stroke-miterlimit="10" stroke-linecap="round"/>
<path d="M626.729 167.205L626.566 172.646C626.504 174.885 627.754 176.859 629.556 177.408L648.377 181.489" stroke="#9A3B82" stroke-width="5" stroke-miterlimit="10" stroke-linecap="round"/>
<path d="M661.177 183.245L646.124 181.094C641.168 180.151 637.788 175.192 638.485 169.86L640.43 157.945C640.615 156.826 639.673 155.882 638.649 156.145L623.289 159.985" stroke="#9A3B82" stroke-width="5" stroke-miterlimit="10" stroke-linecap="round"/>
<path d="M652.862 306.761L693.576 258.224" stroke="#FE5244" stroke-width="6" stroke-miterlimit="10"/>
<path d="M630.067 195.313H637.256" stroke="#9A3B82" stroke-width="5" stroke-miterlimit="10" stroke-linecap="round"/>
<path d="M626.75 168.653V170.408C626.75 172.493 628.163 174.204 629.903 174.204H632.156C633.139 174.204 633.918 173.261 633.918 172.076L634.061 160.622C634.081 158.844 632.32 157.747 630.886 158.12" stroke="#9A3B82" stroke-width="5" stroke-miterlimit="10" stroke-linecap="round"/>
<path d="M634.061 168.653V170.408C634.061 172.493 635.474 174.204 637.215 174.204H638.649" stroke="#9A3B82" stroke-width="5" stroke-miterlimit="10" stroke-linecap="round"/>
<path d="M770.068 445.396L793.846 657.408" stroke="#66B0F0" stroke-width="6" stroke-miterlimit="10"/>
<path d="M667.013 445.396L643.236 657.408" stroke="#66B0F0" stroke-width="6" stroke-miterlimit="10"/>
<path d="M651.387 584.602H785.674" stroke="#66B0F0" stroke-width="6" stroke-miterlimit="10"/>
<path d="M653.312 446.054H782.541C784.261 446.054 785.654 444.562 785.654 442.719V438.199C785.654 436.356 784.261 434.864 782.541 434.864H653.312C651.592 434.864 650.199 436.356 650.199 438.199V442.719C650.199 444.562 651.592 446.054 653.312 446.054Z" fill="white" stroke="#F8DA30" stroke-width="6" stroke-miterlimit="10"/>
<path d="M438.272 285.608L418.489 329.231H358.708L382.731 285.608H438.272Z" fill="white" stroke="#3FB1B5" stroke-width="5" stroke-miterlimit="10"/>
<path d="M425.165 296.251C425.165 296.251 422.564 291.489 416.318 292.718C411.648 293.617 406.119 297.743 402.719 295.526C399.319 293.31 396.309 290.545 391.906 291.862C387.502 293.179 384.246 295.702 384.246 295.702" stroke="#3FB1B5" stroke-width="5" stroke-miterlimit="10"/>
<path d="M423.117 303.053C423.117 303.053 420.516 298.291 414.27 299.52C409.601 300.42 404.071 304.545 400.671 302.329C397.272 300.112 394.261 297.348 389.858 298.664C385.455 299.981 382.198 302.504 382.198 302.504" stroke="#3FB1B5" stroke-width="5" stroke-miterlimit="10"/>
<path d="M460.759 481.382C460.759 487.241 445.584 491.981 426.578 491.981C407.573 491.981 392.848 487.241 392.848 481.382C392.848 475.524 407.573 470.784 426.578 470.784C445.584 470.784 460.759 475.546 460.759 481.382Z" fill="#FE5244"/>
<path d="M452.014 474.251V549.954L449.864 539.026C447.55 527.265 437.863 518.861 426.64 518.861C423.26 518.861 419.943 519.629 416.932 521.077C416.83 521.121 416.727 521.187 416.604 521.231L408.72 490.423L404.337 473.286C410.338 471.728 418.099 470.784 426.578 470.784C436.654 470.784 445.727 472.123 452.014 474.251Z" fill="#A0505A"/>
<path d="M452.014 474.251V488.514C445.727 490.642 436.654 491.981 426.578 491.981C420.045 491.981 413.942 491.41 408.72 490.445L404.337 473.307C410.338 471.75 418.099 470.806 426.578 470.806C436.654 470.784 445.727 472.123 452.014 474.251Z" fill="#73325A"/>
<path d="M450.499 547.738C451.052 547.913 456.254 549.471 460.862 549.471C463.36 549.471 465.675 549.01 466.985 547.606C468.112 546.399 468.378 544.644 467.784 542.428C467.252 540.453 466.228 539.224 464.733 538.785C461.988 537.995 458.179 540.189 455.168 542.493C459.858 536.393 464.487 528.647 462.767 523.579C462.152 521.779 460.759 520.572 459.019 520.353C457.565 520.177 456.213 520.726 455.578 521.757C452.629 526.563 450.212 546.289 450.11 547.123L450.499 547.738ZM456.438 522.372C456.807 521.779 457.585 521.428 458.486 521.428C458.63 521.428 458.773 521.428 458.916 521.45C459.572 521.538 461.149 521.933 461.824 523.952C462.275 525.29 462.439 527.748 460.616 531.873C458.896 535.779 455.783 540.365 451.359 545.565C452.014 540.562 454.103 526.168 456.438 522.372ZM466.269 546.838C464.917 548.286 461.845 548.725 457.36 548.111C455.005 547.782 452.813 547.255 451.646 546.926C452.527 546.092 454.165 544.578 456.07 543.174C459.715 540.475 462.623 539.312 464.487 539.86C465.613 540.189 466.371 541.133 466.822 542.735C467.313 544.578 467.129 545.916 466.269 546.838Z" fill="#F8DA30"/>
<path d="M408.925 527.375L404.194 533.058C398.828 539.509 397.947 548.901 402.023 556.361L422.851 594.63C426.927 602.112 434.402 606.698 442.471 606.698H451.093C457.339 606.698 461.988 600.554 460.698 594.015L449.844 539.048C447.529 527.287 437.842 518.883 426.619 518.883C419.881 518.861 413.43 521.955 408.925 527.375Z" fill="white" stroke="#3FB1B5" stroke-width="5" stroke-miterlimit="10"/>
<path d="M425.042 543.92L451.932 599.742C453.202 602.266 454.779 603.889 456.581 604.921C455.025 606.04 453.141 606.72 451.093 606.72H442.471C434.381 606.72 426.906 602.112 422.851 594.651L402.023 556.361C401.183 554.803 400.548 553.18 400.118 551.49C397.169 539.75 409.641 530.534 419.001 537.425C421.131 538.982 423.219 541.089 425.042 543.92Z" fill="#3FB1B5"/>
<path d="M425.104 544.051H400.282C400.405 543.634 400.548 543.239 400.712 542.866H424.305C424.551 543.217 424.797 543.568 425.043 543.942L425.104 544.051Z" fill="white"/>
<path d="M428.749 551.6H400.159C400.159 551.556 400.139 551.512 400.139 551.49C400.057 551.139 399.975 550.766 399.914 550.415H428.196L428.749 551.6Z" fill="white"/>
<path d="M432.395 559.17H403.559L402.904 557.963H431.822L432.395 559.17Z" fill="white"/>
<path d="M436.04 566.74H407.675L407.02 565.533H435.467L436.04 566.74Z" fill="white"/>
<path d="M439.686 574.288H411.792L411.137 573.104H439.112L439.686 574.288Z" fill="white"/>
<path d="M443.331 581.859H415.908L415.253 580.652H442.737L443.331 581.859Z" fill="white"/>
<path d="M446.977 589.429H420.025L419.37 588.222H446.383L446.977 589.429Z" fill="white"/>
<path d="M450.601 596.977H424.305C424.039 596.582 423.773 596.187 423.527 595.792H450.028L450.601 596.977Z" fill="white"/>
<path d="M455.988 604.548H433.132C432.395 604.197 431.678 603.802 430.982 603.363H454.513C454.985 603.802 455.476 604.197 455.988 604.548Z" fill="white"/>
<path d="M376.873 479.825C376.689 485.617 361.35 490.313 342.467 490.313C323.584 490.313 308.245 485.639 308.061 479.825V434.205H376.873V479.825Z" fill="#73325A"/>
<path d="M372.306 487.395L372.204 492.815L371.221 545.719V544.183C371.221 530.6 360.94 519.585 348.263 519.585H346.87C340.399 519.585 334.562 522.284 330.24 526.629L327.23 504.817L325.366 491.323C330.404 492.222 336.241 492.727 342.447 492.727C355.226 492.705 366.347 490.555 372.306 487.395Z" fill="#A0505A"/>
<path d="M372.306 487.395L372.204 492.815C364.585 498.608 341.054 505.739 327.25 504.795L325.387 491.301C330.425 492.178 336.262 492.705 342.467 492.705C355.226 492.705 366.347 490.555 372.306 487.395Z" fill="#73325A"/>
<path d="M349.307 607.422H353.116C363.111 607.422 371.221 598.733 371.221 588.025V544.183C371.221 530.6 360.94 519.585 348.263 519.585H346.87C332.124 519.585 320.758 533.519 322.745 549.186L327.557 587.103C329.052 598.733 338.33 607.422 349.307 607.422Z" fill="white" stroke="#3FB1B5" stroke-width="5" stroke-miterlimit="10"/>
<path d="M365.527 602.134C362.291 605.404 357.909 607.422 353.116 607.422H349.307C338.33 607.422 329.052 598.733 327.578 587.103L322.765 549.186C322.683 548.462 322.601 547.738 322.581 547.035C323.809 538.631 330.588 532.202 338.78 532.202C342.815 532.202 346.542 533.782 349.43 536.415C352.318 539.048 354.345 542.757 354.98 547.035L361.308 593.313C361.779 596.758 363.295 599.83 365.527 602.134Z" fill="#3FB1B5"/>
<path d="M353.075 541.177H324.465C324.67 540.76 324.915 540.365 325.161 539.992H352.4C352.645 540.365 352.871 540.76 353.075 541.177Z" fill="white"/>
<path d="M355.205 548.725H322.703C322.663 548.33 322.622 547.935 322.601 547.54H355.041L355.205 548.725Z" fill="white"/>
<path d="M356.25 556.295H323.666L323.502 555.11H356.086L356.25 556.295Z" fill="white"/>
<path d="M357.274 563.866H324.629L324.465 562.659H357.11L357.274 563.866Z" fill="white"/>
<path d="M358.318 571.414H325.591L325.427 570.229H358.154L358.318 571.414Z" fill="white"/>
<path d="M359.342 578.984H326.533L326.39 577.799H359.178L359.342 578.984Z" fill="white"/>
<path d="M360.387 586.555H327.496L327.353 585.348H360.223L360.387 586.555Z" fill="white"/>
<path d="M361.431 594.103H329.523C329.339 593.708 329.175 593.313 329.032 592.918H361.247L361.308 593.313C361.349 593.576 361.39 593.84 361.431 594.103Z" fill="white"/>
<path d="M365.097 601.673H334.93C334.52 601.3 334.111 600.883 333.742 600.488H364.155C364.442 600.905 364.769 601.3 365.097 601.673Z" fill="white"/>
<path d="M391.762 242.71V279.662C390.267 275.471 378.43 276.063 365.404 281.351C354.243 285.893 345.866 292.125 344.638 296.448V244.443C344.638 228.974 352.359 215.15 364.217 207.601C379.618 210.476 391.762 224.848 391.762 242.71Z" fill="#F8DA30"/>
<path d="M343.736 209.269C333.251 217.081 326.574 230.049 326.574 244.443V287.342H268.268L276.316 250.214C279.736 234.394 290.427 221.776 304.353 216.4L343.736 209.269Z" fill="#F8DA30"/>
<path d="M461.66 392.887V479.013C461.66 473.154 445.584 468.414 426.578 468.414C407.573 468.414 392.172 473.154 392.172 479.013V437.738C392.172 435.807 390.697 434.227 388.895 434.227H284.365C252.928 434.227 229.683 402.871 236.79 370.066L262.021 253.594C266.035 235.008 280.085 220.855 297.636 217.651L304.353 216.422C290.427 221.798 279.736 234.416 276.316 250.236L268.268 287.364H326.574V244.443C326.574 230.049 333.271 217.059 343.736 209.269L352.952 207.601C354.857 207.25 356.721 207.097 358.584 207.097C358.83 207.097 359.056 207.097 359.301 207.097C359.527 207.097 359.752 207.119 359.957 207.119C359.998 207.119 360.039 207.119 360.08 207.119C360.243 207.119 360.428 207.141 360.592 207.141C360.612 207.141 360.653 207.141 360.673 207.141C360.776 207.141 360.878 207.163 360.96 207.163C361.144 207.184 361.308 207.184 361.493 207.206C361.697 207.228 361.923 207.25 362.128 207.272C362.332 207.294 362.517 207.316 362.721 207.338C362.762 207.338 362.803 207.36 362.865 207.36C363.07 207.382 363.295 207.426 363.5 207.448C363.52 207.448 363.541 207.448 363.541 207.448C363.766 207.492 363.991 207.514 364.216 207.557C352.359 215.106 344.638 228.93 344.638 244.4V349.835H421.52C443.679 349.879 461.66 369.123 461.66 392.887Z" fill="#FE5244"/>
<path d="M345.068 208.304C334.582 216.115 326.554 230.049 326.554 244.443V287.342H268.247L276.296 250.214C279.716 234.394 289.505 221.535 303.452 216.159" stroke="white" stroke-width="6" stroke-miterlimit="10" stroke-linecap="round"/>
<path d="M392.172 424.506C392.172 412.284 396.206 400.457 403.559 391.131" stroke="white" stroke-width="6" stroke-miterlimit="10" stroke-linecap="round"/>
<path d="M306.995 420.14C306.893 420.14 306.791 420.118 306.709 420.052L304.005 418.472C303.698 418.297 303.596 417.902 303.76 417.573C303.923 417.243 304.292 417.134 304.599 417.309L307.303 418.889C307.61 419.065 307.712 419.46 307.548 419.789C307.425 420.008 307.221 420.14 306.995 420.14ZM309.699 419.394C309.473 419.394 309.269 419.262 309.166 419.043C309.002 418.714 309.105 418.319 309.412 418.143L312.115 416.563C312.423 416.388 312.791 416.519 312.955 416.826C313.119 417.156 313.017 417.551 312.709 417.726L310.006 419.306C309.904 419.35 309.801 419.394 309.699 419.394ZM301.589 417.002C301.486 417.002 301.384 416.98 301.302 416.914L298.599 415.334C298.291 415.159 298.189 414.764 298.353 414.435C298.517 414.106 298.885 413.996 299.193 414.171L301.896 415.751C302.203 415.927 302.305 416.322 302.142 416.651C302.019 416.87 301.814 417.002 301.589 417.002ZM315.085 416.234C314.86 416.234 314.655 416.102 314.553 415.883C314.389 415.554 314.491 415.159 314.798 414.983L317.502 413.403C317.973 413.14 318.403 412.833 318.833 412.504C319.099 412.284 319.488 412.35 319.693 412.635C319.898 412.921 319.836 413.338 319.57 413.557C319.099 413.93 318.608 414.259 318.096 414.566L315.392 416.146C315.29 416.212 315.187 416.234 315.085 416.234ZM296.243 413.754C296.121 413.754 295.998 413.711 295.875 413.623C295.015 412.943 294.216 412.153 293.54 411.253C293.315 410.968 293.356 410.551 293.622 410.331C293.888 410.09 294.277 410.134 294.482 410.419C295.097 411.231 295.813 411.933 296.592 412.548C296.858 412.767 296.919 413.184 296.735 413.469C296.633 413.667 296.448 413.754 296.243 413.754ZM321.413 411.45C321.27 411.45 321.147 411.407 321.024 411.297C320.758 411.077 320.717 410.661 320.942 410.375C321.557 409.563 322.069 408.686 322.478 407.72C322.622 407.391 322.99 407.237 323.297 407.391C323.605 407.545 323.748 407.94 323.605 408.269C323.154 409.322 322.581 410.309 321.905 411.187C321.761 411.363 321.598 411.45 321.413 411.45ZM292.393 408.73C292.168 408.73 291.943 408.598 291.84 408.357C291.39 407.303 291.062 406.206 290.857 405.065C290.796 404.714 291.021 404.363 291.349 404.297C291.676 404.231 292.004 404.473 292.065 404.824C292.25 405.855 292.537 406.843 292.946 407.786C293.089 408.115 292.946 408.51 292.639 408.664C292.557 408.708 292.475 408.73 292.393 408.73ZM323.953 405.526C323.912 405.526 323.871 405.526 323.85 405.526C323.523 405.46 323.297 405.109 323.359 404.758C323.482 404.034 323.543 403.31 323.543 402.586V401.598C323.543 401.225 323.809 400.94 324.158 400.94C324.506 400.94 324.772 401.225 324.772 401.598V402.586C324.772 403.397 324.711 404.209 324.567 404.999C324.506 405.306 324.24 405.526 323.953 405.526ZM291.267 402.322C290.919 402.322 290.652 402.037 290.652 401.664V398.373C290.652 398 290.919 397.714 291.267 397.714C291.615 397.714 291.881 398 291.881 398.373V401.664C291.881 402.015 291.594 402.322 291.267 402.322ZM324.137 398.965C323.789 398.965 323.523 398.68 323.523 398.307V395.015C323.523 394.642 323.789 394.357 324.137 394.357C324.485 394.357 324.752 394.642 324.752 395.015V398.307C324.752 398.68 324.485 398.965 324.137 398.965ZM291.267 395.739C290.919 395.739 290.652 395.454 290.652 395.081V391.79C290.652 391.417 290.919 391.131 291.267 391.131C291.615 391.131 291.881 391.417 291.881 391.79V395.081C291.881 395.432 291.594 395.739 291.267 395.739ZM324.137 392.382C323.789 392.382 323.523 392.097 323.523 391.724V388.432C323.523 388.059 323.789 387.774 324.137 387.774C324.485 387.774 324.752 388.059 324.752 388.432V391.724C324.752 392.097 324.485 392.382 324.137 392.382ZM291.267 389.157C290.919 389.157 290.652 388.871 290.652 388.498V385.207C290.652 384.834 290.919 384.549 291.267 384.549C291.615 384.549 291.881 384.834 291.881 385.207V388.498C291.881 388.849 291.594 389.157 291.267 389.157ZM324.137 385.799C323.789 385.799 323.523 385.514 323.523 385.141V381.85C323.523 381.477 323.789 381.191 324.137 381.191C324.485 381.191 324.752 381.477 324.752 381.85V385.141C324.752 385.514 324.485 385.799 324.137 385.799ZM291.267 382.574C290.919 382.574 290.652 382.288 290.652 381.915V379.085H292.311C292.659 379.085 292.926 379.37 292.926 379.743C292.926 380.116 292.659 380.401 292.311 380.401H291.881V381.915C291.881 382.266 291.594 382.574 291.267 382.574ZM323.031 380.401H319.959C319.611 380.401 319.345 380.116 319.345 379.743C319.345 379.37 319.611 379.085 319.959 379.085H323.031C323.379 379.085 323.646 379.37 323.646 379.743C323.646 380.116 323.379 380.401 323.031 380.401ZM316.887 380.401H313.815C313.467 380.401 313.201 380.116 313.201 379.743C313.201 379.37 313.467 379.085 313.815 379.085H316.887C317.235 379.085 317.502 379.37 317.502 379.743C317.502 380.116 317.235 380.401 316.887 380.401ZM310.743 380.401H307.671C307.323 380.401 307.057 380.116 307.057 379.743C307.057 379.37 307.323 379.085 307.671 379.085H310.743C311.091 379.085 311.358 379.37 311.358 379.743C311.358 380.116 311.091 380.401 310.743 380.401ZM304.599 380.401H301.527C301.179 380.401 300.913 380.116 300.913 379.743C300.913 379.37 301.179 379.085 301.527 379.085H304.599C304.947 379.085 305.214 379.37 305.214 379.743C305.214 380.116 304.947 380.401 304.599 380.401ZM298.455 380.401H295.383C295.035 380.401 294.769 380.116 294.769 379.743C294.769 379.37 295.035 379.085 295.383 379.085H298.455C298.803 379.085 299.07 379.37 299.07 379.743C299.07 380.116 298.803 380.401 298.455 380.401Z" fill="white"/>
<path d="M249.037 416.497C248.812 416.497 248.607 416.366 248.504 416.146C248.341 415.817 248.443 415.422 248.75 415.247L251.249 413.776C251.31 413.733 251.372 413.711 251.433 413.667C251.72 413.491 252.109 413.601 252.273 413.908C252.437 414.215 252.334 414.632 252.047 414.808C251.986 414.852 251.924 414.896 251.843 414.917L249.344 416.388C249.242 416.475 249.139 416.497 249.037 416.497ZM254.218 412.986C254.054 412.986 253.891 412.921 253.768 412.767C253.542 412.504 253.563 412.087 253.809 411.845C254.525 411.143 255.16 410.331 255.713 409.476C255.898 409.168 256.287 409.103 256.573 409.3C256.86 409.498 256.922 409.914 256.737 410.222C256.143 411.165 255.427 412.043 254.648 412.833C254.505 412.943 254.362 412.986 254.218 412.986ZM257.638 407.589C257.556 407.589 257.495 407.567 257.413 407.545C257.106 407.413 256.942 407.04 257.065 406.689C257.413 405.701 257.659 404.692 257.802 403.661C257.843 403.31 258.15 403.046 258.499 403.09C258.826 403.134 259.072 403.463 259.031 403.836C258.888 404.977 258.621 406.096 258.232 407.172C258.109 407.435 257.884 407.589 257.638 407.589ZM258.519 401.137C258.171 401.137 257.905 400.852 257.905 400.479V397.188C257.905 396.815 258.171 396.529 258.519 396.529C258.867 396.529 259.133 396.815 259.133 397.188V400.479C259.133 400.83 258.867 401.137 258.519 401.137ZM258.519 394.554C258.171 394.554 257.905 394.269 257.905 393.896V390.605C257.905 390.232 258.171 389.946 258.519 389.946C258.867 389.946 259.133 390.232 259.133 390.605V393.896C259.133 394.247 258.867 394.554 258.519 394.554ZM258.519 387.972C258.171 387.972 257.905 387.686 257.905 387.313V384.022C257.905 383.649 258.171 383.364 258.519 383.364C258.867 383.364 259.133 383.649 259.133 384.022V387.313C259.133 387.664 258.867 387.972 258.519 387.972ZM258.519 381.389C258.171 381.389 257.905 381.104 257.905 380.73V380.401H256.369C256.021 380.401 255.754 380.116 255.754 379.743C255.754 379.37 256.021 379.085 256.369 379.085H259.133V380.73C259.133 381.082 258.867 381.389 258.519 381.389ZM253.297 380.401H250.225C249.877 380.401 249.61 380.116 249.61 379.743C249.61 379.37 249.877 379.085 250.225 379.085H253.297C253.645 379.085 253.911 379.37 253.911 379.743C253.911 380.116 253.624 380.401 253.297 380.401ZM247.153 380.401H244.081C243.733 380.401 243.466 380.116 243.466 379.743C243.466 379.37 243.733 379.085 244.081 379.085H247.153C247.501 379.085 247.767 379.37 247.767 379.743C247.767 380.116 247.48 380.401 247.153 380.401ZM241.009 380.401H237.937C237.589 380.401 237.322 380.116 237.322 379.743C237.322 379.37 237.589 379.085 237.937 379.085H241.009C241.357 379.085 241.623 379.37 241.623 379.743C241.623 380.116 241.336 380.401 241.009 380.401Z" fill="white"/>
<path d="M391.762 279.662C393.257 283.853 383.795 291.291 370.791 296.58C357.786 301.868 346.133 302.68 344.638 298.467C343.143 294.254 352.379 286.661 365.404 281.373C378.43 276.085 390.267 275.449 391.762 279.662Z" fill="#FE5244"/>
<path d="M399.033 415.795V418.121C398.357 417.946 397.64 417.858 396.923 417.858H394.281C390.37 417.858 387.031 415.181 385.762 411.451L393.257 410.375C396.309 409.936 399.033 412.482 399.033 415.795Z" fill="#73325A"/>
<path d="M405.955 427.535V445.396C405.955 449.565 402.801 452.944 398.91 452.944H391.066C389.12 452.944 387.359 452.111 386.089 450.728C384.819 449.368 384.021 447.481 384.021 445.396H389.12C390.8 445.396 392.151 443.948 392.151 442.149V437.475C392.151 435.675 390.8 434.227 389.12 434.227H363.049C352.871 434.227 344.617 425.384 344.617 414.479V296.47C345.846 292.147 354.222 285.894 365.384 281.373C373.002 278.279 380.232 276.787 385.209 276.919V408.181C385.209 413.535 389.264 417.88 394.261 417.88H396.903C401.9 417.858 405.955 422.181 405.955 427.535Z" fill="#A0505A"/>
<path d="M385.209 276.897V288.834C381.502 291.511 376.484 294.254 370.77 296.558C357.745 301.846 346.112 302.658 344.617 298.445V296.448C345.846 292.125 354.222 285.872 365.384 281.351C373.023 278.257 380.232 276.765 385.209 276.897Z" fill="#73325A"/>
<path d="M351.15 188.006L343.45 209.269L303.76 216.883L314.123 188.006H351.15Z" fill="#A0505A"/>
<path d="M351.15 188.006L346.993 199.505L307.63 206.087L314.123 188.006H351.15Z" fill="#73325A"/>
<path d="M374.416 144.735C374.416 147.61 369.767 150.791 364.401 153.468C357.09 157.133 348.468 159.92 348.468 159.92L342.651 171.659C350.557 176.157 353.649 184.232 354.878 189.872C355.656 193.47 355.656 196.037 355.656 196.037H299.91C299.91 196.037 285.266 145.218 320.553 133.061C342.139 125.623 374.416 137.911 374.416 144.735Z" fill="white" stroke="#F8DA30" stroke-width="6" stroke-miterlimit="10" stroke-linecap="round"/>
<path d="M315.392 140.303C323.05 140.303 329.257 133.652 329.257 125.447C329.257 117.243 323.05 110.592 315.392 110.592C307.735 110.592 301.527 117.243 301.527 125.447C301.527 133.652 307.735 140.303 315.392 140.303Z" fill="white" stroke="#F8DA30" stroke-width="6" stroke-miterlimit="10" stroke-linecap="round"/>
<path d="M354.857 189.872C353.711 184.539 350.843 176.947 343.778 172.361H341.955C340.276 172.361 338.74 171.637 337.634 170.452C336.528 169.267 335.852 167.622 335.852 165.822C335.852 162.202 338.576 159.283 341.955 159.283L349.676 159.459H349.881C350.024 159.415 350.168 159.349 350.331 159.305C352.42 158.822 359.035 157.111 364.524 154.171L365.159 158.23L367.207 171.242C368.6 180.173 362.886 188.401 354.857 189.872Z" fill="#A0505A"/>
<path d="M365.139 158.208C358.421 161.126 349.656 159.437 349.656 159.437C349.656 159.437 357.909 157.681 364.504 154.149L365.139 158.208Z" fill="#73325A"/>
<path d="M346.707 167.073C346.707 164.571 344.823 162.553 342.488 162.553" stroke="#73325A" stroke-width="5" stroke-miterlimit="10" stroke-linecap="round"/>
<path d="M368.395 445.396L392.172 657.408" stroke="#66B0F0" stroke-width="6" stroke-miterlimit="10"/>
<path d="M265.319 445.396L241.562 657.408" stroke="#66B0F0" stroke-width="6" stroke-miterlimit="10"/>
<path d="M249.713 584.602H384" stroke="#66B0F0" stroke-width="6" stroke-miterlimit="10"/>
<path d="M244.654 445.396H389.059C390.779 445.396 392.172 443.904 392.172 442.061V437.541C392.172 435.697 390.779 434.205 389.059 434.205H244.654C242.934 434.205 241.542 435.697 241.542 437.541V442.061C241.562 443.904 242.955 445.396 244.654 445.396Z" fill="white" stroke="#F8DA30" stroke-width="6" stroke-miterlimit="10"/>
</svg>
