<svg width="1048" height="1249" viewBox="0 0 1048 1249" fill="none" xmlns="http://www.w3.org/2000/svg">
<path d="M552.95 779.52V1245.18" stroke="#F8DA30" stroke-width="6" stroke-miterlimit="10"/>
<path d="M758.69 779.52V1245.18" stroke="#F8DA30" stroke-width="6" stroke-miterlimit="10"/>
<path d="M550.96 1170.32H756.17" stroke="#F8DA30" stroke-width="6" stroke-miterlimit="10"/>
<path d="M791.38 717.11H518.27C509.097 717.11 501.66 724.547 501.66 733.72V762.91C501.66 772.083 509.097 779.52 518.27 779.52H791.38C800.554 779.52 807.99 772.083 807.99 762.91V733.72C807.99 724.547 800.554 717.11 791.38 717.11Z" fill="white" stroke="#6562CF" stroke-width="6" stroke-miterlimit="10"/>
<path d="M753.67 267.52C770.6 262.77 794.01 210.2 768.36 181.73C742.71 153.26 688.36 152.4 642.22 159.31C599.57 165.7 543.55 190.44 564.9 243.8C595.26 319.67 753.67 267.52 753.67 267.52Z" fill="#F8DA30"/>
<path d="M728.15 231.72C744.15 228.34 771.64 201.72 747.48 181.46C723.32 161.2 686.11 159.23 646.48 166C606.85 172.77 565.78 186.78 584.63 225.19C603.48 263.6 728.15 231.72 728.15 231.72Z" fill="#F8DA30"/>
<path d="M822.579 1240.55C812.229 1246.92 748.929 1246.55 736.979 1240.55C725.029 1234.55 727.829 1214.27 725.839 1200.73C723.849 1187.19 695.579 1161.73 693.989 1152.96C692.399 1144.19 723.049 1125.09 728.369 1117.31C723.989 1130.23 767.839 1133.06 771.369 1124.69C769.649 1155.35 792.179 1204.09 810.659 1208.49C822.289 1211.27 832.929 1234.18 822.579 1240.55Z" fill="#DBDAFF"/>
<path d="M780.809 1091.16L771.349 1124.69C767.839 1133.06 723.989 1130.23 728.349 1117.31C732.709 1104.39 731.059 1081.94 731.059 1081.94L780.809 1091.16Z" fill="#C36F0B"/>
<path d="M693.999 1153C695.599 1161.76 723.859 1187.24 725.859 1200.78C727.859 1214.32 725.059 1234.62 736.999 1240.59C748.939 1246.56 812.249 1246.96 822.599 1240.59" stroke="#6562CF" stroke-width="7" stroke-miterlimit="10" stroke-linecap="round"/>
<path d="M773.81 1208.45C773.81 1208.45 794.81 1199.07 815.71 1206.45" stroke="white" stroke-width="6" stroke-miterlimit="10" stroke-linecap="round"/>
<path d="M534.13 1240.55C544.48 1246.92 600.78 1246.55 612.73 1240.55C624.68 1234.55 631.88 1214.27 633.87 1200.73C635.86 1187.19 655.13 1156.73 656.72 1147.96C658.31 1139.19 627.66 1120.09 622.34 1112.31C626.72 1125.23 583.87 1133.06 580.34 1124.69C582.06 1155.35 564.52 1204.09 546.05 1208.49C534.41 1211.27 523.78 1234.18 534.13 1240.55Z" fill="#DBDAFF"/>
<path d="M558.9 1089.16L580.36 1124.69C583.87 1133.06 626.72 1125.23 622.36 1112.31C618 1099.39 616.65 1078.94 616.65 1078.94L558.9 1089.16Z" fill="#C36F0B"/>
<path d="M656.72 1148C655.13 1156.76 635.86 1187.24 633.87 1200.78C631.88 1214.32 624.67 1234.62 612.72 1240.59C600.77 1246.56 544.48 1246.96 534.12 1240.59" stroke="#6562CF" stroke-width="7" stroke-miterlimit="10" stroke-linecap="round"/>
<path d="M582.9 1208.45C582.9 1208.45 561.95 1199.07 541 1206.45" stroke="white" stroke-width="6" stroke-miterlimit="10" stroke-linecap="round"/>
<path d="M553.15 582.32C553.15 582.32 344.89 684.32 344.89 747.06C344.89 858.98 531.16 1095.06 563.15 1091.96C595.14 1088.86 626.65 1082.09 625.42 1068.55C624.19 1055.01 557.2 842.71 505.14 779.86C505.14 779.86 524.14 749.95 642.87 751.26C700.09 751.89 749.98 755.78 751.21 757.63C752.44 759.48 689 883.29 721.37 1074.73C724.2 1091.41 793.96 1098.41 800.72 1089.18C807.48 1079.95 915.76 754.87 905.31 729C894.86 703.13 786.31 610.48 733.37 582.29C695.24 562 553.15 582.32 553.15 582.32Z" fill="#3F4D79"/>
<path d="M493.68 258.87C467.27 273.37 427.8 403.4 427.8 403.4C427.8 403.4 332.7 286.67 328.3 285.57C323.9 284.47 298.35 318.57 298.35 318.57C298.35 318.57 348 540.25 425.45 545.18C457.96 547.25 485.45 528.39 508.02 500.83C518.02 534.18 527.36 561.68 527.36 561.68C531.36 575.68 456.72 614.23 473.75 624.82C473.75 624.82 531.86 605.92 634.4 632.36C757 664 816.27 640 804.68 630.8C793.09 621.6 774.89 591.69 768.6 571.68L779.91 464C779.91 464 819.49 564.46 879.32 564.46C950.69 564.46 1015.92 346.27 1015.92 346.27C990.55 345.55 969.53 327.43 969.53 327.43C942.71 346.27 886.89 412.27 886.89 412.27C886.89 412.27 852.1 307.1 835.43 283.18C818.76 259.26 764.43 240.41 728.15 231.72L584.63 225.19C575 223.35 516.15 243.52 493.68 258.87Z" fill="#F8DA30"/>
<path d="M886.89 407.87C868.74 428.74 852.34 465.87 852.34 465.87" stroke="#F8DA30" stroke-width="6" stroke-miterlimit="10"/>
<path d="M772.879 247.57C703.199 241.68 633.239 285.51 633.239 285.51C633.239 285.51 571.739 271.73 559.439 230.79" stroke="#F8DA30" stroke-width="6" stroke-miterlimit="10"/>
<path d="M529.359 561.68C529.359 561.68 490.899 451.2 485.529 404.61" stroke="#F8DA30" stroke-width="6" stroke-miterlimit="10" stroke-linecap="round"/>
<path d="M1013.91 266.67C1012.98 272.62 1006.51 281.85 1012.91 281.78C1016.21 281.78 1040.07 277.89 1042.99 286.67C1044.22 290.842 1044 295.311 1042.36 299.34C1047.59 307.15 1043.59 313.53 1043.59 313.53C1046.75 318.39 1047.59 324.68 1045.39 327.45C1045.39 327.45 1050.92 340.2 1045.64 343.16C1029.28 352.36 1003.19 354.27 990.55 351C981.68 348.71 971.04 343.23 968.32 324.35C967.2 316.62 974.9 296.35 980.78 287.99C983.18 284.55 991.97 270.83 994.94 267.07C999.174 261.564 1002.06 255.142 1003.36 248.32C1003.36 248.32 1016.51 250.05 1013.91 266.67Z" fill="#C36F0B"/>
<path d="M1035.3 285.5C1035.88 289.5 1011.51 290.34 1007.3 291.26C1001.3 292.56 1002.08 305.37 1009.86 304.12C1020.45 303.637 1030.96 302.119 1041.25 299.59" stroke="#B65A18" stroke-width="4" stroke-miterlimit="10" stroke-linecap="round"/>
<path d="M1042 313.66C1016.22 318.86 1009.34 318.38 1009.34 318.38C1005.58 319.12 1000.74 305.83 1009.86 304.12" stroke="#B65A18" stroke-width="4" stroke-miterlimit="10" stroke-linecap="round"/>
<path d="M1042.64 327C1018.38 332.33 1009.98 331.72 1009.98 331.72C1006.39 332.15 1001.9 319.51 1009.23 318.64" stroke="#B65A18" stroke-width="4" stroke-miterlimit="10" stroke-linecap="round"/>
<path d="M1016.77 331.51C1016.77 331.51 1008.1 330.7 1008.23 336.1C1008.47 345.7 1013.12 346.73 1035.07 342.7" stroke="#B65A18" stroke-width="4" stroke-miterlimit="10" stroke-linecap="round"/>
<path d="M293.59 237.16C293.79 243.16 299.04 253.02 292.75 252.16C289.49 251.72 266.44 245.03 262.5 253.32C260.772 257.283 260.447 261.717 261.58 265.89C255.48 272.95 258.64 279.73 258.64 279.73C254.94 284.14 253.35 290.24 255.18 293.24C255.18 293.24 248.18 305.13 253.02 308.69C268.02 319.75 293.52 324.8 306.38 323.11C315.38 321.93 326.55 317.82 331.53 299.54C333.53 292.06 328.44 271.19 323.67 262.19C321.72 258.5 314.72 243.91 312.24 239.84C308.751 233.895 306.696 227.218 306.24 220.34C306.24 220.34 293.05 220.46 293.59 237.16Z" fill="#C36F0B"/>
<path d="M263.49 309.55C284.64 316.19 289.35 315.73 290.76 306.3C291.2 303.3 288.65 301.93 286.34 301.3C287.408 301.509 288.486 301.659 289.57 301.75C292.79 302.54 298.24 291.57 293.41 288.54C295.41 287.54 297.53 280.37 297.52 274C301.25 271.42 301.52 263.77 297.18 262.24C293.09 260.81 269.18 257 270.18 253.14L263.49 309.55Z" fill="#C36F0B"/>
<path d="M263.87 266.3C273.335 269.953 283.116 272.725 293.09 274.58C300.6 276.75 302.93 264.22 297.18 262.21C293.09 260.78 273.96 254.55 270.18 253.12" stroke="#B65A18" stroke-width="3" stroke-miterlimit="10" stroke-linecap="round"/>
<path d="M261.43 280.08C286.21 288.33 291.87 288.7 291.87 288.7C295.48 289.88 301.87 277.38 293.09 274.58" stroke="#B65A18" stroke-width="3" stroke-miterlimit="10" stroke-linecap="round"/>
<path d="M258 293.1C281.26 301.31 289.62 301.72 289.62 301.72C293.11 302.59 297.98 289.48 289.42 288.35" stroke="#B65A18" stroke-width="3" stroke-miterlimit="10" stroke-linecap="round"/>
<path d="M282.89 300.73C282.89 300.73 291.54 300.99 290.76 306.3C289.35 315.73 284.65 316.18 263.5 309.55" stroke="#B65A18" stroke-width="3" stroke-miterlimit="10" stroke-linecap="round"/>
<path d="M697.71 138.21C697.71 138.21 682.48 206.35 728.15 231.72C728.15 231.72 686.15 238.97 632.47 283.18C632.47 283.18 591.15 248.39 584.63 225.18C584.63 225.18 626.63 210.69 622.32 138.18L697.71 138.21Z" fill="#C36F0B"/>
<path d="M697.71 138.21H622.32C626.67 210.7 584.63 225.21 584.63 225.21C584.63 225.21 668.46 225.21 692.17 150.47L697.71 138.21Z" fill="#B65A18"/>
<path d="M700.589 137.54C700.589 137.54 678.199 181.19 624.699 181.21C576.979 181.21 569.699 41.14 640.769 39.21C708.489 37.37 699.769 117.5 699.769 117.5C699.769 117.5 711.959 110.41 716.389 117.79C720.819 125.17 700.589 137.54 700.589 137.54Z" fill="#C36F0B"/>
<path d="M669.24 44.44C669.24 44.44 668.47 68.69 634.9 68.32C605.75 68 589.77 84.5 588.21 96.38" stroke="#3F4D79" stroke-width="3" stroke-miterlimit="10" stroke-linecap="round"/>
<path d="M761.29 92.33C761.29 118.75 729.4 141.59 694.09 157.09C692 158.01 688.62 158.22 684.34 157.88C690.791 151.995 696.275 145.131 700.59 137.54C700.59 137.54 720.7 125 716.35 117.79C712 110.58 699.73 117.49 699.73 117.49C699.73 117.49 705.84 61.64 668.45 44.29C668.16 44.83 658.45 61.95 629.75 62.86C602.45 63.71 595 74.12 591.88 85C591.78 85.38 591.68 85.75 591.59 86.13C588.072 100.602 587.231 115.596 589.11 130.37L588.95 130.31C586.3 127.09 550.09 81.2 559.54 56.59C569.81 29.84 635.45 -7.89 688 1.45C717.35 6.68 761.28 78.44 761.29 92.33Z" fill="#3F4D79"/>
<path d="M523.28 471H120.53C115.003 470.993 109.618 469.252 105.133 466.023C100.648 462.794 97.2895 458.239 95.5296 453L10.1697 198.83C9.23198 196.037 8.97236 193.061 9.41223 190.148C9.8521 187.234 10.9788 184.468 12.6994 182.076C14.4199 179.684 16.6848 177.736 19.307 176.393C21.9292 175.049 24.8334 174.349 27.7797 174.35H430.53C436.056 174.359 441.44 176.1 445.925 179.329C450.409 182.558 453.769 187.112 455.53 192.35L540.84 446.46C541.788 449.253 542.057 452.231 541.625 455.148C541.194 458.066 540.073 460.838 538.357 463.236C536.641 465.635 534.378 467.59 531.756 468.94C529.135 470.29 526.229 470.996 523.28 471V471Z" fill="#C7BFFF"/>
<path d="M514.09 480.91H111.33C105.803 480.903 100.418 479.162 95.9334 475.933C91.4485 472.704 88.0896 468.149 86.3297 462.91L0.999729 208.79C0.0623296 205.998 -0.197418 203.023 0.241935 200.11C0.681287 197.198 1.80713 194.431 3.52652 192.04C5.2459 189.648 7.50949 187.7 10.1304 186.356C12.7513 185.012 15.6543 184.311 18.5997 184.31H421.34C426.866 184.317 432.251 186.058 436.736 189.287C441.221 192.516 444.58 197.071 446.34 202.31L531.66 456.43C532.596 459.22 532.856 462.192 532.419 465.103C531.981 468.013 530.858 470.777 529.142 473.168C527.426 475.559 525.166 477.508 522.549 478.854C519.932 480.2 517.033 480.905 514.09 480.91Z" fill="white"/>
<path d="M523.28 470.18H120.53C115.003 470.174 109.617 468.434 105.132 465.205C100.647 461.975 97.2882 457.42 95.5296 452.18L10.1697 198.06C9.23198 195.267 8.97236 192.291 9.41223 189.378C9.8521 186.464 10.9788 183.698 12.6994 181.306C14.4199 178.914 16.6848 176.966 19.307 175.623C21.9292 174.279 24.8334 173.579 27.7797 173.58H430.53C436.056 173.589 441.44 175.33 445.925 178.559C450.409 181.788 453.769 186.342 455.53 191.58L540.88 445.7C541.817 448.492 542.077 451.468 541.637 454.38C541.198 457.292 540.072 460.059 538.353 462.45C536.633 464.842 534.37 466.79 531.749 468.134C529.128 469.478 526.225 470.179 523.28 470.18V470.18Z" stroke="#6562CF" stroke-width="6" stroke-miterlimit="10"/>
<path d="M349.08 390.53L379.72 466.78H313.5C313.5 466.78 326.37 407.13 349.08 390.53Z" fill="#E2E2FF"/>
<path d="M393.119 562.41C262.729 562.41 317.559 422.88 343.489 393.9H243.139C217.219 422.9 147.069 570.07 277.449 570.07H393.119V562.41Z" fill="white" stroke="#6562CF" stroke-width="6" stroke-miterlimit="10"/>
<path d="M282.433 327.396C288.052 318.495 283.516 305.541 272.303 298.463C261.09 291.385 247.445 292.863 241.826 301.765C236.207 310.667 240.743 323.621 251.956 330.698C263.169 337.776 276.815 336.298 282.433 327.396Z" fill="#E2E2FF"/>
<path d="M288.838 321.993C294.457 313.092 289.922 300.138 278.708 293.06C267.495 285.982 253.85 287.461 248.231 296.362C242.612 305.264 247.148 318.218 258.361 325.296C269.575 332.374 283.22 330.895 288.838 321.993Z" stroke="#6562CF" stroke-width="6" stroke-miterlimit="10"/>
<path d="M93.75 570.07H690.92C699.7 570.07 706.82 576.71 706.82 584.91C706.82 593.1 699.7 599.74 690.92 599.74H93.75V570.07Z" fill="white"/>
<path d="M93.75 570.07H690.92C699.7 570.07 706.82 576.71 706.82 584.91C706.82 593.1 699.7 599.74 690.92 599.74H93.75" stroke="#6562CF" stroke-width="6" stroke-miterlimit="10"/>
</svg>
