<svg width="1024" height="768" viewBox="0 0 1024 768" fill="none" xmlns="http://www.w3.org/2000/svg">
<path d="M625.705 113.883L666.235 155.794L706.969 392.053H324.874L625.705 113.883Z" fill="#F8DA30"/>
<path d="M666.583 155.465L625.93 113.423L632.73 105.852C642.744 94.7054 660.787 95.9781 671.191 106.686C681.595 117.416 683.418 136.748 673.403 147.895L666.583 155.465Z" fill="white" stroke="#F8DA30" stroke-width="6" stroke-miterlimit="10" stroke-linecap="round"/>
<path d="M673.382 147.895L632.709 105.852" stroke="#F8DA30" stroke-width="6" stroke-miterlimit="10" stroke-linecap="round"/>
<path d="M673.423 108.595L677.97 104.865C684.073 99.862 692.838 101.179 697.405 107.827L809.144 253.572L751.944 390.254" stroke="#3FB1B5" stroke-width="6" stroke-miterlimit="10" stroke-linecap="round"/>
<path d="M807.322 261.01C810.783 261.01 813.588 258.004 813.588 254.296C813.588 250.587 810.783 247.581 807.322 247.581C803.86 247.581 801.055 250.587 801.055 254.296C801.055 258.004 803.86 261.01 807.322 261.01Z" fill="white" stroke="#F8DA30" stroke-width="6" stroke-miterlimit="10" stroke-linecap="round"/>
<path d="M736.051 374.982H766.587C775.373 374.982 782.479 382.618 782.479 392.009V392.492H720.138V392.009C720.159 382.618 727.265 374.982 736.051 374.982Z" fill="white" stroke="#F8DA30" stroke-width="6" stroke-miterlimit="10" stroke-linecap="round"/>
<path d="M588.124 342.66H394.813C387.543 342.66 381.665 336.362 381.665 328.572V183.706C381.665 175.916 387.543 169.618 394.813 169.618H588.124C595.394 169.618 601.272 175.916 601.272 183.706V328.55C601.293 336.34 595.394 342.66 588.124 342.66Z" fill="white" stroke="#3FB1B5" stroke-width="6" stroke-miterlimit="10" stroke-linecap="round"/>
<path d="M588.247 329.187H396.8C393.953 329.187 391.659 326.707 391.659 323.679V185.088C391.659 182.038 393.973 179.58 396.8 179.58H588.247C591.093 179.58 593.387 182.06 593.387 185.088V323.657C593.408 326.707 591.093 329.187 588.247 329.187Z" fill="#66B0F0" stroke="#66B0F0" stroke-width="6" stroke-miterlimit="10" stroke-linejoin="round"/>
<path d="M403.66 192.527H400.629C399.646 192.527 398.827 191.671 398.827 190.596V187.348C398.827 186.295 399.626 185.417 400.629 185.417H403.66C404.643 185.417 405.463 186.273 405.463 187.348V190.596C405.442 191.671 404.643 192.527 403.66 192.527Z" stroke="white" stroke-width="6" stroke-miterlimit="10" stroke-linecap="round"/>
<path d="M417.444 192.527H414.413C413.43 192.527 412.61 191.671 412.61 190.596V187.348C412.61 186.295 413.409 185.417 414.413 185.417H417.444C418.427 185.417 419.246 186.273 419.246 187.348V190.596C419.246 191.671 418.427 192.527 417.444 192.527Z" stroke="white" stroke-width="6" stroke-miterlimit="10" stroke-linecap="round"/>
<path d="M431.226 192.527H428.195C427.212 192.527 426.393 191.671 426.393 190.596V187.348C426.393 186.295 427.192 185.417 428.195 185.417H431.226C432.209 185.417 433.029 186.273 433.029 187.348V190.596C433.029 191.671 432.23 192.527 431.226 192.527Z" stroke="white" stroke-width="6" stroke-miterlimit="10" stroke-linecap="round"/>
<path d="M532.275 392.053H457.236L471.961 342.66H517.529L532.275 392.053Z" fill="white" stroke="#3FB1B5" stroke-width="6" stroke-miterlimit="10" stroke-linecap="round"/>
<path d="M463.135 372.283L471.962 342.66H517.53L463.135 372.283Z" fill="#3FB1B5"/>
<path d="M577.106 225.024H540.631C537.211 225.024 534.446 222.062 534.446 218.397V193.163C534.446 189.498 537.211 186.536 540.631 186.536H577.106C580.526 186.536 583.291 189.498 583.291 193.163V218.397C583.291 222.062 580.526 225.024 577.106 225.024Z" stroke="white" stroke-width="6" stroke-miterlimit="10" stroke-linecap="round"/>
<path d="M544.87 195.533H572.702" stroke="white" stroke-width="6" stroke-miterlimit="10" stroke-linecap="round"/>
<path d="M544.87 202.335H572.702" stroke="white" stroke-width="6" stroke-miterlimit="10" stroke-linecap="round"/>
<path d="M544.87 209.137H572.702" stroke="white" stroke-width="6" stroke-miterlimit="10" stroke-linecap="round"/>
<path d="M544.87 215.94H572.702" stroke="white" stroke-width="6" stroke-miterlimit="10" stroke-linecap="round"/>
<path d="M587.182 329.187H442.204L433.705 342.243C424.1 356.988 403.804 357.208 393.933 342.66L342.159 266.364C344.33 269.261 354.263 266.035 363.725 259.365C373.33 252.584 379.535 244.049 377.59 240.889L413.491 289.909L424.489 269.107C427.499 263.6 432.496 259.65 438.313 258.202L475.73 249.71H507.986L543.539 258.114C549.724 259.628 554.967 263.951 557.936 269.941L587.182 329.187Z" fill="white" stroke="#3FB1B5" stroke-width="6" stroke-miterlimit="10"/>
<path d="M547.389 328.287L537.088 306.498" stroke="#3FB1B5" stroke-width="6" stroke-miterlimit="10" stroke-linecap="round"/>
<path d="M441.385 330.328L451.584 308.758" stroke="#3FB1B5" stroke-width="6" stroke-miterlimit="10" stroke-linecap="round"/>
<path d="M399.523 270.885L422.891 302.899" stroke="#3FB1B5" stroke-width="6" stroke-miterlimit="10" stroke-linecap="round"/>
<path d="M495.882 260.242L504.483 271.455L523.735 253.945" stroke="#3FB1B5" stroke-width="6" stroke-miterlimit="10" stroke-linecap="round"/>
<path d="M489.308 260.462L480.952 271.894L459.796 253.945" stroke="#3FB1B5" stroke-width="6" stroke-miterlimit="10" stroke-linecap="round"/>
<path d="M384.717 250.697C386.662 253.879 380.436 262.524 370.77 269.393C361.267 276.151 351.191 279.398 349 276.48" stroke="#3FB1B5" stroke-width="6" stroke-miterlimit="10" stroke-linecap="round"/>
<path d="M378.286 256.249C379.564 256.249 380.6 255.139 380.6 253.769C380.6 252.4 379.564 251.29 378.286 251.29C377.008 251.29 375.972 252.4 375.972 253.769C375.972 255.139 377.008 256.249 378.286 256.249Z" stroke="#3FB1B5" stroke-width="6" stroke-miterlimit="10" stroke-linecap="round"/>
<path d="M492.564 271.828C493.842 271.828 494.878 270.718 494.878 269.349C494.878 267.979 493.842 266.869 492.564 266.869C491.286 266.869 490.25 267.979 490.25 269.349C490.25 270.718 491.286 271.828 492.564 271.828Z" stroke="#3FB1B5" stroke-width="6" stroke-miterlimit="10" stroke-linecap="round"/>
<path d="M492.564 291.796C493.842 291.796 494.878 290.686 494.878 289.317C494.878 287.947 493.842 286.837 492.564 286.837C491.286 286.837 490.25 287.947 490.25 289.317C490.25 290.686 491.286 291.796 492.564 291.796Z" stroke="#3FB1B5" stroke-width="6" stroke-miterlimit="10" stroke-linecap="round"/>
<path d="M432.968 343.296L442.204 329.187V343.296H432.968Z" fill="#3FB1B5"/>
<path d="M363.499 258.706C354.038 265.377 344.105 268.603 341.934 265.706C341.893 265.662 341.872 265.618 341.832 265.552C341.381 264.828 341.422 263.841 341.832 262.634C343.245 258.662 349.081 252.518 356.495 247.296C362.393 243.127 368.21 240.23 372.244 239.331C374.579 238.826 376.32 238.98 377.16 239.945L377.364 240.208C379.289 243.368 373.105 251.926 363.499 258.706Z" fill="#FE5244"/>
<path d="M363.499 258.706C358.113 262.502 352.563 265.201 348.385 266.255L329.687 237.992C327.086 234.043 327.946 228.579 331.653 225.792L348.487 213.109L338.944 195.708C337.551 193.185 338.35 189.915 340.725 188.445C341.504 187.963 342.343 187.743 343.183 187.743C344.801 187.743 346.398 188.599 347.341 190.179L377.18 239.901L377.385 240.252C379.289 243.368 373.104 251.926 363.499 258.706Z" fill="#E57281"/>
<path d="M348.447 213.307L358.871 230.619C359.834 232.243 359.403 234.394 357.888 235.447L355.574 237.071C354.058 238.146 352.01 237.685 351.027 236.061L341.176 220.262" stroke="#9A3B82" stroke-width="6" stroke-miterlimit="10" stroke-linecap="round"/>
<path d="M350.986 236.017C351.989 237.663 351.539 239.879 350.003 240.933L347.893 242.359C346.378 243.39 344.371 242.929 343.388 241.328" stroke="#9A3B82" stroke-width="6" stroke-miterlimit="10" stroke-linecap="round"/>
<path d="M333.701 225.836L343.347 241.196C344.351 242.842 343.921 245.058 342.344 246.111L340.377 247.274C338.903 248.283 336.957 247.867 335.933 246.331L330.342 237.883" stroke="#9A3B82" stroke-width="6" stroke-miterlimit="10" stroke-linecap="round"/>
<path d="M370.217 228.315L365.322 220.175C363.704 217.476 360.325 216.73 357.847 218.529L345.702 227.35C345.702 227.35 349.225 234.13 357.785 228.754L360.653 233.648C354.795 237.619 353.116 245.979 356.925 252.189L370.217 228.315Z" fill="#E57281"/>
<path d="M369.582 228.535L364.687 220.394C363.069 217.695 359.69 216.949 357.212 218.748L345.702 227.35C345.702 227.35 349.225 234.13 357.785 228.754L360.653 233.648C354.795 237.619 353.116 245.979 356.925 252.189" stroke="#9A3B82" stroke-width="6" stroke-miterlimit="10" stroke-linecap="round"/>
<path d="M363.499 258.706C358.113 262.502 352.563 265.201 348.385 266.255L343.736 259.233C346.337 255.59 350.986 251.202 356.495 247.318C362.393 243.149 368.209 240.252 372.244 239.353C374.579 238.848 376.32 239.002 377.159 239.967L377.364 240.23C377.384 240.274 377.405 240.296 377.425 240.34C377.446 240.362 377.446 240.384 377.466 240.428C377.487 240.472 377.507 240.494 377.528 240.538C378.92 243.895 372.797 252.123 363.499 258.706Z" fill="#9A3B82"/>
<path d="M507.965 230.4V249.688C507.965 255.283 500.715 259.803 491.807 259.803C482.877 259.803 475.648 255.283 475.648 249.688V230.4H507.965Z" fill="#E57281"/>
<path d="M480.379 256.841C477.45 255.02 475.627 252.475 475.627 249.688V230.4H507.965V235.754C507.965 241.306 504.811 246.287 500.019 248.371L480.379 256.841Z" fill="#9A3B82"/>
<path d="M516.977 229.259V229.588C516.977 232.923 514.458 235.622 511.345 235.622H507.638C506.388 241.02 501.842 245.036 496.394 245.036H487.219C481.792 245.036 477.225 241.042 475.996 235.622H472.289C469.176 235.622 466.657 232.923 466.657 229.588V229.259C466.657 225.924 469.176 223.225 472.289 223.225H475.648V218.463C475.648 213.372 479.15 209.159 483.717 208.457C484.721 210.256 487.752 214.557 493.937 214.316C496.845 214.206 499.548 213.614 501.78 212.912C504.463 212.078 507.146 213.833 507.822 216.576C507.924 217.19 507.986 217.805 507.986 218.441V223.203H511.345C514.437 223.203 516.977 225.924 516.977 229.259Z" fill="#E57281"/>
<path d="M510.546 223.203H507.966V217.915C507.966 217.454 507.904 216.993 507.802 216.576C507.126 213.833 504.443 212.078 501.76 212.912C499.528 213.614 496.845 214.206 493.916 214.316C487.731 214.557 484.7 210.256 483.697 208.457C479.13 209.159 475.628 213.372 475.628 218.463V223.225H472.412C472.412 223.225 468.726 208.94 471.491 204.902C474.214 200.931 477.491 202.664 477.491 202.664C477.491 202.664 475.525 190.771 486.502 190.991C497.459 191.21 511.713 204.837 512.758 207.338C514.396 211.178 510.546 223.203 510.546 223.203Z" fill="#9A3B82"/>
<path d="M509.214 230.378C509.214 228.03 510.996 226.143 513.167 226.143" stroke="#9A3B82" stroke-width="5" stroke-miterlimit="10" stroke-linecap="round"/>
<path d="M474.439 230.378C474.439 228.03 472.658 226.143 470.487 226.143" stroke="#9A3B82" stroke-width="5" stroke-miterlimit="10" stroke-linecap="round"/>
<path d="M502.805 218.463C502.805 218.463 499.896 216.181 496.189 217.827" stroke="#9A3B82" stroke-width="5" stroke-miterlimit="10" stroke-linecap="round"/>
<path d="M480.604 218.463C480.604 218.463 483.512 216.181 487.219 217.827" stroke="#9A3B82" stroke-width="5" stroke-miterlimit="10" stroke-linecap="round"/>
<path d="M496.906 234.657C496.906 234.657 495.329 238.299 490.496 236.39" stroke="#9A3B82" stroke-width="5" stroke-miterlimit="10" stroke-linecap="round"/>
<path d="M490.271 232.77C491.52 232.858 493.424 232.77 493.424 232.77" stroke="#9A3B82" stroke-width="5" stroke-miterlimit="10" stroke-linecap="round"/>
<path d="M499.507 227.613C500.072 227.613 500.531 226.788 500.531 225.77C500.531 224.752 500.072 223.927 499.507 223.927C498.941 223.927 498.483 224.752 498.483 225.77C498.483 226.788 498.941 227.613 499.507 227.613Z" fill="#9A3B82"/>
<path d="M484.823 227.613C485.388 227.613 485.847 226.788 485.847 225.77C485.847 224.752 485.388 223.927 484.823 223.927C484.257 223.927 483.799 224.752 483.799 225.77C483.799 226.788 484.257 227.613 484.823 227.613Z" fill="#9A3B82"/>
<path d="M487.26 231.98H480.809C479.56 231.98 478.556 230.905 478.556 229.566V222.654C478.556 221.316 479.56 220.24 480.809 220.24H487.26C488.509 220.24 489.513 221.316 489.513 222.654V229.566C489.533 230.883 488.509 231.98 487.26 231.98Z" stroke="white" stroke-width="5" stroke-miterlimit="10"/>
<path d="M503.05 231.98H496.599C495.35 231.98 494.346 230.905 494.346 229.566V222.654C494.346 221.316 495.35 220.24 496.599 220.24H503.05C504.299 220.24 505.303 221.316 505.303 222.654V229.566C505.303 230.883 504.299 231.98 503.05 231.98Z" stroke="white" stroke-width="5" stroke-miterlimit="10"/>
<path d="M489.534 224.805H494.346" stroke="white" stroke-width="5" stroke-miterlimit="10"/>
<path d="M504.75 320.673H482.365C480.338 320.673 478.679 318.918 478.679 316.723V303.974C478.679 301.802 480.317 300.025 482.365 300.025H504.75C506.777 300.025 508.436 301.78 508.436 303.974V316.723C508.436 318.896 506.798 320.673 504.75 320.673Z" stroke="#66B0F0" stroke-width="6" stroke-miterlimit="10" stroke-linejoin="round"/>
<path d="M494.121 315.538H486.543C485.335 315.538 484.352 314.485 484.352 313.19V307.507C484.352 306.213 485.335 305.159 486.543 305.159H494.121C495.329 305.159 496.312 306.213 496.312 307.507V313.19C496.312 314.485 495.329 315.538 494.121 315.538Z" fill="#66B0F0"/>
<path d="M501.493 315.385L499.159 313.717C498.524 313.256 498.135 312.466 498.135 311.611V309.109C498.135 308.253 498.524 307.463 499.159 307.003L501.493 305.335C502.046 304.94 502.763 305.379 502.763 306.125V314.617C502.784 315.341 502.046 315.78 501.493 315.385Z" fill="#66B0F0"/>
<path d="M804.127 392.492H260.444" stroke="#3FB1B5" stroke-width="6" stroke-miterlimit="10" stroke-linecap="round"/>
<path d="M435.487 396.332V667.238H421.212V615.673C421.212 610.867 417.567 606.961 413.082 606.961H310.907C306.422 606.961 302.777 610.867 302.777 615.673V667.238H288.502V396.332H435.487Z" fill="white" stroke="#3FB1B5" stroke-width="6" stroke-miterlimit="10" stroke-linecap="round"/>
<path d="M435.917 396.332V468.217L288.502 598.272L288.522 396.332H435.917Z" fill="#D0F0E4"/>
<path d="M421.212 416.958V466.088C421.212 470.652 417.772 474.339 413.512 474.339H310.497C306.238 474.339 302.797 470.652 302.797 466.088V416.958C302.797 412.394 306.238 408.708 310.497 408.708H413.512C417.772 408.708 421.212 412.394 421.212 416.958Z" stroke="#3FB1B5" stroke-width="6" stroke-miterlimit="10" stroke-linecap="round"/>
<path d="M388.199 511.554H337.49L335.381 495.996H386.11L388.199 511.554Z" fill="#F8DA30"/>
<path d="M415.253 487.022C408.924 487.022 403.804 492.507 403.804 499.288V511.554H360.653V499.288C360.653 492.507 365.773 487.022 372.101 487.022H415.253Z" fill="white" stroke="#3FB1B5" stroke-width="6" stroke-miterlimit="10" stroke-linecap="round"/>
<path d="M426.005 495.996H382.853C381.522 490.818 377.078 487.022 371.814 487.022H414.966C420.229 487.022 424.653 490.818 426.005 495.996Z" fill="white" stroke="#3FB1B5" stroke-width="6" stroke-miterlimit="10" stroke-linecap="round"/>
<path d="M421.212 519.804V568.934C421.212 573.499 417.772 577.185 413.512 577.185H310.497C306.238 577.185 302.797 573.499 302.797 568.934V519.804C302.797 515.24 306.238 511.554 310.497 511.554H413.512C417.772 511.554 421.212 515.24 421.212 519.804Z" stroke="#3FB1B5" stroke-width="6" stroke-miterlimit="10" stroke-linecap="round"/>
<path d="M340.91 440.547C340.91 436.641 343.859 433.459 347.525 433.459H376.504C380.15 433.459 383.119 436.619 383.119 440.547" stroke="#3FB1B5" stroke-width="6" stroke-miterlimit="10" stroke-linecap="round"/>
<path d="M340.91 543.393C340.91 539.487 343.859 536.305 347.525 536.305H376.504C380.15 536.305 383.119 539.465 383.119 543.393" stroke="#3FB1B5" stroke-width="6" stroke-miterlimit="10" stroke-linecap="round"/>
<path d="M782.479 396.332H767.263V667.831H782.479V396.332Z" fill="white" stroke="#3FB1B5" stroke-width="6" stroke-miterlimit="10" stroke-linecap="round"/>
<path d="M523.878 667.831H841.441" stroke="#3FB1B5" stroke-width="6" stroke-miterlimit="10" stroke-linecap="round"/>
<path d="M331.714 355.255H322.519C322.519 355.255 309.391 296.645 297.861 294.736C286.331 292.827 285.737 315.385 285.737 315.385C285.737 315.385 285.942 281.088 314.757 285.784C343.593 290.48 331.714 355.255 331.714 355.255Z" fill="white" stroke="#3FB1B5" stroke-width="6" stroke-miterlimit="10" stroke-linecap="round"/>
<path d="M300.216 287.276C300.216 287.276 326.492 276.875 327.68 354.377" stroke="#3FB1B5" stroke-width="6" stroke-miterlimit="10" stroke-linecap="round"/>
<path d="M356.762 354.377H313.569V392.053H356.762V354.377Z" fill="#FE5244"/>
<path d="M365.855 373.226C363.11 374.499 359.833 374.345 356.782 372.919C354.529 371.866 352.399 370.132 350.679 367.762C348.303 364.471 346.706 359.973 346.706 354.377C346.706 340.816 336.63 332.303 332.493 350.252C332.206 351.503 331.94 352.863 331.714 354.377V354.333V354.245C331.714 354.202 331.714 354.136 331.735 354.07V353.982C331.817 352.863 332.124 349.55 333.066 345.556C333.762 342.594 334.807 339.302 336.363 336.252C337.142 334.738 338.043 333.29 339.108 331.995C341.852 328.616 345.62 326.246 350.761 326.246C360.223 326.246 367.145 338.183 369.787 350.076C372.101 360.411 371.159 370.747 365.855 373.226Z" fill="white" stroke="#3FB1B5" stroke-width="6" stroke-miterlimit="10" stroke-linecap="round"/>
<path d="M339.128 331.995C339.128 331.995 358.093 317.535 363.663 373.643" stroke="#3FB1B5" stroke-width="6" stroke-miterlimit="10" stroke-linecap="round"/>
<path d="M285.122 315.385C285.122 319.005 284.733 332.851 297.062 333.488C309.391 334.124 310.62 314.178 310.62 314.178C310.62 314.178 304.558 296.536 297.861 294.736C286.536 291.686 285.122 315.385 285.122 315.385Z" fill="#3FB1B5"/>
<path d="M346.706 354.377H331.714C335.175 331.14 346.706 339.873 346.706 354.377Z" fill="#3FB1B5"/>
<path opacity="0.4" d="M601.293 183.706V328.55C601.293 336.34 595.395 342.638 588.145 342.638H433.418C423.711 356.966 403.702 357.032 393.912 342.638L393.892 342.616C390.001 342.331 386.56 340.202 384.348 337.064L387.912 333.773L478.843 249.688L565.432 169.618H588.145C595.395 169.618 601.293 175.938 601.293 183.706Z" fill="white"/>
<path opacity="0.4" d="M365.855 373.884C363.131 375.201 359.833 375.003 356.782 373.577V392.053H324.895L350.699 368.201L356.802 362.562L361.451 358.261L370.442 350.076C373.063 362.057 371.609 371.054 365.855 373.884Z" fill="white"/>
<path d="M198.021 190.245C197.776 190.245 197.53 190.069 197.448 189.806C197.346 189.455 197.509 189.082 197.817 188.972L199.742 188.248C200.069 188.138 200.418 188.314 200.52 188.643C200.622 188.994 200.459 189.367 200.151 189.477L198.226 190.201C198.144 190.223 198.083 190.245 198.021 190.245ZM202.855 188.445C202.609 188.445 202.363 188.27 202.281 188.006C202.179 187.655 202.343 187.282 202.65 187.173L204.575 186.448C204.903 186.339 205.251 186.514 205.353 186.843C205.456 187.195 205.292 187.568 204.985 187.677L203.059 188.401C202.998 188.423 202.916 188.445 202.855 188.445ZM207.688 186.624C207.442 186.624 207.196 186.448 207.115 186.185C207.012 185.834 207.176 185.461 207.483 185.351L209.408 184.627C209.736 184.517 210.084 184.693 210.187 185.022C210.289 185.373 210.125 185.746 209.818 185.856L207.893 186.58C207.831 186.624 207.749 186.624 207.688 186.624ZM212.521 184.825C212.275 184.825 212.03 184.649 211.948 184.386C211.845 184.035 212.009 183.662 212.316 183.552L214.242 182.828C214.569 182.718 214.917 182.894 215.02 183.223C215.122 183.574 214.958 183.947 214.651 184.057L212.726 184.781C212.665 184.825 212.603 184.825 212.521 184.825ZM217.355 183.025C217.109 183.025 216.863 182.85 216.781 182.587C216.679 182.235 216.843 181.862 217.15 181.753L219.075 181.029C219.403 180.919 219.751 181.094 219.853 181.424C219.955 181.775 219.792 182.148 219.484 182.257L217.559 182.981C217.498 183.025 217.436 183.025 217.355 183.025ZM222.208 181.226C221.963 181.226 221.717 181.051 221.635 180.787C221.532 180.436 221.696 180.063 222.003 179.953L223.929 179.229C224.256 179.12 224.604 179.295 224.707 179.624C224.809 179.975 224.645 180.348 224.338 180.458L222.413 181.182C222.331 181.226 222.27 181.226 222.208 181.226ZM227.042 179.427C226.796 179.427 226.55 179.251 226.468 178.988C226.366 178.637 226.53 178.264 226.837 178.154L228.762 177.43C229.09 177.32 229.438 177.496 229.54 177.825C229.643 178.176 229.479 178.549 229.171 178.659L227.246 179.383C227.164 179.405 227.103 179.427 227.042 179.427ZM231.875 177.627C231.629 177.627 231.383 177.452 231.301 177.189C231.199 176.837 231.363 176.464 231.67 176.355L233.595 175.631C233.923 175.521 234.271 175.696 234.373 176.026C234.476 176.377 234.312 176.75 234.005 176.859L232.08 177.584C231.998 177.605 231.936 177.627 231.875 177.627ZM236.708 175.828C236.462 175.828 236.217 175.653 236.135 175.389C236.032 175.038 236.196 174.665 236.503 174.555L238.428 173.831C238.756 173.722 239.104 173.897 239.207 174.226C239.309 174.577 239.145 174.95 238.838 175.06L236.913 175.784C236.851 175.806 236.77 175.828 236.708 175.828ZM241.541 174.029C241.296 174.029 241.05 173.853 240.968 173.59C240.866 173.239 241.029 172.866 241.337 172.756L243.262 172.032C243.589 171.922 243.938 172.098 244.04 172.427C244.142 172.778 243.979 173.151 243.671 173.261L241.746 173.985C241.685 174.007 241.603 174.029 241.541 174.029ZM246.375 172.229C246.129 172.229 245.883 172.054 245.801 171.791C245.699 171.44 245.863 171.067 246.17 170.957L248.095 170.233C248.423 170.123 248.771 170.299 248.873 170.628C248.976 170.979 248.812 171.352 248.505 171.461L246.579 172.186C246.518 172.208 246.436 172.229 246.375 172.229ZM251.208 170.408C250.962 170.408 250.716 170.233 250.635 169.969C250.532 169.618 250.696 169.245 251.003 169.136L252.928 168.411C253.256 168.302 253.604 168.477 253.707 168.806C253.809 169.157 253.645 169.531 253.338 169.64L251.413 170.364C251.351 170.408 251.29 170.408 251.208 170.408ZM256.041 168.609C255.795 168.609 255.55 168.433 255.468 168.17C255.365 167.819 255.529 167.446 255.836 167.336L257.762 166.612C258.089 166.502 258.437 166.678 258.54 167.007C258.642 167.358 258.478 167.731 258.171 167.841L256.246 168.565C256.185 168.609 256.123 168.609 256.041 168.609ZM260.895 166.81C260.649 166.81 260.403 166.634 260.322 166.371C260.219 166.02 260.383 165.647 260.69 165.537L262.615 164.813C262.943 164.703 263.291 164.879 263.394 165.208C263.496 165.559 263.332 165.932 263.025 166.042L261.1 166.766C261.018 166.81 260.956 166.81 260.895 166.81ZM265.728 165.01C265.483 165.01 265.237 164.835 265.155 164.571C265.052 164.22 265.216 163.847 265.523 163.738L267.449 163.013C267.776 162.904 268.124 163.079 268.227 163.408C268.329 163.76 268.165 164.133 267.858 164.242L265.933 164.966C265.851 165.01 265.79 165.01 265.728 165.01ZM270.562 163.211C270.316 163.211 270.07 163.035 269.988 162.772C269.886 162.421 270.05 162.048 270.357 161.938L272.282 161.214C272.61 161.104 272.958 161.28 273.06 161.609C273.163 161.96 272.999 162.333 272.691 162.443L270.766 163.167C270.684 163.211 270.623 163.211 270.562 163.211ZM275.395 161.412C275.149 161.412 274.903 161.236 274.821 160.973C274.719 160.622 274.883 160.249 275.19 160.139L277.115 159.415C277.443 159.305 277.791 159.481 277.893 159.81C277.996 160.161 277.832 160.534 277.525 160.644L275.6 161.368C275.538 161.39 275.456 161.412 275.395 161.412ZM280.228 159.612C279.982 159.612 279.737 159.437 279.655 159.173C279.552 158.822 279.716 158.449 280.023 158.34L281.948 157.616C282.276 157.506 282.624 157.681 282.727 158.011C282.829 158.362 282.665 158.735 282.358 158.844L280.433 159.568C280.371 159.59 280.29 159.612 280.228 159.612Z" fill="#F8DA30"/>
<path d="M219.812 190.245C219.464 190.245 219.197 189.959 219.197 189.586C219.197 183.64 217.477 179.317 214.057 176.772C211.497 174.863 208.896 174.687 208.875 174.687C208.527 174.665 208.281 174.358 208.302 173.985C208.322 173.612 208.609 173.349 208.937 173.37C209.06 173.37 211.866 173.546 214.712 175.653C219.443 179.163 220.426 185.176 220.426 189.586C220.426 189.937 220.16 190.245 219.812 190.245Z" fill="#3FB1B5"/>
<path d="M317.665 190.245H198.021C197.796 190.245 197.571 190.113 197.468 189.872C197.366 189.652 197.386 189.389 197.53 189.191L246.149 119.742C246.252 119.589 246.415 119.501 246.579 119.479C246.743 119.457 246.928 119.523 247.05 119.654L318.095 189.104C318.28 189.279 318.341 189.564 318.259 189.828C318.157 190.069 317.932 190.245 317.665 190.245ZM199.25 188.928H316.088L246.723 121.103L199.25 188.928Z" fill="#3FB1B5"/>
<path d="M187.269 194.809C184.341 194.809 181.965 192.263 181.965 189.125C181.965 185.988 184.341 183.442 187.269 183.442C190.198 183.442 192.573 185.988 192.573 189.125C192.573 192.263 190.198 194.809 187.269 194.809ZM187.269 184.737C185.016 184.737 183.194 186.69 183.194 189.104C183.194 191.517 185.016 193.47 187.269 193.47C189.522 193.47 191.345 191.517 191.345 189.104C191.345 186.69 189.522 184.737 187.269 184.737Z" fill="#F8DA30"/>
<path d="M192.574 189.125H191.345V194.15H192.574V189.125Z" fill="#F8DA30"/>
<path d="M250.266 115.419C247.337 115.419 244.961 112.874 244.961 109.736C244.961 106.598 247.337 104.053 250.266 104.053C253.194 104.053 255.57 106.598 255.57 109.736C255.57 112.852 253.194 115.419 250.266 115.419ZM250.266 105.348C248.013 105.348 246.19 107.301 246.19 109.714C246.19 112.128 248.013 114.103 250.266 114.103C252.519 114.103 254.341 112.15 254.341 109.736C254.341 107.323 252.519 105.348 250.266 105.348Z" fill="#F8DA30"/>
<path d="M246.149 100.937H244.92V114.739H246.149V100.937Z" fill="#F8DA30"/>
<path d="M327.23 194.677C324.301 194.677 321.925 192.132 321.925 188.994C321.925 185.856 324.301 183.311 327.23 183.311V184.627C324.977 184.627 323.154 186.58 323.154 188.994C323.154 191.408 324.977 193.36 327.23 193.36V194.677Z" fill="#F8DA30"/>
<path d="M637.399 471.376V593.51H611.062L594.289 543.327L570.266 471.376H637.399Z" fill="#A0505A"/>
<path d="M570.266 471.376H637.399V510.588L578.253 495.272L570.266 471.376Z" fill="#73325A"/>
<path d="M637.399 543.327V593.51H611.062L594.289 543.327C594.289 543.327 607.867 551.358 637.399 543.327Z" stroke="white" stroke-width="6" stroke-miterlimit="10" stroke-linecap="round"/>
<path d="M607.99 555.11C609.641 555.11 610.98 553.676 610.98 551.907C610.98 550.137 609.641 548.703 607.99 548.703C606.338 548.703 605 550.137 605 551.907C605 553.676 606.338 555.11 607.99 555.11Z" stroke="white" stroke-width="6" stroke-miterlimit="10" stroke-linecap="round"/>
<path d="M622.244 565.445C623.895 565.445 625.234 564.011 625.234 562.242C625.234 560.472 623.895 559.038 622.244 559.038C620.593 559.038 619.254 560.472 619.254 562.242C619.254 564.011 620.593 565.445 622.244 565.445Z" stroke="white" stroke-width="6" stroke-miterlimit="10" stroke-linecap="round"/>
<path d="M632.852 553.969C634.504 553.969 635.842 552.535 635.842 550.766C635.842 548.996 634.504 547.562 632.852 547.562C631.201 547.562 629.862 548.996 629.862 550.766C629.862 552.535 631.201 553.969 632.852 553.969Z" stroke="white" stroke-width="6" stroke-miterlimit="10" stroke-linecap="round"/>
<path d="M628.654 577.47C630.306 577.47 631.644 576.036 631.644 574.266C631.644 572.497 630.306 571.063 628.654 571.063C627.003 571.063 625.664 572.497 625.664 574.266C625.664 576.036 627.003 577.47 628.654 577.47Z" stroke="white" stroke-width="6" stroke-miterlimit="10" stroke-linecap="round"/>
<path d="M610.98 571.633C612.631 571.633 613.97 570.199 613.97 568.43C613.97 566.66 612.631 565.226 610.98 565.226C609.328 565.226 607.99 566.66 607.99 568.43C607.99 570.199 609.328 571.633 610.98 571.633Z" stroke="white" stroke-width="6" stroke-miterlimit="10" stroke-linecap="round"/>
<path d="M615.854 589.188C617.505 589.188 618.844 587.753 618.844 585.984C618.844 584.215 617.505 582.78 615.854 582.78C614.202 582.78 612.864 584.215 612.864 585.984C612.864 587.753 614.202 589.188 615.854 589.188Z" stroke="white" stroke-width="6" stroke-miterlimit="10" stroke-linecap="round"/>
<path d="M649.851 616.287L631.787 656.464C629.227 662.938 623.309 667.151 616.735 667.151H593.695C587.796 667.151 584.212 660.743 586.465 654.907L609.628 595.046C610.918 591.404 613.191 588.376 616.038 586.247C618.905 584.119 622.346 582.912 625.971 582.912C631.009 582.912 636.006 586.576 639.324 590.636L647.352 599.918C651.059 604.438 652.022 610.779 649.851 616.287Z" fill="#66B0F0"/>
<path d="M649.85 616.287L631.787 656.464C629.227 662.938 623.308 667.151 616.734 667.151H592.24C589.967 667.151 588.677 665.637 587.919 663.552H593.367C599.941 663.552 605.859 659.339 608.419 652.866L629.248 606.325C631.193 601.98 635.31 599.194 639.815 599.194C645.693 599.194 650.158 603.802 650.977 609.638C651.059 611.877 650.69 614.137 649.85 616.287Z" fill="white" stroke="#66B0F0" stroke-width="6" stroke-miterlimit="10" stroke-linejoin="round"/>
<path d="M645.693 597.987C643.523 596.714 640.901 595.792 638.607 595.792C634.204 595.792 630.129 598.535 628.224 602.792L606.659 650.979C603.914 657.935 597.565 662.433 590.5 662.433H586.527C586.322 662.016 586.179 661.577 586.035 661.116H590.5C597.074 661.116 602.972 656.925 605.532 650.452L605.553 650.43L627.139 602.222C629.248 597.504 633.754 594.476 638.628 594.476C640.184 594.476 642.048 595.024 643.645 595.617L645.693 597.987Z" fill="white"/>
<path d="M570.266 471.376L565.125 543.327L562.832 575.561C562.832 575.561 547.861 593.423 530.821 582.407L522.937 543.349L504.894 453.976C500.019 429.817 515.42 406.316 538.297 403.046L570.266 471.376Z" fill="#A0505A"/>
<path d="M565.125 543.327L562.832 576.439C562.832 576.439 547.861 594.3 530.821 583.285L522.937 543.349C542.741 549.712 565.125 543.327 565.125 543.327Z" stroke="white" stroke-width="6" stroke-miterlimit="10" stroke-linecap="round"/>
<path d="M541.594 563.229C543.245 563.229 544.584 561.795 544.584 560.026C544.584 558.256 543.245 556.822 541.594 556.822C539.942 556.822 538.604 558.256 538.604 560.026C538.604 561.795 539.942 563.229 541.594 563.229Z" stroke="white" stroke-width="6" stroke-miterlimit="10" stroke-linecap="round"/>
<path d="M560.599 558.314C562.251 558.314 563.59 556.88 563.59 555.11C563.59 553.341 562.251 551.907 560.599 551.907C558.948 551.907 557.609 553.341 557.609 555.11C557.609 556.88 558.948 558.314 560.599 558.314Z" stroke="white" stroke-width="6" stroke-miterlimit="10" stroke-linecap="round"/>
<path d="M530.125 553.969C531.776 553.969 533.115 552.535 533.115 550.766C533.115 548.996 531.776 547.562 530.125 547.562C528.473 547.562 527.135 548.996 527.135 550.766C527.135 552.535 528.473 553.969 530.125 553.969Z" stroke="white" stroke-width="6" stroke-miterlimit="10" stroke-linecap="round"/>
<path d="M538.604 580.674C540.255 580.674 541.594 579.239 541.594 577.47C541.594 575.701 540.255 574.267 538.604 574.267C536.952 574.267 535.614 575.701 535.614 577.47C535.614 579.239 536.952 580.674 538.604 580.674Z" stroke="white" stroke-width="6" stroke-miterlimit="10" stroke-linecap="round"/>
<path d="M552.551 574.267C554.202 574.267 555.541 572.832 555.541 571.063C555.541 569.294 554.202 567.859 552.551 567.859C550.899 567.859 549.561 569.294 549.561 571.063C549.561 572.832 550.899 574.267 552.551 574.267Z" stroke="white" stroke-width="6" stroke-miterlimit="10" stroke-linecap="round"/>
<path d="M582.574 583.241L562.831 667.831H556.606C556.319 667.831 556.053 667.809 555.766 667.787C551.055 667.326 547.082 663.069 546.079 658.044L530.801 582.363C547.84 593.401 562.831 575.539 562.831 575.539L582.574 583.241Z" fill="#66B0F0"/>
<path d="M583.578 626.644C587.735 603.121 588.882 585.15 581.714 583.702C574.546 582.254 561.787 597.855 557.63 621.378C553.472 644.901 555.643 665.702 562.811 667.151C569.979 668.621 579.42 650.189 583.578 626.644Z" fill="white" stroke="#66B0F0" stroke-width="6" stroke-miterlimit="10" stroke-linejoin="round"/>
<path d="M554.762 621.005C552.612 633.205 551.977 644.988 553.001 654.204C553.738 660.831 555.295 665.549 557.425 667.831H556.606C556.319 667.831 556.053 667.809 555.766 667.787C553.841 665.066 552.469 660.502 551.772 654.358C550.728 645.032 551.363 633.095 553.554 620.763C555.622 609.09 559.8 598.14 565.35 589.912C568.668 584.997 572.15 581.552 575.324 579.994L577.167 580.652C569.856 582.978 558.756 598.426 554.762 621.005Z" fill="white"/>
<path d="M538.296 403.024L631.726 392.711L725.115 420.776L724.316 434.074C723.046 455.051 706.171 471.376 686.551 471.376H570.286L538.296 403.024Z" fill="#FE5244"/>
<path d="M719.79 419.811C719.79 438.857 702.055 462.16 682.435 462.16H566.17" stroke="white" stroke-width="6" stroke-miterlimit="10" stroke-linecap="round" stroke-linejoin="round"/>
<path d="M708.711 416.015C705.803 433.02 690.279 451.189 673.28 451.189H561.459" stroke="white" stroke-width="6" stroke-miterlimit="10" stroke-linecap="round" stroke-linejoin="round"/>
<path d="M696.116 411.977C691.201 426.416 677.868 439.998 663.43 439.998H555.521" stroke="white" stroke-width="6" stroke-miterlimit="10" stroke-linecap="round" stroke-linejoin="round"/>
<path d="M686.428 409.146C679.977 419.657 669.389 427.93 658.104 427.93H550.195" stroke="white" stroke-width="6" stroke-miterlimit="10" stroke-linecap="round" stroke-linejoin="round"/>
<path d="M675.615 405.899C669.41 412.592 661.382 416.958 652.985 416.958H545.076" stroke="white" stroke-width="6" stroke-miterlimit="10" stroke-linecap="round" stroke-linejoin="round"/>
<path d="M661.545 401.532C657.163 404.187 652.37 405.767 647.455 405.767H539.546" stroke="white" stroke-width="6" stroke-miterlimit="10" stroke-linecap="round" stroke-linejoin="round"/>
<path d="M570.061 471.376L538.092 403.024" stroke="white" stroke-width="6" stroke-miterlimit="10" stroke-linecap="round" stroke-linejoin="round"/>
<path d="M730.235 329.187C721.429 331.864 712.766 331.074 711.844 328.199C710.984 325.456 714.875 320.761 722.76 317.645C723.149 317.491 723.558 317.338 723.968 317.184C726.344 316.328 728.719 315.78 730.952 315.494C737.567 314.595 742.953 315.867 743.629 318.018C744.55 320.892 739.553 326.356 730.235 329.187Z" fill="white" stroke="#3FB1B5" stroke-width="6" stroke-miterlimit="10" stroke-linejoin="round"/>
<path d="M724.664 393.172H721.285L712.417 329.033V328.989L712.192 327.387C712.622 324.469 716.882 320.344 724.398 317.667C728.146 316.328 731.873 315.736 735.048 315.67L738.283 325.171L738.591 326.071L748.831 356.154C754.975 374.126 742.543 393.172 724.664 393.172Z" fill="#A0505A"/>
<path d="M738.488 325.851C736.338 327.3 733.553 328.638 730.235 329.648C722.616 331.952 714.895 331.008 712.417 329.033V328.989L712.192 327.387C712.622 324.469 716.882 320.344 724.398 317.667C728.146 316.328 731.873 315.736 735.048 315.67L738.488 325.851Z" fill="#73325A"/>
<path d="M614.974 340.4L604.222 369.057C598.917 383.21 586.097 392.492 571.843 392.492H427.315V378.317C427.315 374.894 429.281 371.822 432.272 370.615L447.12 364.581C448.471 364.032 449.884 363.747 451.318 363.747H468.173L563.569 353.434L580.035 313.037L614.974 340.4Z" fill="#A0505A"/>
<path d="M442.88 373.292L431.678 377.834C429.425 378.756 427.93 381.06 427.93 383.649" stroke="#73325A" stroke-width="6" stroke-miterlimit="10" stroke-linecap="round"/>
<path d="M442.88 380.533L431.678 385.075C429.425 385.997 427.93 388.301 427.93 390.89" stroke="#73325A" stroke-width="6" stroke-miterlimit="10" stroke-linecap="round"/>
<path d="M442.88 387.511L431.678 391.834" stroke="#73325A" stroke-width="6" stroke-miterlimit="10" stroke-linecap="round"/>
<path d="M441.713 367.016C441.713 367.016 452.199 338.337 455.557 338.82C458.916 339.302 446.259 365.173 446.259 365.173L441.713 367.016Z" fill="#FE5244"/>
<path d="M580.035 313.059L577.618 318.961L608.563 357.471L614.974 340.4L580.035 313.059Z" fill="#73325A"/>
<path d="M712.417 329.055L725.115 420.776L631.747 392.711L614.973 340.378L571.679 306.476L586.875 287.078C600.433 269.765 620.442 259.76 641.536 259.76H671.539C697.631 259.76 721.654 275.032 734.167 299.564L743.895 317.601C743.895 317.601 740.966 312.993 725.176 317.623C711.27 321.726 712.417 329.055 712.417 329.055Z" fill="#3FB1B5"/>
<path d="M614.974 339.961L619.827 317.403" stroke="white" stroke-width="6" stroke-miterlimit="10" stroke-linecap="round" stroke-linejoin="round"/>
<path d="M722.76 399.36L706.97 294.188" stroke="white" stroke-width="6" stroke-miterlimit="10" stroke-linecap="round" stroke-linejoin="round"/>
<path d="M631.726 392.294L724.91 420.776" stroke="white" stroke-width="6" stroke-miterlimit="10" stroke-linecap="round" stroke-linejoin="round"/>
<path d="M636.764 245.102V259.847L661.053 259.628V233.604L636.764 245.102Z" fill="#A0505A"/>
<path d="M663.02 229.061V229.456C663.02 233.406 660.234 236.61 656.548 236.61H655.114C654.193 240.516 646.001 245.08 640.184 245.08H633.406C625.992 245.08 620.319 237.948 621.527 230.093L621.855 227.964L619.848 226.757C618.701 226.055 618.373 224.453 619.172 223.312L623.514 217.168L624.456 211.112C625.214 206.131 628.265 202.072 632.32 200.075C633.918 219.363 649.81 221.645 654.008 221.908H656.343C660.03 221.908 663.02 225.112 663.02 229.061Z" fill="#A0505A"/>
<path d="M652.268 230.949C652.268 227.833 654.623 225.309 657.531 225.309" stroke="#73325A" stroke-width="6" stroke-miterlimit="10" stroke-linecap="round"/>
<path d="M630.067 222.106C630.644 222.106 631.112 220.946 631.112 219.516C631.112 218.086 630.644 216.927 630.067 216.927C629.491 216.927 629.023 218.086 629.023 219.516C629.023 220.946 629.491 222.106 630.067 222.106Z" fill="#73325A"/>
<path d="M628.47 211.507C628.47 211.507 631.357 211.2 634.327 215.589" stroke="#73325A" stroke-width="6" stroke-miterlimit="10" stroke-linecap="round"/>
<path d="M654.008 221.908H656.343C660.029 221.908 663.02 225.112 663.02 229.061V229.456C663.02 233.406 660.234 236.61 656.548 236.61L654.971 237.795C648.335 242.359 639.16 260.308 641.413 273.013C643.953 287.298 655.565 290.48 666.296 288.285C677.028 286.091 684.851 279.398 682.312 265.092C682.025 263.402 681.554 261.712 680.96 260.045C681.144 260.111 681.308 260.176 681.493 260.242C694.395 264.016 709.55 264.455 713.728 253.659C717.906 242.864 716.964 232.177 704.41 226.604C697.119 223.356 687.206 223.378 679.526 225.616C683.397 211.2 676.516 195.16 663.88 193.558C644.035 191.034 632.648 199.812 632.341 200.053C632.32 202.598 633.938 220.657 654.008 221.908Z" fill="#73325A"/>
<path d="M680.039 225.112C678.421 230.751 675.082 236.785 669.655 240.889C669.655 240.889 679.24 247.669 681.493 260.264" stroke="white" stroke-width="6" stroke-miterlimit="10" stroke-linecap="round" stroke-linejoin="round"/>
<path d="M685.609 224.629H680.182V218.814C680.182 215.764 682.475 213.307 685.322 213.307H685.609C688.456 213.307 690.749 215.764 690.749 218.814V219.121C690.77 222.149 688.456 224.629 685.609 224.629Z" stroke="#FE5244" stroke-width="6" stroke-miterlimit="10" stroke-linejoin="round"/>
<path d="M683.622 230.597L680.141 224.673L685.67 220.943C688.435 219.077 692.101 219.955 693.842 222.917L694.169 223.466C695.91 226.428 695.091 230.356 692.326 232.221L691.814 232.572C689.008 234.437 685.363 233.56 683.622 230.597Z" stroke="#FE5244" stroke-width="6" stroke-miterlimit="10" stroke-linejoin="round"/>
<path d="M651.551 241.174L655.422 237.202L659.21 241.788C661.074 244.092 660.828 247.581 658.678 249.556L658.453 249.754C656.302 251.75 653.046 251.487 651.203 249.183L651.018 248.942C649.155 246.66 649.4 243.171 651.551 241.174Z" stroke="#FE5244" stroke-width="6" stroke-miterlimit="10" stroke-linejoin="round"/>
<path d="M657.203 244.026L655.462 237.29L661.75 235.425C664.904 234.481 668.16 236.456 669.041 239.835L669.205 240.472C670.085 243.851 668.242 247.34 665.088 248.283L664.494 248.459C661.34 249.381 658.084 247.384 657.203 244.026Z" stroke="#FE5244" stroke-width="6" stroke-miterlimit="10" stroke-linejoin="round"/>
<path d="M601.313 488.251L565.637 667.151" stroke="#F8DA30" stroke-width="6" stroke-miterlimit="10" stroke-linecap="round"/>
<path d="M692.613 488.251L728.289 667.151" stroke="#F8DA30" stroke-width="6" stroke-miterlimit="10" stroke-linecap="round"/>
<path d="M573.542 627.434H719.893" stroke="#F8DA30" stroke-width="6" stroke-miterlimit="10" stroke-linecap="round"/>
<path d="M720.691 488.251H573.215C571.351 488.251 569.835 486.627 569.835 484.63V474.997C569.835 473 571.351 471.376 573.215 471.376H720.691C722.555 471.376 724.07 473 724.07 474.997V484.63C724.07 486.627 722.555 488.251 720.691 488.251Z" fill="white" stroke="#66B0F0" stroke-width="6" stroke-miterlimit="10" stroke-linejoin="round"/>
</svg>
