<svg width="1024" height="768" viewBox="0 0 1024 768" fill="none" xmlns="http://www.w3.org/2000/svg">
<g clip-path="url(#clip0_2_2180)">
<path d="M766.3 584.5L246.3 569.6C234.608 569.275 223.436 564.699 214.876 556.728C206.316 548.757 200.956 537.939 199.8 526.3L174.7 278.3C174.032 271.662 174.75 264.957 176.808 258.61C178.866 252.264 182.22 246.414 186.658 241.432C191.095 236.449 196.518 232.442 202.585 229.666C208.652 226.889 215.229 225.402 221.9 225.3L800.7 217.3C807.583 217.207 814.406 218.589 820.71 221.353C827.014 224.117 832.654 228.199 837.249 233.325C841.843 238.45 845.287 244.5 847.349 251.068C849.41 257.635 850.042 264.568 849.2 271.4L815.5 542.3C814.015 554.193 808.152 565.105 799.055 572.908C789.958 580.711 778.28 584.844 766.3 584.5V584.5Z" fill="#EAF9F3"/>
<path d="M341.9 629.5H-73.6C-77.5783 629.5 -81.3936 627.92 -84.2066 625.107C-87.0197 622.294 -88.6 618.478 -88.6 614.5V378.9C-88.6 374.922 -87.0197 371.106 -84.2066 368.293C-81.3936 365.48 -77.5783 363.9 -73.6 363.9H341.9C345.878 363.9 349.694 365.48 352.507 368.293C355.32 371.106 356.9 374.922 356.9 378.9V614.5C356.9 618.478 355.32 622.294 352.507 625.107C349.694 627.92 345.878 629.5 341.9 629.5Z" stroke="#B8D8C7" stroke-width="1.8" stroke-linecap="round" stroke-linejoin="round"/>
<path d="M891 613.7H471.9C467.922 613.7 464.106 612.12 461.293 609.307C458.48 606.494 456.9 602.678 456.9 598.7V254.4C456.9 250.422 458.48 246.606 461.293 243.793C464.106 240.98 467.922 239.4 471.9 239.4H891C894.978 239.4 898.794 240.98 901.607 243.793C904.42 246.606 906 250.422 906 254.4V598.7C906 602.678 904.42 606.494 901.607 609.307C898.794 612.12 894.978 613.7 891 613.7Z" stroke="#B8D8C7" stroke-width="1.8" stroke-linecap="round" stroke-linejoin="round"/>
<path d="M242.3 293.5H152.4V284.6H242.3C242.537 284.599 242.771 284.644 242.99 284.734C243.209 284.824 243.408 284.957 243.576 285.124C243.743 285.292 243.876 285.491 243.966 285.71C244.056 285.929 244.101 286.163 244.1 286.4V291.6C244.111 291.844 244.072 292.088 243.987 292.316C243.902 292.545 243.771 292.755 243.603 292.932C243.435 293.109 243.233 293.251 243.009 293.348C242.785 293.446 242.544 293.498 242.3 293.5V293.5Z" stroke="#B8D8C7" stroke-width="1.8" stroke-linecap="round" stroke-linejoin="round"/>
<path d="M226 284.6H205.7C204.642 284.603 203.62 284.218 202.828 283.517C202.035 282.817 201.527 281.85 201.4 280.8L199.8 266.4C199.734 265.796 199.796 265.184 199.982 264.606C200.168 264.027 200.474 263.494 200.879 263.041C201.285 262.588 201.781 262.226 202.336 261.978C202.891 261.729 203.492 261.601 204.1 261.6H227.6C228.207 261.602 228.808 261.732 229.362 261.981C229.916 262.229 230.412 262.592 230.817 263.044C231.222 263.497 231.528 264.029 231.715 264.607C231.901 265.185 231.964 265.796 231.9 266.4L230.3 280.8C230.173 281.85 229.665 282.817 228.872 283.517C228.08 284.218 227.058 284.603 226 284.6Z" stroke="#B8D8C7" stroke-width="1.8" stroke-linecap="round" stroke-linejoin="round"/>
<path d="M213.4 261.7C213.4 261.7 205.4 260.9 203.8 250.1C203.8 250.1 211 252.2 213.3 257.3C213.3 257.3 214.3 245.9 219.7 244.8C219.7 244.8 222.1 253.3 218.3 257.5C218.3 257.5 221.2 252.7 228.6 252.8C227.901 254.906 226.697 256.809 225.093 258.343C223.49 259.877 221.535 260.995 219.4 261.6" fill="#B8D8C7"/>
<path d="M761.7 344.3H741.4C740.342 344.303 739.32 343.918 738.528 343.217C737.735 342.517 737.227 341.55 737.1 340.5L735.5 326.1C735.434 325.496 735.496 324.884 735.682 324.306C735.868 323.727 736.174 323.194 736.579 322.741C736.985 322.288 737.481 321.926 738.036 321.678C738.591 321.429 739.192 321.301 739.8 321.3H763.3C763.907 321.302 764.508 321.432 765.062 321.681C765.616 321.929 766.112 322.292 766.517 322.744C766.922 323.197 767.228 323.729 767.415 324.307C767.601 324.885 767.664 325.496 767.6 326.1L766 340.5C765.855 341.542 765.341 342.498 764.553 343.195C763.764 343.892 762.752 344.284 761.7 344.3V344.3Z" stroke="#B8D8C7" stroke-width="1.8" stroke-linecap="round" stroke-linejoin="round"/>
<path d="M749.2 321.3C749.2 321.3 741.2 320.5 739.6 309.7C739.6 309.7 746.8 311.8 749.1 316.9C749.1 316.9 750.1 305.5 755.5 304.4C755.5 304.4 757.9 312.9 754.1 317.1C754.1 317.1 757 312.3 764.4 312.4C763.701 314.506 762.497 316.409 760.893 317.943C759.29 319.477 757.335 320.595 755.2 321.2" fill="#B8D8C7"/>
<path d="M338.7 413.6H248.5C247.389 413.592 246.325 413.147 245.539 412.361C244.753 411.575 244.308 410.512 244.3 409.4V382C244.308 380.889 244.753 379.825 245.539 379.039C246.325 378.253 247.389 377.808 248.5 377.8H338.7C339.811 377.808 340.875 378.253 341.661 379.039C342.447 379.825 342.892 380.889 342.9 382V409.4C342.914 409.955 342.814 410.508 342.608 411.023C342.402 411.539 342.093 412.008 341.7 412.4C341.308 412.793 340.839 413.102 340.323 413.308C339.808 413.515 339.255 413.614 338.7 413.6Z" stroke="#B8D8C7" stroke-width="1.8" stroke-linecap="round" stroke-linejoin="round"/>
<path d="M304 387.5H283.2C282.805 387.49 282.43 387.329 282.151 387.049C281.871 386.77 281.71 386.395 281.7 386V386C281.71 385.605 281.871 385.23 282.151 384.951C282.43 384.671 282.805 384.51 283.2 384.5H304C304.395 384.51 304.77 384.671 305.049 384.951C305.329 385.23 305.49 385.605 305.5 386V386C305.49 386.395 305.329 386.77 305.049 387.049C304.77 387.329 304.395 387.49 304 387.5V387.5Z" fill="#B8D8C7"/>
<path d="M338.7 459.4H248.5C247.389 459.392 246.325 458.947 245.539 458.161C244.753 457.375 244.308 456.312 244.3 455.2V427.8C244.308 426.689 244.753 425.625 245.539 424.839C246.325 424.053 247.389 423.608 248.5 423.6H338.7C339.811 423.608 340.875 424.053 341.661 424.839C342.447 425.625 342.892 426.689 342.9 427.8V455.2C342.914 455.755 342.814 456.308 342.608 456.823C342.402 457.339 342.093 457.808 341.7 458.2C341.308 458.593 340.839 458.902 340.323 459.108C339.808 459.314 339.255 459.414 338.7 459.4V459.4Z" stroke="#B8D8C7" stroke-width="1.8" stroke-linecap="round" stroke-linejoin="round"/>
<path d="M304 433.3H283.2C282.805 433.29 282.43 433.129 282.151 432.85C281.871 432.57 281.71 432.195 281.7 431.8V431.8C281.71 431.405 281.871 431.03 282.151 430.751C282.43 430.471 282.805 430.31 283.2 430.3H304C304.395 430.31 304.77 430.471 305.049 430.751C305.329 431.03 305.49 431.405 305.5 431.8V431.8C305.49 432.195 305.329 432.57 305.049 432.85C304.77 433.129 304.395 433.29 304 433.3Z" fill="#B8D8C7"/>
<path d="M801.9 491.8H711.7C710.588 491.792 709.525 491.347 708.739 490.561C707.953 489.775 707.508 488.711 707.5 487.6V460.2C707.508 459.089 707.953 458.025 708.739 457.239C709.525 456.453 710.588 456.008 711.7 456H801.9C803.011 456.008 804.075 456.453 804.861 457.239C805.647 458.025 806.092 459.089 806.1 460.2V487.6C806.114 488.155 806.014 488.708 805.808 489.223C805.602 489.739 805.293 490.208 804.9 490.6C804.508 490.993 804.039 491.302 803.523 491.508C803.008 491.714 802.455 491.814 801.9 491.8V491.8Z" stroke="#B8D8C7" stroke-width="1.8" stroke-linecap="round" stroke-linejoin="round"/>
<path d="M767.2 465.6H746.4C746.005 465.59 745.63 465.429 745.35 465.149C745.071 464.87 744.91 464.495 744.9 464.1C744.91 463.705 745.071 463.33 745.35 463.051C745.63 462.771 746.005 462.61 746.4 462.6H767.2C767.595 462.61 767.97 462.771 768.249 463.051C768.529 463.33 768.69 463.705 768.7 464.1C768.704 464.298 768.668 464.495 768.594 464.679C768.52 464.863 768.41 465.03 768.27 465.17C768.13 465.31 767.963 465.42 767.779 465.494C767.595 465.568 767.398 465.604 767.2 465.6V465.6Z" fill="#B8D8C7"/>
<path d="M686.1 491.8H595.9C594.789 491.792 593.725 491.347 592.939 490.561C592.153 489.775 591.708 488.711 591.7 487.6V460.2C591.708 459.089 592.153 458.025 592.939 457.239C593.725 456.453 594.789 456.008 595.9 456H686.1C687.211 456.008 688.275 456.453 689.061 457.239C689.847 458.025 690.292 459.089 690.3 460.2V487.6C690.292 488.711 689.847 489.775 689.061 490.561C688.275 491.347 687.211 491.792 686.1 491.8V491.8Z" stroke="#B8D8C7" stroke-width="1.8" stroke-linecap="round" stroke-linejoin="round"/>
<path d="M651.4 465.6H630.6C630.205 465.59 629.83 465.429 629.551 465.149C629.271 464.87 629.11 464.495 629.1 464.1C629.11 463.705 629.271 463.33 629.551 463.051C629.83 462.771 630.205 462.61 630.6 462.6H651.4C651.795 462.61 652.17 462.771 652.449 463.051C652.729 463.33 652.89 463.705 652.9 464.1C652.904 464.298 652.868 464.495 652.794 464.679C652.72 464.863 652.61 465.03 652.47 465.17C652.33 465.31 652.163 465.42 651.979 465.494C651.795 465.568 651.598 465.604 651.4 465.6Z" fill="#B8D8C7"/>
<path d="M569.5 491.8H479.3C478.189 491.792 477.125 491.347 476.339 490.561C475.553 489.775 475.108 488.711 475.1 487.6V460.2C475.108 459.089 475.553 458.025 476.339 457.239C477.125 456.453 478.189 456.008 479.3 456H569.5C570.611 456.008 571.675 456.453 572.461 457.239C573.247 458.025 573.692 459.089 573.7 460.2V487.6C573.714 488.155 573.614 488.708 573.408 489.223C573.202 489.739 572.893 490.208 572.5 490.6C572.108 490.993 571.639 491.302 571.123 491.508C570.608 491.714 570.055 491.814 569.5 491.8V491.8Z" stroke="#B8D8C7" stroke-width="1.8" stroke-linecap="round" stroke-linejoin="round"/>
<path d="M534.8 465.6H514C513.605 465.59 513.23 465.429 512.951 465.149C512.671 464.87 512.51 464.495 512.5 464.1V464.1C512.51 463.705 512.671 463.33 512.951 463.051C513.23 462.771 513.605 462.61 514 462.6H534.8C535.195 462.61 535.57 462.771 535.849 463.051C536.129 463.33 536.29 463.705 536.3 464.1C536.304 464.298 536.268 464.495 536.194 464.679C536.12 464.863 536.01 465.03 535.87 465.17C535.73 465.31 535.563 465.42 535.379 465.494C535.195 465.568 534.998 465.604 534.8 465.6V465.6Z" fill="#B8D8C7"/>
<path d="M223.7 413.6H133.5C132.389 413.592 131.325 413.147 130.539 412.361C129.753 411.575 129.308 410.512 129.3 409.4V382C129.308 380.889 129.753 379.825 130.539 379.039C131.325 378.253 132.389 377.808 133.5 377.8H223.7C224.811 377.808 225.875 378.253 226.661 379.039C227.447 379.825 227.892 380.889 227.9 382V409.4C227.914 409.955 227.814 410.508 227.608 411.023C227.402 411.539 227.093 412.008 226.7 412.4C226.308 412.793 225.839 413.102 225.323 413.308C224.808 413.515 224.255 413.614 223.7 413.6Z" stroke="#B8D8C7" stroke-width="1.8" stroke-linecap="round" stroke-linejoin="round"/>
<path d="M189 387.5H168.2C167.805 387.49 167.43 387.329 167.151 387.049C166.871 386.77 166.71 386.395 166.7 386V386C166.71 385.605 166.871 385.23 167.151 384.951C167.43 384.671 167.805 384.51 168.2 384.5H189C189.395 384.51 189.77 384.671 190.049 384.951C190.329 385.23 190.49 385.605 190.5 386V386C190.504 386.198 190.468 386.395 190.394 386.579C190.32 386.763 190.21 386.93 190.07 387.07C189.93 387.21 189.763 387.32 189.579 387.394C189.395 387.468 189.198 387.504 189 387.5Z" fill="#B8D8C7"/>
<path d="M223.7 459.4H133.5C132.389 459.392 131.325 458.947 130.539 458.161C129.753 457.375 129.308 456.312 129.3 455.2V427.8C129.308 426.689 129.753 425.625 130.539 424.839C131.325 424.053 132.389 423.608 133.5 423.6H223.7C224.811 423.608 225.875 424.053 226.661 424.839C227.447 425.625 227.892 426.689 227.9 427.8V455.2C227.914 455.755 227.814 456.308 227.608 456.823C227.402 457.339 227.093 457.808 226.7 458.2C226.308 458.593 225.839 458.902 225.323 459.108C224.808 459.314 224.255 459.414 223.7 459.4V459.4Z" stroke="#B8D8C7" stroke-width="1.8" stroke-linecap="round" stroke-linejoin="round"/>
<path d="M189 433.3H168.2C167.805 433.29 167.43 433.129 167.151 432.85C166.871 432.57 166.71 432.195 166.7 431.8V431.8C166.71 431.405 166.871 431.03 167.151 430.751C167.43 430.471 167.805 430.31 168.2 430.3H189C189.395 430.31 189.77 430.471 190.049 430.751C190.329 431.03 190.49 431.405 190.5 431.8V431.8C190.504 431.998 190.468 432.195 190.394 432.379C190.32 432.563 190.21 432.73 190.07 432.87C189.93 433.01 189.763 433.12 189.579 433.194C189.395 433.268 189.198 433.304 189 433.3Z" fill="#B8D8C7"/>
<path d="M933.2 344.3H478.2C476.984 344.287 475.822 343.798 474.962 342.938C474.102 342.078 473.613 340.916 473.6 339.7V260C473.613 258.784 474.102 257.622 474.962 256.762C475.822 255.902 476.984 255.413 478.2 255.4H933.2C934.416 255.413 935.578 255.902 936.438 256.762C937.298 257.622 937.787 258.784 937.8 260V339.7C937.801 340.304 937.683 340.903 937.453 341.462C937.222 342.021 936.883 342.528 936.456 342.956C936.028 343.383 935.521 343.722 934.962 343.953C934.403 344.183 933.804 344.301 933.2 344.3V344.3Z" stroke="#B8D8C7" stroke-width="1.8" stroke-linecap="round" stroke-linejoin="round"/>
<path d="M933.2 443.2H478.2C476.984 443.187 475.822 442.698 474.962 441.838C474.102 440.979 473.613 439.816 473.6 438.6V358.9C473.613 357.684 474.102 356.522 474.962 355.662C475.822 354.802 476.984 354.313 478.2 354.3H933.2C934.416 354.313 935.578 354.802 936.438 355.662C937.298 356.522 937.787 357.684 937.8 358.9V438.6C937.801 439.205 937.683 439.803 937.453 440.362C937.222 440.921 936.883 441.428 936.456 441.856C936.028 442.283 935.521 442.622 934.962 442.853C934.403 443.083 933.804 443.201 933.2 443.2V443.2Z" stroke="#B8D8C7" stroke-width="1.8" stroke-linecap="round" stroke-linejoin="round"/>
<path d="M514.2 293.9H504.3V344.2H514.2V293.9Z" stroke="#B8D8C7" stroke-width="1.8" stroke-linecap="round" stroke-linejoin="round"/>
<path d="M524.4 307.7H514.1V344.3H524.4V307.7Z" stroke="#B8D8C7" stroke-width="1.8" stroke-linecap="round" stroke-linejoin="round"/>
<path d="M812.5 392.8H802.6V443.1H812.5V392.8Z" stroke="#B8D8C7" stroke-width="1.8" stroke-linecap="round" stroke-linejoin="round"/>
<path d="M822.8 406.5H812.5V443.1H822.8V406.5Z" stroke="#B8D8C7" stroke-width="1.8" stroke-linecap="round" stroke-linejoin="round"/>
<path d="M792.4 392.8H782.5V443.1H792.4V392.8Z" stroke="#B8D8C7" stroke-width="1.8" stroke-linecap="round" stroke-linejoin="round"/>
<path d="M773.172 391.556L758.03 439.523L767.47 442.503L782.613 394.537L773.172 391.556Z" stroke="#B8D8C7" stroke-width="1.8" stroke-linecap="round" stroke-linejoin="round"/>
<path d="M802.7 406.5H792.4V443.1H802.7V406.5Z" stroke="#B8D8C7" stroke-width="1.8" stroke-linecap="round" stroke-linejoin="round"/>
<path d="M679 293.9H669.1V344.2H679V293.9Z" stroke="#B8D8C7" stroke-width="1.8" stroke-linecap="round" stroke-linejoin="round"/>
<path d="M689.3 307.7H679V344.3H689.3V307.7Z" stroke="#B8D8C7" stroke-width="1.8" stroke-linecap="round" stroke-linejoin="round"/>
<path d="M581.2 293.9H571.3V344.2H581.2V293.9Z" stroke="#B8D8C7" stroke-width="1.8" stroke-linecap="round" stroke-linejoin="round"/>
<path d="M561.977 292.75L546.834 340.717L556.275 343.697L571.417 295.731L561.977 292.75Z" stroke="#B8D8C7" stroke-width="1.8" stroke-linecap="round" stroke-linejoin="round"/>
<path d="M591.5 307.7H581.2V344.3H591.5V307.7Z" stroke="#B8D8C7" stroke-width="1.8" stroke-linecap="round" stroke-linejoin="round"/>
<path d="M812.4 300.5L813.5 285.6C813.521 285.367 813.493 285.132 813.416 284.91C813.34 284.689 813.217 284.486 813.056 284.316C812.896 284.146 812.7 284.012 812.484 283.923C812.267 283.834 812.034 283.792 811.8 283.8H803.2C802.968 283.801 802.74 283.849 802.527 283.941C802.315 284.033 802.123 284.168 801.964 284.336C801.805 284.504 801.682 284.703 801.602 284.92C801.523 285.138 801.488 285.369 801.5 285.6L802.6 300.5C802.6 300.5 793.6 306.3 793.7 311.1C793.8 314.8 796 332.5 797 340.3C797.127 341.35 797.635 342.317 798.428 343.017C799.22 343.718 800.242 344.103 801.3 344.1H813.7C814.758 344.103 815.779 343.718 816.572 343.017C817.365 342.317 817.873 341.35 818 340.3C819 332.5 821.2 314.8 821.3 311.1C821.4 306.3 812.4 300.5 812.4 300.5Z" fill="#B8D8C7"/>
<path d="M712.2 399.6L713.3 384.7C713.321 384.467 713.293 384.232 713.216 384.01C713.14 383.789 713.017 383.586 712.856 383.416C712.696 383.246 712.5 383.112 712.284 383.023C712.067 382.934 711.834 382.892 711.6 382.9H703C702.768 382.901 702.54 382.949 702.327 383.041C702.115 383.133 701.923 383.268 701.764 383.436C701.605 383.604 701.482 383.803 701.402 384.02C701.323 384.238 701.288 384.469 701.3 384.7L702.4 399.6C702.4 399.6 693.4 405.4 693.5 410.2C693.6 413.9 695.8 431.6 696.8 439.4C696.927 440.45 697.435 441.417 698.228 442.117C699.02 442.818 700.042 443.203 701.1 443.2H713.5C714.558 443.203 715.58 442.818 716.372 442.117C717.165 441.417 717.673 440.45 717.8 439.4C718.8 431.6 721 413.9 721.1 410.2C721.2 405.4 712.2 399.6 712.2 399.6Z" fill="#B8D8C7"/>
<path d="M173.2 547.6H1129" stroke="#B8D8C7" stroke-width="1.8" stroke-linecap="round" stroke-linejoin="round"/>
<path d="M281.3 363.9H205.8C204.184 363.895 202.635 363.25 201.492 362.108C200.35 360.965 199.705 359.416 199.7 357.8V342C199.705 340.384 200.35 338.835 201.492 337.693C202.635 336.55 204.184 335.905 205.8 335.9H281.3C282.916 335.905 284.465 336.55 285.607 337.693C286.75 338.835 287.395 340.384 287.4 342V357.8C287.405 358.603 287.251 359.398 286.946 360.141C286.642 360.883 286.193 361.558 285.625 362.125C285.058 362.693 284.383 363.142 283.641 363.447C282.898 363.751 282.103 363.905 281.3 363.9Z" stroke="#B8D8C7" stroke-width="1.8" stroke-linecap="round" stroke-linejoin="round"/>
<path d="M207.2 340.5H208.1" stroke="#B8D8C7" stroke-width="1.8" stroke-linecap="round" stroke-linejoin="round"/>
<path d="M273.2 356.3H214C214 354.974 214.527 353.702 215.464 352.764C216.402 351.827 217.674 351.3 219 351.3H268.1C268.765 351.287 269.426 351.406 270.044 351.652C270.662 351.897 271.225 352.263 271.7 352.729C272.175 353.194 272.553 353.75 272.81 354.363C273.068 354.976 273.2 355.635 273.2 356.3V356.3Z" stroke="#B8D8C7" stroke-width="1.8" stroke-linecap="round" stroke-linejoin="round"/>
<path d="M264.9 314.5H222.3V336H264.9V314.5Z" stroke="#B8D8C7" stroke-width="1.8" stroke-linecap="round" stroke-linejoin="round"/>
<path d="M587.4 408.5L548 393.5C547.46 393.288 546.998 392.915 546.676 392.432C546.355 391.95 546.188 391.38 546.2 390.8V390.8L609.4 381.6C609.4 381.6 617.2 394.7 616.4 395C615.6 395.3 587.4 408.5 587.4 408.5Z" fill="#22272E"/>
<path d="M546.2 390.9L588.4 405.7L612.6 394C612.6 394 607.3 382.1 606.7 382.2C606.1 382.3 546.2 390.9 546.2 390.9Z" fill="#63737A"/>
<path d="M586.6 406L600.4 347.4C600.744 346.022 601.524 344.791 602.622 343.89C603.721 342.99 605.081 342.467 606.5 342.4L669.8 340.7C670.181 340.692 670.559 340.773 670.903 340.938C671.246 341.102 671.547 341.344 671.78 341.646C672.014 341.947 672.173 342.299 672.246 342.673C672.319 343.047 672.303 343.433 672.2 343.8L659.3 388.8C658.982 389.897 658.38 390.891 657.555 391.682C656.729 392.472 655.71 393.03 654.6 393.3L589.6 408.9C589.193 409.023 588.76 409.035 588.347 408.934C587.934 408.834 587.555 408.626 587.249 408.33C586.944 408.034 586.722 407.663 586.608 407.253C586.494 406.844 586.491 406.411 586.6 406V406Z" fill="#22272E"/>
<path d="M639.306 371.035C640.234 367.854 639.353 364.799 637.338 364.211C635.324 363.624 632.938 365.726 632.01 368.907C631.083 372.088 631.964 375.144 633.978 375.731C635.993 376.319 638.379 374.216 639.306 371.035Z" fill="#63737A"/>
<path d="M687.2 311.1L542.4 303C541.527 302.951 540.673 302.727 539.889 302.34C539.105 301.954 538.407 301.412 537.838 300.749C537.268 300.086 536.838 299.315 536.574 298.482C536.31 297.648 536.216 296.77 536.3 295.9L548.7 169.4C548.909 167.386 549.812 165.507 551.253 164.085C552.693 162.662 554.584 161.784 556.6 161.6L708.4 150C709.361 149.92 710.328 150.058 711.23 150.402C712.131 150.747 712.942 151.29 713.605 151.991C714.268 152.692 714.764 153.533 715.058 154.452C715.351 155.371 715.434 156.345 715.3 157.3L696.3 303.6C695.991 305.76 694.887 307.726 693.203 309.113C691.52 310.501 689.379 311.209 687.2 311.1V311.1Z" fill="#63737A"/>
<path d="M683.2 311.1L537.7 303C536.824 302.96 535.966 302.741 535.178 302.357C534.39 301.973 533.688 301.432 533.117 300.767C532.546 300.102 532.116 299.327 531.856 298.49C531.595 297.653 531.508 296.772 531.6 295.9L544 168.8C544.198 166.765 545.11 164.865 546.574 163.437C548.038 162.01 549.96 161.146 552 161L704.5 149.3C705.464 149.227 706.432 149.368 707.335 149.714C708.238 150.059 709.054 150.6 709.723 151.298C710.392 151.996 710.899 152.833 711.206 153.75C711.513 154.666 711.613 155.64 711.5 156.6L692.4 303.6C692.037 305.754 690.904 307.702 689.212 309.082C687.519 310.461 685.382 311.179 683.2 311.1V311.1Z" fill="#22272E"/>
<path d="M680.5 248.4L678.4 264.9L657.8 264.5L659.7 248.3L680.5 248.4Z" fill="white"/>
<path d="M639.1 248.2L637.2 264.1L616.2 263.8L617.9 248.2H639.1Z" fill="#F4C2C9"/>
<path d="M657.8 264.5L655.8 280.6L635.3 279.9L637.2 264.1L657.8 264.5Z" fill="#B0D7C0"/>
<path d="M575.1 176.7L558 177.7C557.709 177.697 557.431 177.581 557.225 177.375C557.019 177.169 556.903 176.891 556.9 176.6L557.2 173.7C557.261 173.298 557.45 172.925 557.738 172.638C558.025 172.35 558.398 172.161 558.8 172.1L576 171C576.148 170.984 576.298 171.002 576.439 171.052C576.58 171.101 576.707 171.182 576.813 171.287C576.918 171.393 576.999 171.52 577.048 171.661C577.098 171.802 577.116 171.952 577.1 172.1L576.8 175.1C576.733 175.517 576.531 175.9 576.223 176.19C575.915 176.479 575.52 176.659 575.1 176.7Z" fill="#63737A"/>
<path d="M585.9 211.2L555.7 212.1C555.407 212.101 555.116 212.041 554.847 211.923C554.579 211.806 554.338 211.633 554.14 211.416C553.942 211.199 553.792 210.944 553.699 210.665C553.606 210.387 553.572 210.092 553.6 209.8L555.2 194C555.265 193.342 555.563 192.729 556.04 192.271C556.516 191.813 557.14 191.54 557.8 191.5L588.2 190C588.498 189.982 588.797 190.03 589.074 190.142C589.35 190.254 589.599 190.427 589.8 190.648C590.002 190.868 590.151 191.131 590.238 191.417C590.324 191.703 590.345 192.005 590.3 192.3L588.5 208.7C588.451 209.364 588.159 209.986 587.679 210.448C587.199 210.909 586.565 211.177 585.9 211.2V211.2Z" fill="#B0D7C0"/>
<path d="M632.5 209.8L599.4 210.8C599.107 210.801 598.816 210.741 598.547 210.623C598.279 210.505 598.038 210.333 597.84 210.116C597.642 209.899 597.492 209.643 597.399 209.365C597.306 209.087 597.272 208.792 597.3 208.5L599.1 191.8C599.165 191.142 599.463 190.529 599.94 190.071C600.416 189.613 601.04 189.34 601.7 189.3L635.1 187.7C635.398 187.682 635.697 187.73 635.974 187.842C636.251 187.954 636.499 188.127 636.7 188.348C636.902 188.568 637.051 188.831 637.138 189.117C637.224 189.403 637.245 189.705 637.2 190L635.2 207.3C635.112 207.966 634.794 208.581 634.301 209.037C633.808 209.494 633.171 209.764 632.5 209.8V209.8Z" fill="#F8DA30"/>
<path d="M683.2 208.3L646.7 209.4C646.404 209.409 646.11 209.355 645.837 209.24C645.565 209.125 645.32 208.952 645.121 208.733C644.921 208.515 644.771 208.256 644.681 207.974C644.592 207.692 644.564 207.394 644.6 207.1L646.7 189.5C646.782 188.849 647.085 188.245 647.558 187.79C648.031 187.336 648.646 187.057 649.3 187L686 185.2C686.298 185.182 686.597 185.23 686.874 185.342C687.15 185.454 687.399 185.627 687.6 185.848C687.802 186.068 687.951 186.331 688.038 186.617C688.124 186.903 688.145 187.205 688.1 187.5L685.8 205.8C685.735 206.458 685.437 207.071 684.96 207.529C684.484 207.987 683.86 208.26 683.2 208.3V208.3Z" fill="#F4C2C9"/>
<path d="M593.6 294.4L669.4 297.8C670.72 297.837 672.008 297.389 673.021 296.542C674.035 295.695 674.703 294.506 674.9 293.2L683.3 227C683.4 226.253 683.337 225.492 683.114 224.772C682.892 224.051 682.516 223.388 682.012 222.827C681.508 222.266 680.888 221.821 680.196 221.523C679.503 221.224 678.754 221.08 678 221.1L600.5 222.6C599.215 222.633 597.984 223.125 597.03 223.987C596.076 224.849 595.462 226.024 595.3 227.3L588.6 288.6C588.524 289.314 588.596 290.035 588.81 290.72C589.024 291.405 589.376 292.039 589.844 292.583C590.313 293.126 590.888 293.568 591.534 293.88C592.18 294.193 592.883 294.37 593.6 294.4V294.4Z" stroke="#63737A" stroke-width="1.8" stroke-linecap="round" stroke-linejoin="round"/>
<path d="M594.6 232.7L682.6 231.8" stroke="#63737A" stroke-width="1.8" stroke-linecap="round" stroke-linejoin="round"/>
<path d="M619.7 233.1L612.6 295.2" stroke="#63737A" stroke-width="1.8" stroke-linecap="round" stroke-linejoin="round"/>
<path d="M640.9 232.9L633.4 296.2" stroke="#63737A" stroke-width="1.8" stroke-linecap="round" stroke-linejoin="round"/>
<path d="M661.6 232.8L653.8 297.1" stroke="#63737A" stroke-width="1.8" stroke-linecap="round" stroke-linejoin="round"/>
<path d="M618 248.2L680.5 248.4" stroke="#63737A" stroke-width="1.8" stroke-linecap="round" stroke-linejoin="round"/>
<path d="M616.2 263.8L678.4 264.9" stroke="#63737A" stroke-width="1.8" stroke-linecap="round" stroke-linejoin="round"/>
<path d="M614.4 279.3L676.3 281.2" stroke="#63737A" stroke-width="1.8" stroke-linecap="round" stroke-linejoin="round"/>
<path d="M683.8 166.9C683.731 167.544 683.462 168.15 683.032 168.634C682.602 169.118 682.031 169.456 681.4 169.6C680.2 169.7 679.4 168.6 679.6 167.2C679.669 166.556 679.938 165.95 680.368 165.466C680.798 164.982 681.369 164.644 682 164.5C682.29 164.503 682.575 164.573 682.834 164.704C683.093 164.835 683.318 165.024 683.492 165.256C683.666 165.488 683.784 165.757 683.838 166.042C683.891 166.327 683.878 166.621 683.8 166.9V166.9Z" fill="#63737A"/>
<path d="M674 167.6C673.964 168.245 673.705 168.857 673.267 169.331C672.829 169.806 672.24 170.113 671.6 170.2C670.4 170.3 669.6 169.2 669.8 167.8C669.836 167.155 670.095 166.543 670.533 166.069C670.971 165.594 671.56 165.287 672.2 165.2C673.4 165.1 674.2 166.2 674 167.6Z" fill="#63737A"/>
<path d="M664.4 168.2C664.346 168.839 664.081 169.441 663.646 169.912C663.212 170.383 662.632 170.695 662 170.8C660.9 170.9 660.1 169.8 660.2 168.5C660.254 167.861 660.519 167.259 660.954 166.788C661.388 166.317 661.968 166.005 662.6 165.9C663.8 165.7 664.5 166.8 664.4 168.2Z" fill="#63737A"/>
<path d="M376.2 290.9L282.9 298.3C280 298.5 277.4 295.9 277.2 292.5L271.7 206.1C271.5 202.7 274 199.6 276.9 199.9L366.8 208.9C368.238 209.059 369.574 209.716 370.579 210.757C371.583 211.798 372.192 213.158 372.3 214.6L379.6 286.7C379.681 287.203 379.654 287.718 379.523 288.211C379.392 288.703 379.158 289.162 378.837 289.559C378.516 289.955 378.116 290.279 377.661 290.51C377.207 290.741 376.709 290.874 376.2 290.9V290.9Z" fill="#F8AB5D"/>
<path d="M380.7 290.1L286.3 297.6C283.3 297.8 280.7 295.2 280.5 291.8L275.1 204.9C274.9 201.4 277.5 198.3 280.4 198.6L371.4 207.5C372.849 207.654 374.2 208.307 375.221 209.347C376.243 210.386 376.871 211.748 377 213.2L384.4 285.7C384.461 286.767 384.111 287.817 383.424 288.635C382.736 289.453 381.762 289.977 380.7 290.1V290.1Z" fill="#F8DA30"/>
<path d="M318.4 280L296.8 281C296.01 280.982 295.257 280.66 294.698 280.102C294.14 279.543 293.818 278.79 293.8 278L289.8 219.3C289.7 217.7 290.9 216.2 292.3 216.3L313.6 217.8C314.313 217.881 314.972 218.221 315.452 218.755C315.931 219.29 316.197 219.982 316.2 220.7L320.7 277.1C320.761 277.786 320.556 278.469 320.128 279.008C319.7 279.548 319.082 279.903 318.4 280V280Z" fill="#22272E"/>
<path d="M320.3 279.1L298.6 280.2C297.81 280.182 297.057 279.86 296.498 279.302C295.94 278.743 295.618 277.99 295.6 277.2L291.6 218.3C291.5 216.7 292.7 215.2 294.1 215.3L315.5 216.8C316.213 216.881 316.872 217.221 317.352 217.755C317.831 218.29 318.097 218.982 318.1 219.7L322.6 276.3C322.644 276.972 322.431 277.635 322.003 278.155C321.576 278.675 320.967 279.013 320.3 279.1V279.1Z" fill="#6DAFA7"/>
<path d="M302.6 219.8L305.9 220" stroke="#22272E" stroke-width="1.8" stroke-linecap="round" stroke-linejoin="round"/>
<path d="M307.7 220.1H308" stroke="#22272E" stroke-width="1.8" stroke-linecap="round" stroke-linejoin="round"/>
<path d="M291.9 222.9L318.5 224.4" stroke="#22272E" stroke-width="1.8" stroke-linecap="round" stroke-linejoin="round"/>
<path d="M295.3 272.6L322.2 271.7" stroke="#22272E" stroke-width="1.8" stroke-linecap="round" stroke-linejoin="round"/>
<path d="M363.8 220.8L342.8 219.2C342.503 219.169 342.203 219.204 341.922 219.303C341.641 219.403 341.386 219.564 341.175 219.775C340.964 219.986 340.803 220.241 340.703 220.522C340.604 220.803 340.569 221.103 340.6 221.4L341.3 229.6C341.339 230.108 341.566 230.583 341.935 230.934C342.304 231.285 342.791 231.487 343.3 231.5L364.3 232.3C364.603 232.319 364.906 232.272 365.188 232.162C365.471 232.052 365.726 231.881 365.935 231.662C366.145 231.443 366.304 231.181 366.402 230.893C366.499 230.606 366.533 230.301 366.5 230L365.8 222.6C365.691 222.131 365.441 221.707 365.083 221.385C364.725 221.064 364.278 220.859 363.8 220.8V220.8Z" fill="#6DAFA7"/>
<path d="M347.8 241.8C347.82 242.134 347.77 242.468 347.651 242.78C347.533 243.093 347.35 243.377 347.113 243.613C346.877 243.85 346.593 244.033 346.28 244.151C345.968 244.27 345.634 244.32 345.3 244.3C344.569 244.307 343.861 244.046 343.308 243.567C342.756 243.088 342.397 242.424 342.3 241.7C342.283 241.359 342.339 241.017 342.465 240.7C342.591 240.382 342.784 240.095 343.03 239.858C343.277 239.621 343.571 239.439 343.894 239.326C344.216 239.212 344.559 239.17 344.9 239.2C345.614 239.217 346.298 239.489 346.829 239.965C347.361 240.442 347.705 241.092 347.8 241.8V241.8Z" fill="#6DAFA7"/>
<path d="M352.4 241.9L366.7 242.1" stroke="#63737A" stroke-width="1.8" stroke-linecap="round" stroke-linejoin="round"/>
<path d="M348.6 250.6C348.615 250.937 348.561 251.273 348.442 251.589C348.323 251.905 348.141 252.193 347.907 252.436C347.674 252.679 347.393 252.872 347.082 253.003C346.771 253.135 346.437 253.202 346.1 253.2C345.384 253.21 344.688 252.963 344.138 252.505C343.587 252.046 343.219 251.406 343.1 250.7C343.08 250.353 343.133 250.006 343.256 249.681C343.38 249.357 343.571 249.062 343.816 248.816C344.062 248.571 344.357 248.38 344.681 248.256C345.006 248.133 345.353 248.08 345.7 248.1C346.403 248.098 347.084 248.349 347.617 248.808C348.15 249.268 348.499 249.904 348.6 250.6V250.6Z" fill="#6DAFA7"/>
<path d="M353.2 250.5L367.4 250.3" stroke="#63737A" stroke-width="1.8" stroke-linecap="round" stroke-linejoin="round"/>
<path d="M349.4 259.3C349.415 259.637 349.361 259.973 349.242 260.289C349.123 260.605 348.941 260.893 348.707 261.136C348.474 261.379 348.193 261.572 347.882 261.703C347.571 261.835 347.237 261.902 346.9 261.9C346.188 261.96 345.479 261.745 344.921 261.299C344.363 260.852 343.997 260.208 343.9 259.5C343.88 259.153 343.933 258.806 344.056 258.481C344.18 258.157 344.371 257.862 344.616 257.616C344.862 257.371 345.157 257.18 345.481 257.056C345.806 256.933 346.153 256.88 346.5 256.9C347.194 256.873 347.874 257.102 348.409 257.545C348.944 257.988 349.297 258.613 349.4 259.3V259.3Z" fill="#6DAFA7"/>
<path d="M353.9 259.1L368.1 258.5" stroke="#63737A" stroke-width="1.8" stroke-linecap="round" stroke-linejoin="round"/>
<path d="M333.4 354.6C332.1 354.6 337.9 340.8 343.9 342.7C349.9 344.6 341 354.7 333.4 354.6Z" fill="#6DAFA7"/>
<path d="M334.1 356.5C334.1 356.5 327.6 348.3 321.1 350.2C314.6 352.1 322.7 361.3 334.1 356.5Z" fill="#6DAFA7"/>
<path d="M332.2 348.3C332.2 348.3 341.9 331.6 337.8 327.6C330.5 320.5 321.3 341.5 332.2 348.3Z" fill="#6DAFA7"/>
<path d="M348.4 386.3L334.2 389.5C332.267 389.934 330.243 389.67 328.486 388.755C326.729 387.84 325.352 386.333 324.6 384.5L318.1 368.9C317.799 368.189 317.657 367.42 317.685 366.649C317.714 365.877 317.912 365.121 318.264 364.434C318.617 363.747 319.117 363.146 319.728 362.674C320.339 362.201 321.046 361.869 321.8 361.7L347.6 355.9C348.35 355.727 349.13 355.722 349.882 355.885C350.635 356.049 351.342 356.376 351.953 356.844C352.564 357.312 353.065 357.909 353.419 358.593C353.773 359.277 353.971 360.031 354 360.8L354.8 377.6C354.99 379.583 354.442 381.567 353.262 383.172C352.081 384.777 350.35 385.891 348.4 386.3V386.3Z" fill="#22272E"/>
<path d="M335 360C335 360 330.5 346.3 332.2 339.9" stroke="black" stroke-width="1.8" stroke-linecap="round" stroke-linejoin="round"/>
<path d="M385.6 416.6C385.6 416.6 385 423.5 383.4 427.6C381.8 431.7 379 436.7 379.9 443.6C380.8 450.5 387.4 460.6 390 460.3C392.6 460 391.2 455.6 391.2 455.6C391.2 455.6 393.8 459.3 396.3 458.2C398.8 457.1 395.4 449.1 395.4 449.1C395.4 449.1 398.5 454.1 401.3 453.5C404.1 452.9 398.5 445 398.5 445C398.5 445 402.2 449.1 403.2 448.5C404.2 447.9 405.1 448.2 403.2 443.5C401.3 438.8 404.4 423.5 404.3 420C404.2 416.5 390.6 413.4 385.6 416.6Z" fill="#F4C2C9"/>
<path d="M422.7 430.5L442.2 471.3C442.385 471.681 442.493 472.094 442.518 472.517C442.543 472.939 442.484 473.362 442.345 473.762C442.205 474.162 441.988 474.53 441.706 474.845C441.424 475.161 441.082 475.417 440.7 475.6L382.8 504.8C382.397 505.011 381.955 505.134 381.501 505.161C381.048 505.189 380.594 505.12 380.169 504.959C379.744 504.799 379.357 504.55 379.035 504.23C378.713 503.909 378.463 503.524 378.3 503.1L356.6 447.3C356.437 446.868 356.368 446.406 356.398 445.945C356.428 445.484 356.557 445.035 356.774 444.628C356.992 444.221 357.295 443.865 357.661 443.584C358.028 443.303 358.45 443.104 358.9 443L419 428.8C419.718 428.593 420.487 428.651 421.166 428.963C421.845 429.275 422.389 429.821 422.7 430.5V430.5Z" fill="#F8DA30"/>
<path d="M395.2 476L398.4 483.7C398.503 483.929 398.559 484.177 398.565 484.428C398.57 484.679 398.525 484.929 398.431 485.162C398.338 485.396 398.198 485.608 398.021 485.786C397.844 485.964 397.633 486.105 397.4 486.2L389.2 489.9C388.965 490.015 388.709 490.08 388.448 490.092C388.187 490.104 387.926 490.061 387.682 489.967C387.438 489.873 387.216 489.73 387.03 489.546C386.843 489.363 386.697 489.143 386.6 488.9L383.3 480.8C383.207 480.564 383.161 480.311 383.166 480.057C383.17 479.803 383.226 479.553 383.328 479.32C383.43 479.088 383.578 478.878 383.762 478.703C383.946 478.528 384.163 478.391 384.4 478.3L392.6 475C393.081 474.825 393.609 474.829 394.087 475.013C394.565 475.197 394.96 475.547 395.2 476V476Z" fill="#6DAFA7"/>
<path d="M378.9 469.9L370.7 449.6" stroke="#63737A" stroke-width="1.8" stroke-linecap="round" stroke-linejoin="round"/>
<path d="M385 467.7L376.8 447.9" stroke="#63737A" stroke-width="1.8" stroke-linecap="round" stroke-linejoin="round"/>
<path d="M413.5 468.6L416.5 475.4C416.603 475.629 416.659 475.877 416.665 476.128C416.67 476.379 416.625 476.629 416.531 476.863C416.438 477.096 416.298 477.308 416.121 477.486C415.944 477.665 415.733 477.805 415.5 477.9L409.1 480.8C408.622 481.004 408.083 481.014 407.597 480.827C407.112 480.64 406.718 480.272 406.5 479.8L403.4 472.7C403.196 472.222 403.186 471.683 403.373 471.197C403.56 470.712 403.928 470.318 404.4 470.1L410.9 467.5C411.393 467.345 411.926 467.371 412.402 467.572C412.878 467.774 413.268 468.138 413.5 468.6Z" fill="#F4C2C9"/>
<path d="M399.1 462.6L391.1 444" stroke="#63737A" stroke-width="1.8" stroke-linecap="round" stroke-linejoin="round"/>
<path d="M404.3 460.7L396.3 442.6" stroke="#63737A" stroke-width="1.8" stroke-linecap="round" stroke-linejoin="round"/>
<path d="M428.5 460.6L432.9 470L424.4 473.9L419.9 464.1L428.5 460.6Z" stroke="black" stroke-width="1.8" stroke-linecap="round" stroke-linejoin="round"/>
<path d="M416.4 456.4L408.6 439.3" stroke="#63737A" stroke-width="1.8" stroke-linecap="round" stroke-linejoin="round"/>
<path d="M420.8 454.8L413.1 438.1" stroke="#63737A" stroke-width="1.8" stroke-linecap="round" stroke-linejoin="round"/>
<path d="M405.1 418.9C405.336 421.978 405.872 425.026 406.7 428C407.909 433.122 408.646 438.344 408.9 443.6C409 446.3 404.9 445.4 402.6 441.2C400.3 437 399.2 435.8 397.2 434.7C395.976 434.13 394.894 433.296 394.029 432.259C393.165 431.222 392.54 430.007 392.2 428.7C391 425 401.7 414.8 405.1 418.9Z" fill="#F4C2C9"/>
<path d="M437.8 253.1C432.1 253.1 416.7 255.3 403.5 284.8C392.5 309.3 386.1 323 384.5 334.1C382.9 345.2 381.6 371.7 382.7 391.1C383.8 410.5 384.7 418.7 384.7 418.7C384.7 418.7 393.7 424.6 405.6 418.7C405.6 418.7 408.7 394.9 411.1 380.9C413.5 366.9 414.4 352.8 413.8 346.5C413.8 346.5 429.5 318.9 436.5 307.9C443.7 296.9 470 253.1 437.8 253.1Z" fill="#6DAFA7"/>
<path d="M384.1 411.2C387.617 412.863 391.459 413.725 395.35 413.725C399.241 413.725 403.083 412.863 406.6 411.2" stroke="black" stroke-width="1.8" stroke-linecap="round" stroke-linejoin="round"/>
<path d="M384.9 331.4C385.471 329.952 386.423 328.685 387.655 327.734C388.887 326.783 390.354 326.184 391.9 326C398.7 325 402.5 331.9 400.9 340.1C399.3 348.3 393.1 352.4 388.1 351.5C387.093 351.327 386.149 350.895 385.36 350.246C384.57 349.598 383.964 348.754 383.6 347.8" stroke="black" stroke-width="1.8" stroke-linecap="round" stroke-linejoin="round"/>
<path d="M514.5 645.3C514.732 643.325 515.366 641.419 516.363 639.699C517.361 637.979 518.701 636.482 520.3 635.3C525.7 631.5 531.9 638.5 517.8 644.2" stroke="#63737A" stroke-width="1.8" stroke-linecap="round" stroke-linejoin="round"/>
<path d="M519.8 643.4C519.8 643.4 525.6 640.7 528.6 644.1C531.6 647.5 523.1 649.8 518.6 646.8" stroke="#63737A" stroke-width="1.8" stroke-linecap="round" stroke-linejoin="round"/>
<path d="M427.7 645.3C427.7 645.3 436.2 635.4 443.6 635.3C451 635.2 442.6 643.5 433.3 646.4" stroke="#63737A" stroke-width="1.8" stroke-linecap="round" stroke-linejoin="round"/>
<path d="M434.1 645.3C434.1 645.3 444.5 641.3 445.8 645.3C447.1 649.3 434.8 648.2 434.8 648.2" stroke="#63737A" stroke-width="1.8" stroke-linecap="round" stroke-linejoin="round"/>
<path d="M489.5 619.3C489.5 619.3 489.1 637.1 489.5 642C489.9 646.9 498.9 650 506.1 647.7C513.3 645.4 513.5 640.7 513.5 640.7C513.5 640.7 515.1 619.2 515.1 615.1C515.1 611 489.6 611.2 489.5 619.3Z" fill="#F4C2C9"/>
<path d="M489.5 619.3C489.5 619.3 489.4 623.6 489.4 628.6C497.5 631.7 507.4 630.7 514.4 629.5C514.8 623.5 515.2 617 515.2 614.9C515.1 610.9 489.6 611.2 489.5 619.3Z" fill="#22272E"/>
<path d="M489.3 639C489.3 639 487.9 638.8 486.5 649.4C485.1 660 484 666.4 488.2 667.2C492.4 668 532.3 667.2 536.6 667.2C540.9 667.2 543.8 664.9 543.6 662.1C543.4 659.3 532.6 654.9 527.6 650.9C522.6 646.9 515.3 642.1 514.5 639.4C513.1 634.9 510.3 633.2 507.9 639C506 643.5 501 644 494.8 643.2C493.578 643.098 492.41 642.649 491.436 641.904C490.461 641.16 489.72 640.152 489.3 639V639Z" fill="#22272E"/>
<path d="M529.1 652C529.1 652 520.8 653.8 522 664.1" stroke="#63737A" stroke-width="1.8" stroke-linecap="round" stroke-linejoin="round"/>
<path d="M408 615.9C408 615.9 405.8 638 406 641C406.2 644 415.8 644.9 422 644.1C428.2 643.3 429 641.4 429 641.4C429 641.4 433.9 620.7 433.9 616C433.9 611.3 410 610.1 408 615.9Z" fill="#F4C2C9"/>
<path d="M408 615.9C408 615.9 407.6 619.8 407.2 624.6C415.3 628.4 423.6 628.7 432.1 628C433.1 623 434 618 434 616C434.1 611.2 410 610.1 408 615.9Z" fill="#22272E"/>
<path d="M406.1 635.3C405.075 638.569 404.306 641.912 403.8 645.3C403.2 650 398.9 665.4 401.8 667.6C404.7 669.8 446.2 667.6 449.8 667.6C453.4 667.6 457.9 665.4 457.4 661.5C456.9 657.6 449.2 656 443.6 652.1C439.079 648.704 434.801 644.995 430.8 641C430.8 641 432 635 431 633.3C430 631.6 426.9 638.4 424.7 639.2C422.5 640 417.8 640.7 410.3 639.2C409.302 639.016 408.376 638.552 407.632 637.861C406.889 637.17 406.357 636.282 406.1 635.3V635.3Z" fill="#22272E"/>
<path d="M443.6 652C443.6 652 436.6 654.4 435.7 664.1" stroke="#63737A" stroke-width="1.8" stroke-linecap="round" stroke-linejoin="round"/>
<path d="M512.6 372.5C512.6 372.5 516.1 384.6 518.1 409.7C520.1 434.8 522.8 480.6 523.6 489.6C524.4 498.6 524.4 522.5 522 551.4C519.6 580.3 520.8 604.2 521.6 609.7C522.4 615.2 518.5 619.9 514.6 621.4C510.7 622.9 493.1 623 489.5 621.4C489.5 621.4 480.9 616.7 482.1 608.5C483.3 600.3 483.7 583.8 479.8 553.3C475.9 522.8 479.8 500.8 479.8 500.8C479.8 500.8 475.3 487 470.2 472.7C468.4 467.6 466.5 462.4 464.8 457.7C463.062 452.733 460.991 447.888 458.6 443.2C453.5 434.6 449.6 397 455.5 377.4C461.3 358 502.8 358 512.6 372.5Z" fill="#22272E"/>
<path d="M421 371.3C421 371.3 410.8 398.7 413.6 430C416.4 461.3 422.2 497.7 421 500.5C419.8 503.3 415.5 517.3 411.2 548.6C406.9 579.9 397.5 603.8 399.8 609.7C402.1 615.6 408.6 618.7 410.3 619.1C412 619.5 430 621.4 434.3 620.7C438.6 620 445.3 612.9 445.3 604.7C445.3 596.5 446.1 578.9 454.3 550.7C462.5 522.5 465.4 514.2 468.3 501.3C471.2 488.4 473.9 420 473.9 420C473.9 420 481.2 385.9 458 378.9C434.8 371.7 421 371.3 421 371.3Z" fill="#22272E"/>
<path d="M443.3 442C443.3 442 459.6 439.4 465.5 443.6" stroke="#63737A" stroke-width="1.8" stroke-linecap="round" stroke-linejoin="round"/>
<path d="M420.4 396C420.4 396 430.3 399.5 447.3 401.2C447.3 401.2 445.5 418.8 444.4 422.5C443.3 426.2 435.8 429.4 430.2 429.4C425 429.4 419.3 423.7 418.1 419.5C416.6 413.8 420.4 396 420.4 396Z" stroke="#63737A" stroke-width="1.8" stroke-linecap="round" stroke-linejoin="round"/>
<path d="M466.5 401.4C466.5 401.4 483.3 403.2 495.8 398.6C495.8 398.6 497.7 417.5 497.4 420.6C497.1 423.7 490.1 429.5 484.9 430.7C480.5 431.7 473.3 428.4 469.9 425.4C466.5 422.4 466.5 401.4 466.5 401.4Z" stroke="#63737A" stroke-width="1.8" stroke-linecap="round" stroke-linejoin="round"/>
<path d="M519.1 424.5C519.1 424.5 511.2 419.7 510.4 398.5" stroke="#63737A" stroke-width="1.8" stroke-linecap="round" stroke-linejoin="round"/>
<path d="M470.1 472.8C468.3 467.7 466.4 462.5 464.7 457.8C462.962 452.833 460.891 447.988 458.5 443.3" stroke="#63737A" stroke-width="1.8" stroke-linecap="round" stroke-linejoin="round"/>
<path d="M429.9 499.4C429.9 499.4 442 496.7 449.3 499.4" stroke="#63737A" stroke-width="1.8" stroke-linecap="round" stroke-linejoin="round"/>
<path d="M479.7 500.9C483.597 499.466 487.78 498.986 491.9 499.5" stroke="#63737A" stroke-width="1.8" stroke-linecap="round" stroke-linejoin="round"/>
<path d="M411.6 622.6C411.6 622.6 411.2 626.1 411.2 626.9" stroke="#63737A" stroke-width="1.8" stroke-linecap="round" stroke-linejoin="round"/>
<path d="M419.3 624.3C419.3 624.3 419.1 628 418.9 628.7" stroke="#63737A" stroke-width="1.8" stroke-linecap="round" stroke-linejoin="round"/>
<path d="M429.1 624.7C429.1 624.7 428.6 628.2 428.5 628.7" stroke="#63737A" stroke-width="1.8" stroke-linecap="round" stroke-linejoin="round"/>
<path d="M493.2 625.8V630.5" stroke="#63737A" stroke-width="1.8" stroke-linecap="round" stroke-linejoin="round"/>
<path d="M502.2 626.1C502.096 627.744 501.895 629.38 501.6 631" stroke="#63737A" stroke-width="1.8" stroke-linecap="round" stroke-linejoin="round"/>
<path d="M511.3 626.1C511.3 626.1 511.1 629.1 511 630.4" stroke="#63737A" stroke-width="1.8" stroke-linecap="round" stroke-linejoin="round"/>
<path d="M490.1 220.6C494.076 220.6 497.3 216.705 497.3 211.9C497.3 207.095 494.076 203.2 490.1 203.2C486.124 203.2 482.9 207.095 482.9 211.9C482.9 216.705 486.124 220.6 490.1 220.6Z" stroke="black" stroke-width="1.8" stroke-linecap="round" stroke-linejoin="round"/>
<path d="M490 192.3C490 192.3 492.6 196.9 491.8 206.8C491 216.7 493.2 224.9 492 231.4C491.532 233.834 490.424 236.099 488.789 237.963C487.154 239.826 485.053 241.219 482.7 242C480 242.8 466 244.7 459.1 235.5C452.2 226.3 445.9 199.2 457.1 194C468.3 188.8 485.3 187 490 192.3Z" fill="#F4C2C9"/>
<path d="M491.9 231.4C493.2 224.8 490.8 216.8 491.7 206.8C492.6 196.8 489.9 192.3 489.9 192.3C485.2 187 468.3 188.9 457 194.1C448.5 198 450.1 214.5 454.3 226.2C462.4 235.2 474 240.9 486.4 239C486.835 239.006 487.271 238.973 487.7 238.9C489.92 236.957 491.403 234.308 491.9 231.4V231.4Z" fill="#F4C2C9"/>
<path d="M454.4 226.2C455.536 229.531 457.117 232.693 459.1 235.6C466 244.8 479.9 242.8 482.7 242.1C484.584 241.453 486.319 240.432 487.8 239.1C487.2 239 476.6 245.7 454.4 226.2Z" fill="#E26E85"/>
<path d="M485.3 211.8L497.3 211.4" stroke="black" stroke-width="1.8" stroke-linecap="round" stroke-linejoin="round"/>
<path d="M471 236.2C471 236.2 476.2 238.1 479.3 241.5C479.3 241.5 478.3 247.3 478.7 250.2C479.1 253.1 474.9 259.3 465.8 258.8C456.7 258.3 448.9 251.4 448.9 251.4C448.9 251.4 450 238.8 451.5 235.1C453 231.4 471 236.2 471 236.2Z" fill="#F4C2C9"/>
<path d="M476.6 239.1C477.412 239.683 478.053 240.473 478.458 241.387C478.862 242.301 479.015 243.307 478.9 244.3C478.64 246.222 478.573 248.165 478.7 250.1" stroke="#E26E85" stroke-width="1.8" stroke-linecap="round" stroke-linejoin="round"/>
<path d="M484.6 212.4C485.973 211.329 486.985 209.863 487.5 208.2C488.2 205.6 488.6 203.6 488.6 203.6C489.548 204.44 490.63 205.116 491.8 205.6C493.7 206.3 498.6 201.1 499.3 194C500 186.9 496.7 179.5 488.6 176.4C485.5 175.2 480.8 175 476.1 175.3C469.52 175.755 463.16 177.852 457.6 181.4C456.259 182.229 454.761 182.774 453.2 183C447.4 183.8 443.8 186.1 440.4 194.2C437 202.3 436.6 208.5 441.2 218.2C445.8 227.9 447.2 228.5 447.9 232.5C448.6 236.5 447.7 241 450.9 240.3C459.7 238.3 468.7 240.8 470.8 239.5C472.9 238.2 479.9 225.8 480.7 219.8C481.5 213.8 483.3 211.7 484.6 212.4Z" fill="#22272E"/>
<path d="M485.9 213C485.9 213 483.8 207.4 479.8 209.1C474.4 211.4 477.7 220.9 482.9 222.5" fill="#F4C2C9"/>
<path d="M480 214C479.85 213.545 479.85 213.055 480 212.6C480.096 212.324 480.27 212.081 480.5 211.9C480.693 211.709 480.938 211.578 481.205 211.525C481.472 211.472 481.748 211.498 482 211.6C482.206 211.675 482.382 211.815 482.5 212C482.6 212.1 482.7 212.3 482.8 212.4C482.9 212.5 482.9 212.7 483 212.8C483.157 213.215 483.225 213.657 483.2 214.1C483.3 214.9 483.2 215.7 483.3 216.2C483.4 216.7 483.8 217.1 484.7 217.3C484.531 217.466 484.325 217.589 484.099 217.658C483.872 217.728 483.633 217.742 483.4 217.7C483.119 217.65 482.85 217.545 482.61 217.39C482.37 217.236 482.162 217.035 482 216.8C481.633 215.981 481.429 215.097 481.4 214.2C481.4 213.8 481.3 213.4 481.3 213.2V212.9H481.4C481.3 212.8 481.1 212.8 480.8 213C480.452 213.26 480.177 213.604 480 214V214Z" fill="black"/>
<path d="M448 250.2C448 250.2 448.9 243.8 449.5 242.7C450.1 241.6 465.1 240.5 473.7 242.7C482.3 244.9 481.5 252.2 481.5 252.2C481.5 252.2 466 250.4 448 250.2Z" fill="#6DAFA7"/>
<path d="M418.1 273.5C419.8 263.9 423.4 249 458.1 248.9C487.7 248.8 501.4 253.2 508.6 258.7C515.8 264.2 516.6 278.7 514.3 301.4C512 324.1 511.6 337.6 512.9 351.7C514.2 365.8 519.9 371.9 512.3 379.5C496.096 384.27 479.292 386.694 462.4 386.7C434.4 386.7 420.5 378.9 419.9 376.7C419.3 374.5 416.6 373.8 419.1 368.1C421.6 362.4 423.3 342.3 421.7 330.2C420.1 318.1 413.9 297.6 418.1 273.5Z" fill="#F8DA30"/>
<path d="M425.915 385.398L422.345 389.04L425.987 392.61L429.557 388.968L425.915 385.398Z" fill="#F8AB5D"/>
<path d="M425.739 368.82L422.169 372.462L425.811 376.032L429.381 372.39L425.739 368.82Z" fill="#F8AB5D"/>
<path d="M425.484 352.163L421.914 355.805L425.556 359.375L429.126 355.733L425.484 352.163Z" fill="#F8AB5D"/>
<path d="M425.378 335.516L421.807 339.158L425.449 342.728L429.02 339.086L425.378 335.516Z" fill="#F8AB5D"/>
<path d="M425.192 318.938L421.621 322.58L425.263 326.15L428.834 322.508L425.192 318.938Z" fill="#F8AB5D"/>
<path d="M440.795 385.247L437.224 388.889L440.866 392.459L444.437 388.817L440.795 385.247Z" fill="#F8AB5D"/>
<path d="M440.678 368.6L437.108 372.242L440.75 375.812L444.32 372.17L440.678 368.6Z" fill="#F8AB5D"/>
<path d="M440.509 352.029L436.939 355.671L440.581 359.241L444.151 355.599L440.509 352.029Z" fill="#F8AB5D"/>
<path d="M440.333 335.451L436.763 339.093L440.405 342.663L443.975 339.021L440.333 335.451Z" fill="#F8AB5D"/>
<path d="M440.216 318.794L436.646 322.436L440.288 326.006L443.858 322.364L440.216 318.794Z" fill="#F8AB5D"/>
<path d="M455.819 385.113L452.249 388.755L455.891 392.325L459.461 388.683L455.819 385.113Z" fill="#F8AB5D"/>
<path d="M455.633 368.535L452.063 372.177L455.705 375.747L459.275 372.105L455.633 368.535Z" fill="#F8AB5D"/>
<path d="M455.457 351.809L451.887 355.451L455.529 359.021L459.099 355.379L455.457 351.809Z" fill="#F8AB5D"/>
<path d="M455.272 335.231L451.701 338.873L455.343 342.443L458.914 338.801L455.272 335.231Z" fill="#F8AB5D"/>
<path d="M455.103 318.66L451.533 322.302L455.175 325.872L458.745 322.23L455.103 318.66Z" fill="#F8AB5D"/>
<path d="M470.696 384.969L467.126 388.611L470.768 392.181L474.338 388.539L470.696 384.969Z" fill="#F8AB5D"/>
<path d="M470.589 368.322L467.019 371.964L470.661 375.534L474.231 371.892L470.589 368.322Z" fill="#F8AB5D"/>
<path d="M470.403 351.744L466.833 355.386L470.475 358.956L474.045 355.314L470.403 351.744Z" fill="#F8AB5D"/>
<path d="M470.227 335.156L466.657 338.798L470.299 342.368L473.869 338.726L470.227 335.156Z" fill="#F8AB5D"/>
<path d="M470.12 318.509L466.55 322.151L470.192 325.721L473.762 322.079L470.12 318.509Z" fill="#F8AB5D"/>
<path d="M485.727 384.828L482.157 388.47L485.799 392.04L489.369 388.398L485.727 384.828Z" fill="#F8AB5D"/>
<path d="M485.552 368.24L481.981 371.882L485.623 375.452L489.193 371.81L485.552 368.24Z" fill="#F8AB5D"/>
<path d="M485.366 351.524L481.795 355.166L485.437 358.736L489.008 355.094L485.366 351.524Z" fill="#F8AB5D"/>
<path d="M485.19 334.946L481.62 338.588L485.262 342.158L488.832 338.516L485.19 334.946Z" fill="#F8AB5D"/>
<path d="M485.004 318.368L481.434 322.01L485.076 325.58L488.646 321.938L485.004 318.368Z" fill="#F8AB5D"/>
<path d="M500.676 384.608L497.106 388.25L500.748 391.82L504.318 388.178L500.676 384.608Z" fill="#F8AB5D"/>
<path d="M500.49 368.03L496.92 371.672L500.562 375.242L504.132 371.6L500.49 368.03Z" fill="#F8AB5D"/>
<path d="M500.321 351.459L496.751 355.101L500.393 358.671L503.963 355.029L500.321 351.459Z" fill="#F8AB5D"/>
<path d="M500.204 334.802L496.634 338.444L500.276 342.014L503.846 338.372L500.204 334.802Z" fill="#F8AB5D"/>
<path d="M500.028 318.224L496.458 321.866L500.1 325.436L503.67 321.794L500.028 318.224Z" fill="#F8AB5D"/>
<path d="M515.621 384.543L512.051 388.185L515.693 391.756L519.263 388.114L515.621 384.543Z" fill="#F8AB5D"/>
<path d="M515.515 367.886L511.944 371.528L515.586 375.098L519.156 371.457L515.515 367.886Z" fill="#F8AB5D"/>
<path d="M515.26 351.239L511.689 354.881L515.331 358.451L518.902 354.809L515.26 351.239Z" fill="#F8AB5D"/>
<path d="M515.084 334.661L511.514 338.303L515.156 341.873L518.726 338.231L515.084 334.661Z" fill="#F8AB5D"/>
<path d="M514.977 318.004L511.407 321.646L515.049 325.216L518.619 321.574L514.977 318.004Z" fill="#F8AB5D"/>
<path d="M425.016 302.36L421.446 306.001L425.088 309.572L428.658 305.93L425.016 302.36Z" fill="#F8AB5D"/>
<path d="M424.909 285.702L421.339 289.344L424.981 292.915L428.551 289.273L424.909 285.702Z" fill="#F8AB5D"/>
<path d="M424.723 269.124L421.153 272.766L424.795 276.336L428.365 272.695L424.723 269.124Z" fill="#F8AB5D"/>
<path d="M424.547 252.546L420.977 256.188L424.619 259.758L428.189 256.116L424.547 252.546Z" fill="#F8AB5D"/>
<path d="M439.971 302.147L436.401 305.789L440.043 309.359L443.613 305.717L439.971 302.147Z" fill="#F8AB5D"/>
<path d="M439.785 285.569L436.215 289.211L439.857 292.781L443.427 289.139L439.785 285.569Z" fill="#F8AB5D"/>
<path d="M439.679 268.911L436.108 272.553L439.75 276.124L443.321 272.482L439.679 268.911Z" fill="#F8AB5D"/>
<path d="M439.493 252.333L435.923 255.975L439.565 259.546L443.135 255.904L439.493 252.333Z" fill="#F8AB5D"/>
<path d="M454.986 302.003L451.416 305.645L455.058 309.215L458.628 305.573L454.986 302.003Z" fill="#F8AB5D"/>
<path d="M454.81 285.425L451.24 289.067L454.882 292.637L458.452 288.995L454.81 285.425Z" fill="#F8AB5D"/>
<path d="M454.634 268.847L451.064 272.489L454.706 276.059L458.276 272.417L454.634 268.847Z" fill="#F8AB5D"/>
<path d="M454.517 252.2L450.947 255.841L454.589 259.412L458.159 255.77L454.517 252.2Z" fill="#F8AB5D"/>
<path d="M469.941 301.924L466.371 305.566L470.013 309.136L473.583 305.494L469.941 301.924Z" fill="#F8AB5D"/>
<path d="M469.759 285.215L466.188 288.857L469.83 292.427L473.4 288.785L469.759 285.215Z" fill="#F8AB5D"/>
<path d="M469.58 268.634L466.01 272.276L469.652 275.846L473.222 272.204L469.58 268.634Z" fill="#F8AB5D"/>
<path d="M469.404 252.056L465.834 255.698L469.476 259.268L473.046 255.626L469.404 252.056Z" fill="#F8AB5D"/>
<path d="M484.897 301.711L481.327 305.353L484.969 308.923L488.539 305.281L484.897 301.711Z" fill="#F8AB5D"/>
<path d="M484.711 285.133L481.141 288.775L484.783 292.345L488.353 288.703L484.711 285.133Z" fill="#F8AB5D"/>
<path d="M484.535 268.555L480.965 272.197L484.607 275.767L488.177 272.125L484.535 268.555Z" fill="#F8AB5D"/>
<path d="M484.428 251.908L480.858 255.549L484.5 259.12L488.07 255.478L484.428 251.908Z" fill="#F8AB5D"/>
<path d="M499.843 301.646L496.272 305.288L499.914 308.858L503.485 305.216L499.843 301.646Z" fill="#F8AB5D"/>
<path d="M499.667 284.92L496.097 288.562L499.738 292.132L503.309 288.49L499.667 284.92Z" fill="#F8AB5D"/>
<path d="M499.491 268.342L495.921 271.984L499.563 275.554L503.133 271.912L499.491 268.342Z" fill="#F8AB5D"/>
<path d="M499.305 251.764L495.735 255.406L499.377 258.976L502.947 255.334L499.305 251.764Z" fill="#F8AB5D"/>
<path d="M514.798 301.433L511.228 305.075L514.87 308.645L518.44 305.003L514.798 301.433Z" fill="#F8AB5D"/>
<path d="M514.622 284.855L511.052 288.497L514.694 292.067L518.264 288.425L514.622 284.855Z" fill="#F8AB5D"/>
<path d="M514.505 268.208L510.935 271.85L514.577 275.42L518.147 271.778L514.505 268.208Z" fill="#F8AB5D"/>
<path d="M514.33 251.63L510.759 255.272L514.401 258.842L517.971 255.2L514.33 251.63Z" fill="#F8AB5D"/>
<path d="M553.8 249C553.8 249 556.1 241.5 555.8 238.8C555.5 236.1 553.3 230.1 552.3 227.9C551.3 225.7 552.1 219.5 551.9 216.4C551.7 213.3 555.3 214.1 556.3 217.2C556.757 218.82 557.502 220.344 558.5 221.7C558.5 221.7 562.4 212.7 563 210.2C563.6 207.7 565.2 199.7 567.6 197.8C570 195.9 570.9 197.9 569.6 203.3C569.062 205.289 568.793 207.34 568.8 209.4C568.8 209.7 571.7 210.2 572.9 211.9C573.347 212.955 573.65 214.065 573.8 215.2C574.636 215.212 575.457 215.417 576.2 215.8C576.9 216.2 577.7 217.5 578.4 218.1C579.114 218.76 579.751 219.498 580.3 220.3C581.2 221.6 581.9 224.2 579.2 235.2C577.7 241.2 575 243.3 573 257.3C570.7 271.3 551.8 257.9 553.8 249Z" fill="#F4C2C9"/>
<path d="M555.4 242.3C554.8 245.4 553.8 248.9 553.8 248.9C551.8 257.8 570.7 271.2 572.8 257.2C573.3 253.6 573.9 250.7 574.4 248.4C569.5 243.3 563 240.4 555.4 242.3Z" fill="#63737A"/>
<path d="M569.894 251.029C572.14 249.965 573.021 247.12 571.862 244.674C570.704 242.229 567.944 241.109 565.698 242.173C563.452 243.237 562.57 246.082 563.729 248.528C564.888 250.973 567.648 252.093 569.894 251.029Z" fill="white"/>
<path d="M505.6 256.8C505.6 256.8 513.5 256.8 524.7 271.9C535.9 287 538.2 290.9 538.2 290.9C540.192 284.053 542.528 277.311 545.2 270.7C547.752 264.141 549.89 257.427 551.6 250.6C551.815 249.702 552.274 248.88 552.927 248.227C553.58 247.574 554.402 247.115 555.3 246.9C559.4 246 566.8 245.9 573.1 255.1C573.797 256.162 574.082 257.443 573.9 258.7C572.9 264.5 570 282.4 567.6 299.8C564.7 320.9 563.1 338.7 548.8 340.5C538.5 341.8 523.5 328.3 513 317.8C508.9 313.7 505.5 310 503.4 307.8C498.1 302.4 489.8 291.9 489.8 276.8C489.8 260.2 502.1 255.8 505.6 256.8Z" fill="#6DAFA7"/>
<path d="M513 317.9C508.9 313.8 505.5 310.1 503.4 307.9C498.1 302.5 489.8 292 489.8 276.9" stroke="#F8AB5D" stroke-width="1.8" stroke-linecap="round" stroke-linejoin="round"/>
<path d="M538.2 290.8C538.2 290.8 551.1 307.6 554.2 315.7" stroke="black" stroke-width="1.8" stroke-linecap="round" stroke-linejoin="round"/>
<path d="M542.4 339.6C541.7 339.1 540.9 338.1 541 336C541.2 332.2 545 326.1 552.2 324.6C558.3 323.3 561.4 325.2 562 327.2" stroke="black" stroke-width="1.8" stroke-linecap="round" stroke-linejoin="round"/>
<path d="M550.8 253.6C550.8 253.6 563.6 248 573.1 263.3" stroke="black" stroke-width="1.8" stroke-linecap="round" stroke-linejoin="round"/>
<path d="M568.6 209.3C568.6 209.3 568.4 212.7 568.3 213.3C568.2 213.9 567.3 217.6 567.2 219" stroke="#E26E85" stroke-width="1.8" stroke-linecap="round" stroke-linejoin="round"/>
<path d="M573.6 215.1V218C573.509 219.143 573.342 220.279 573.1 221.4" stroke="#E26E85" stroke-width="1.8" stroke-linecap="round" stroke-linejoin="round"/>
<path d="M577.9 218.2C578.074 219.09 578.174 219.993 578.2 220.9C578.113 222.209 577.946 223.511 577.7 224.8" stroke="#E26E85" stroke-width="1.8" stroke-linecap="round" stroke-linejoin="round"/>
<path d="M558.4 221.6C558.072 222.421 557.634 223.195 557.1 223.9" stroke="#E26E85" stroke-width="1.8" stroke-linecap="round" stroke-linejoin="round"/>
<path d="M507.8 111.9C507.8 111.9 501.7 136.2 510.7 152.6C510.863 152.91 511.086 153.184 511.355 153.407C511.625 153.63 511.936 153.798 512.271 153.9C512.605 154.003 512.957 154.037 513.305 154.003C513.654 153.969 513.992 153.866 514.3 153.7L526.5 146.9L521.6 110.1L507.8 111.9Z" fill="#6DAFA7"/>
<path d="M510.5 112.4C510.5 112.4 504.7 136.5 518.7 154.1C519.117 154.599 519.698 154.934 520.34 155.044C520.981 155.154 521.64 155.032 522.2 154.7L537.5 145.5L524.9 108.7C524.8 108.8 512.5 109.4 510.5 112.4Z" fill="#F8DA30"/>
<path d="M507.8 111.9L513.6 113.1L546.3 100.5L540.1 99.5L507.8 111.9Z" fill="#B0D7C0"/>
<path d="M546.3 100.5C546.3 100.5 546.8 116.5 566 128.6C566.39 128.832 566.712 129.162 566.936 129.556C567.16 129.951 567.278 130.396 567.278 130.85C567.278 131.304 567.16 131.749 566.936 132.144C566.712 132.538 566.39 132.868 566 133.1L535.4 151.2C535.011 151.436 534.568 151.569 534.113 151.587C533.658 151.604 533.206 151.506 532.8 151.3C513.3 141 513.6 113 513.6 113L546.3 100.5Z" fill="#6DAFA7"/>
<path d="M537.9 120.7C537.647 120.385 537.342 120.115 537 119.9C536.515 119.684 535.982 119.6 535.454 119.658C534.927 119.715 534.424 119.911 533.997 120.226C533.57 120.541 533.234 120.964 533.024 121.452C532.814 121.939 532.736 122.473 532.8 123C532.986 124.216 533.357 125.396 533.9 126.5C534.127 125.773 534.541 125.118 535.1 124.6C535.727 124.032 536.434 123.56 537.2 123.2C538.912 122.388 540.839 122.143 542.7 122.5C544.465 122.851 546.035 123.85 547.1 125.3C547.64 126.022 548.025 126.848 548.231 127.725C548.438 128.603 548.461 129.513 548.3 130.4C548 132.3 546.6 134 543.9 135.4C542.644 136.09 541.233 136.451 539.8 136.451C538.367 136.451 536.956 136.09 535.7 135.4C533.562 134.133 531.854 132.251 530.8 130C530.132 128.864 529.595 127.657 529.2 126.4C528.666 124.999 528.494 123.485 528.7 122C528.861 120.933 529.31 119.93 530 119.1C530.815 118.168 531.845 117.447 533 117C534.59 116.256 536.368 116.012 538.1 116.3C539.619 116.538 540.984 117.364 541.9 118.6C540.3 119.5 539.5 119.9 537.9 120.7ZM539 133C540.026 133.283 541.118 133.213 542.1 132.8C542.516 132.617 542.886 132.342 543.18 131.996C543.475 131.649 543.687 131.24 543.8 130.8C543.869 130.342 543.842 129.874 543.722 129.427C543.601 128.979 543.39 128.562 543.1 128.2C542.558 127.316 541.7 126.673 540.7 126.4C539.803 126.163 538.852 126.233 538 126.6C537.321 126.869 536.756 127.363 536.4 128C536.161 128.495 536.063 129.045 536.116 129.592C536.169 130.139 536.371 130.66 536.7 131.1C537.219 131.985 538.033 132.658 539 133V133Z" fill="#F8DA30"/>
<path d="M407.2 172.8H440.2L443.6 175C443.848 175.157 444.134 175.243 444.427 175.251C444.721 175.259 445.011 175.187 445.267 175.044C445.523 174.9 445.735 174.691 445.882 174.437C446.029 174.182 446.104 173.893 446.1 173.6V150.3C446.104 149.734 445.996 149.173 445.781 148.65C445.566 148.126 445.25 147.651 444.849 147.251C444.449 146.85 443.974 146.534 443.45 146.319C442.927 146.105 442.366 145.996 441.8 146H407.2C406.634 145.996 406.073 146.105 405.55 146.319C405.026 146.534 404.551 146.85 404.151 147.251C403.75 147.651 403.434 148.126 403.219 148.65C403.005 149.173 402.896 149.734 402.9 150.3V168.5C402.896 169.066 403.005 169.627 403.219 170.15C403.434 170.674 403.75 171.149 404.151 171.549C404.551 171.95 405.026 172.266 405.55 172.481C406.073 172.695 406.634 172.804 407.2 172.8V172.8Z" fill="#F4C2C9"/>
<path d="M412.7 155.3L414.4 157L417.7 153.7" stroke="#22272E" stroke-width="1.8" stroke-linecap="round" stroke-linejoin="round"/>
<path d="M422.8 155.8H434.4" stroke="#22272E" stroke-width="1.8" stroke-linecap="round" stroke-linejoin="round"/>
<path d="M412.7 163.4L414.4 165.1L417.7 161.8" stroke="#22272E" stroke-width="1.8" stroke-linecap="round" stroke-linejoin="round"/>
<path d="M422.8 163.9H434.4" stroke="#22272E" stroke-width="1.8" stroke-linecap="round" stroke-linejoin="round"/>
<path d="M561.8 462.4L558.8 465.6C558.681 465.718 558.587 465.858 558.523 466.013C558.459 466.167 558.426 466.333 558.426 466.5C558.426 466.667 558.459 466.833 558.523 466.987C558.587 467.142 558.681 467.282 558.8 467.4V467.4C559.003 467.645 559.293 467.803 559.61 467.84C559.927 467.878 560.245 467.792 560.5 467.6L564 465.5L561.8 462.4Z" fill="#22272E"/>
<path d="M588.5 470.2L589.3 474.5C589.352 474.83 589.278 475.167 589.093 475.445C588.908 475.723 588.625 475.921 588.3 476V476C588.008 476.091 587.692 476.07 587.415 475.94C587.137 475.811 586.918 475.582 586.8 475.3L585 471.6L588.5 470.2Z" fill="#22272E"/>
<path d="M578.7 473.9C589.69 473.9 598.6 464.99 598.6 454C598.6 443.01 589.69 434.1 578.7 434.1C567.71 434.1 558.8 443.01 558.8 454C558.8 464.99 567.71 473.9 578.7 473.9Z" fill="#6DAFA7"/>
<path d="M578.7 466.8C585.769 466.8 591.5 461.069 591.5 454C591.5 446.931 585.769 441.2 578.7 441.2C571.631 441.2 565.9 446.931 565.9 454C565.9 461.069 571.631 466.8 578.7 466.8Z" fill="#F8DA30"/>
<path d="M582.3 458.6L578.7 454L580.6 447.6" stroke="#63737A" stroke-width="1.8" stroke-linecap="round" stroke-linejoin="round"/>
<path d="M566 434.8C565.869 434.846 565.73 434.864 565.591 434.853C565.453 434.842 565.318 434.802 565.196 434.737C565.073 434.671 564.966 434.58 564.881 434.471C564.795 434.361 564.734 434.235 564.7 434.1C564.494 432.797 564.739 431.463 565.393 430.318C566.048 429.172 567.073 428.284 568.3 427.8C569.537 427.316 570.906 427.281 572.166 427.701C573.427 428.121 574.501 428.97 575.2 430.1C575.267 430.223 575.306 430.359 575.317 430.499C575.328 430.639 575.309 430.779 575.262 430.911C575.215 431.043 575.14 431.164 575.043 431.265C574.947 431.367 574.83 431.447 574.7 431.5L566 434.8Z" fill="#6DAFA7"/>
<path d="M599.7 444.6C599.78 444.722 599.887 444.824 600.012 444.898C600.138 444.972 600.28 445.015 600.425 445.025C600.571 445.034 600.716 445.01 600.851 444.954C600.985 444.897 601.105 444.811 601.2 444.7C602.085 443.706 602.599 442.437 602.652 441.107C602.706 439.777 602.297 438.47 601.495 437.408C600.693 436.347 599.547 435.596 598.253 435.284C596.959 434.973 595.598 435.12 594.4 435.7C594.272 435.77 594.161 435.867 594.075 435.985C593.989 436.102 593.93 436.237 593.901 436.38C593.873 436.523 593.876 436.67 593.91 436.812C593.944 436.954 594.009 437.086 594.1 437.2L599.7 444.6Z" fill="#6DAFA7"/>
<path d="M587.7 432.6L582.5 431.1C582.294 431.045 582.101 430.949 581.933 430.817C581.765 430.686 581.626 430.522 581.523 430.335C581.42 430.148 581.356 429.942 581.335 429.73C581.314 429.518 581.336 429.303 581.4 429.1V429.1C581.455 428.894 581.551 428.701 581.683 428.533C581.814 428.365 581.978 428.226 582.165 428.123C582.352 428.02 582.558 427.956 582.77 427.935C582.982 427.914 583.197 427.936 583.4 428L588.6 429.5C588.806 429.555 588.999 429.651 589.167 429.783C589.335 429.914 589.474 430.078 589.577 430.265C589.68 430.452 589.744 430.658 589.765 430.87C589.786 431.082 589.764 431.296 589.7 431.5V431.5C589.655 431.712 589.564 431.911 589.435 432.085C589.306 432.258 589.141 432.402 588.951 432.507C588.762 432.611 588.552 432.673 588.336 432.689C588.12 432.706 587.903 432.675 587.7 432.6Z" fill="#6DAFA7"/>
<path d="M583.48 430.46L582.057 435.358L585.803 436.446L587.225 431.548L583.48 430.46Z" fill="#6DAFA7"/>
</g>
<defs>
<clipPath id="clip0_2_2180">
<rect width="1024" height="768" fill="white"/>
</clipPath>
</defs>
</svg>
