<svg width="1024" height="768" viewBox="0 0 1024 768" fill="none" xmlns="http://www.w3.org/2000/svg">
<g clip-path="url(#clip0_2_616)">
<path d="M766.3 570.1L246.3 555.2C234.608 554.875 223.436 550.299 214.876 542.328C206.316 534.357 200.956 523.539 199.8 511.9L174.7 263.9C174.032 257.262 174.75 250.557 176.808 244.21C178.866 237.864 182.22 232.014 186.658 227.032C191.095 222.049 196.519 218.042 202.585 215.266C208.652 212.489 215.229 211.002 221.9 210.9L800.7 202.9C807.583 202.807 814.406 204.189 820.71 206.953C827.014 209.717 832.654 213.799 837.249 218.924C841.843 224.05 845.287 230.1 847.349 236.668C849.41 243.235 850.042 250.168 849.2 257L815.5 527.9C814.015 539.793 808.152 550.705 799.055 558.508C789.958 566.311 778.28 570.443 766.3 570.1V570.1Z" fill="#EAF9F3"/>
<path d="M691.4 637.4H1106.9C1110.88 637.4 1114.69 635.82 1117.51 633.007C1120.32 630.194 1121.9 626.378 1121.9 622.4V386.8C1121.9 382.822 1120.32 379.006 1117.51 376.193C1114.69 373.38 1110.88 371.8 1106.9 371.8H691.4C687.422 371.8 683.606 373.38 680.793 376.193C677.98 379.006 676.4 382.822 676.4 386.8V622.4C676.4 626.378 677.98 630.194 680.793 633.007C683.606 635.82 687.422 637.4 691.4 637.4Z" stroke="#B8D8C7" stroke-width="1.8" stroke-linecap="round" stroke-linejoin="round"/>
<path d="M142.3 621.6H561.4C565.378 621.6 569.194 620.02 572.007 617.207C574.82 614.394 576.4 610.578 576.4 606.6V262.3C576.4 258.322 574.82 254.506 572.007 251.693C569.194 248.88 565.378 247.3 561.4 247.3H142.3C138.322 247.3 134.506 248.88 131.693 251.693C128.88 254.506 127.3 258.322 127.3 262.3V606.6C127.3 610.578 128.88 614.394 131.693 617.207C134.506 620.02 138.322 621.6 142.3 621.6V621.6Z" stroke="#B8D8C7" stroke-width="1.8" stroke-linecap="round" stroke-linejoin="round"/>
<path d="M791.1 301.4H881V292.5H791.1C790.863 292.499 790.629 292.544 790.41 292.634C790.191 292.724 789.992 292.857 789.824 293.024C789.657 293.192 789.524 293.391 789.434 293.61C789.344 293.829 789.299 294.063 789.3 294.3V299.5C789.28 299.746 789.313 299.993 789.395 300.226C789.477 300.459 789.607 300.672 789.777 300.851C789.946 301.03 790.152 301.172 790.38 301.266C790.608 301.361 790.853 301.406 791.1 301.4V301.4Z" stroke="#B8D8C7" stroke-width="1.8" stroke-linecap="round" stroke-linejoin="round"/>
<path d="M807.4 292.5H827.7C828.758 292.503 829.78 292.117 830.572 291.417C831.365 290.717 831.873 289.75 832 288.7L833.6 274.3C833.666 273.696 833.604 273.084 833.418 272.505C833.232 271.927 832.926 271.394 832.521 270.941C832.115 270.488 831.619 270.126 831.064 269.877C830.509 269.629 829.908 269.501 829.3 269.5H805.8C805.193 269.502 804.592 269.632 804.038 269.881C803.484 270.129 802.988 270.492 802.583 270.944C802.178 271.397 801.872 271.929 801.685 272.507C801.499 273.085 801.436 273.696 801.5 274.3L803.1 288.7C803.212 289.756 803.716 290.732 804.512 291.435C805.308 292.139 806.338 292.518 807.4 292.5V292.5Z" stroke="#B8D8C7" stroke-width="1.8" stroke-linecap="round" stroke-linejoin="round"/>
<path d="M819.9 269.6C819.9 269.6 827.9 268.8 829.5 258C829.5 258 822.3 260.1 820 265.2C820 265.2 819 253.8 813.6 252.7C813.6 252.7 811.2 261.2 815 265.4C815 265.4 812.1 260.6 804.7 260.7C805.399 262.806 806.603 264.709 808.207 266.243C809.811 267.777 811.765 268.895 813.9 269.5" fill="#B8D8C7"/>
<path d="M694.6 421.5H784.8C785.911 421.492 786.975 421.047 787.761 420.261C788.547 419.475 788.992 418.411 789 417.3V389.9C788.992 388.789 788.547 387.725 787.761 386.939C786.975 386.153 785.911 385.708 784.8 385.7H694.6C693.488 385.708 692.425 386.153 691.639 386.939C690.853 387.725 690.408 388.789 690.4 389.9V417.3C690.408 418.411 690.853 419.475 691.639 420.261C692.425 421.047 693.488 421.492 694.6 421.5V421.5Z" stroke="#B8D8C7" stroke-width="1.8" stroke-linecap="round" stroke-linejoin="round"/>
<path d="M729.3 395.3H750.1C750.495 395.29 750.87 395.129 751.15 394.849C751.429 394.57 751.59 394.195 751.6 393.8C751.59 393.405 751.429 393.03 751.15 392.751C750.87 392.471 750.495 392.31 750.1 392.3H729.3C728.905 392.31 728.53 392.471 728.251 392.751C727.972 393.03 727.81 393.405 727.8 393.8V393.8C727.796 393.998 727.832 394.195 727.906 394.379C727.98 394.563 728.09 394.73 728.23 394.87C728.37 395.01 728.537 395.12 728.721 395.194C728.905 395.268 729.102 395.304 729.3 395.3V395.3Z" fill="#B8D8C7"/>
<path d="M694.6 467.3H784.8C785.912 467.292 786.975 466.847 787.761 466.061C788.547 465.275 788.992 464.211 789 463.1V435.7C788.992 434.589 788.547 433.525 787.761 432.739C786.975 431.953 785.912 431.508 784.8 431.5H694.6C693.489 431.508 692.425 431.953 691.639 432.739C690.853 433.525 690.408 434.589 690.4 435.7V463C690.394 463.558 690.497 464.112 690.704 464.63C690.912 465.148 691.22 465.621 691.61 466.02C692 466.419 692.464 466.738 692.978 466.957C693.491 467.177 694.042 467.293 694.6 467.3Z" stroke="#B8D8C7" stroke-width="1.8" stroke-linecap="round" stroke-linejoin="round"/>
<path d="M729.3 441.1H750.1C750.495 441.09 750.87 440.929 751.15 440.649C751.429 440.37 751.59 439.995 751.6 439.6V439.6C751.59 439.205 751.429 438.83 751.15 438.551C750.87 438.271 750.495 438.11 750.1 438.1H729.3C728.905 438.11 728.53 438.271 728.251 438.551C727.972 438.83 727.81 439.205 727.8 439.6V439.6C727.796 439.798 727.832 439.995 727.906 440.179C727.98 440.363 728.09 440.53 728.23 440.67C728.37 440.81 728.537 440.92 728.721 440.994C728.905 441.068 729.102 441.104 729.3 441.1V441.1Z" fill="#B8D8C7"/>
<path d="M231.4 499.6H321.6C322.711 499.592 323.775 499.147 324.561 498.361C325.347 497.575 325.792 496.511 325.8 495.4V468C325.792 466.889 325.347 465.825 324.561 465.039C323.775 464.253 322.711 463.808 321.6 463.8H231.4C230.288 463.808 229.225 464.253 228.439 465.039C227.653 465.825 227.208 466.889 227.2 468V495.4C227.208 496.511 227.653 497.575 228.439 498.361C229.225 499.147 230.288 499.592 231.4 499.6V499.6Z" stroke="#B8D8C7" stroke-width="1.8" stroke-linecap="round" stroke-linejoin="round"/>
<path d="M266.2 473.5H287C287.395 473.49 287.77 473.329 288.049 473.049C288.329 472.77 288.49 472.395 288.5 472V472C288.49 471.605 288.329 471.23 288.049 470.951C287.77 470.671 287.395 470.51 287 470.5H266.2C265.805 470.51 265.43 470.671 265.151 470.951C264.871 471.23 264.71 471.605 264.7 472V472C264.696 472.198 264.732 472.395 264.806 472.579C264.88 472.763 264.99 472.93 265.13 473.07C265.27 473.21 265.437 473.32 265.621 473.394C265.805 473.468 266.002 473.504 266.2 473.5Z" fill="#B8D8C7"/>
<path d="M347.2 499.6H437.4C438.511 499.592 439.575 499.147 440.361 498.361C441.147 497.575 441.592 496.511 441.6 495.4V468C441.592 466.889 441.147 465.825 440.361 465.039C439.575 464.253 438.511 463.808 437.4 463.8H347.2C346.089 463.808 345.025 464.253 344.239 465.039C343.453 465.825 343.008 466.889 343 468V495.4C343.008 496.511 343.453 497.575 344.239 498.361C345.025 499.147 346.089 499.592 347.2 499.6V499.6Z" stroke="#B8D8C7" stroke-width="1.8" stroke-linecap="round" stroke-linejoin="round"/>
<path d="M382 473.5H402.8C403.195 473.49 403.57 473.329 403.85 473.049C404.129 472.77 404.29 472.395 404.3 472V472C404.29 471.605 404.129 471.23 403.85 470.951C403.57 470.671 403.195 470.51 402.8 470.5H382C381.605 470.51 381.23 470.671 380.951 470.951C380.671 471.23 380.51 471.605 380.5 472V472C380.496 472.198 380.532 472.395 380.606 472.579C380.68 472.763 380.79 472.93 380.93 473.07C381.07 473.21 381.237 473.32 381.421 473.394C381.605 473.468 381.802 473.504 382 473.5V473.5Z" fill="#B8D8C7"/>
<path d="M809.6 421.5H899.8C900.911 421.492 901.975 421.047 902.761 420.261C903.547 419.475 903.992 418.411 904 417.3V389.9C903.992 388.789 903.547 387.725 902.761 386.939C901.975 386.153 900.911 385.708 899.8 385.7H809.6C808.488 385.708 807.425 386.153 806.639 386.939C805.853 387.725 805.408 388.789 805.4 389.9V417.3C805.408 418.411 805.853 419.475 806.639 420.261C807.425 421.047 808.488 421.492 809.6 421.5V421.5Z" stroke="#B8D8C7" stroke-width="1.8" stroke-linecap="round" stroke-linejoin="round"/>
<path d="M844.3 395.3H865.1C865.495 395.29 865.87 395.129 866.15 394.849C866.429 394.57 866.59 394.195 866.6 393.8V393.8C866.59 393.405 866.429 393.03 866.15 392.751C865.87 392.471 865.495 392.31 865.1 392.3H844.3C843.905 392.31 843.53 392.471 843.251 392.751C842.972 393.03 842.81 393.405 842.8 393.8C842.796 393.998 842.832 394.195 842.906 394.379C842.98 394.563 843.09 394.73 843.23 394.87C843.37 395.01 843.537 395.12 843.721 395.194C843.905 395.268 844.102 395.304 844.3 395.3V395.3Z" fill="#B8D8C7"/>
<path d="M809.6 467.3H899.8C900.912 467.292 901.975 466.847 902.761 466.061C903.547 465.275 903.992 464.211 904 463.1V435.7C903.992 434.589 903.547 433.525 902.761 432.739C901.975 431.953 900.912 431.508 899.8 431.5H809.6C808.489 431.508 807.425 431.953 806.639 432.739C805.853 433.525 805.408 434.589 805.4 435.7V463C805.394 463.558 805.497 464.112 805.704 464.63C805.912 465.148 806.22 465.621 806.61 466.02C807 466.419 807.464 466.738 807.978 466.957C808.491 467.177 809.042 467.293 809.6 467.3Z" stroke="#B8D8C7" stroke-width="1.8" stroke-linecap="round" stroke-linejoin="round"/>
<path d="M844.3 441.1H865.1C865.495 441.09 865.87 440.929 866.15 440.649C866.429 440.37 866.59 439.995 866.6 439.6V439.6C866.59 439.205 866.429 438.83 866.15 438.551C865.87 438.271 865.495 438.11 865.1 438.1H844.3C843.905 438.11 843.53 438.271 843.251 438.551C842.972 438.83 842.81 439.205 842.8 439.6V439.6C842.796 439.798 842.832 439.995 842.906 440.179C842.98 440.363 843.09 440.53 843.23 440.67C843.37 440.81 843.537 440.92 843.721 440.994C843.905 441.068 844.102 441.104 844.3 441.1V441.1Z" fill="#B8D8C7"/>
<path d="M100.1 352.1H555.1C556.316 352.087 557.478 351.598 558.338 350.738C559.198 349.878 559.687 348.716 559.7 347.5V267.8C559.687 266.584 559.198 265.422 558.338 264.562C557.478 263.702 556.316 263.213 555.1 263.2H100.1C98.884 263.213 97.7216 263.702 96.8617 264.562C96.0018 265.422 95.513 266.584 95.5 267.8V347.5C95.4987 348.104 95.6168 348.703 95.8475 349.262C96.0782 349.821 96.417 350.328 96.8444 350.756C97.2718 351.183 97.7794 351.522 98.3381 351.753C98.8968 351.983 99.4956 352.101 100.1 352.1V352.1Z" stroke="#B8D8C7" stroke-width="1.8" stroke-linecap="round" stroke-linejoin="round"/>
<path d="M100.1 451.1H555.1C556.316 451.087 557.478 450.598 558.338 449.738C559.198 448.878 559.687 447.716 559.7 446.5V366.8C559.687 365.584 559.198 364.422 558.338 363.562C557.478 362.702 556.316 362.213 555.1 362.2H100.1C98.884 362.213 97.7216 362.702 96.8617 363.562C96.0018 364.422 95.513 365.584 95.5 366.8V446.5C95.513 447.716 96.0018 448.878 96.8617 449.738C97.7216 450.598 98.884 451.087 100.1 451.1V451.1Z" stroke="#B8D8C7" stroke-width="1.8" stroke-linecap="round" stroke-linejoin="round"/>
<path d="M529.13 301.82H519.23V352.12H529.13V301.82Z" stroke="#B8D8C7" stroke-width="1.8" stroke-linecap="round" stroke-linejoin="round"/>
<path d="M519.19 315.54H508.89V352.14H519.19V315.54Z" stroke="#B8D8C7" stroke-width="1.8" stroke-linecap="round" stroke-linejoin="round"/>
<path d="M230.75 400.66H220.85V450.96H230.75V400.66Z" stroke="#B8D8C7" stroke-width="1.8" stroke-linecap="round" stroke-linejoin="round"/>
<path d="M220.81 414.38H210.51V450.98H220.81V414.38Z" stroke="#B8D8C7" stroke-width="1.8" stroke-linecap="round" stroke-linejoin="round"/>
<path d="M250.84 400.66H240.94V450.96H250.84V400.66Z" stroke="#B8D8C7" stroke-width="1.8" stroke-linecap="round" stroke-linejoin="round"/>
<path d="M260.106 399.525L250.665 402.506L265.807 450.472L275.248 447.492L260.106 399.525Z" stroke="#B8D8C7" stroke-width="1.8" stroke-linecap="round" stroke-linejoin="round"/>
<path d="M241 414.38H230.7V450.98H241V414.38Z" stroke="#B8D8C7" stroke-width="1.8" stroke-linecap="round" stroke-linejoin="round"/>
<path d="M221 308.4L219.9 293.5C219.879 293.267 219.907 293.032 219.983 292.81C220.06 292.589 220.183 292.386 220.343 292.216C220.504 292.046 220.699 291.912 220.916 291.823C221.133 291.734 221.366 291.692 221.6 291.7H230.2C230.431 291.701 230.66 291.749 230.873 291.841C231.085 291.933 231.277 292.068 231.436 292.236C231.594 292.404 231.718 292.603 231.797 292.82C231.877 293.038 231.912 293.269 231.9 293.5L230.8 308.4C230.8 308.4 239.8 314.2 239.7 319C239.6 322.7 237.4 340.4 236.4 348.2C236.273 349.25 235.765 350.217 234.972 350.917C234.18 351.617 233.158 352.003 232.1 352H219.7C218.642 352.003 217.62 351.617 216.828 350.917C216.035 350.217 215.527 349.25 215.4 348.2C214.4 340.4 212.2 322.7 212.1 319C212 314.2 221 308.4 221 308.4Z" fill="#B8D8C7"/>
<path d="M860.1 545.4H-95.7" stroke="#B8D8C7" stroke-width="1.8" stroke-linecap="round" stroke-linejoin="round"/>
<path d="M423.9 451.1H340.7C339.401 451.097 338.157 450.58 337.238 449.662C336.32 448.744 335.803 447.499 335.8 446.2V433C335.803 431.701 336.32 430.456 337.238 429.538C338.157 428.62 339.401 428.103 340.7 428.1H423.9C425.199 428.103 426.444 428.62 427.362 429.538C428.28 430.456 428.797 431.701 428.8 433V446.1C428.809 446.751 428.69 447.397 428.448 448.001C428.206 448.605 427.847 449.156 427.392 449.621C426.936 450.086 426.393 450.456 425.794 450.709C425.194 450.963 424.551 451.096 423.9 451.1V451.1Z" stroke="#B8D8C7" stroke-width="1.8" stroke-linecap="round" stroke-linejoin="round"/>
<path d="M412.2 407.1H352.2V428.1H412.2V407.1Z" stroke="#B8D8C7" stroke-width="1.8" stroke-linecap="round" stroke-linejoin="round"/>
<path d="M345.2 437.3C346.028 437.3 346.7 436.628 346.7 435.8C346.7 434.972 346.028 434.3 345.2 434.3C344.372 434.3 343.7 434.972 343.7 435.8C343.7 436.628 344.372 437.3 345.2 437.3Z" fill="#B8D8C7"/>
<path d="M407.8 463H397.5L396.4 475.8H406.3L407.8 463Z" fill="#6DAFA7"/>
<path d="M396.4 475.8L383.3 624.8C383.273 625.202 383.327 625.606 383.46 625.986C383.592 626.367 383.8 626.717 384.07 627.016C384.341 627.315 384.669 627.556 385.035 627.725C385.401 627.894 385.797 627.987 386.2 628C386.919 627.999 387.612 627.734 388.147 627.254C388.682 626.774 389.021 626.114 389.1 625.4L406.3 475.8H396.4Z" fill="#B0D7C0"/>
<path d="M497.8 463H487.5L489 475.8H498.9L497.8 463Z" fill="#B0D7C0"/>
<path d="M489 475.8L506.2 625.4C506.318 626.137 506.714 626.801 507.306 627.255C507.898 627.709 508.641 627.92 509.384 627.843C510.126 627.766 510.811 627.408 511.297 626.842C511.784 626.276 512.035 625.545 512 624.8L498.9 475.8H489Z" fill="#B0D7C0"/>
<path d="M501.6 544H395.4V549.1H501.6V544Z" fill="#B0D7C0"/>
<path d="M508.4 466.7H386.9C386.44 466.703 385.983 466.614 385.557 466.439C385.132 466.264 384.745 466.006 384.419 465.681C384.094 465.355 383.836 464.968 383.661 464.542C383.486 464.117 383.397 463.66 383.4 463.2V462.9C383.397 462.44 383.486 461.983 383.661 461.557C383.836 461.132 384.094 460.745 384.419 460.419C384.745 460.094 385.132 459.836 385.557 459.661C385.983 459.486 386.44 459.397 386.9 459.4H508.5C508.96 459.397 509.417 459.486 509.842 459.661C510.268 459.836 510.655 460.094 510.981 460.419C511.306 460.745 511.564 461.132 511.739 461.557C511.914 461.983 512.003 462.44 512 462.9V463.2C511.984 464.141 511.597 465.037 510.922 465.693C510.247 466.349 509.341 466.711 508.4 466.7V466.7Z" fill="#22272E"/>
<path d="M695.7 404.8L606.2 399.3C604.626 399.213 603.088 398.791 601.69 398.063C600.291 397.335 599.064 396.317 598.089 395.078C597.115 393.838 596.416 392.406 596.038 390.875C595.661 389.344 595.614 387.75 595.9 386.2L630 195.1C630.588 191.914 632.191 189.003 634.57 186.804C636.95 184.605 639.977 183.235 643.2 182.9L733.1 174.2C734.809 174.039 736.532 174.272 738.136 174.882C739.74 175.492 741.183 176.463 742.352 177.72C743.522 178.976 744.387 180.484 744.88 182.128C745.374 183.772 745.484 185.507 745.2 187.2L711.2 392.4C710.625 396.026 708.717 399.307 705.85 401.6C702.983 403.894 699.364 405.035 695.7 404.8Z" fill="#F8AB5D"/>
<path d="M690.8 404.2L601.3 398.7C599.726 398.613 598.188 398.191 596.79 397.463C595.391 396.735 594.164 395.717 593.19 394.478C592.215 393.238 591.516 391.806 591.138 390.275C590.761 388.744 590.714 387.15 591 385.6L625.1 194.5C625.688 191.314 627.291 188.403 629.671 186.204C632.05 184.005 635.078 182.635 638.3 182.3L728.2 173.6C729.909 173.438 731.632 173.672 733.236 174.282C734.84 174.892 736.283 175.863 737.452 177.12C738.622 178.376 739.487 179.884 739.981 181.528C740.474 183.172 740.584 184.907 740.3 186.6L706.3 391.8C705.708 395.418 703.796 398.688 700.933 400.978C698.07 403.269 694.46 404.416 690.8 404.2Z" fill="#F8DA30"/>
<path d="M781 296.2L643.2 298.6C642.36 298.613 641.526 298.44 640.761 298.093C639.995 297.746 639.315 297.235 638.77 296.594C638.225 295.954 637.829 295.201 637.609 294.389C637.39 293.578 637.353 292.728 637.5 291.9L647.6 234.4C647.887 232.813 648.689 231.365 649.882 230.281C651.076 229.196 652.593 228.535 654.2 228.4L790.2 219.3C791.287 219.23 792.376 219.406 793.385 219.815C794.395 220.224 795.298 220.856 796.029 221.664C796.76 222.472 797.299 223.434 797.605 224.479C797.912 225.525 797.979 226.626 797.8 227.7L787.8 290.2C787.614 291.866 786.815 293.403 785.558 294.512C784.301 295.621 782.676 296.223 781 296.2V296.2Z" fill="#F8AB5D"/>
<path d="M765.8 388.9L628 382.9C627.189 382.857 626.397 382.644 625.674 382.274C624.951 381.905 624.314 381.387 623.805 380.755C623.295 380.123 622.925 379.391 622.717 378.606C622.509 377.821 622.47 377.001 622.6 376.2L633 317.3C633.298 315.629 634.171 314.115 635.468 313.019C636.764 311.924 638.403 311.315 640.1 311.3L776.3 310.2C777.352 310.197 778.392 310.423 779.348 310.861C780.304 311.3 781.154 311.94 781.838 312.739C782.523 313.537 783.026 314.475 783.313 315.487C783.6 316.499 783.663 317.561 783.5 318.6L773.3 382.9C772.995 384.642 772.065 386.213 770.684 387.317C769.303 388.422 767.566 388.985 765.8 388.9V388.9Z" fill="#F8AB5D"/>
<path d="M623 206L738.6 196.8" stroke="#F8AB5D" stroke-width="1.8" stroke-linecap="round" stroke-linejoin="round"/>
<path d="M681.8 192.1L671.9 193C671 193.1 670.5 192.4 670.6 191.4C670.683 190.926 670.91 190.49 671.25 190.15C671.59 189.81 672.027 189.583 672.5 189.5L682.4 188.6C683.3 188.5 683.9 189.2 683.7 190.2C683.602 190.667 683.37 191.095 683.032 191.432C682.695 191.77 682.267 192.002 681.8 192.1V192.1Z" fill="#22272E"/>
<path d="M688.4 191.5C687.5 191.6 686.9 190.9 687.1 189.9C687.183 189.426 687.41 188.99 687.75 188.65C688.09 188.31 688.527 188.083 689 188C689.9 187.9 690.5 188.6 690.3 189.6C690.25 190.087 690.033 190.541 689.687 190.887C689.341 191.233 688.887 191.45 688.4 191.5V191.5Z" fill="#22272E"/>
<path d="M799.8 198.3L761.7 201.2C761.384 201.239 761.063 201.202 760.764 201.091C760.466 200.981 760.197 200.801 759.982 200.566C759.767 200.332 759.611 200.049 759.527 199.742C759.443 199.434 759.434 199.112 759.5 198.8L763.3 175.7C763.406 175.015 763.74 174.385 764.248 173.913C764.756 173.441 765.409 173.155 766.1 173.1L803.8 169.1C804.173 169.059 804.551 169.105 804.904 169.233C805.257 169.361 805.576 169.568 805.837 169.838C806.097 170.108 806.292 170.435 806.407 170.792C806.522 171.149 806.554 171.528 806.5 171.9L802.8 195.7C802.621 196.386 802.238 197.001 801.703 197.465C801.167 197.929 800.504 198.22 799.8 198.3V198.3Z" stroke="#6DAFA7" stroke-width="1.8" stroke-linecap="round" stroke-linejoin="round"/>
<path d="M764.3 173.7L780.9 184.4C781.345 184.693 781.867 184.849 782.4 184.849C782.933 184.849 783.454 184.693 783.9 184.4L805.5 169.6" stroke="#6DAFA7" stroke-width="1.8" stroke-linecap="round" stroke-linejoin="round"/>
<path d="M627.9 241.5L596.6 243.2L592 246.2C591.762 246.357 591.482 246.439 591.197 246.437C590.912 246.434 590.633 246.347 590.398 246.186C590.162 246.026 589.98 245.799 589.873 245.534C589.767 245.269 589.741 244.979 589.8 244.7L594.7 217.5C594.892 216.442 595.427 215.477 596.222 214.754C597.017 214.031 598.029 213.59 599.1 213.5L631.7 211C632.197 210.956 632.698 211.027 633.163 211.207C633.629 211.387 634.047 211.672 634.385 212.039C634.723 212.406 634.972 212.846 635.114 213.325C635.255 213.803 635.285 214.308 635.2 214.8L631 238.6C630.891 239.364 630.524 240.068 629.96 240.595C629.396 241.123 628.67 241.442 627.9 241.5V241.5Z" fill="#6DAFA7"/>
<path d="M600.8 221.5L627.2 219.6" stroke="#22272E" stroke-width="1.8" stroke-linecap="round" stroke-linejoin="round"/>
<path d="M599.6 228.2L626 226.4" stroke="#22272E" stroke-width="1.8" stroke-linecap="round" stroke-linejoin="round"/>
<path d="M598.4 234.8L612.2 234" stroke="#22272E" stroke-width="1.8" stroke-linecap="round" stroke-linejoin="round"/>
<path d="M773.6 290.1L635.8 292.5C634.96 292.513 634.126 292.34 633.361 291.993C632.595 291.646 631.915 291.134 631.37 290.494C630.825 289.854 630.429 289.101 630.21 288.289C629.99 287.478 629.953 286.628 630.1 285.8L640.2 228.3C640.487 226.713 641.289 225.265 642.483 224.181C643.676 223.096 645.193 222.435 646.8 222.3L782.8 213.2C783.887 213.129 784.976 213.306 785.985 213.715C786.995 214.124 787.899 214.756 788.629 215.564C789.36 216.372 789.899 217.334 790.206 218.379C790.512 219.425 790.579 220.525 790.4 221.6L780.4 284.1C780.199 285.76 779.396 287.288 778.142 288.394C776.888 289.5 775.272 290.107 773.6 290.1Z" fill="#22272E"/>
<path d="M671.5 246.6C670.8 250.7 667.2 254.2 663.5 254.4C659.8 254.6 657.4 251.4 658.1 247.3C658.8 243.2 662.4 239.7 666.1 239.5C669.8 239.3 672.2 242.5 671.5 246.6Z" fill="#F8DA30"/>
<path d="M668.9 272.9L652.5 273.4C651.977 273.421 651.457 273.325 650.976 273.119C650.496 272.913 650.067 272.602 649.722 272.209C649.377 271.816 649.124 271.351 648.982 270.847C648.84 270.344 648.812 269.815 648.9 269.3L649.2 267.5C650.5 260.1 656.9 253.8 663.6 253.6C670.3 253.3 674.8 259.2 673.5 266.7L673.1 269.3C672.904 270.284 672.384 271.173 671.622 271.826C670.861 272.478 669.902 272.857 668.9 272.9V272.9Z" fill="#F8DA30"/>
<path d="M758.8 247.3L693.5 250.3C693.178 250.323 692.856 250.272 692.557 250.15C692.259 250.028 691.992 249.838 691.779 249.596C691.566 249.354 691.412 249.066 691.329 248.754C691.246 248.443 691.236 248.116 691.3 247.8L692 243.4C692.129 242.681 692.494 242.025 693.037 241.536C693.581 241.047 694.271 240.753 695 240.7L760.4 237.3C760.723 237.27 761.049 237.317 761.351 237.437C761.652 237.557 761.921 237.747 762.136 237.99C762.35 238.234 762.504 238.525 762.585 238.84C762.666 239.154 762.671 239.483 762.6 239.8L761.8 244.6C761.703 245.333 761.347 246.008 760.798 246.503C760.248 246.998 759.539 247.28 758.8 247.3V247.3Z" fill="#6DAFA7"/>
<path d="M692.8 262.1L693.8 265.2L696.9 265.7L694.2 268.4L694 271.9L691.4 270.5L688.2 272.1L689.2 268.6L687.4 266.1L690.7 265.3L692.8 262.1Z" fill="#F8DA30"/>
<path d="M707.8 261.6L708.9 264.7L712 265.2L709.3 267.9L709.2 271.4L706.4 270L703.2 271.6L704.2 268.1L702.4 265.5L705.7 264.8L707.8 261.6Z" fill="#F8DA30"/>
<path d="M723.2 261L724.3 264.1L727.5 264.7L724.7 267.4L724.6 271L721.8 269.5L718.5 271.2L719.5 267.6L717.6 265L721.1 264.2L723.2 261Z" fill="#F8DA30"/>
<path d="M738.9 260.4L740 263.6L743.3 264.1L740.5 266.9L740.4 270.5L737.5 269L734.1 270.7L735.2 267L733.2 264.5L736.7 263.7L738.9 260.4Z" fill="#F8DA30"/>
<path d="M755 259.8L756.1 263L759.5 263.6L756.6 266.3L756.5 270L753.5 268.5L750.1 270.2L751.2 266.5L749.2 263.9L752.7 263.1L755 259.8Z" fill="#F8DA30"/>
<path d="M758.3 382.8L620.6 376.7C619.789 376.657 618.997 376.444 618.274 376.074C617.551 375.705 616.914 375.187 616.405 374.555C615.895 373.923 615.525 373.191 615.317 372.406C615.11 371.621 615.07 370.801 615.2 370L625.6 311.1C625.898 309.429 626.771 307.915 628.068 306.819C629.364 305.724 631.003 305.116 632.7 305.1L768.9 304C769.952 303.997 770.992 304.223 771.948 304.661C772.904 305.1 773.754 305.74 774.438 306.539C775.123 307.337 775.626 308.275 775.913 309.287C776.2 310.299 776.263 311.361 776.1 312.4L765.9 376.7C765.595 378.469 764.654 380.065 763.254 381.188C761.855 382.311 760.093 382.885 758.3 382.8Z" fill="#22272E"/>
<path d="M656.8 331.7C656.1 335.9 652.5 339.3 648.7 339.2C644.9 339.1 642.6 335.7 643.3 331.5C644 327.3 647.6 324 651.3 324C655 324 657.6 327.5 656.8 331.7Z" fill="#F8DA30"/>
<path d="M653.9 358.7L637.5 358.2C637 358.176 636.51 358.047 636.062 357.823C635.613 357.599 635.217 357.284 634.897 356.899C634.577 356.513 634.341 356.065 634.204 355.583C634.067 355.101 634.031 354.596 634.1 354.1L634.5 352C635.8 344.4 642.2 338.4 648.9 338.5C655.6 338.6 660.1 344.9 658.7 352.6L658.3 355.1C658.122 356.129 657.58 357.059 656.771 357.721C655.963 358.382 654.944 358.73 653.9 358.7Z" fill="#F8DA30"/>
<path d="M743.9 337.9L678.6 337C678.29 336.995 677.986 336.924 677.706 336.791C677.426 336.658 677.178 336.467 676.979 336.23C676.78 335.992 676.634 335.715 676.552 335.417C676.469 335.119 676.451 334.806 676.5 334.5L677.3 329.9C677.424 329.142 677.815 328.454 678.401 327.959C678.988 327.464 679.732 327.195 680.5 327.2L745.9 327.7C746.21 327.705 746.515 327.776 746.794 327.909C747.074 328.042 747.322 328.233 747.521 328.47C747.72 328.708 747.866 328.985 747.949 329.283C748.031 329.582 748.049 329.894 748 330.2L747.2 335.2C747.035 335.956 746.62 336.635 746.021 337.125C745.421 337.615 744.674 337.888 743.9 337.9Z" fill="#6DAFA7"/>
<path d="M678 349.1L679 352.3L682.1 353L679.4 355.6L679.3 359.2L676.6 357.5L673.4 359L674.4 355.4L672.7 352.8L675.9 352.2L678 349.1Z" fill="#F8DA30"/>
<path d="M693.1 349.4L694.1 352.6L697.3 353.4L694.5 356L694.4 359.6L691.6 358L688.4 359.5L689.4 355.9L687.6 353.1L691 352.6L693.1 349.4Z" fill="#F8DA30"/>
<path d="M708.5 349.8L709.5 353L712.8 353.8L710 356.4L709.8 360.1L707 358.4L703.7 359.9L704.8 356.3L702.9 353.5L706.3 353L708.5 349.8Z" fill="#F8DA30"/>
<path d="M724.2 350.1L725.3 353.4L728.6 354.2L725.7 356.9L725.6 360.6L722.7 358.9L719.3 360.4L720.4 356.7L718.5 353.9L722 353.3L724.2 350.1Z" fill="#63737A"/>
<path d="M740.2 350.5L741.4 353.8L744.7 354.6L741.8 357.3L741.7 361.1L738.8 359.3L735.3 360.9L736.4 357.1L734.4 354.4L738 353.8L740.2 350.5Z" fill="#63737A"/>
<path d="M755.9 152.3C755.368 151.719 754.675 151.308 753.91 151.119C753.145 150.93 752.341 150.972 751.6 151.238C750.858 151.504 750.211 151.984 749.741 152.616C749.271 153.248 748.998 154.006 748.957 154.792C748.915 155.579 749.107 156.361 749.508 157.039C749.91 157.718 750.502 158.262 751.212 158.605C751.922 158.947 752.717 159.073 753.497 158.965C754.278 158.858 755.009 158.522 755.6 158C755.998 157.648 756.322 157.22 756.553 156.742C756.784 156.263 756.918 155.744 756.946 155.213C756.974 154.682 756.896 154.151 756.716 153.651C756.536 153.151 756.259 152.692 755.9 152.3V152.3Z" fill="#22272E"/>
<path d="M750.5 142.9L749.8 142.1C749.238 141.479 748.558 140.976 747.8 140.62C747.042 140.263 746.22 140.061 745.384 140.023C744.547 139.986 743.711 140.115 742.924 140.403C742.137 140.691 741.415 141.132 740.8 141.7V141.7C740.179 142.262 739.676 142.942 739.32 143.7C738.963 144.459 738.761 145.28 738.724 146.117C738.686 146.953 738.815 147.789 739.103 148.576C739.391 149.363 739.832 150.085 740.4 150.7L741.1 151.5C741.915 152.415 742.499 153.512 742.8 154.7C743 155.6 743.3 156.7 743.6 157.7C743.727 158.199 743.981 158.656 744.336 159.029C744.691 159.401 745.137 159.676 745.629 159.826C746.121 159.977 746.644 159.999 747.146 159.889C747.649 159.779 748.115 159.542 748.5 159.2L753 155.1L757.5 151C757.873 150.651 758.15 150.213 758.306 149.727C758.462 149.24 758.492 148.722 758.391 148.222C758.291 147.721 758.065 147.254 757.734 146.865C757.403 146.477 756.978 146.179 756.5 146C755.5 145.6 754.5 145.3 753.6 145C752.457 144.477 751.409 143.768 750.5 142.9V142.9Z" fill="#6DAFA7"/>
<path d="M374.7 282.4L255.1 302.4C254.075 302.565 253.027 302.524 252.018 302.281C251.009 302.037 250.058 301.595 249.22 300.981C248.383 300.367 247.676 299.593 247.14 298.704C246.605 297.814 246.251 296.827 246.1 295.8L230.8 186.4C230.657 185.399 230.746 184.379 231.059 183.418C231.373 182.457 231.902 181.581 232.607 180.856C233.312 180.132 234.174 179.579 235.126 179.24C236.079 178.901 237.096 178.784 238.1 178.9L356.3 192.9C357.956 193.092 359.507 193.806 360.729 194.939C361.952 196.072 362.782 197.564 363.1 199.2L378.3 277.3C378.497 278.453 378.229 279.638 377.554 280.594C376.88 281.55 375.853 282.2 374.7 282.4V282.4Z" fill="#F8AB5D"/>
<path d="M379.7 281L260.1 301C259.075 301.165 258.027 301.124 257.018 300.881C256.009 300.637 255.058 300.195 254.22 299.581C253.383 298.967 252.676 298.193 252.14 297.304C251.605 296.414 251.251 295.427 251.1 294.4L235.7 185C235.557 183.999 235.646 182.979 235.959 182.018C236.273 181.057 236.802 180.181 237.507 179.456C238.212 178.732 239.074 178.179 240.026 177.84C240.978 177.501 241.996 177.384 243 177.5L361.2 191.5C362.855 191.692 364.407 192.406 365.629 193.539C366.852 194.672 367.682 196.164 368 197.8L383.2 275.9C383.318 276.466 383.321 277.05 383.207 277.616C383.094 278.183 382.867 278.721 382.54 279.198C382.212 279.674 381.792 280.08 381.304 280.389C380.816 280.699 380.271 280.907 379.7 281V281Z" fill="#F8DA30"/>
<path d="M303.3 275.5L273.8 278.9C272.753 279.043 271.692 278.765 270.849 278.128C270.006 277.491 269.449 276.546 269.3 275.5L258.5 203.3C258.424 202.827 258.457 202.344 258.598 201.886C258.739 201.428 258.983 201.009 259.312 200.661C259.641 200.313 260.045 200.046 260.494 199.879C260.943 199.712 261.424 199.651 261.9 199.7L291.4 201.9C292.312 201.959 293.177 202.328 293.85 202.947C294.524 203.565 294.965 204.396 295.1 205.3L306.1 271.9C306.181 272.744 305.937 273.587 305.416 274.257C304.895 274.926 304.138 275.371 303.3 275.5V275.5Z" fill="#22272E"/>
<path d="M305.7 274.2L276.2 277.6C275.153 277.743 274.092 277.465 273.249 276.828C272.406 276.191 271.849 275.246 271.7 274.2L260.9 202C260.824 201.527 260.858 201.043 260.998 200.586C261.139 200.128 261.383 199.709 261.712 199.361C262.041 199.013 262.445 198.746 262.894 198.579C263.343 198.412 263.824 198.351 264.3 198.4L293.8 200.6C294.713 200.658 295.577 201.028 296.251 201.646C296.924 202.265 297.365 203.096 297.5 204L308.5 270.6C308.602 271.448 308.365 272.302 307.841 272.976C307.316 273.65 306.547 274.09 305.7 274.2V274.2Z" fill="#6DAFA7"/>
<path d="M276.6 204L281.2 204.3" stroke="#22272E" stroke-width="1.8" stroke-linecap="round" stroke-linejoin="round"/>
<path d="M283.6 204.5H283.9" stroke="#22272E" stroke-width="1.8" stroke-linecap="round" stroke-linejoin="round"/>
<path d="M261.8 207.7L298.4 209.6" stroke="#22272E" stroke-width="1.8" stroke-linecap="round" stroke-linejoin="round"/>
<path d="M270.9 268.6L307.5 265.2" stroke="#22272E" stroke-width="1.8" stroke-linecap="round" stroke-linejoin="round"/>
<path d="M345.4 213C345.9 215.8 344.6 218 342.5 217.9C340.4 217.8 338.1 215.4 337.6 212.6C337.1 209.8 338.4 207.5 340.6 207.7C342.8 207.9 344.8 210.2 345.4 213Z" fill="#22272E"/>
<path d="M349.3 230.9H340.3C339.532 230.905 338.788 230.636 338.201 230.141C337.615 229.646 337.224 228.958 337.1 228.2L336.8 226.6C335.9 221.3 338.4 217.2 342.3 217.3C346.2 217.4 350 221.6 350.9 226.7L351.2 228.5C351.279 228.787 351.289 229.089 351.229 229.381C351.169 229.673 351.042 229.947 350.857 230.181C350.672 230.414 350.435 230.601 350.164 230.726C349.894 230.851 349.598 230.911 349.3 230.9Z" fill="#22272E"/>
<path d="M338.8 246.7C339.3 249.7 337.9 252.2 335.6 252.4C333.3 252.6 330.9 250.2 330.4 247.1C329.9 244 331.3 241.5 333.7 241.4C336.1 241.3 338.2 243.7 338.8 246.7Z" fill="#22272E"/>
<path d="M342.8 265.8L333.3 266.8C332.47 266.889 331.637 266.66 330.969 266.159C330.3 265.658 329.847 264.922 329.7 264.1L329.4 262.5C328.4 256.9 331.1 252.1 335.4 251.8C339.5 251.5 343.6 255.7 344.6 261.1L344.9 262.9C344.976 263.231 344.98 263.573 344.912 263.905C344.844 264.238 344.706 264.552 344.508 264.826C344.309 265.101 344.054 265.33 343.759 265.498C343.465 265.666 343.138 265.769 342.8 265.8V265.8Z" fill="#22272E"/>
<path d="M363.2 245.5C363.7 248.3 362.6 250.6 360.6 250.8C358.6 251 356.5 248.7 356 245.9C355.5 243.1 356.7 240.7 358.7 240.6C360.7 240.5 362.7 242.8 363.2 245.5Z" fill="#22272E"/>
<path d="M366.8 263.3L359.4 264.1C358.581 264.187 357.761 263.954 357.109 263.451C356.457 262.949 356.024 262.214 355.9 261.4L355.7 260.1C354.7 254.9 357 250.5 360.6 250.2C364.2 250 367.8 253.9 368.7 258.9L369 260.4C369.091 261.076 368.911 261.761 368.499 262.304C368.086 262.848 367.476 263.206 366.8 263.3V263.3Z" fill="#22272E"/>
<path d="M311 232.8L320.2 232.7" stroke="#22272E" stroke-width="1.8" stroke-linecap="round" stroke-linejoin="round"/>
<path d="M320 236.9L325.2 233.5C325.343 233.416 325.459 233.293 325.537 233.147C325.615 233 325.65 232.835 325.64 232.669C325.63 232.504 325.574 232.344 325.478 232.209C325.383 232.073 325.252 231.966 325.1 231.9L318.7 228.6C318.548 228.508 318.373 228.464 318.196 228.474C318.019 228.484 317.849 228.547 317.708 228.656C317.568 228.764 317.463 228.912 317.408 229.08C317.353 229.249 317.35 229.43 317.4 229.6L318.6 236.3C318.616 236.455 318.672 236.603 318.764 236.728C318.856 236.853 318.98 236.952 319.123 237.013C319.266 237.074 319.423 237.096 319.577 237.076C319.731 237.056 319.877 236.996 320 236.9Z" fill="#22272E"/>
<path d="M549.6 574.5C549.6 574.5 551 588.2 552.2 595.3C552.5 597.4 560.4 599.8 567.6 598.3C576.5 596.5 577 591.4 577 591.4C577 591.4 575.3 567.4 575.1 565.7C574.9 564 550.9 568.5 549.6 574.5Z" fill="#B28D93"/>
<path d="M574.8 583.4C567.9 586.9 558.9 587 553.6 586.7C552.424 586.638 551.307 586.162 550.448 585.357C549.588 584.552 549.04 583.469 548.9 582.3C548.4 577.9 548 574.5 548 574.5C549.4 567.8 576.3 562.8 576.5 564.7C576.6 565.6 577.1 572.1 577.6 578.6C577.645 579.585 577.405 580.561 576.908 581.413C576.411 582.264 575.679 582.954 574.8 583.4Z" fill="#22272E"/>
<path d="M552 594.5C552 594.5 550.7 596.2 551.3 600.1C551.9 604 551.2 621.5 553.4 623.6C555.6 625.7 580.4 624.2 591.5 621.7C603.4 619 610.9 614.3 611.7 611.8C612.9 608.2 611.9 607.7 599.6 604.1C587.3 600.5 581.1 595.4 578.5 592.5C577.983 591.896 577.35 591.402 576.638 591.049C575.926 590.695 575.15 590.489 574.356 590.442C573.563 590.396 572.768 590.51 572.019 590.777C571.271 591.045 570.584 591.461 570 592C568.5 593.3 566.7 598 563.4 598C555.5 597.9 552.8 594.1 552 594.5Z" fill="#22272E"/>
<path d="M595.1 601.4C595.1 601.4 585.9 602.2 579.2 611.8" stroke="white" stroke-width="1.8" stroke-linecap="round" stroke-linejoin="round"/>
<path d="M587.5 597.9C584.609 598.392 581.853 599.483 579.408 601.102C576.963 602.72 574.882 604.831 573.3 607.3" stroke="white" stroke-width="1.8" stroke-linecap="round" stroke-linejoin="round"/>
<path d="M466 574.8C466 574.8 464.6 594.1 464.4 595C464.2 595.9 465.8 600.6 475.3 601.9C484.8 603.2 488 597.4 488 597.4C488 597.4 491.4 579.7 492 576.5C492.6 573.3 469.1 571.5 466 574.8Z" fill="#B28D93"/>
<path d="M493.8 576.1C493.5 577.4 492.8 581 492.1 585C491.911 586.068 491.379 587.046 490.586 587.786C489.792 588.525 488.779 588.986 487.7 589.1C480.79 589.876 473.795 588.985 467.3 586.5C466.26 586.109 465.376 585.39 464.781 584.452C464.186 583.514 463.912 582.407 464 581.3C464.3 577.3 464.5 574 464.5 574C467.9 570.3 494.5 572.5 493.8 576.1Z" fill="#22272E"/>
<path d="M464.4 594.3C464.4 594.3 462 594.9 461.8 599C461.6 603.1 456.9 621.8 457.1 623.8C457.3 625.8 458.4 628.3 473.5 628.1C488.6 627.9 497 628.7 499.8 626.3C502.6 623.9 498.8 618.4 496 613.4C493.2 608.4 489 600.9 488.3 596.8C487.281 597.512 486.171 598.084 485 598.5C484.1 598.6 483.2 594.3 477.6 594.3C471.1 594.3 468.8 597.9 468.2 597.8C466.542 597.147 465.187 595.899 464.4 594.3V594.3Z" fill="#22272E"/>
<path d="M468.5 606.4C468.5 606.4 479.7 602.2 489.6 606.4" stroke="white" stroke-width="1.8" stroke-linecap="round" stroke-linejoin="round"/>
<path d="M467.7 612.1C467.7 612.1 481 607.9 492 612.1" stroke="white" stroke-width="1.8" stroke-linecap="round" stroke-linejoin="round"/>
<path d="M491.4 395.6C491.4 395.6 512.6 401.4 538 410.4C562 418.9 571.4 423.9 574 440.6C576.6 457.3 573.4 516.8 576.6 532.5C579.8 548.2 583.5 559.3 580.4 567.4C579.875 568.97 579.037 570.418 577.937 571.656C576.837 572.893 575.498 573.895 574 574.6C574 574.6 561.1 580.1 549.6 577.5C547.412 576.819 545.383 575.708 543.631 574.231C541.879 572.754 540.441 570.941 539.4 568.9C535.6 561.8 539.3 538.9 536.4 521.8C533.5 504.7 530.3 476.5 526.8 457.6C523.3 438.7 466.3 431.1 459 416.2C451.7 401.3 455.5 388.2 455.5 388.2C455.5 388.2 485 387.6 491.4 395.6Z" fill="#22272E"/>
<path d="M476.6 414.6C476.568 412.085 476.334 409.577 475.9 407.1" stroke="#63737A" stroke-width="1.8" stroke-linecap="round" stroke-linejoin="round"/>
<path d="M574.9 451.6C573.658 451.92 572.382 452.088 571.1 452.1C562.3 452.1 554.8 444.7 554.4 435.7C554.257 432.802 554.908 429.92 556.283 427.365C557.658 424.81 559.703 422.678 562.2 421.2C569.1 425.8 572.6 431.5 574 440.7C574.4 443.3 574.7 447.1 574.9 451.6Z" stroke="#63737A" stroke-width="1.8" stroke-linecap="round" stroke-linejoin="round"/>
<path d="M392.7 396.9C392.7 396.9 391.9 404.3 392.6 421.2C393.3 437.7 405.9 459.3 432.9 459.6C459.9 459.9 475.8 459.6 475.8 459.6C475.8 459.6 473.7 469.2 472.7 493.7C471.7 518.2 464.3 535 459.5 550.3C455.3 563.7 455.3 573.1 465 577.6C473.857 580.692 483.234 582.017 492.6 581.5C492.6 581.5 500 580.9 502.2 563.2C504.4 545.5 513.8 511.3 521.5 489.3C529.2 467.3 535.3 439.1 523.4 429.5C511.5 419.9 471 414.1 468.9 413.1C466.8 412.1 467.1 398.6 464.6 390.3C462.2 381.8 400.8 380.2 392.7 396.9Z" fill="#22272E"/>
<path d="M521.6 489.2C529.3 467.3 535.4 439 523.5 429.4C511.6 419.8 471.1 414 469 413" stroke="#63737A" stroke-width="1.8" stroke-linecap="round" stroke-linejoin="round"/>
<path d="M469.1 413C469.1 413 458.7 411 454.5 411.7" stroke="#63737A" stroke-width="1.8" stroke-linecap="round" stroke-linejoin="round"/>
<path d="M394.5 432.1C398 430.6 403.2 426.9 406.4 417.8" stroke="#63737A" stroke-width="1.8" stroke-linecap="round" stroke-linejoin="round"/>
<path d="M475.8 459.6C476.961 456.484 478.728 453.629 481 451.2" stroke="#63737A" stroke-width="1.8" stroke-linecap="round" stroke-linejoin="round"/>
<path d="M530.1 452.4C528.851 454.972 526.904 457.143 524.482 458.663C522.06 460.183 519.26 460.993 516.4 461C507.6 461 500.1 453.6 499.7 444.6C499.564 442.495 499.862 440.385 500.575 438.401C501.288 436.416 502.401 434.599 503.844 433.061C505.288 431.524 507.032 430.299 508.968 429.463C510.904 428.627 512.991 428.197 515.1 428.2C517.285 428.208 519.447 428.655 521.457 429.514C523.467 430.372 525.283 431.626 526.8 433.2C529.7 437.9 530.6 444.7 530.1 452.4Z" stroke="#63737A" stroke-width="1.8" stroke-linecap="round" stroke-linejoin="round"/>
<path d="M469.1 587.2C468.881 586.145 468.881 585.055 469.1 584" stroke="#63737A" stroke-width="1.8" stroke-linecap="round" stroke-linejoin="round"/>
<path d="M477.8 589.1C478.315 587.993 478.652 586.812 478.8 585.6" stroke="#63737A" stroke-width="1.8" stroke-linecap="round" stroke-linejoin="round"/>
<path d="M487 589.1C487.617 588.141 488.088 587.097 488.4 586" stroke="#63737A" stroke-width="1.8" stroke-linecap="round" stroke-linejoin="round"/>
<path d="M555 586.7C554.434 585.388 554.031 584.011 553.8 582.6" stroke="#63737A" stroke-width="1.8" stroke-linecap="round" stroke-linejoin="round"/>
<path d="M566.1 586.1C566.269 584.594 566.167 583.07 565.8 581.6" stroke="#63737A" stroke-width="1.8" stroke-linecap="round" stroke-linejoin="round"/>
<path d="M575.9 582.6C576.197 581.178 576.163 579.707 575.8 578.3" stroke="#63737A" stroke-width="1.8" stroke-linecap="round" stroke-linejoin="round"/>
<path d="M470.9 281.1C470.9 281.1 480.8 282.8 496.6 286.5C506.374 288.699 516.253 290.402 526.2 291.6C526.2 291.6 542.5 284.3 561.8 276C572.876 271.134 584.191 266.829 595.7 263.1C595.7 263.1 600.7 263.5 603.6 270.8C604.716 273.591 605.162 276.605 604.9 279.6C604.835 280.368 604.594 281.11 604.195 281.769C603.796 282.429 603.25 282.987 602.6 283.4C598.2 286.3 586.1 294.4 567.1 307.5C542.9 324.2 532.8 325.4 520.8 324.9C507.5 324.3 474.5 318.9 474.5 318.9C474.5 318.9 465.6 317.2 462.5 301.3C459.6 285.4 467.8 280.5 470.9 281.1Z" fill="#F8DA30"/>
<path d="M526 324.9C526 324.9 522.1 323.8 524.7 319.4C527.3 315 537.5 311.5 543.8 314.1C549.1 316.3 545.9 320 545.9 320" stroke="#F8AB5D" stroke-width="1.8" stroke-linecap="round" stroke-linejoin="round"/>
<path d="M589.5 265.2C588.992 268.997 589.618 272.858 591.3 276.3C594.6 282.8 598.6 284.9 599.8 285.3" stroke="#F8AB5D" stroke-width="1.8" stroke-linecap="round" stroke-linejoin="round"/>
<path d="M595.7 263.1C595.7 263.1 594.9 269.2 597.4 274.3C598.327 276.371 599.652 278.24 601.3 279.8C601.79 280.25 602.396 280.554 603.05 280.678C603.704 280.801 604.379 280.74 605 280.5C606.172 279.951 607.419 279.581 608.7 279.4C610.9 279.2 616.9 280.5 620.4 278C623.9 275.5 624.7 275.2 625.2 275.1C625.7 275 631 275 631.9 274.6C633.7 273.8 634.1 270.8 633.2 269.6C632.4 268.6 627.2 268.5 626.2 267C625.2 265.5 626.1 263.9 631.7 262.5C637.3 261.1 647.2 258 646.9 255.6C646.6 253.2 641.3 255 634.5 255.7C627.7 256.4 624.5 256.6 621.7 255.5C618.9 254.4 615.1 254.5 610.8 256.6C608 258 605 259.2 599.7 261.5C598.417 262.152 597.079 262.688 595.7 263.1Z" fill="#B28D93"/>
<path d="M632.6 262.3C633.167 263.911 633.504 265.595 633.6 267.3C633.7 269.5 630.5 275.5 628.2 276.6C625.9 277.7 624.4 276.5 623.4 274.9C622.4 273.3 619.8 263.8 624.8 262.7C629.8 261.6 631.6 261.4 632.6 262.3Z" fill="#B28D93"/>
<path d="M633.1 269.6C632.3 268.6 627.1 268.5 626.1 267C625.1 265.5 626 263.9 631.6 262.5C637.2 261.1 647.1 258 646.8 255.6" stroke="#896068" stroke-width="1.8" stroke-linecap="round" stroke-linejoin="round"/>
<path d="M624 256.2C622.119 256.1 620.233 256.269 618.4 256.7" stroke="#896068" stroke-width="1.8" stroke-linecap="round" stroke-linejoin="round"/>
<path d="M620.3 278C623.8 275.4 624.6 275.2 625.1 275.1C625.6 275 630.9 275 631.8 274.6" stroke="#896068" stroke-width="1.8" stroke-linecap="round" stroke-linejoin="round"/>
<path d="M434.1 270.5C434.1 270.5 435.2 266.4 442.7 266.8C450.2 267.2 461.1 271.1 461.8 276.7C462.5 282.3 437.6 285.4 434.1 270.5Z" fill="#22272E"/>
<path d="M487.6 315.8C486.6 284.2 471 281.1 471 281.1C458.19 279.211 445.247 278.375 432.3 278.6C411.1 279 394.5 282.6 385.9 294.8C378.3 305.6 361.7 353.5 366 366.8C369.6 378 380.2 380.7 399.2 377.4C398 384.4 396.6 389.9 396.6 389.9C404.6 395.7 422.3 401.4 448.8 401.4C472.4 401.4 484.3 393.7 484.3 393.7C483.4 386.6 488.5 347.4 487.6 315.8Z" fill="#F8DA30"/>
<path d="M462 288.5C463.1 295.2 463.6 309.8 465.4 323.6C467.2 337.4 467.5 357.7 467.6 377.1C467.649 388.719 468.821 400.306 471.1 411.7C484.6 407.2 494.2 396.6 494.2 396.6C494.2 396.6 495.5 395 492 382.1C488.5 369.2 487.6 323.6 487.6 323.6C488.133 316.013 487.73 308.389 486.4 300.9C484.2 290 476.8 282.3 471.1 280.5C468.001 279.501 464.756 279.028 461.5 279.1C461.5 279.1 461.7 284.2 462 288.5" fill="#6DAFA7"/>
<path d="M435.7 259.1C435.7 259.1 435.1 270.5 435.1 276.1C435.1 285.9 448.5 296 453.5 296C461.6 296 463 286.5 462.6 282.3C462.2 278.1 462.1 265.9 462.2 265.6C462.3 265.3 440.7 253.7 435.7 259.1Z" fill="#B28D93"/>
<path d="M440.5 265.1C442 277.5 451.9 284 462.6 283.6C462.621 283.197 462.587 282.794 462.5 282.4C462.3 280.7 462.2 277.7 462.2 274.8C454.5 278.8 445 272.3 440.5 265.1Z" fill="#896068"/>
<path d="M447.6 293.8C446.9 305.7 451.3 335.3 451.3 368.9C451.3 402.5 446.4 416.3 446.4 416.3C405.1 421.2 384.1 403.8 384.1 403.8C384.1 403.8 385.7 400.3 389.2 390.6C392.7 380.9 392.7 369 392.7 369C392.7 369 397.5 325.1 395.8 315.3C394.1 305.5 387.8 292.5 387.8 292.5C387.8 292.5 392.8 285.2 406.2 281.5C416.6 278.6 427.9 278.3 432.4 278.3L432.3 278.8C436.9 289.1 447.6 293.8 447.6 293.8Z" fill="#6DAFA7"/>
<path d="M411.9 383.6C418.628 385.507 425.612 386.35 432.6 386.1C433.9 386 434.9 386.8 434.8 387.8V387.9C434.68 388.344 434.421 388.739 434.061 389.027C433.702 389.314 433.26 389.48 432.8 389.5C428.3 389.8 416.7 389.1 410.7 386.7C410.265 386.568 409.893 386.282 409.654 385.895C409.415 385.509 409.324 385.048 409.4 384.6V384.6C409.6 383.7 410.8 383.3 411.9 383.6Z" fill="#EAF9F3"/>
<path d="M477.4 383.3C479.4 382.8 483.9 381.8 488.8 380.1C489.5 379.9 490.3 380.5 490.5 381.5V381.6C490.616 381.909 490.62 382.248 490.51 382.559C490.4 382.87 490.184 383.133 489.9 383.3C487.6 384.2 481.8 386.3 478.1 386.5C477.749 386.458 477.418 386.312 477.151 386.08C476.883 385.848 476.691 385.542 476.6 385.2V385.2C476.4 384.3 476.7 383.5 477.4 383.3Z" fill="#EAF9F3"/>
<path d="M478.4 333.8H477.9C470.3 337.9 465.9 337.7 465.4 333.9C466.2 333.4 466.9 332.9 467.6 332.4C469.267 331.325 471.14 330.61 473.1 330.3C474.557 330.056 476.025 329.889 477.5 329.8C477.5 329.8 479.7 329.3 480.1 330.1C480.5 330.7 480.4 332.2 478.4 333.8Z" fill="#B28D93"/>
<path d="M528.8 368.9L472 368.8C471.579 368.802 471.163 368.716 470.778 368.547C470.393 368.377 470.048 368.129 469.765 367.818C469.482 367.507 469.268 367.14 469.136 366.74C469.004 366.341 468.958 365.918 469 365.5L473.3 321.5C473.391 320.55 473.85 319.673 474.579 319.057C475.307 318.441 476.248 318.133 477.2 318.2L534.2 322C534.833 322.061 535.418 322.367 535.829 322.853C536.24 323.338 536.445 323.965 536.4 324.6L531.8 366.2C531.725 366.943 531.377 367.631 530.822 368.13C530.267 368.629 529.546 368.904 528.8 368.9V368.9Z" fill="#22272E"/>
<path d="M509.4 326.9C509.43 326.753 509.427 326.601 509.39 326.456C509.354 326.31 509.285 326.175 509.189 326.06C509.093 325.944 508.972 325.852 508.835 325.79C508.699 325.728 508.55 325.697 508.4 325.7C508.067 325.716 507.748 325.842 507.494 326.06C507.24 326.277 507.067 326.573 507 326.9C506.97 327.047 506.974 327.199 507.01 327.344C507.047 327.49 507.116 327.625 507.212 327.74C507.308 327.856 507.429 327.948 507.565 328.01C507.701 328.072 507.85 328.103 508 328.1C508.329 328.069 508.64 327.937 508.89 327.722C509.141 327.507 509.319 327.22 509.4 326.9V326.9Z" fill="#63737A"/>
<path d="M458.1 358C457.996 358.433 457.786 358.833 457.489 359.164C457.193 359.496 456.818 359.749 456.4 359.9C441.678 366.185 426.459 371.236 410.9 375C406.7 376 402.7 376.9 399.1 377.5C380 380.7 369.5 378.1 365.9 366.9C361.6 353.6 378.2 305.8 385.8 294.9C386.411 294.024 387.079 293.188 387.8 292.4V292.4C398.3 284.2 409.2 292.2 411.6 305.6C412.8 312.7 409.8 320.5 407.3 329.4C405.5 335.8 400.9 346.1 400.9 346.1L453.3 340.7C453.768 340.627 454.247 340.681 454.687 340.857C455.127 341.033 455.511 341.324 455.8 341.7C460.6 347 459 354.9 458.1 358Z" fill="#F8DA30"/>
<path d="M400.9 346C400.9 346 390.7 347.2 386.8 349.8" stroke="#F8AB5D" stroke-width="1.8" stroke-linecap="round" stroke-linejoin="round"/>
<path d="M446.2 341.3C446.2 341.3 443.4 344.5 444.5 351.2C445.7 358.5 448.9 360.5 451.1 362" stroke="#F8AB5D" stroke-width="1.8" stroke-linecap="round" stroke-linejoin="round"/>
<path d="M365.9 367.8C365.9 367.8 364.8 361.8 373.5 361.7C382.2 361.6 392 373.6 385.9 378.8" stroke="#F8AB5D" stroke-width="1.8" stroke-linecap="round" stroke-linejoin="round"/>
<path d="M498 348.8C497.4 350.7 492.8 348.9 489.3 347.9C484.8 346.6 481.8 345.6 481.5 345.5C484.411 347.068 487.187 348.874 489.8 350.9C493.4 353.6 496.1 356.5 494.9 357.9C493.7 359.3 486.5 355.1 486.5 355.1C486.5 355.1 489.1 356.9 489.7 359C490.3 361.1 486.8 360.4 480.2 356.4C480.2 356.4 477.7 356.5 473 358.6C468.3 360.7 461.3 359.7 459.1 359C458.223 358.741 457.314 358.607 456.4 358.6C455.896 358.595 455.401 358.475 454.95 358.25C454.5 358.025 454.106 357.7 453.8 357.3C451.936 355.045 450.757 352.304 450.4 349.4C450 345.7 450.9 343.6 451.6 342.6C451.922 342.079 452.418 341.69 453 341.5C454.204 341.092 455.374 340.59 456.5 340C457.4 339.5 460.7 337.1 464 334.9C464.483 334.591 464.95 334.257 465.4 333.9C469.565 334.114 473.739 334.08 477.9 333.8H478.4C482.7 333.5 494.2 334.5 495.4 335.8C496.6 337.1 494.9 338.8 489.5 338.7C486.589 338.693 483.682 338.894 480.8 339.3C483.781 340.047 486.692 341.051 489.5 342.3C493.7 344.2 498.7 346.9 498 348.8Z" fill="#B28D93"/>
<path d="M481.6 345.5C481.6 345.5 480 344.9 478.8 344.6C478.08 344.419 477.342 344.319 476.6 344.3" stroke="#896068" stroke-width="1.8" stroke-linecap="round" stroke-linejoin="round"/>
<path d="M486.5 355.1C486.5 355.1 483.2 351.7 479.4 350.9C477.7 350.6 476.6 350.5 476.6 350.5" stroke="#896068" stroke-width="1.8" stroke-linecap="round" stroke-linejoin="round"/>
<path d="M480.9 339.3C479.455 339.243 478.01 339.378 476.6 339.7" stroke="#896068" stroke-width="1.8" stroke-linecap="round" stroke-linejoin="round"/>
<path d="M472.2 334C471.395 334.011 470.591 333.944 469.8 333.8" stroke="#896068" stroke-width="1.8" stroke-linecap="round" stroke-linejoin="round"/>
<path d="M461.7 283.5C461.6 282.169 461.6 280.831 461.7 279.5C461.828 278.573 461.862 277.634 461.8 276.7V274.4C461.8 274.4 462.4 275.7 463.6 277.8C464.8 279.9 463 289.1 462.1 290.2L461.7 283.5Z" fill="#22272E"/>
<path d="M472.6 239C472.215 245.094 472.215 251.206 472.6 257.3C472.863 261.875 471.602 266.407 469.015 270.189C466.427 273.97 462.659 276.788 458.3 278.2C451.6 280.3 439 275.1 436 260.2C433 245.3 426.5 228.5 443.9 222.4C461.3 216.3 472.8 224.8 472.6 239Z" fill="#B28D93"/>
<path d="M435 249.5C435 249.5 437.1 248.2 437.8 243.8C437.841 243.309 437.998 242.836 438.259 242.418C438.52 242.001 438.877 241.652 439.3 241.4C440.301 240.964 441.18 240.29 441.86 239.435C442.539 238.581 443 237.573 443.2 236.5C443.4 234.6 444.2 233.2 446.2 234.3C461.9 243.4 472.3 235.1 472.3 235.1L472.4 240.8C478.5 239.1 482.2 231.1 481 225.2C479.5 217.8 476.7 219.2 473.2 213.6C469.7 208 463.3 204.1 455.1 207C446.9 209.9 443.9 211.2 437.5 211.1C431.1 211 425 213.7 424.5 219.7C424 225.7 418.5 227.5 417.5 233.1C416.5 238.7 418.7 241.5 420.8 243.7C422.9 245.9 418.9 252.1 424.2 257.3C429.5 262.5 433 264.1 435.2 267.5C435.5 267.5 436.3 258.3 435 249.5Z" fill="#22272E"/>
<path d="M436.8 251.2C436.8 251.2 433 244.8 427.9 247.7C422.8 250.6 428.2 260.6 436.1 260.1" fill="#B28D93"/>
<path d="M464.1 246.3C464.457 247.303 464.962 248.247 465.6 249.1C465.874 249.455 466.175 249.79 466.5 250.1C467.029 250.467 467.473 250.945 467.8 251.5C468.11 252.082 468.281 252.729 468.298 253.388C468.316 254.048 468.179 254.702 467.9 255.3C467.685 255.87 467.343 256.383 466.9 256.8C466.504 257.247 465.981 257.562 465.4 257.7C466.02 256.887 466.401 255.918 466.5 254.9C466.617 254.055 466.514 253.193 466.2 252.4C466 252 465.8 251.9 465.3 251.4C464.875 250.93 464.536 250.388 464.3 249.8C463.886 248.679 463.817 247.461 464.1 246.3V246.3Z" fill="#22272E"/>
<path d="M458.7 266C457.378 266.111 456.051 265.851 454.867 265.251C453.684 264.65 452.691 263.733 452 262.6" stroke="#22272E" stroke-width="1.8" stroke-linecap="round" stroke-linejoin="round"/>
<path d="M453 250.5C452.815 250.504 452.631 250.471 452.459 250.402C452.288 250.333 452.132 250.23 452.001 250.099C451.87 249.968 451.767 249.812 451.698 249.641C451.629 249.469 451.596 249.285 451.6 249.1V247.7C451.596 247.515 451.629 247.331 451.698 247.159C451.767 246.988 451.87 246.832 452.001 246.701C452.132 246.57 452.288 246.467 452.459 246.398C452.631 246.329 452.815 246.296 453 246.3V246.3C453.185 246.296 453.369 246.329 453.54 246.398C453.712 246.467 453.868 246.57 453.999 246.701C454.13 246.832 454.233 246.988 454.302 247.159C454.371 247.331 454.404 247.515 454.4 247.7V249.1C454.392 249.469 454.242 249.821 453.981 250.081C453.721 250.342 453.369 250.492 453 250.5V250.5Z" fill="#22272E"/>
<path d="M468.5 250.5C468.315 250.504 468.131 250.471 467.959 250.402C467.788 250.333 467.632 250.23 467.501 250.099C467.37 249.968 467.267 249.812 467.198 249.641C467.129 249.469 467.096 249.285 467.1 249.1V247.7C467.096 247.515 467.129 247.331 467.198 247.159C467.267 246.988 467.37 246.832 467.501 246.701C467.632 246.57 467.788 246.467 467.959 246.398C468.131 246.329 468.315 246.296 468.5 246.3V246.3C468.685 246.296 468.869 246.329 469.04 246.398C469.212 246.467 469.368 246.57 469.499 246.701C469.63 246.832 469.733 246.988 469.802 247.159C469.871 247.331 469.904 247.515 469.9 247.7V249.1C469.892 249.469 469.742 249.821 469.481 250.081C469.221 250.342 468.869 250.492 468.5 250.5V250.5Z" fill="#22272E"/>
<path d="M455 243.2C454 243.6 453.3 242.4 451.8 242.8C449.5 243.5 448.4 244.3 448 243.3C447.7 242.6 449.1 240.8 451.3 240.2C454.5 239.5 456.8 242.5 455 243.2Z" fill="#22272E"/>
<path d="M466.6 243.2C467.4 243.5 468 242.4 469.1 242.7C470.6 243.2 471.4 243.8 471.6 243C471.8 242.4 471 240.8 469.5 240.3C467.1 239.5 465 242.6 466.6 243.2Z" fill="#22272E"/>
<path d="M428.7 251.9C428.757 251.687 428.857 251.488 428.995 251.316C429.133 251.144 429.305 251.002 429.5 250.9C429.708 250.732 429.949 250.61 430.208 250.541C430.466 250.472 430.736 250.458 431 250.5C431.563 250.615 432.062 250.936 432.4 251.4C432.67 251.777 432.905 252.179 433.1 252.6C433.368 253.313 433.569 254.05 433.7 254.8C433.8 255.1 433.8 255.3 434 255.5C434.288 255.745 434.631 255.917 435 256C434.616 256.251 434.155 256.357 433.7 256.3C433.177 256.157 432.718 255.839 432.4 255.4C431.984 254.743 431.648 254.038 431.4 253.3C431.286 252.992 431.152 252.691 431 252.4C430.925 252.194 430.785 252.018 430.6 251.9C430.3 251.5 429.5 251.6 428.7 251.9Z" fill="#22272E"/>
<path d="M437.7 313.6C438.1 317.4 435.6 321.5 432 321.8C430.248 321.865 428.537 321.262 427.214 320.111C425.892 318.961 425.056 317.35 424.878 315.606C424.7 313.862 425.192 312.116 426.255 310.722C427.318 309.328 428.871 308.39 430.6 308.1C434.3 307.7 437.4 309.8 437.7 313.6Z" fill="#F8DA30"/>
<path d="M447.6 293.8C447.6 293.8 436.9 289.1 432.2 278.7L434.1 270.5C436.302 274.707 439.716 278.156 443.9 280.4C445.032 280.981 445.989 281.852 446.674 282.923C447.359 283.995 447.748 285.229 447.8 286.5C447.878 288.935 447.811 291.373 447.6 293.8V293.8Z" fill="#22272E"/>
<path d="M316.5 352.3C316.503 353.023 316.362 353.739 316.087 354.408C315.811 355.076 315.406 355.684 314.895 356.195C314.384 356.706 313.776 357.111 313.108 357.387C312.439 357.662 311.723 357.803 311 357.8C309.545 357.787 308.154 357.203 307.125 356.175C306.097 355.146 305.513 353.755 305.5 352.3C305.5 350.841 306.079 349.442 307.111 348.411C308.142 347.379 309.541 346.8 311 346.8C312.459 346.8 313.858 347.379 314.889 348.411C315.921 349.442 316.5 350.841 316.5 352.3V352.3Z" fill="#22272E"/>
<path d="M316.5 371.6H305.5C304.908 371.603 304.322 371.488 303.775 371.263C303.228 371.038 302.731 370.706 302.312 370.288C301.894 369.869 301.562 369.372 301.337 368.825C301.112 368.278 300.997 367.692 301 367.1V367.1C301 364.448 302.054 361.904 303.929 360.029C305.804 358.154 308.348 357.1 311 357.1V357.1C313.652 357.1 316.196 358.154 318.071 360.029C319.946 361.904 321 364.448 321 367.1C321.003 367.692 320.888 368.278 320.663 368.825C320.438 369.372 320.106 369.869 319.688 370.288C319.27 370.706 318.772 371.038 318.225 371.263C317.678 371.488 317.092 371.603 316.5 371.6V371.6Z" fill="#22272E"/>
<path d="M283 359.2C282.993 365.094 284.846 370.84 288.295 375.619C291.744 380.399 296.613 383.968 302.209 385.818C307.805 387.669 313.842 387.706 319.46 385.925C325.079 384.145 329.992 380.636 333.5 375.9" stroke="#6DAFA7" stroke-width="1.8" stroke-linecap="round" stroke-linejoin="round"/>
<path d="M336.5 379.2L336.7 370.2L328.8 374.5L336.5 379.2Z" fill="#6DAFA7"/>
<path d="M338.9 359.2C338.895 353.223 336.977 347.404 333.427 342.595C329.877 337.786 324.882 334.239 319.171 332.473C313.461 330.708 307.335 330.816 301.69 332.782C296.045 334.748 291.178 338.469 287.8 343.4" stroke="#6DAFA7" stroke-width="1.8" stroke-linecap="round" stroke-linejoin="round"/>
<path d="M284.7 340.2L284.9 349.1L292.6 344.5L284.7 340.2Z" fill="#6DAFA7"/>
</g>
<defs>
<clipPath id="clip0_2_616">
<rect width="1024" height="768" fill="white"/>
</clipPath>
</defs>
</svg>
