<svg width="1024" height="768" viewBox="0 0 1024 768" fill="none" xmlns="http://www.w3.org/2000/svg">
<g clip-path="url(#clip0_2_791)">
<path d="M766.3 575.1L246.3 560.2C234.608 559.875 223.436 555.299 214.876 547.328C206.316 539.357 200.956 528.539 199.8 516.9L174.7 268.9C174.032 262.262 174.75 255.557 176.808 249.21C178.866 242.864 182.22 237.014 186.658 232.032C191.095 227.049 196.518 223.042 202.585 220.266C208.652 217.489 215.229 216.002 221.9 215.9L800.7 207.9C807.583 207.807 814.406 209.189 820.71 211.953C827.014 214.717 832.654 218.799 837.249 223.924C841.843 229.05 845.287 235.1 847.349 241.668C849.41 248.235 850.042 255.168 849.2 262L815.5 532.9C813.998 544.785 808.13 555.687 799.037 563.487C789.944 571.286 778.275 575.425 766.3 575.1V575.1Z" fill="#EAF9F3"/>
<path d="M341.9 620.1H-73.6C-77.5782 620.1 -81.3935 618.52 -84.2066 615.707C-87.0196 612.894 -88.6 609.078 -88.6 605.1V369.4C-88.6 365.422 -87.0196 361.606 -84.2066 358.793C-81.3935 355.98 -77.5782 354.4 -73.6 354.4H341.9C345.878 354.4 349.694 355.98 352.507 358.793C355.32 361.606 356.9 365.422 356.9 369.4V605C356.913 606.978 356.535 608.94 355.787 610.771C355.039 612.602 353.936 614.268 352.542 615.671C351.148 617.075 349.49 618.189 347.663 618.949C345.837 619.709 343.878 620.1 341.9 620.1V620.1Z" stroke="#B8D8C7" stroke-width="1.8" stroke-linecap="round" stroke-linejoin="round"/>
<path d="M891 604.3H471.9C467.922 604.3 464.106 602.72 461.293 599.907C458.48 597.094 456.9 593.278 456.9 589.3V245C456.9 241.022 458.48 237.206 461.293 234.393C464.106 231.58 467.922 230 471.9 230H891C894.978 230 898.794 231.58 901.607 234.393C904.42 237.206 906 241.022 906 245V589.3C906 593.278 904.42 597.094 901.607 599.907C898.794 602.72 894.978 604.3 891 604.3Z" stroke="#B8D8C7" stroke-width="1.8" stroke-linecap="round" stroke-linejoin="round"/>
<path d="M227.1 354.4H206.8C205.742 354.403 204.72 354.018 203.928 353.317C203.135 352.617 202.627 351.65 202.5 350.6L200.9 336.2C200.834 335.596 200.896 334.984 201.082 334.406C201.268 333.827 201.574 333.294 201.979 332.841C202.385 332.388 202.881 332.026 203.436 331.777C203.991 331.529 204.592 331.401 205.2 331.4H228.7C229.307 331.402 229.908 331.532 230.462 331.781C231.016 332.029 231.512 332.392 231.917 332.844C232.322 333.297 232.628 333.829 232.815 334.407C233.001 334.985 233.064 335.596 233 336.2L231.4 350.6C231.273 351.65 230.765 352.617 229.972 353.317C229.18 354.018 228.158 354.403 227.1 354.4V354.4Z" stroke="#B8D8C7" stroke-width="1.8" stroke-linecap="round" stroke-linejoin="round"/>
<path d="M214.5 331.5C214.5 331.5 206.5 330.7 204.9 319.9C204.9 319.9 212.1 322 214.4 327.1C214.4 327.1 215.4 315.7 220.8 314.6C220.8 314.6 223.2 323.1 219.4 327.3C219.4 327.3 222.3 322.5 229.7 322.6C229.001 324.706 227.797 326.609 226.193 328.143C224.59 329.677 222.635 330.795 220.5 331.4" fill="#B8D8C7"/>
<path d="M338.7 404.2H248.5C247.389 404.192 246.325 403.747 245.539 402.961C244.753 402.175 244.308 401.112 244.3 400V372.6C244.308 371.489 244.753 370.425 245.539 369.639C246.325 368.853 247.389 368.408 248.5 368.4H338.7C339.812 368.408 340.875 368.853 341.661 369.639C342.447 370.425 342.892 371.489 342.9 372.6V400C342.914 400.555 342.815 401.108 342.608 401.623C342.402 402.139 342.093 402.608 341.7 403C341.308 403.393 340.839 403.702 340.323 403.908C339.808 404.114 339.255 404.214 338.7 404.2V404.2Z" stroke="#B8D8C7" stroke-width="1.8" stroke-linecap="round" stroke-linejoin="round"/>
<path d="M304 378H283.2C282.805 377.99 282.43 377.829 282.151 377.549C281.871 377.27 281.71 376.895 281.7 376.5V376.5C281.71 376.105 281.871 375.73 282.151 375.451C282.43 375.171 282.805 375.01 283.2 375H304C304.395 375.01 304.77 375.171 305.049 375.451C305.329 375.73 305.49 376.105 305.5 376.5V376.5C305.49 376.895 305.329 377.27 305.049 377.549C304.77 377.829 304.395 377.99 304 378Z" fill="#B8D8C7"/>
<path d="M338.7 450H248.5C247.389 449.992 246.325 449.547 245.539 448.761C244.753 447.975 244.308 446.911 244.3 445.8V418.4C244.308 417.289 244.753 416.225 245.539 415.439C246.325 414.653 247.389 414.208 248.5 414.2H338.7C339.812 414.208 340.875 414.653 341.661 415.439C342.447 416.225 342.892 417.289 342.9 418.4V445.8C342.914 446.355 342.815 446.908 342.608 447.423C342.402 447.939 342.093 448.408 341.7 448.8C341.308 449.193 340.839 449.502 340.323 449.708C339.808 449.914 339.255 450.014 338.7 450Z" stroke="#B8D8C7" stroke-width="1.8" stroke-linecap="round" stroke-linejoin="round"/>
<path d="M304 423.8H283.2C282.805 423.79 282.43 423.629 282.151 423.349C281.871 423.07 281.71 422.695 281.7 422.3V422.3C281.71 421.905 281.871 421.53 282.151 421.251C282.43 420.971 282.805 420.81 283.2 420.8H304C304.395 420.81 304.77 420.971 305.049 421.251C305.329 421.53 305.49 421.905 305.5 422.3V422.3C305.504 422.498 305.468 422.695 305.394 422.879C305.32 423.063 305.21 423.23 305.07 423.37C304.93 423.51 304.763 423.62 304.579 423.694C304.395 423.768 304.198 423.804 304 423.8Z" fill="#B8D8C7"/>
<path d="M801.9 482.3H711.7C710.589 482.292 709.525 481.847 708.739 481.061C707.953 480.275 707.508 479.211 707.5 478.1V450.7C707.508 449.589 707.953 448.525 708.739 447.739C709.525 446.953 710.589 446.508 711.7 446.5H801.9C803.012 446.508 804.075 446.953 804.861 447.739C805.647 448.525 806.092 449.589 806.1 450.7V478.1C806.114 478.655 806.014 479.208 805.808 479.723C805.602 480.239 805.293 480.708 804.9 481.1C804.508 481.493 804.039 481.802 803.523 482.008C803.008 482.214 802.455 482.314 801.9 482.3Z" stroke="#B8D8C7" stroke-width="1.8" stroke-linecap="round" stroke-linejoin="round"/>
<path d="M767.2 456.2H746.4C746.005 456.19 745.63 456.029 745.351 455.749C745.071 455.47 744.91 455.095 744.9 454.7V454.7C744.91 454.305 745.071 453.93 745.351 453.651C745.63 453.371 746.005 453.21 746.4 453.2H767.2C767.595 453.21 767.97 453.371 768.249 453.651C768.529 453.93 768.69 454.305 768.7 454.7V454.7C768.69 455.095 768.529 455.47 768.249 455.749C767.97 456.029 767.595 456.19 767.2 456.2Z" fill="#B8D8C7"/>
<path d="M686.1 482.3H595.9C594.788 482.292 593.725 481.847 592.939 481.061C592.153 480.275 591.708 479.211 591.7 478.1V450.7C591.708 449.589 592.153 448.525 592.939 447.739C593.725 446.953 594.788 446.508 595.9 446.5H686.1C687.211 446.508 688.275 446.953 689.061 447.739C689.847 448.525 690.292 449.589 690.3 450.7V478.1C690.292 479.211 689.847 480.275 689.061 481.061C688.275 481.847 687.211 482.292 686.1 482.3V482.3Z" stroke="#B8D8C7" stroke-width="1.8" stroke-linecap="round" stroke-linejoin="round"/>
<path d="M651.4 456.2H630.6C630.205 456.19 629.83 456.029 629.551 455.749C629.271 455.47 629.11 455.095 629.1 454.7V454.7C629.11 454.305 629.271 453.93 629.551 453.651C629.83 453.371 630.205 453.21 630.6 453.2H651.4C651.795 453.21 652.17 453.371 652.449 453.651C652.729 453.93 652.89 454.305 652.9 454.7V454.7C652.89 455.095 652.729 455.47 652.449 455.749C652.17 456.029 651.795 456.19 651.4 456.2V456.2Z" fill="#B8D8C7"/>
<path d="M223.7 404.2H133.5C132.389 404.192 131.325 403.747 130.539 402.961C129.753 402.175 129.308 401.112 129.3 400V372.6C129.308 371.489 129.753 370.425 130.539 369.639C131.325 368.853 132.389 368.408 133.5 368.4H223.7C224.812 368.408 225.875 368.853 226.661 369.639C227.447 370.425 227.892 371.489 227.9 372.6V400C227.914 400.555 227.815 401.108 227.608 401.623C227.402 402.139 227.093 402.608 226.7 403C226.308 403.393 225.839 403.702 225.323 403.908C224.808 404.114 224.255 404.214 223.7 404.2V404.2Z" stroke="#B8D8C7" stroke-width="1.8" stroke-linecap="round" stroke-linejoin="round"/>
<path d="M189 378H168.2C167.805 377.99 167.43 377.829 167.151 377.549C166.871 377.27 166.71 376.895 166.7 376.5V376.5C166.71 376.105 166.871 375.73 167.151 375.451C167.43 375.171 167.805 375.01 168.2 375H189C189.395 375.01 189.77 375.171 190.049 375.451C190.329 375.73 190.49 376.105 190.5 376.5C190.504 376.698 190.468 376.895 190.394 377.079C190.32 377.263 190.21 377.43 190.07 377.57C189.93 377.71 189.763 377.82 189.579 377.894C189.395 377.968 189.198 378.004 189 378Z" fill="#B8D8C7"/>
<path d="M223.7 450H133.5C132.389 449.992 131.325 449.547 130.539 448.761C129.753 447.975 129.308 446.911 129.3 445.8V418.4C129.308 417.289 129.753 416.225 130.539 415.439C131.325 414.653 132.389 414.208 133.5 414.2H223.7C224.812 414.208 225.875 414.653 226.661 415.439C227.447 416.225 227.892 417.289 227.9 418.4V445.8C227.914 446.355 227.815 446.908 227.608 447.423C227.402 447.939 227.093 448.408 226.7 448.8C226.308 449.193 225.839 449.502 225.323 449.708C224.808 449.914 224.255 450.014 223.7 450Z" stroke="#B8D8C7" stroke-width="1.8" stroke-linecap="round" stroke-linejoin="round"/>
<path d="M189 423.8H168.2C167.805 423.79 167.43 423.629 167.151 423.349C166.871 423.07 166.71 422.695 166.7 422.3V422.3C166.71 421.905 166.871 421.53 167.151 421.251C167.43 420.971 167.805 420.81 168.2 420.8H189C189.395 420.81 189.77 420.971 190.049 421.251C190.329 421.53 190.49 421.905 190.5 422.3V422.3C190.512 422.5 190.481 422.7 190.41 422.888C190.338 423.075 190.228 423.245 190.087 423.386C189.945 423.528 189.775 423.638 189.588 423.71C189.4 423.781 189.2 423.812 189 423.8V423.8Z" fill="#B8D8C7"/>
<path d="M933.2 334.8H478.2C476.984 334.787 475.822 334.298 474.962 333.438C474.102 332.578 473.613 331.416 473.6 330.2V250.5C473.613 249.284 474.102 248.122 474.962 247.262C475.822 246.402 476.984 245.913 478.2 245.9H933.2C934.416 245.913 935.579 246.402 936.438 247.262C937.298 248.122 937.787 249.284 937.8 250.5V330.2C937.801 330.804 937.683 331.403 937.453 331.962C937.222 332.521 936.883 333.028 936.456 333.456C936.028 333.883 935.521 334.222 934.962 334.453C934.403 334.683 933.805 334.801 933.2 334.8V334.8Z" stroke="#B8D8C7" stroke-width="1.8" stroke-linecap="round" stroke-linejoin="round"/>
<path d="M933.2 433.7H478.2C476.984 433.687 475.822 433.198 474.962 432.338C474.102 431.478 473.613 430.316 473.6 429.1V349.4C473.613 348.184 474.102 347.022 474.962 346.162C475.822 345.302 476.984 344.813 478.2 344.8H933.2C934.416 344.813 935.579 345.302 936.438 346.162C937.298 347.022 937.787 348.184 937.8 349.4V429.1C937.81 429.707 937.697 430.309 937.469 430.871C937.241 431.434 936.903 431.945 936.474 432.374C936.045 432.803 935.534 433.141 934.972 433.369C934.409 433.597 933.807 433.709 933.2 433.7V433.7Z" stroke="#B8D8C7" stroke-width="1.8" stroke-linecap="round" stroke-linejoin="round"/>
<path d="M514.2 284.5H504.3V334.8H514.2V284.5Z" stroke="#B8D8C7" stroke-width="1.8" stroke-linecap="round" stroke-linejoin="round"/>
<path d="M524.4 298.2H514.1V334.8H524.4V298.2Z" stroke="#B8D8C7" stroke-width="1.8" stroke-linecap="round" stroke-linejoin="round"/>
<path d="M812.5 383.3H802.6V433.6H812.5V383.3Z" stroke="#B8D8C7" stroke-width="1.8" stroke-linecap="round" stroke-linejoin="round"/>
<path d="M822.8 397H812.5V433.6H822.8V397Z" stroke="#B8D8C7" stroke-width="1.8" stroke-linecap="round" stroke-linejoin="round"/>
<path d="M792.4 383.3H782.5V433.6H792.4V383.3Z" stroke="#B8D8C7" stroke-width="1.8" stroke-linecap="round" stroke-linejoin="round"/>
<path d="M773.165 382.156L758.023 430.123L767.463 433.103L782.606 385.136L773.165 382.156Z" stroke="#B8D8C7" stroke-width="1.8" stroke-linecap="round" stroke-linejoin="round"/>
<path d="M802.7 397H792.4V433.6H802.7V397Z" stroke="#B8D8C7" stroke-width="1.8" stroke-linecap="round" stroke-linejoin="round"/>
<path d="M679 284.5H669.1V334.8H679V284.5Z" stroke="#B8D8C7" stroke-width="1.8" stroke-linecap="round" stroke-linejoin="round"/>
<path d="M689.3 298.2H679V334.8H689.3V298.2Z" stroke="#B8D8C7" stroke-width="1.8" stroke-linecap="round" stroke-linejoin="round"/>
<path d="M581.2 284.5H571.3V334.8H581.2V284.5Z" stroke="#B8D8C7" stroke-width="1.8" stroke-linecap="round" stroke-linejoin="round"/>
<path d="M561.966 283.35L546.824 331.316L556.265 334.297L571.407 286.33L561.966 283.35Z" stroke="#B8D8C7" stroke-width="1.8" stroke-linecap="round" stroke-linejoin="round"/>
<path d="M591.5 298.2H581.2V334.8H591.5V298.2Z" stroke="#B8D8C7" stroke-width="1.8" stroke-linecap="round" stroke-linejoin="round"/>
<path d="M812.4 291.1L813.5 276.2C813.521 275.967 813.493 275.732 813.417 275.51C813.34 275.289 813.217 275.086 813.057 274.916C812.896 274.746 812.701 274.612 812.484 274.523C812.267 274.434 812.034 274.392 811.8 274.4H803.2C802.969 274.401 802.74 274.449 802.527 274.541C802.315 274.633 802.123 274.768 801.964 274.936C801.805 275.104 801.682 275.303 801.603 275.52C801.523 275.738 801.488 275.969 801.5 276.2L802.6 291.1C802.6 291.1 793.6 296.9 793.7 301.7C793.8 305.4 796 323.1 797 330.9C797.127 331.95 797.635 332.917 798.428 333.617C799.22 334.318 800.242 334.703 801.3 334.7H813.7C814.758 334.703 815.78 334.318 816.572 333.617C817.365 332.917 817.873 331.95 818 330.9C819 323.1 821.2 305.4 821.3 301.7C821.4 296.8 812.4 291.1 812.4 291.1Z" fill="#B8D8C7"/>
<path d="M772.5 291.1L773.6 276.2C773.621 275.967 773.593 275.732 773.516 275.51C773.44 275.289 773.317 275.086 773.156 274.916C772.996 274.746 772.8 274.612 772.584 274.523C772.367 274.434 772.134 274.392 771.9 274.4H763.3C763.068 274.401 762.84 274.449 762.627 274.541C762.415 274.633 762.223 274.768 762.064 274.936C761.905 275.104 761.782 275.303 761.702 275.52C761.623 275.738 761.588 275.969 761.6 276.2L762.7 291.1C762.7 291.1 753.7 296.9 753.8 301.7C753.9 305.4 756.1 323.1 757.1 330.9C757.227 331.95 757.735 332.917 758.528 333.617C759.32 334.318 760.342 334.703 761.4 334.7H773.8C774.858 334.703 775.88 334.318 776.672 333.617C777.465 332.917 777.973 331.95 778.1 330.9C779.1 323.1 781.3 305.4 781.4 301.7C781.5 296.8 772.5 291.1 772.5 291.1Z" fill="#B8D8C7"/>
<path d="M173.2 528.1H1129" stroke="#B8D8C7" stroke-width="1.8" stroke-linecap="round" stroke-linejoin="round"/>
<path d="M394.5 301L290.7 324.5C290.022 324.65 289.32 324.659 288.638 324.526C287.956 324.393 287.308 324.121 286.736 323.727C286.164 323.333 285.679 322.826 285.311 322.236C284.944 321.646 284.702 320.987 284.6 320.3L263.7 187.6C263.573 186.809 263.635 186 263.881 185.238C264.128 184.476 264.552 183.784 265.118 183.218C265.684 182.652 266.376 182.228 267.138 181.981C267.9 181.735 268.709 181.673 269.5 181.8L377.5 199.9C378.53 200.085 379.481 200.574 380.229 201.305C380.978 202.036 381.49 202.975 381.7 204L397.6 296.3C397.769 297.33 397.543 298.385 396.969 299.256C396.394 300.127 395.513 300.75 394.5 301V301Z" fill="#63737A"/>
<path d="M400.3 300.9L295.8 324.5C295.115 324.655 294.406 324.668 293.716 324.538C293.027 324.408 292.371 324.138 291.79 323.744C291.208 323.35 290.714 322.841 290.338 322.249C289.961 321.657 289.71 320.993 289.6 320.3L268.5 186.7C268.375 185.901 268.443 185.084 268.697 184.316C268.951 183.548 269.384 182.852 269.961 182.285C270.538 181.718 271.241 181.297 272.013 181.056C272.785 180.815 273.603 180.762 274.4 180.9L383.1 199.1C384.144 199.29 385.105 199.794 385.856 200.544C386.606 201.295 387.11 202.256 387.3 203.3L403.4 296.2C403.576 297.231 403.354 298.289 402.778 299.162C402.202 300.035 401.317 300.656 400.3 300.9Z" fill="#22272E"/>
<path d="M313.2 211C313.7 213.9 311.9 216 309.2 215.8C306.5 215.6 303.8 213 303.3 210C302.8 207 304.7 204.9 307.4 205.2C308.847 205.451 310.181 206.143 311.219 207.181C312.257 208.219 312.949 209.553 313.2 211V211Z" fill="#F8DA30"/>
<path d="M316.2 229.3L306.4 228.9C305.208 228.761 304.094 228.236 303.228 227.405C302.362 226.575 301.79 225.485 301.6 224.3V224.3C300.7 218.9 304.2 214.8 309.1 215.2C313.9 215.6 318.4 220.1 319.3 225.3C319.7 227.6 318.3 229.4 316.2 229.3Z" fill="#F8DA30"/>
<path d="M322.6 297.9C321.608 297.981 320.623 297.671 319.857 297.035C319.091 296.4 318.604 295.49 318.5 294.5L310.5 245C310.2 242.9 311.5 241.1 313.4 241.1C314.409 241.185 315.361 241.606 316.104 242.294C316.847 242.983 317.338 243.9 317.5 244.9L325.4 293.4C325.7 295.6 324.5 297.6 322.6 297.9Z" fill="#63737A"/>
<path d="M314 267.1L318.4 294.5C318.504 295.49 318.991 296.4 319.757 297.035C320.523 297.671 321.508 297.981 322.5 297.9V297.9C323.448 297.676 324.27 297.09 324.793 296.269C325.316 295.447 325.498 294.454 325.3 293.5L320.9 266.6C320.763 265.607 320.273 264.697 319.52 264.036C318.768 263.375 317.802 263.007 316.8 263C315 263.1 313.7 264.9 314 267.1Z" fill="#6DAFA7"/>
<path d="M345.8 214.2C346.2 216.8 344.8 218.8 342.6 218.6C340.4 218.4 338.2 216.1 337.7 213.4C337.2 210.7 338.7 208.8 341 209C343.3 209.2 345.3 211.5 345.8 214.2Z" fill="#F4C2C9"/>
<path d="M348.5 230.7L340.6 230.4C338.8 230.3 337 228.5 336.6 226.3C335.8 221.4 338.5 217.7 342.5 218C346.4 218.3 350.2 222.4 351 227.1C351.3 229.2 350.2 230.8 348.5 230.7Z" fill="#F4C2C9"/>
<path d="M354.9 292.6C353.4 292.9 351.8 291.5 351.5 289.5L344.1 244.9C343.8 243 344.8 241.4 346.4 241.4C348 241.4 349.5 243 349.8 244.9L357.1 288.6C357.4 290.6 356.5 292.4 354.9 292.6Z" fill="#63737A"/>
<path d="M347.2 263.5L351.5 289.3C351.8 291.1 353.2 292.6 354.6 292.6C356.3 292.5 357.4 290.7 357.1 288.6L352.8 263.1C352.5 261.2 351 259.7 349.4 259.8C347.9 260 346.9 261.6 347.2 263.5Z" fill="#6DAFA7"/>
<path d="M372.6 216.8C373 219.2 371.9 221 370.1 220.8C368.3 220.6 366.4 218.5 366 216.1C365.6 213.7 366.8 211.9 368.6 212.1C370.4 212.3 372.2 214.4 372.6 216.8Z" fill="#6DAFA7"/>
<path d="M375.2 231.9L368.6 231.6C367.1 231.5 365.6 229.9 365.2 227.9C364.4 223.4 366.6 220.1 370 220.3C373.3 220.6 376.5 224.3 377.2 228.5C377.5 230.5 376.6 232 375.2 231.9Z" fill="#6DAFA7"/>
<path d="M381.5 288.3C380.2 288.5 378.9 287.2 378.6 285.5L371.7 245C371.4 243.2 372.2 241.8 373.5 241.8C374.8 241.8 376.1 243.2 376.4 244.9L383.2 284.7C383.6 286.5 382.8 288 381.5 288.3Z" fill="#63737A"/>
<path d="M376.7 274L378.6 285.3C378.9 287 380 288.3 381.3 288.3C382.6 288.3 383.6 286.6 383.3 284.7L381.4 273.5C381.1 271.8 379.8 270.4 378.6 270.6C377.2 270.7 376.4 272.2 376.7 274Z" fill="#6DAFA7"/>
<path d="M790.4 342.7L691.9 331.2C690.505 331.041 689.227 330.348 688.332 329.267C687.437 328.186 686.995 326.8 687.1 325.4L694.7 218.2C694.8 216.924 695.345 215.723 696.241 214.809C697.137 213.895 698.326 213.325 699.6 213.2L802.2 202.4C802.826 202.329 803.459 202.398 804.055 202.603C804.651 202.808 805.193 203.142 805.643 203.583C806.094 204.023 806.44 204.559 806.657 205.15C806.875 205.741 806.957 206.373 806.9 207L795.2 338.8C795.066 339.948 794.49 340.998 793.593 341.726C792.696 342.455 791.551 342.804 790.4 342.7V342.7Z" fill="#63737A"/>
<path d="M786.1 342.7L687.1 331.1C685.705 330.941 684.427 330.248 683.532 329.167C682.637 328.086 682.195 326.7 682.3 325.3L689.9 217.5C689.996 216.213 690.538 214.999 691.432 214.068C692.327 213.138 693.518 212.548 694.8 212.4L797.9 201.5C798.526 201.429 799.16 201.498 799.755 201.703C800.351 201.908 800.893 202.242 801.343 202.683C801.794 203.123 802.14 203.659 802.357 204.25C802.575 204.841 802.658 205.473 802.6 206.1L790.9 338.6C790.871 339.19 790.721 339.769 790.461 340.299C790.2 340.829 789.834 341.301 789.384 341.685C788.935 342.069 788.412 342.357 787.847 342.532C787.282 342.706 786.688 342.763 786.1 342.7V342.7Z" fill="#22272E"/>
<path d="M723.9 241L699.6 242.2C699.366 242.208 699.133 242.166 698.916 242.077C698.7 241.988 698.504 241.854 698.343 241.684C698.183 241.514 698.06 241.311 697.983 241.09C697.907 240.868 697.879 240.633 697.9 240.4L698.9 225.9C698.926 225.511 699.092 225.144 699.368 224.868C699.644 224.592 700.011 224.426 700.4 224.4L724.8 222.4C725.041 222.382 725.283 222.416 725.509 222.5C725.736 222.585 725.942 222.717 726.113 222.887C726.283 223.058 726.415 223.264 726.499 223.491C726.584 223.717 726.618 223.959 726.6 224.2L725.4 239.5C725.39 239.895 725.229 240.27 724.949 240.549C724.67 240.829 724.295 240.99 723.9 241V241Z" fill="#63737A"/>
<path d="M736.6 251.7L733.9 286.6L694.7 285.4L695.2 278L700.6 270.8C700.84 270.469 701.147 270.192 701.503 269.99C701.858 269.787 702.252 269.663 702.659 269.625C703.066 269.587 703.477 269.637 703.863 269.77C704.25 269.904 704.603 270.119 704.9 270.4V270.4C705.227 270.716 705.625 270.951 706.06 271.084C706.495 271.218 706.955 271.247 707.403 271.169C707.852 271.091 708.275 270.908 708.639 270.636C709.004 270.363 709.299 270.008 709.5 269.6L713.8 260.7C714.018 260.259 714.345 259.881 714.749 259.601C715.154 259.32 715.622 259.147 716.112 259.097C716.601 259.047 717.095 259.122 717.548 259.315C718.001 259.508 718.397 259.812 718.7 260.2L723.8 266.6C724.098 266.97 724.483 267.261 724.92 267.448C725.357 267.635 725.832 267.712 726.306 267.672C726.779 267.633 727.236 267.478 727.636 267.221C728.036 266.965 728.367 266.614 728.6 266.2L736.6 251.7Z" fill="#F8DA30"/>
<path d="M698.6 320.1C698.206 320.064 697.84 319.878 697.58 319.58C697.319 319.282 697.183 318.896 697.2 318.5L698 307.3C698.036 306.906 698.222 306.54 698.52 306.28C698.818 306.019 699.204 305.883 699.6 305.9V305.9C699.806 305.912 700.008 305.966 700.193 306.06C700.377 306.154 700.54 306.284 700.672 306.444C700.803 306.604 700.9 306.789 700.957 306.988C701.013 307.187 701.028 307.395 701 307.6L700.2 318.8C700.187 318.993 700.134 319.181 700.045 319.353C699.956 319.524 699.833 319.676 699.682 319.798C699.532 319.92 699.359 320.009 699.173 320.061C698.986 320.113 698.792 320.127 698.6 320.1V320.1Z" fill="#F8DA30"/>
<path d="M711.6 319.8L712.8 303.9C712.836 303.506 713.022 303.14 713.32 302.88C713.618 302.619 714.004 302.483 714.4 302.5H714.6C714.806 302.512 715.008 302.566 715.193 302.66C715.377 302.754 715.54 302.884 715.672 303.044C715.803 303.204 715.9 303.389 715.957 303.588C716.013 303.787 716.028 303.995 716 304.2L714.8 320.1C714.788 320.306 714.734 320.508 714.64 320.693C714.546 320.877 714.416 321.04 714.256 321.172C714.096 321.303 713.911 321.4 713.712 321.457C713.513 321.513 713.305 321.528 713.1 321.5H712.9C712.525 321.402 712.193 321.181 711.958 320.873C711.722 320.565 711.596 320.188 711.6 319.8V319.8Z" fill="#F8DA30"/>
<path d="M726 321L727.6 300.7C727.656 300.261 727.869 299.856 728.2 299.562C728.531 299.268 728.957 299.104 729.4 299.1C729.635 299.106 729.865 299.162 730.077 299.263C730.289 299.365 730.476 299.511 730.627 299.69C730.778 299.87 730.89 300.079 730.954 300.305C731.018 300.531 731.034 300.768 731 301L729.4 321.3C729.387 321.532 729.326 321.759 729.222 321.967C729.118 322.175 728.972 322.359 728.794 322.509C728.617 322.659 728.41 322.771 728.188 322.838C727.965 322.905 727.731 322.926 727.5 322.9V322.9C727.077 322.791 726.701 322.546 726.43 322.203C726.159 321.86 726.008 321.437 726 321Z" fill="#F8DA30"/>
<path d="M740.4 322.3L742.5 297.3C742.556 296.861 742.769 296.456 743.1 296.162C743.431 295.868 743.857 295.704 744.3 295.7H744.5C744.735 295.706 744.965 295.762 745.177 295.863C745.388 295.965 745.576 296.111 745.727 296.29C745.879 296.47 745.99 296.679 746.054 296.905C746.118 297.131 746.134 297.368 746.1 297.6L744 322.6C743.987 322.832 743.926 323.059 743.822 323.267C743.718 323.475 743.572 323.659 743.394 323.809C743.217 323.959 743.01 324.071 742.787 324.138C742.565 324.205 742.331 324.226 742.1 324.2H741.9C741.455 324.133 741.053 323.899 740.774 323.547C740.496 323.194 740.362 322.748 740.4 322.3Z" fill="#6DAFA7"/>
<path d="M754.8 323.7L757.3 294C757.356 293.561 757.569 293.156 757.9 292.862C758.231 292.568 758.657 292.404 759.1 292.4H759.5C759.735 292.406 759.965 292.462 760.177 292.563C760.389 292.665 760.576 292.811 760.727 292.99C760.879 293.17 760.99 293.379 761.054 293.605C761.118 293.831 761.134 294.068 761.1 294.3L758.6 324C758.587 324.232 758.526 324.459 758.422 324.667C758.318 324.875 758.172 325.059 757.994 325.209C757.817 325.359 757.61 325.471 757.388 325.538C757.165 325.605 756.931 325.626 756.7 325.6H756.4C755.943 325.543 755.525 325.315 755.228 324.963C754.932 324.611 754.779 324.16 754.8 323.7Z" fill="#6DAFA7"/>
<path d="M771.3 326.9H770.8C770.346 326.836 769.932 326.607 769.636 326.256C769.341 325.906 769.186 325.458 769.2 325L772.1 290.6C772.156 290.161 772.369 289.756 772.7 289.462C773.031 289.168 773.457 289.004 773.9 289H774.4C774.637 289.013 774.868 289.072 775.082 289.175C775.295 289.277 775.486 289.421 775.644 289.597C775.802 289.774 775.924 289.98 776.002 290.203C776.08 290.427 776.113 290.664 776.1 290.9L773.2 325.3C773.157 325.763 772.933 326.19 772.578 326.489C772.222 326.789 771.763 326.936 771.3 326.9V326.9Z" fill="#F4C2C9"/>
<path d="M772 256.5L776.3 264C772.7 268.8 768.2 271.8 763.5 271.8C754.3 271.8 748 260.3 749.2 246.1C750.4 231.9 758.6 219.6 768 218.9C772.8 218.5 776.9 221.2 779.7 225.8L774.1 233.7C772.5 230.9 770 229.3 767.1 229.4C761.5 229.8 756.4 237.1 755.7 245.8C755 254.5 758.9 261.4 764.4 261.3C767.1 261.3 769.8 259.5 772 256.5Z" fill="#6DAFA7"/>
<path d="M783.1 244.8C782.4 252.3 779.9 259.2 776.3 264.1L772 256.6C774.363 253.206 775.746 249.228 776 245.1C776.443 241.208 775.712 237.273 773.9 233.8L779.5 225.9C782.3 230.5 783.7 237.2 783.1 244.8Z" fill="#F8DA30"/>
<path d="M789.3 212.5C789.4 211.6 789 210.9 788.3 210.9C787.938 211.007 787.623 211.233 787.405 211.542C787.187 211.85 787.08 212.223 787.1 212.6C787 213.5 787.4 214.2 788 214.2C788.6 214.2 789.2 213.5 789.3 212.5Z" fill="#63737A"/>
<path d="M795.4 212C795.5 211.1 795 210.4 794.4 210.4C794.023 210.527 793.695 210.769 793.462 211.092C793.228 211.414 793.102 211.802 793.1 212.2C793 213.1 793.5 213.8 794.1 213.8C794.7 213.8 795.3 212.9 795.4 212Z" fill="#63737A"/>
<path d="M663.9 251.4L631.2 253.4C630.8 253.425 630.398 253.364 630.023 253.222C629.648 253.08 629.307 252.86 629.023 252.577C628.74 252.293 628.52 251.952 628.378 251.577C628.236 251.202 628.175 250.8 628.2 250.4L632.5 185.9C632.56 185.068 632.899 184.28 633.461 183.663C634.024 183.047 634.777 182.637 635.6 182.5L669 176.5C669.416 176.424 669.843 176.443 670.251 176.556C670.658 176.669 671.035 176.872 671.352 177.151C671.67 177.43 671.92 177.777 672.084 178.167C672.248 178.556 672.322 178.978 672.3 179.4L667.4 247.8C667.376 248.73 667.003 249.617 666.354 250.285C665.705 250.952 664.829 251.35 663.9 251.4V251.4Z" fill="#22272E"/>
<path d="M661.4 250.7L628.7 252.7C628.3 252.725 627.898 252.664 627.523 252.522C627.148 252.38 626.807 252.16 626.523 251.877C626.24 251.593 626.02 251.252 625.878 250.877C625.736 250.502 625.675 250.1 625.7 249.7L630 185.2C630.06 184.368 630.399 183.58 630.961 182.963C631.524 182.347 632.277 181.937 633.1 181.8L666.5 175.8C666.916 175.724 667.343 175.743 667.751 175.856C668.158 175.968 668.535 176.172 668.852 176.451C669.17 176.73 669.42 177.077 669.584 177.467C669.748 177.856 669.822 178.278 669.8 178.7L664.9 247.1C664.876 248.03 664.503 248.917 663.854 249.584C663.205 250.252 662.329 250.65 661.4 250.7V250.7Z" fill="#6DAFA7"/>
<path d="M649.5 184.6L645.5 185.3C645.1 185.4 644.8 185.1 644.8 184.6C644.826 184.387 644.917 184.186 645.06 184.025C645.203 183.865 645.391 183.751 645.6 183.7L649.6 183C650 182.9 650.3 183.2 650.3 183.7C650.306 183.924 650.227 184.141 650.078 184.308C649.93 184.475 649.723 184.58 649.5 184.6V184.6Z" fill="#020202"/>
<path d="M652.7 184.1L652.3 184.2C651.9 184.3 651.6 184 651.6 183.5C651.617 183.283 651.705 183.078 651.849 182.916C651.994 182.754 652.187 182.643 652.4 182.6L652.8 182.5C653.2 182.4 653.5 182.7 653.5 183.2C653.483 183.417 653.395 183.622 653.251 183.784C653.106 183.946 652.913 184.057 652.7 184.1Z" fill="#020202"/>
<path d="M647.1 192.4L637 194C636.811 194.022 636.619 194.002 636.439 193.939C636.259 193.877 636.095 193.775 635.96 193.64C635.825 193.505 635.723 193.341 635.661 193.161C635.598 192.981 635.577 192.789 635.6 192.6V192.6C635.635 192.167 635.81 191.757 636.099 191.432C636.387 191.107 636.774 190.885 637.2 190.8L647.3 189.2C647.492 189.162 647.691 189.171 647.878 189.228C648.066 189.285 648.236 189.387 648.375 189.525C648.513 189.664 648.615 189.835 648.672 190.022C648.729 190.209 648.738 190.408 648.7 190.6V190.6C648.665 191.033 648.49 191.443 648.201 191.768C647.913 192.093 647.526 192.314 647.1 192.4V192.4Z" fill="#22272E"/>
<path d="M659.9 210.6L635.6 213.7C635.419 213.724 635.235 213.707 635.061 213.652C634.887 213.597 634.728 213.503 634.594 213.379C634.461 213.255 634.356 213.103 634.288 212.934C634.22 212.764 634.19 212.582 634.2 212.4L635.1 199.4C635.115 199.13 635.223 198.873 635.405 198.673C635.587 198.472 635.832 198.341 636.1 198.3L660.5 194.6C660.681 194.576 660.865 194.593 661.039 194.648C661.213 194.703 661.372 194.797 661.506 194.921C661.64 195.045 661.744 195.197 661.812 195.366C661.88 195.536 661.91 195.718 661.9 195.9L660.9 209.5C660.889 209.771 660.782 210.03 660.599 210.231C660.417 210.432 660.169 210.563 659.9 210.6Z" fill="#F8DA30"/>
<path d="M644.9 222.9L634.8 224C634.611 224.023 634.419 224.002 634.239 223.939C634.059 223.877 633.895 223.775 633.76 223.64C633.626 223.505 633.523 223.341 633.461 223.161C633.398 222.981 633.378 222.789 633.4 222.6V222.6C633.425 222.174 633.599 221.77 633.892 221.46C634.184 221.149 634.576 220.951 635 220.9L645.1 219.8C645.291 219.769 645.486 219.784 645.67 219.843C645.854 219.902 646.022 220.005 646.159 220.142C646.295 220.278 646.398 220.446 646.457 220.63C646.516 220.814 646.531 221.009 646.5 221.2V221.2C646.477 221.627 646.304 222.031 646.011 222.342C645.718 222.654 645.324 222.851 644.9 222.9V222.9Z" fill="#22272E"/>
<path d="M643.4 245.2L633.4 245.9C632.6 246 632 245.3 632 244.4C632.041 243.98 632.221 243.585 632.51 243.277C632.8 242.969 633.183 242.767 633.6 242.7L643.6 241.9C643.797 241.882 643.996 241.91 644.18 241.98C644.365 242.051 644.532 242.163 644.667 242.308C644.802 242.452 644.902 242.626 644.96 242.815C645.017 243.005 645.031 243.205 645 243.4V243.4C644.996 243.843 644.832 244.269 644.538 244.6C644.244 244.931 643.839 245.144 643.4 245.2V245.2Z" fill="#F4C2C9"/>
<path d="M642.6 237.9L633.9 238.6C633.724 238.623 633.545 238.605 633.377 238.548C633.208 238.491 633.056 238.396 632.93 238.27C632.804 238.144 632.709 237.992 632.652 237.823C632.595 237.655 632.577 237.476 632.6 237.3L633.1 229.3C633.103 229.009 633.219 228.731 633.425 228.525C633.631 228.319 633.909 228.203 634.2 228.2L643 227.3C643.176 227.277 643.355 227.295 643.523 227.352C643.692 227.409 643.844 227.504 643.97 227.63C644.096 227.756 644.191 227.908 644.248 228.077C644.305 228.245 644.323 228.424 644.3 228.6L643.7 236.8C643.665 237.079 643.537 237.339 643.338 237.538C643.139 237.737 642.879 237.865 642.6 237.9V237.9Z" fill="#F8DA30"/>
<path d="M658 236.6L648.7 237.4C648.526 237.413 648.351 237.389 648.187 237.329C648.023 237.268 647.874 237.173 647.751 237.049C647.627 236.926 647.532 236.777 647.471 236.613C647.411 236.449 647.387 236.274 647.4 236.1L648 227.8C648.003 227.509 648.119 227.231 648.325 227.025C648.531 226.819 648.809 226.703 649.1 226.7L658.4 225.8C658.576 225.777 658.755 225.795 658.923 225.852C659.092 225.909 659.244 226.004 659.37 226.13C659.496 226.256 659.591 226.408 659.648 226.577C659.705 226.745 659.723 226.924 659.7 227.1L659.1 235.5C659.081 235.786 658.959 236.055 658.757 236.257C658.555 236.459 658.286 236.581 658 236.6V236.6Z" fill="white"/>
<path d="M365 169.4C375.162 169.4 383.4 161.162 383.4 151C383.4 140.838 375.162 132.6 365 132.6C354.838 132.6 346.6 140.838 346.6 151C346.6 161.162 354.838 169.4 365 169.4Z" stroke="#6DAFA7" stroke-width="1.8" stroke-linecap="round" stroke-linejoin="round"/>
<path d="M358.1 150.5C357.516 149.721 357.2 148.774 357.2 147.8C357.2 146.826 357.516 145.879 358.1 145.1C358.414 144.783 358.788 144.532 359.2 144.36C359.612 144.188 360.054 144.1 360.5 144.1C360.946 144.1 361.388 144.188 361.8 144.36C362.212 144.532 362.586 144.783 362.9 145.1C363.521 145.859 363.841 146.82 363.8 147.8C363.858 148.782 363.536 149.749 362.9 150.5C362.586 150.817 362.212 151.068 361.8 151.24C361.388 151.412 360.946 151.5 360.5 151.5C360.054 151.5 359.612 151.412 359.2 151.24C358.788 151.068 358.414 150.817 358.1 150.5V150.5ZM361.8 149.5C362.119 148.957 362.259 148.327 362.2 147.7C362.246 147.074 362.106 146.448 361.8 145.9C361.66 145.714 361.479 145.562 361.271 145.458C361.062 145.354 360.833 145.3 360.6 145.3C360.367 145.3 360.137 145.354 359.929 145.458C359.721 145.562 359.54 145.714 359.4 145.9C359.046 146.431 358.871 147.062 358.9 147.7C358.898 148.335 359.071 148.957 359.4 149.5C359.536 149.69 359.716 149.845 359.925 149.949C360.134 150.054 360.366 150.106 360.6 150.1C360.832 150.096 361.06 150.039 361.268 149.936C361.475 149.832 361.657 149.683 361.8 149.5V149.5ZM369 144.1H369.9C370.2 144.1 370.4 144.5 370.2 144.7L361.4 157.6C361.3 157.7 361.2 157.8 361.1 157.8H360.2C359.9 157.8 359.7 157.4 359.9 157.2L368.7 144.3C368.7 144.2 368.8 144.1 369 144.1ZM367.2 157C366.616 156.221 366.3 155.274 366.3 154.3C366.3 153.326 366.616 152.379 367.2 151.6C367.514 151.283 367.888 151.032 368.3 150.86C368.712 150.688 369.154 150.6 369.6 150.6C370.046 150.6 370.488 150.688 370.9 150.86C371.312 151.032 371.686 151.283 372 151.6C372.584 152.379 372.9 153.326 372.9 154.3C372.9 155.274 372.584 156.221 372 157C371.701 157.336 371.329 157.6 370.914 157.773C370.498 157.947 370.049 158.024 369.6 158C369.153 158.004 368.71 157.917 368.298 157.745C367.885 157.574 367.512 157.32 367.2 157V157ZM370.8 155.9C371.063 155.372 371.2 154.79 371.2 154.2C371.2 153.61 371.063 153.028 370.8 152.5C370.632 152.264 370.405 152.075 370.142 151.952C369.879 151.83 369.589 151.777 369.3 151.8C368.906 151.876 368.552 152.088 368.3 152.4C367.946 152.931 367.771 153.562 367.8 154.2C367.784 154.836 367.958 155.463 368.3 156C368.403 156.176 368.549 156.322 368.724 156.427C368.898 156.532 369.096 156.591 369.3 156.6C369.591 156.645 369.889 156.602 370.156 156.477C370.423 156.353 370.647 156.152 370.8 155.9V155.9Z" fill="#6DAFA7"/>
<path d="M617.1 176.3C596.9 189.1 575.4 188.1 570.1 175.3C565.4 164.1 575.4 147.7 591.7 137.8C607.7 128 626.5 126.5 634.8 135.1C644.1 144.8 636.8 163.7 617.1 176.3Z" fill="#22272E"/>
<path d="M614.6 172.2C594.4 185 572.9 184 567.6 171.2C562.9 160 572.9 143.6 589.2 133.7C605.2 123.9 624 122.4 632.3 131C641.6 140.7 634.3 159.6 614.6 172.2Z" fill="#F8DA30"/>
<path d="M608.9 163.7C596.8 171.3 583.6 171.1 579.9 163.6C576.4 156.7 582.5 146.2 593.1 139.7C603.7 133.2 615.7 132.5 620.6 138.3C625.8 144.6 620.9 156.1 608.9 163.7Z" fill="#6DAFA7"/>
<path d="M603.8 155.9C599 158.9 593.7 158.9 592 156.1C590.3 153.3 592.7 148.9 597.3 146.1C601.9 143.3 606.9 143.1 608.8 145.7C610.7 148.3 608.5 152.9 603.8 155.9Z" fill="#F4C2C9"/>
<path d="M599 146.4C598.107 146.925 597.045 147.083 596.038 146.84C595.03 146.598 594.157 145.974 593.6 145.1L584 126C583.771 125.516 583.726 124.965 583.874 124.45C584.021 123.935 584.35 123.491 584.8 123.2C585.271 122.921 585.83 122.828 586.366 122.939C586.902 123.05 587.378 123.357 587.7 123.8L600.2 141.1C600.479 141.524 600.67 142 600.76 142.499C600.851 142.998 600.84 143.511 600.728 144.005C600.616 144.5 600.405 144.967 600.108 145.379C599.811 145.79 599.434 146.138 599 146.4V146.4Z" fill="#22272E"/>
<path d="M586.4 129.7L582.1 129.4C581.837 129.382 581.574 129.44 581.343 129.567C581.112 129.694 580.922 129.885 580.796 130.116C580.67 130.348 580.613 130.61 580.631 130.873C580.649 131.136 580.743 131.388 580.9 131.6V131.6C582.96 134.368 585.771 136.485 589 137.7L591 138.5C591.2 138.6 591.5 138.3 591.3 138.1L587.4 130.4C587.3 130 586.9 129.8 586.4 129.7Z" fill="#6DAFA7"/>
<path d="M590 127.5L591.8 123.6C591.905 123.355 592.079 123.147 592.301 123C592.524 122.854 592.784 122.776 593.05 122.776C593.316 122.776 593.577 122.854 593.799 123C594.021 123.147 594.195 123.355 594.3 123.6C595.82 126.699 596.377 130.182 595.9 133.6L595.6 135.8C595.6 136 595.2 136.1 595.1 135.9L590.1 128.9C589.984 128.687 589.915 128.452 589.898 128.211C589.881 127.969 589.915 127.727 590 127.5V127.5Z" fill="#6DAFA7"/>
<path d="M598.5 145.6L601.7 151" stroke="#22272E" stroke-width="1.8" stroke-linecap="round" stroke-linejoin="round"/>
<path d="M510 585.5C507.8 581.6 486.5 585.5 486.5 585.5C486.5 585.5 486.9 593.8 487.1 600.1C494.293 603.126 502.308 603.585 509.8 601.4C509.7 594.9 510 585.5 510 585.5Z" fill="#B28D93"/>
<path d="M487 600.1C487.1 603 487.1 605.4 487.1 606.4C487.1 607.6 485.7 609.8 485.2 613.2C484.8 615.7 485.2 619.1 484.7 622.1C484.2 625.7 483.6 629.3 483.3 632.7C482.4 642.6 487.5 643.7 493.2 644.4C498.9 645.1 517.8 645.6 518.4 640.1C519 634.6 513.6 624.4 512.4 619.7C511.2 615 510.5 609.7 509.9 606.6C509.8 605.7 509.7 603.8 509.7 601.4C502.203 603.538 494.204 603.08 487 600.1Z" fill="#F8DA30"/>
<path d="M518.5 640C517.9 645.5 499 644.9 493.3 644.3C487.6 643.7 482.5 642.5 483.4 632.6C483.7 629.3 484.2 625.6 484.8 622C485.3 619 484.8 615.6 485.3 613.1C485.698 611.077 486.301 609.1 487.1 607.2C487.5 609.8 489.5 610.6 489.7 616.3C490 622.2 489.4 625.2 496.3 623.3C505.4 620.8 508.9 623.9 510.8 622.4C512.4 621 511.8 616.2 511.7 615.3C512 616.7 512.3 618.2 512.6 619.6C513.6 624.3 519.1 634.6 518.5 640Z" fill="#22272E"/>
<path d="M507.4 594.5C508.247 594.279 509.082 594.012 509.9 593.7C510 589.3 510.1 585.4 510.1 585.4C507.9 581.5 486.6 585.4 486.6 585.4C486.6 585.4 486.7 588.4 486.9 592.2C493.1 594.6 500.2 596.1 507.4 594.5Z" fill="#896068"/>
<path d="M502.3 627.5C505.393 627.5 507.9 625.888 507.9 623.9C507.9 621.912 505.393 620.3 502.3 620.3C499.207 620.3 496.7 621.912 496.7 623.9C496.7 625.888 499.207 627.5 502.3 627.5Z" fill="white"/>
<path d="M544.6 602.6C545.1 606.5 545.4 609.9 545.2 610.8C544.7 612.9 543.1 621.7 541.8 625.5C540.5 629.3 533.1 640.1 538 643.4C542.9 646.7 567.9 644.7 570.6 642.4C573.3 640.1 572.4 633.7 571.4 625.5C570.4 617.3 567.4 608.9 567.4 607.7C567.4 607.3 567.3 604.2 567.2 600.4C560.4 603.8 552.5 605.1 544.6 602.6Z" fill="#F8DA30"/>
<path d="M542.8 590C542.8 590 543.9 596.8 544.6 602.6C552.5 605.1 560.4 603.8 567.2 600.4C566.9 593.2 566.5 583.2 566.1 582.6C565.6 581.7 545 581.3 542.8 590Z" fill="#B28D93"/>
<path d="M570.7 642.4C568 644.7 543 646.8 538.1 643.4C533.2 640 540.6 629.2 541.9 625.5C542.8 622.8 543.9 617.4 544.6 613.8C544.4 615 542.8 624.4 544.6 625C546.4 625.6 551.3 621.7 557.6 623.1C563.9 624.5 567.1 625.4 567.1 621.5C567.1 617.6 565.9 611.2 566.5 610.1C567.1 609 567.5 607.8 567.5 607.8C567.5 609 570.5 617.4 571.5 625.6C572.5 633.8 573.4 640 570.7 642.4Z" fill="#22272E"/>
<path d="M566.9 593.5C566.7 588.1 566.4 583 566.1 582.6C565.6 581.7 544.9 581.3 542.7 590C542.7 590 543.1 592.8 543.7 596.3C552 598.1 559.8 596.6 566.9 593.5Z" fill="#896068"/>
<path d="M553.1 628.6C556.193 628.6 558.7 626.988 558.7 625C558.7 623.012 556.193 621.4 553.1 621.4C550.007 621.4 547.5 623.012 547.5 625C547.5 626.988 550.007 628.6 553.1 628.6Z" fill="white"/>
<path d="M563.2 334.6C563.2 334.6 572.9 352.3 567.4 396.3C561.9 440.3 559.1 451.4 560.1 454.2C561.1 457 566 478.1 566.3 510.7C566.6 543.3 567.3 558.9 570.2 568C573.1 577.1 574.4 583.9 566.8 589.3C559.2 594.7 546 594 539.8 591.1C533.6 588.2 533.3 583.3 533.8 572.4C534.3 561.5 528.9 527.7 524.4 507.2C521.7 494.8 519.4 480.5 517.9 470.2C517.175 465.761 516.674 461.289 516.4 456.8C516.4 452.9 510.4 395.5 510.4 392.6C510.4 389.7 503.9 387.7 502.3 375.4C500.7 363.1 503.6 334.7 503.6 334.7C503.6 334.7 557.7 326.9 563.2 334.6Z" fill="#22272E"/>
<path d="M472.2 331.2C472.2 331.2 461.3 357.4 467.5 405C473.7 452.6 474.5 457.2 474.8 459.3C475.1 461.4 475.3 497 478.2 527.9C481.1 558.8 475.3 574.7 478.2 582.2C481.1 589.7 490.4 591.6 496.9 591.3C503.4 591 515.6 588.7 515.6 576.7C515.6 564.7 514 545.8 515.6 520.6C517.2 495.4 519.6 469.7 520.3 457.7C521 445.7 528.3 376.1 529.6 366.2C530.9 356.3 526.3 340.2 508.2 333.9C490.1 327.8 472.2 331.2 472.2 331.2Z" fill="#22272E"/>
<path d="M465.6 373.4C465.6 373.4 471.5 372 473.6 364.6C474.796 360.543 475.666 356.396 476.2 352.2" stroke="#63737A" stroke-width="1.8" stroke-linecap="round" stroke-linejoin="round"/>
<path d="M568.9 376C568.9 376 561.2 372.4 558.8 364.2C556.4 356 556.7 351.4 556.7 351.4" stroke="#63737A" stroke-width="1.8" stroke-linecap="round" stroke-linejoin="round"/>
<path d="M496.8 384.8C502.5 385 510.2 391.4 510.2 391.4C512.885 389.218 515.802 387.34 518.9 385.8" stroke="#63737A" stroke-width="1.8" stroke-linecap="round" stroke-linejoin="round"/>
<path d="M494.2 474.8C502.263 474.8 508.8 468.084 508.8 459.8C508.8 451.516 502.263 444.8 494.2 444.8C486.137 444.8 479.6 451.516 479.6 459.8C479.6 468.084 486.137 474.8 494.2 474.8Z" stroke="#63737A" stroke-width="1.8" stroke-linecap="round" stroke-linejoin="round"/>
<path d="M535.9 474.8C543.963 474.8 550.5 468.084 550.5 459.8C550.5 451.516 543.963 444.8 535.9 444.8C527.837 444.8 521.3 451.516 521.3 459.8C521.3 468.084 527.837 474.8 535.9 474.8Z" stroke="#63737A" stroke-width="1.8" stroke-linecap="round" stroke-linejoin="round"/>
<path d="M517.9 470.1C517.175 465.661 516.674 461.189 516.4 456.7C516.4 452.8 510.4 395.4 510.4 392.5C510.4 389.6 503.9 387.6 502.3 375.3" stroke="#63737A" stroke-width="1.8" stroke-linecap="round" stroke-linejoin="round"/>
<path d="M408.6 194.7C408.6 194.7 407.7 191.7 407.3 183.3C407.2 181.3 410.4 176.9 410.8 175.6C411.2 174.3 414.2 174.8 413.4 179.2C412.6 183.6 415.7 191.7 414.8 194.8C413.9 197.9 408.6 196.1 408.6 194.7Z" fill="#B28D93"/>
<path d="M400.4 168L427.4 223.8C427.78 224.638 428.402 225.342 429.187 225.824C429.971 226.305 430.881 226.54 431.8 226.5L472.3 225.8C472.712 225.798 473.117 225.691 473.477 225.491C473.837 225.291 474.141 225.003 474.361 224.654C474.58 224.305 474.708 223.906 474.732 223.495C474.756 223.083 474.677 222.672 474.5 222.3L450.7 166.3C450.326 165.422 449.697 164.676 448.895 164.159C448.093 163.642 447.154 163.378 446.2 163.4L402.6 164.4C402.181 164.413 401.773 164.529 401.41 164.74C401.048 164.95 400.744 165.247 400.526 165.605C400.308 165.962 400.182 166.368 400.16 166.786C400.138 167.205 400.22 167.622 400.4 168V168Z" fill="#22272E"/>
<path d="M415.8 160.3L430.8 159.7C431.445 159.692 432.075 159.892 432.598 160.27C433.12 160.648 433.507 161.185 433.7 161.8L434.3 163.8C434.346 163.946 434.358 164.1 434.335 164.251C434.313 164.401 434.256 164.545 434.169 164.671C434.082 164.796 433.967 164.9 433.834 164.974C433.701 165.049 433.552 165.092 433.4 165.1L415.3 165.6C415.07 165.591 414.849 165.508 414.669 165.364C414.489 165.22 414.36 165.023 414.3 164.8L414 162.6C413.948 162.328 413.955 162.049 414.02 161.78C414.086 161.511 414.208 161.259 414.378 161.041C414.549 160.824 414.764 160.645 415.009 160.517C415.254 160.389 415.524 160.315 415.8 160.3V160.3Z" fill="#6DAFA7"/>
<path d="M455.2 259.6L451.8 262.4C451.8 262.4 447.3 248.2 443.2 238.5C439.1 228.8 436.5 216.5 436.6 215.1C436.7 213.7 437.9 209.7 435.2 205.5C433.772 203.146 431.779 201.186 429.4 199.8C429.4 199.8 431.7 198.7 436 196.9C440.3 195.1 438.3 193.1 435.7 193.4C433.1 193.7 426.6 194.6 426.6 194.6L431.7 190.6C433.6 189.1 437.6 187.5 436.6 185.9C435.7 184.5 431.5 186 429.6 186.6C427.7 187.2 421 190.5 421 190.5C421 190.5 425 185.8 426.8 183.5C428.6 181.2 433.4 179 432.8 176.7C432.2 174.4 426.3 177.7 423.5 179.4C420.7 181.1 415.4 186.5 415.4 186.5C415.4 186.5 415.6 181.3 415.8 179C416 176.7 417.4 170.9 415.7 169.5C413.5 167.7 412.3 173.3 411.2 178C410.1 182.7 407.5 192.2 408.1 195C408.7 197.8 412.1 201.2 415 205C417.9 208.8 421 213.3 421.5 214.6C422 215.9 425.7 275.8 429 284C432.3 292.2 439.9 306.3 471.5 281.3C471.5 281.3 474.4 263.8 468.6 259.1C462.7 254.6 455.2 259.6 455.2 259.6Z" fill="#B28D93"/>
<path d="M493.9 227.5C493.9 227.5 486.2 228.9 476.5 239.3C466.8 249.7 455.2 259.6 455.2 259.6C455.2 259.6 464.2 279.6 469.6 285.6C469.6 285.6 488.5 273 495.9 265.6C503.3 258.2 504.6 230.1 493.9 227.5Z" fill="#6DAFA7"/>
<path d="M459.2 256.1C459.2 256.1 465.5 271.3 473.9 282.6" stroke="#22272E" stroke-width="1.8" stroke-linecap="round" stroke-linejoin="round"/>
<path d="M451.8 262.4C452.931 265.267 453.866 268.207 454.6 271.2" stroke="#896068" stroke-width="1.8" stroke-linecap="round" stroke-linejoin="round"/>
<path d="M426.6 194.6C425.856 194.759 425.122 194.959 424.4 195.2C423.59 195.441 422.841 195.85 422.2 196.4" stroke="#896068" stroke-width="1.8" stroke-linecap="round" stroke-linejoin="round"/>
<path d="M429.3 199.8C428.665 200.107 428.063 200.475 427.5 200.9" stroke="#896068" stroke-width="1.8" stroke-linecap="round" stroke-linejoin="round"/>
<path d="M421 190.5C420.118 191.062 419.34 191.772 418.7 192.6" stroke="#896068" stroke-width="1.8" stroke-linecap="round" stroke-linejoin="round"/>
<path d="M415.4 186.6C414.558 187.175 413.786 187.846 413.1 188.6" stroke="#896068" stroke-width="1.8" stroke-linecap="round" stroke-linejoin="round"/>
<path d="M421.7 215.9C421.7 215.9 425.6 220.8 436.9 217.1C436.9 217.1 438.1 221.6 438.2 222.8C438.2 222.8 428.8 226.6 422.3 222C421.95 219.984 421.75 217.945 421.7 215.9V215.9Z" fill="#22272E"/>
<path d="M426.651 224.788C428.274 224.456 429.168 222.125 428.647 219.582C428.127 217.039 426.389 215.247 424.765 215.579C423.142 215.912 422.248 218.242 422.769 220.785C423.29 223.328 425.028 225.121 426.651 224.788Z" fill="white"/>
<path d="M489.9 230.1C492.7 227.9 495.5 225.2 520.3 224.4C548.8 223.5 562.4 226.9 566.3 243.2C570.2 259.5 553.8 297.5 553.8 301.9C553.8 306.3 564.1 327.7 565.3 337.4C565.3 337.4 551.4 352.7 516.3 352.2C481.2 351.7 469.5 337.4 469.5 333.7C469.5 330 481.7 308.9 483 299.6C484.3 290.3 472.1 278.5 472.6 266.6C473.1 254.7 483.5 244.5 484.1 241.9C485.5 237.1 486.9 232.4 489.9 230.1Z" fill="#F8DA30"/>
<path d="M503.2 234.2C503.2 234.2 503.1 254.2 511.7 268.4C511.7 268.4 526.8 253 532 237.4C532 237.4 520.2 241.2 513.2 238.7C509.735 237.512 506.387 236.006 503.2 234.2V234.2Z" fill="#6DAFA7"/>
<path d="M510.7 221.7C508.8 222.423 507.071 223.535 505.625 224.964C504.178 226.393 503.046 228.108 502.3 230C499.4 236.8 500.5 246.7 503.1 246.6C505.7 246.5 515.7 239.4 515.7 239.4C515.7 239.4 515.2 222.5 510.7 221.7Z" fill="white"/>
<path d="M515.6 239.5L521.1 246.7C524 250.5 526.8 254.7 534 243.1C541.2 231.5 536.6 223.6 532.4 221.7C528.2 219.8 515 235.8 515.6 239.5Z" fill="white"/>
<path d="M510.7 214C510.471 218.654 510.004 223.294 509.3 227.9C508.3 233.5 509.9 238.6 515.6 239.5C521.3 240.4 533 234.2 533.7 225.7C533.7 225.7 532.7 205.6 534.4 199.3C536.1 193 511 209.6 510.7 214Z" fill="#B28D93"/>
<path d="M528.4 213.7C524.7 219.6 517.1 220.1 510.3 220.2C510.1 222.4 509.8 224.8 509.5 226.9C518.1 226.5 526.6 222.1 528.4 213.7Z" fill="#896068"/>
<path d="M563.7 330.5C536.9 348 495.7 350.2 471.4 328.4" stroke="#F8AB5D" stroke-width="1.8" stroke-linecap="round" stroke-linejoin="round"/>
<path d="M511.7 268.4C511.7 268.4 503.9 278.7 501.9 285.6" stroke="#F8AB5D" stroke-width="1.8" stroke-linecap="round" stroke-linejoin="round"/>
<path d="M512.8 275.4C513.116 275.4 513.426 275.494 513.689 275.67C513.952 275.845 514.157 276.095 514.278 276.388C514.399 276.68 514.431 277.002 514.369 277.312C514.307 277.623 514.155 277.908 513.931 278.131C513.708 278.355 513.422 278.508 513.112 278.569C512.802 278.631 512.48 278.599 512.188 278.478C511.895 278.357 511.645 278.152 511.47 277.889C511.294 277.626 511.2 277.316 511.2 277C511.2 276.576 511.369 276.169 511.669 275.869C511.969 275.569 512.376 275.4 512.8 275.4V275.4Z" fill="#F8AB5D"/>
<path d="M509.2 286.4C510.084 286.4 510.8 285.684 510.8 284.8C510.8 283.916 510.084 283.2 509.2 283.2C508.316 283.2 507.6 283.916 507.6 284.8C507.6 285.684 508.316 286.4 509.2 286.4Z" fill="#F8AB5D"/>
<path d="M579.9 259.1C579.9 259.1 587.4 276.2 591.1 289.3C594.8 302.4 591 310.5 582.9 314.4C574.8 318.3 568.4 308.3 556.3 278C556.3 278.1 574.4 253.9 579.9 259.1Z" fill="#B28D93"/>
<path d="M570.7 308.5C570.7 308.5 575.7 318.7 587 317.6C598.3 316.5 625.6 308.8 630.8 304.4C636 300 633.5 288.3 628.6 287.8C623.7 287.3 609.3 288.8 601.1 288.9C597.649 288.823 594.198 289.091 590.8 289.7C589.466 289.98 588.16 290.381 586.9 290.9C585.418 291.547 584.01 292.351 582.7 293.3C577.7 297.1 570.7 308.5 570.7 308.5Z" fill="#B28D93"/>
<path d="M591 289.8C589.666 290.08 588.36 290.481 587.1 291C585.618 291.647 584.21 292.451 582.9 293.4" stroke="#896068" stroke-width="1.8" stroke-linecap="round" stroke-linejoin="round"/>
<path d="M544.6 236.1C546.7 230.7 552.8 227.2 557.7 229.1C563.046 231.211 567.641 234.866 570.9 239.6C578.6 250.9 586.1 271.3 586.1 271.3C586.1 271.3 578.1 276.9 557.6 284C553.88 277.74 550.54 271.262 547.6 264.6C545.2 258.9 541.1 245.3 544.6 236.1Z" fill="#6DAFA7"/>
<path d="M555.4 278.7C555.4 278.7 570.8 274.8 583.8 265.7" stroke="#22272E" stroke-width="1.8" stroke-linecap="round" stroke-linejoin="round"/>
<path d="M597 293.2L664.8 286.3C665.202 286.244 665.611 286.271 666.003 286.377C666.394 286.484 666.76 286.67 667.078 286.922C667.396 287.175 667.659 287.489 667.852 287.846C668.045 288.203 668.163 288.596 668.2 289L675.1 343C675.217 343.767 675.033 344.55 674.585 345.184C674.138 345.818 673.462 346.254 672.7 346.4L606.5 360.7C606.084 360.802 605.651 360.814 605.23 360.735C604.809 360.656 604.409 360.488 604.059 360.241C603.708 359.995 603.414 359.676 603.197 359.307C602.98 358.938 602.845 358.526 602.8 358.1L594.3 296.8C594.222 296.384 594.231 295.956 594.327 295.544C594.423 295.132 594.603 294.744 594.857 294.405C595.111 294.067 595.433 293.785 595.802 293.577C596.171 293.37 596.579 293.241 597 293.2V293.2Z" fill="#6DAFA7"/>
<path d="M612.8 314.1L658.1 307.6C658.604 307.522 659.118 307.647 659.53 307.947C659.942 308.246 660.219 308.697 660.3 309.2L664.7 335.2C664.786 335.69 664.677 336.194 664.397 336.604C664.116 337.015 663.687 337.301 663.2 337.4L617.5 346.7C617.243 346.758 616.977 346.762 616.718 346.711C616.459 346.66 616.214 346.557 615.998 346.406C615.782 346.256 615.599 346.062 615.462 345.837C615.324 345.612 615.235 345.361 615.2 345.1L611.1 316.4C611.04 315.873 611.183 315.343 611.498 314.916C611.813 314.489 612.278 314.198 612.8 314.1Z" stroke="#22272E" stroke-width="1.8" stroke-linecap="round" stroke-linejoin="round"/>
<path d="M650.2 308.7L655.5 339" stroke="#22272E" stroke-width="1.8" stroke-linecap="round" stroke-linejoin="round"/>
<path d="M619.8 321.3L643.1 317.7" stroke="#22272E" stroke-width="1.8" stroke-linecap="round" stroke-linejoin="round"/>
<path d="M621.8 329.5L645.1 325" stroke="#22272E" stroke-width="1.8" stroke-linecap="round" stroke-linejoin="round"/>
<path d="M623.4 337.3L646.7 332.8" stroke="#22272E" stroke-width="1.8" stroke-linecap="round" stroke-linejoin="round"/>
<path d="M654.8 315L656.3 316.1L658 312.9" stroke="#22272E" stroke-width="1.8" stroke-linecap="round" stroke-linejoin="round"/>
<path d="M656.1 321.8L657.6 322.9L659.4 319.8" stroke="#22272E" stroke-width="1.8" stroke-linecap="round" stroke-linejoin="round"/>
<path d="M657.4 329.1L658.9 330.2L660.6 327.1" stroke="#22272E" stroke-width="1.8" stroke-linecap="round" stroke-linejoin="round"/>
<path d="M609.7 304.3L609.3 301.8C609.278 301.622 609.291 301.442 609.34 301.27C609.389 301.097 609.471 300.936 609.583 300.797C609.695 300.657 609.834 300.541 609.991 300.455C610.149 300.37 610.322 300.317 610.5 300.3L621 299.1C621.344 299.053 621.692 299.142 621.972 299.347C622.252 299.552 622.441 299.858 622.5 300.2L622.8 302.4C622.846 302.744 622.758 303.092 622.553 303.372C622.347 303.652 622.042 303.841 621.7 303.9L611.3 305.3C611.129 305.351 610.949 305.364 610.772 305.34C610.596 305.316 610.426 305.255 610.275 305.16C610.124 305.066 609.994 304.94 609.895 304.792C609.796 304.644 609.729 304.476 609.7 304.3V304.3Z" fill="#F8DA30"/>
<path d="M649.4 286C647.9 284.4 647.1 283.8 641.3 283.4C639.3 283.3 635.7 283.5 632.8 283.6C631.4 283.6 630.5 283.3 629.5 283.4C626.5 283.9 623 287.4 621.3 288.6C619.6 289.8 616.5 291.3 616.5 291.3L626.4 290.3C626.703 290.252 627.013 290.304 627.284 290.449C627.555 290.593 627.771 290.822 627.9 291.1C628.761 292.777 629.496 294.515 630.1 296.3C631.3 300.1 632.6 304.9 634.3 303.7C635.3 303 635.3 299.8 635 297.6C635 297.9 635.1 298.1 635.1 298.4C635.4 302.2 634.8 307.9 637 308C639 308.1 639.3 305.7 639.3 305.7C639.355 305.891 639.45 306.069 639.578 306.22C639.707 306.372 639.867 306.494 640.047 306.58C640.226 306.665 640.422 306.711 640.621 306.714C640.82 306.718 641.017 306.679 641.2 306.6C642.8 306 645.1 301.1 645.8 298.2C645.9 299.5 645.6 300 646.5 300.3C648.4 300.9 649.9 294.8 650.4 290.4C650.7 287.6 650.2 286.8 649.4 286Z" fill="#B28D93"/>
<path d="M639.2 305.6C639.2 305.6 640.2 300.4 640.6 298.3C640.952 295.31 640.952 292.29 640.6 289.3C640.355 288.434 640.02 287.596 639.6 286.8" stroke="#896068" stroke-width="1.8" stroke-linecap="round" stroke-linejoin="round"/>
<path d="M645.8 298.1C646.419 295.399 646.853 292.66 647.1 289.9C647.05 288.851 646.882 287.811 646.6 286.8" stroke="#896068" stroke-width="1.8" stroke-linecap="round" stroke-linejoin="round"/>
<path d="M635.1 299.7C635.205 297.902 635.205 296.098 635.1 294.3C634.675 292.078 634.039 289.901 633.2 287.8" stroke="#896068" stroke-width="1.8" stroke-linecap="round" stroke-linejoin="round"/>
<path d="M551.3 174.7C551.293 171.84 550.351 169.061 548.618 166.786C546.885 164.511 544.455 162.866 541.7 162.1C541.4 158.864 539.899 155.858 537.493 153.674C535.087 151.49 531.95 150.286 528.7 150.3C527.122 150.289 525.558 150.595 524.1 151.2C522.877 149.8 521.371 148.676 519.682 147.9C517.993 147.124 516.159 146.715 514.3 146.7C512.132 146.681 509.995 147.212 508.089 148.244C506.183 149.276 504.569 150.775 503.4 152.6C503 152.6 502.6 152.5 502.2 152.5C499.819 152.503 497.484 153.161 495.451 154.4C493.418 155.64 491.764 157.414 490.671 159.529C489.577 161.644 489.085 164.019 489.249 166.395C489.413 168.77 490.226 171.055 491.6 173C490.759 174.748 490.315 176.66 490.3 178.6C490.3 180.307 490.636 181.998 491.29 183.575C491.943 185.152 492.9 186.585 494.108 187.792C495.315 189 496.748 189.957 498.325 190.61C499.902 191.264 501.593 191.6 503.3 191.6C505.007 191.6 506.698 191.264 508.275 190.61C509.852 189.957 511.285 189 512.492 187.792C513.7 186.585 514.657 185.152 515.31 183.575C515.964 181.998 516.3 180.307 516.3 178.6C516.311 176.582 515.831 174.591 514.9 172.8C516.26 172.688 517.602 172.42 518.9 172C520.608 173.917 522.828 175.305 525.3 176C525.512 177.816 526.054 179.579 526.9 181.2C525.715 182.869 524.941 184.794 524.641 186.818C524.34 188.843 524.522 190.909 525.172 192.85C525.821 194.791 526.919 196.551 528.378 197.988C529.836 199.424 531.612 200.495 533.563 201.115C535.513 201.735 537.583 201.886 539.602 201.555C541.622 201.224 543.535 200.421 545.186 199.211C546.836 198.001 548.178 196.418 549.101 194.592C550.025 192.765 550.504 190.747 550.5 188.7C550.507 186.454 549.92 184.246 548.8 182.3C550.452 180.113 551.331 177.44 551.3 174.7V174.7Z" fill="#22272E"/>
<path d="M515 169.1C510.778 169.054 506.697 170.623 503.593 173.485C500.489 176.348 498.595 180.288 498.3 184.5C498 188.4 497.6 193.8 496.9 198.3C495.7 206.1 496.9 217.7 509.2 220.5C521.5 223.3 533.5 211.5 536.2 201.3C538.9 191.1 541.2 176.2 526.7 171.3C522.927 170.004 518.986 169.263 515 169.1V169.1Z" fill="#B28D93"/>
<path d="M532.3 196.4C532.3 196.4 530.4 194.8 529.8 188.3C529.751 187.898 529.582 187.52 529.314 187.217C529.046 186.913 528.693 186.698 528.3 186.6C526.1 186.1 522.1 183.8 520.7 174.7C516.853 177.3 512.593 179.227 508.1 180.4C501.3 182 497 175.8 494.8 172.6C490.9 166.9 491.4 165.5 493.2 163.3C502.1 152.3 517.9 156.9 520.8 157.9C523.7 158.9 534 158.1 541.1 165.7C548.2 173.3 546.6 184.2 544.7 190.9C542.8 197.6 533.3 209.5 533.3 210.4C533.3 211.3 532.3 196.4 532.3 196.4Z" fill="#22272E"/>
<path d="M530.9 196.9C530.9 196.9 532.8 191.9 537.1 192.6C540.5 193.1 541.2 204.8 532.9 206.5" fill="#B28D93"/>
<path d="M505 191.5C505.033 192.62 504.756 193.727 504.2 194.7C503.9 195.19 503.566 195.658 503.2 196.1C503 196.3 502.9 196.5 502.8 196.6C502.7 196.7 502.6 196.9 502.5 197.1C502.363 197.441 502.31 197.809 502.345 198.174C502.38 198.54 502.502 198.891 502.7 199.2C503.196 200.072 503.879 200.823 504.7 201.4C503.543 201.357 502.441 200.895 501.6 200.1C501.128 199.643 500.813 199.048 500.7 198.4C500.516 197.698 500.587 196.954 500.9 196.3C501.028 195.98 501.196 195.678 501.4 195.4L502 194.8C502.4 194.5 502.7 194.1 503.1 193.8C503.7 193.1 504.3 192.4 505 191.5Z" fill="#22272E"/>
<path d="M511.5 208.5C512.713 208.375 513.872 207.93 514.856 207.209C515.84 206.489 516.615 205.519 517.1 204.4" stroke="#22272E" stroke-width="1.8" stroke-linecap="round" stroke-linejoin="round"/>
<path d="M515.5 185.8C514.9 185.1 514.9 183.3 516.1 182.9C517.3 182.5 520.5 182.9 522.6 185.6C524.7 188.3 520.5 186.2 519.3 186C518.1 185.8 516 186.3 515.5 185.8Z" fill="#22272E"/>
<path d="M503.6 184.9C503.738 184.95 503.884 184.971 504.03 184.962C504.176 184.954 504.319 184.916 504.45 184.85C504.581 184.785 504.697 184.693 504.792 184.582C504.886 184.47 504.957 184.34 505 184.2C505.128 183.892 505.177 183.556 505.142 183.225C505.107 182.893 504.989 182.575 504.8 182.3C504.3 181.6 500.2 182.1 499.5 184C499 185.3 501.6 184.2 502.5 184.5C502.889 184.56 503.263 184.696 503.6 184.9Z" fill="#22272E"/>
<path d="M502.6 191.3C502.629 191.089 502.616 190.875 502.561 190.67C502.506 190.464 502.411 190.272 502.28 190.104C502.15 189.936 501.987 189.796 501.801 189.693C501.616 189.589 501.411 189.523 501.2 189.5V189.5C500.989 189.471 500.775 189.484 500.57 189.539C500.364 189.594 500.172 189.689 500.004 189.82C499.836 189.95 499.696 190.113 499.593 190.299C499.489 190.484 499.423 190.689 499.4 190.9V191.3L502.6 191.7V191.3Z" fill="#22272E"/>
<path d="M518.1 193.2C518.153 192.776 518.035 192.348 517.773 192.01C517.51 191.673 517.124 191.453 516.7 191.4C516.276 191.347 515.848 191.465 515.51 191.727C515.173 191.99 514.953 192.376 514.9 192.8V193.1L518.1 193.5V193.2Z" fill="#22272E"/>
<path d="M537.6 197.1C537.33 196.926 537.021 196.822 536.7 196.8C536.5 196.8 536.4 197 536.2 197.1L536.1 197.2V198.3C536.163 199.068 536.129 199.841 536 200.6C535.867 201.075 535.587 201.495 535.2 201.8C535.012 201.928 534.797 202.012 534.573 202.047C534.348 202.081 534.118 202.065 533.9 202C534.2 201.7 534.5 201.5 534.5 201.2C534.6 200.943 534.6 200.657 534.5 200.4C534.4 199.9 534.3 199.2 534.2 198.4C534.187 197.964 534.221 197.529 534.3 197.1C534.413 196.824 534.547 196.556 534.7 196.3C534.814 196.176 534.949 196.075 535.1 196L535.4 195.8C535.631 195.677 535.888 195.612 536.15 195.612C536.412 195.612 536.669 195.677 536.9 195.8C537.116 195.941 537.293 196.134 537.415 196.361C537.537 196.588 537.601 196.842 537.6 197.1V197.1Z" fill="#22272E"/>
<path d="M503.213 192.671C503.673 188.332 501.33 184.527 497.98 184.172C494.63 183.817 491.541 187.046 491.081 191.385C490.621 195.724 492.964 199.529 496.315 199.884C499.665 200.239 502.753 197.01 503.213 192.671Z" stroke="#22272E" stroke-width="1.8" stroke-linecap="round" stroke-linejoin="round"/>
<path d="M525.216 194.395C525.676 190.057 522.932 186.209 519.088 185.802C515.243 185.394 511.754 188.581 511.294 192.92C510.834 197.259 513.578 201.106 517.422 201.514C521.267 201.921 524.756 198.734 525.216 194.395Z" stroke="#22272E" stroke-width="1.8" stroke-linecap="round" stroke-linejoin="round"/>
<path d="M503.3 191.6C503.3 191.6 505.3 190 511.4 192.5" stroke="#22272E" stroke-width="1.8" stroke-linecap="round" stroke-linejoin="round"/>
<path d="M525.2 193.7L532.3 194.7" stroke="#22272E" stroke-width="1.8" stroke-linecap="round" stroke-linejoin="round"/>
<path d="M418.4 352.8C417.2 352.8 422.4 340.6 427.7 342.3C433 344 425.1 352.8 418.4 352.8Z" fill="#6DAFA7"/>
<path d="M419 354.4C419 354.4 413.2 347.2 407.5 348.8C401.8 350.4 408.9 358.7 419 354.4Z" fill="#6DAFA7"/>
<path d="M417.3 347.2C417.3 347.2 425.9 332.4 422.2 328.9C415.8 322.6 407.7 341.2 417.3 347.2Z" fill="#6DAFA7"/>
<path d="M431.7 380.8L419.1 383.6C417.392 383.974 415.608 383.738 414.056 382.935C412.503 382.131 411.281 380.81 410.6 379.2L404.9 365.4C404.642 364.773 404.524 364.097 404.555 363.42C404.586 362.743 404.766 362.081 405.08 361.48C405.395 360.88 405.837 360.355 406.376 359.944C406.915 359.533 407.538 359.245 408.2 359.1L431 354C431.662 353.858 432.347 353.86 433.009 354.006C433.67 354.152 434.292 354.439 434.833 354.847C435.374 355.255 435.82 355.774 436.143 356.37C436.465 356.966 436.655 357.624 436.7 358.3L437.4 373.2C437.503 374.936 436.987 376.653 435.943 378.045C434.899 379.436 433.396 380.413 431.7 380.8V380.8Z" fill="#22272E"/>
<path d="M419.8 357.5C419.8 357.5 415.8 345.4 417.3 339.7" stroke="black" stroke-width="1.8" stroke-linecap="round" stroke-linejoin="round"/>
</g>
<defs>
<clipPath id="clip0_2_791">
<rect width="1024" height="768" fill="white"/>
</clipPath>
</defs>
</svg>
